999
FreeCAD v0.20 24910 (Git)
  0
SECTION
  2
HEADER
  9
$ACADVER
  1
AC1014
  9
$ACADMAINTVER
 70
     9
  9
$DWGCODEPAGE
  3
ANSI_1252
  9
$TEXTSTYLE
  7
STANDARD
  9
$DIMSTYLE
  2
STANDARD
  9
$DIMTXSTY
  7
STANDARD
  9
$CMLSTYLE
  2
STANDARD
  9
$PEXTMAX
 10
50
 20
50
 30
50
  9
$PEXTMIN
 10
0
 20
0
 30
0
  9
$HANDSEED
  5
FFFF
  0
ENDSEC
  0
SECTION
  2
CLASSES
  0
CLASS
  1
ACDBDICTIONARYWDFLT
  2
AcDbDictionaryWithDefault
  3
ObjectDBX Classes
 90
        0
280
     0
281
     0
  0
CLASS
  1
XRECORD
  2
AcDbXrecord
  3
ObjectDBX Classes
 90
        0
280
     0
281
     0
  0
CLASS
  1
LWPOLYLINE
  2
AcDbPolyline
  3
ObjectDBX Classes
 90
        0
280
     0
281
     1
  0
ENDSEC
  0
SECTION
  2
TABLES
  0
TABLE
  2
VPORT
  5
20
330
0
100
AcDbSymbolTable
 70
     1
  0
VPORT
  5
21
330
20
100
AcDbSymbolTableRecord
100
AcDbViewportTableRecord
  2
*ACTIVE
 70
     0
  0
ENDTAB
  0
TABLE
  2
LTYPE
  5
22
330
0
100
AcDbSymbolTable
 70
     1
  0
LTYPE
  5
23
330
21
100
AcDbSymbolTableRecord
100
AcDbLinetypeTableRecord
  2
BYBLOCK
 70
     0
  3

 72
    65
 73
     0
 40
0.0
  0
LTYPE
  5
24
330
21
100
AcDbSymbolTableRecord
100
AcDbLinetypeTableRecord
  2
BYLAYER
 70
     0
  3

 72
    65
 73
     0
 40
0.0
  0
LTYPE
  5
25
330
21
100
AcDbSymbolTableRecord
100
AcDbLinetypeTableRecord
  2
CONTINUOUS
 70
     0
  3
Solid line
 72
    65
 73
     0
 40
0.0
  0
ENDTAB
  0
TABLE
  2
LAYER
  5
C82
330
0
100
AcDbSymbolTable
 70
3
  0
LAYER
  5
C83
330
C82
100
AcDbSymbolTableRecord
100
AcDbLayerTableRecord
  2
0
 70
   0
 62
   7
  6
CONTINUOUS
  0
LAYER
  5
C84
330
C82
100
AcDbSymbolTableRecord
100
AcDbLayerTableRecord
  2
View001
 70
    0
 62
    7
  6
CONTINUOUS
  0
LAYER
  5
C85
330
C82
100
AcDbSymbolTableRecord
100
AcDbLayerTableRecord
  2
View002
 70
    0
 62
    7
  6
CONTINUOUS
  0
ENDTAB
  0
TABLE
  2
STYLE
  5
70
330
0
100
AcDbSymbolTable
 70
     2
  0
STYLE
  5
71
330
70
100
AcDbSymbolTableRecord
100
AcDbTextStyleTableRecord
  2
STANDARD
 70
     0
 40
0.0
 41
1.0
 50
0.0
 71
     0
 42
2.5
  3
arial.ttf
  4

  0
STYLE
  5
72
330
70
100
AcDbSymbolTableRecord
100
AcDbTextStyleTableRecord
  2
ANNOTATIVE
 70
     0
 40
0.0
 41
1.0
 50
0.0
 71
     0
 42
2.5
  3
arial.ttf
  4

  0
ENDTAB
  0
TABLE
  2
VIEW
  5
73
330
0
100
AcDbSymbolTable
 70
     0
  0
ENDTAB
  0
TABLE
  2
UCS
  5
74
330
0
100
AcDbSymbolTable
 70
     0
  0
ENDTAB
  0
TABLE
  2
APPID
  5
75
330
0
100
AcDbSymbolTable
 70
     2
  0
APPID
  5
76
330
75
100
AcDbSymbolTableRecord
100
AcDbRegAppTableRecord
  2
ACAD
 70
     0
  0
APPID
  5
77
330
75
100
AcDbSymbolTableRecord
100
AcDbRegAppTableRecord
  2
ACADANNOTATIVE
 70
     0
  0
ENDTAB
  0
TABLE
  2
DIMSTYLE
  5
78
330
0
100
AcDbSymbolTable
 70
     2
  0
DIMSTYLE
105
79
330
78
100
AcDbSymbolTableRecord
100
AcDbDimStyleTableRecord
  2
STANDARD
 70
     0
  3

  4

  5

  6

  7

 40
0.0
 41
2.5
 42
0.625
 43
3.75
 44
1.25
 45
0.0
 46
0.0
 47
0.0
 48
0.0
140
2.5
141
2.5
142
0.0
143
0.03937007874016
144
1.0
145
0.0
146
1.0
147
0.625
 71
     0
 72
     0
 73
     0
 74
     0
 75
     0
 76
     0
 77
     1
 78
     8
170
     0
171
     3
172
     1
173
     0
174
     0
175
     0
176
     0
177
     0
178
     0
270
     2
271
     2
272
     2
273
     2
274
     3
340
71
275
     0
280
     0
281
     0
282
     0
283
     0
284
     8
285
     0
286
     0
287
     3
288
     0
  0
ENDTAB
  0
TABLE
  2
BLOCK_RECORD
  5
A01
330
0
100
AcDbSymbolTable
  70
5
  0
BLOCK_RECORD
  5
A02
330
A01
100
AcDbSymbolTableRecord
100
AcDbBlockTableRecord
  2
*MODEL_SPACE
  0
BLOCK_RECORD
  5
A03
330
A01
100
AcDbSymbolTableRecord
100
AcDbBlockTableRecord
  2
*PAPER_SPACE
  0
ENDTAB
  0
ENDSEC
  0
SECTION
  2
BLOCKS
  0
BLOCK
  5
A04
330
A02
100
AcDbEntity
  8
0
100
AcDbBlockBegin
  2
*MODEL_SPACE
 70
   0
 10
0
 20
0
 30
0
  3
*MODEL_SPACE
  1
 
  0
ENDBLK
  5
A05
330
A02
100
AcDbEntity
  8
0
100
AcDbBlockEnd
  0
BLOCK
  5
A06
330
A03
100
AcDbEntity
 67
1
  8
0
100
AcDbBlockBegin
  2
*PAPER_SPACE
 70
   0
 10
0
 20
0
 30
0
  3
*PAPER_SPACE
  1
 
  0
ENDBLK
  5
A07
330
A03
100
AcDbEntity
 67
    1
  8
0
100
AcDbBlockEnd
  0
ENDSEC
  0
SECTION
  2
ENTITIES
  0
ARC
  5
A08
330
A02
100
AcDbEntity
  8
View001
100
AcDbCircle
 10
83.2404
 20
92.5167
 30
0
 40
26
100
AcDbArc
 50
120
 51
180
  0
ARC
  5
A09
330
A02
100
AcDbEntity
  8
View001
100
AcDbCircle
 10
44.2404
 20
70
 30
0
 40
26
100
AcDbArc
 50
-2.06687e-12
 51
60
  0
ARC
  5
A0A
330
A02
100
AcDbEntity
  8
View001
100
AcDbCircle
 10
96.2404
 20
70
 30
0
 40
26
100
AcDbArc
 50
120
 51
180
  0
ARC
  5
A0B
330
A02
100
AcDbEntity
  8
View001
100
AcDbCircle
 10
57.2404
 20
92.5167
 30
0
 40
26
100
AcDbArc
 50
0
 51
60
  0
ARC
  5
A0C
330
A02
100
AcDbEntity
  8
View001
100
AcDbCircle
 10
57.2404
 20
92.5167
 30
0
 40
26
100
AcDbArc
 50
180
 51
-120
  0
ARC
  5
A0D
330
A02
100
AcDbEntity
  8
View001
100
AcDbCircle
 10
57.2404
 20
47.4833
 30
0
 40
26
100
AcDbArc
 50
60
 51
120
  0
ARC
  5
A0E
330
A02
100
AcDbEntity
  8
View001
100
AcDbCircle
 10
83.2404
 20
92.5167
 30
0
 40
26
100
AcDbArc
 50
180
 51
-120
  0
ARC
  5
A0F
330
A02
100
AcDbEntity
  8
View001
100
AcDbCircle
 10
44.2404
 20
70
 30
0
 40
26
100
AcDbArc
 50
60
 51
120
  0
ARC
  5
A10
330
A02
100
AcDbEntity
  8
View001
100
AcDbCircle
 10
44.2404
 20
70
 30
0
 40
26
100
AcDbArc
 50
-120
 51
-60
  0
ARC
  5
A11
330
A02
100
AcDbEntity
  8
View001
100
AcDbCircle
 10
83.2404
 20
47.4833
 30
0
 40
26
100
AcDbArc
 50
120
 51
180
  0
ARC
  5
A12
330
A02
100
AcDbEntity
  8
View001
100
AcDbCircle
 10
57.2404
 20
92.5167
 30
0
 40
26
100
AcDbArc
 50
-120
 51
-60
  0
ARC
  5
A13
330
A02
100
AcDbEntity
  8
View001
100
AcDbCircle
 10
57.2404
 20
47.4833
 30
0
 40
26
100
AcDbArc
 50
120
 51
180
  0
ARC
  5
A14
330
A02
100
AcDbEntity
  8
View001
100
AcDbCircle
 10
57.2404
 20
47.4833
 30
0
 40
26
100
AcDbArc
 50
-60
 51
-3.13162e-14
  0
ARC
  5
A15
330
A02
100
AcDbEntity
  8
View001
100
AcDbCircle
 10
96.2404
 20
70
 30
0
 40
26
100
AcDbArc
 50
180
 51
-120
  0
ARC
  5
A16
330
A02
100
AcDbEntity
  8
View001
100
AcDbCircle
 10
44.2404
 20
70
 30
0
 40
26
100
AcDbArc
 50
-60
 51
-1.22133e-12
  0
ARC
  5
A17
330
A02
100
AcDbEntity
  8
View001
100
AcDbCircle
 10
83.2404
 20
47.4833
 30
0
 40
26
100
AcDbArc
 50
180
 51
-120
  0
ARC
  5
A18
330
A02
100
AcDbEntity
  8
View001
100
AcDbCircle
 10
83.2404
 20
47.4833
 30
0
 40
26
100
AcDbArc
 50
-1.84766e-12
 51
60
  0
ARC
  5
A19
330
A02
100
AcDbEntity
  8
View001
100
AcDbCircle
 10
83.2404
 20
92.5167
 30
0
 40
26
100
AcDbArc
 50
-120
 51
-60
  0
ARC
  5
A1A
330
A02
100
AcDbEntity
  8
View001
100
AcDbCircle
 10
57.2404
 20
47.4833
 30
0
 40
26
100
AcDbArc
 50
-4.30598e-12
 51
60
  0
ARC
  5
A1B
330
A02
100
AcDbEntity
  8
View001
100
AcDbCircle
 10
96.2404
 20
70
 30
0
 40
26
100
AcDbArc
 50
-120
 51
-60
  0
ARC
  5
A1C
330
A02
100
AcDbEntity
  8
View001
100
AcDbCircle
 10
96.2404
 20
70
 30
0
 40
26
100
AcDbArc
 50
60
 51
120
  0
ARC
  5
A1D
330
A02
100
AcDbEntity
  8
View001
100
AcDbCircle
 10
57.2404
 20
92.5167
 30
0
 40
26
100
AcDbArc
 50
-60
 51
-1.94161e-12
  0
ARC
  5
A1E
330
A02
100
AcDbEntity
  8
View001
100
AcDbCircle
 10
83.2404
 20
47.4833
 30
0
 40
26
100
AcDbArc
 50
60
 51
120
  0
ARC
  5
A1F
330
A02
100
AcDbEntity
  8
View001
100
AcDbCircle
 10
83.2404
 20
92.5167
 30
0
 40
26
100
AcDbArc
 50
-60
 51
-2.19214e-13
  0
ARC
  5
A20
330
A02
100
AcDbEntity
  8
View001
100
AcDbCircle
 10
70.2404
 20
115.033
 30
0
 40
26
100
AcDbArc
 50
-120
 51
-60
  0
ARC
  5
A21
330
A02
100
AcDbEntity
  8
View001
100
AcDbCircle
 10
31.2404
 20
92.5167
 30
0
 40
26
100
AcDbArc
 50
-60
 51
0
  0
ARC
  5
A22
330
A02
100
AcDbEntity
  8
View001
100
AcDbCircle
 10
31.2404
 20
47.4833
 30
0
 40
26
100
AcDbArc
 50
1.56581e-14
 51
60
  0
ARC
  5
A23
330
A02
100
AcDbEntity
  8
View001
100
AcDbCircle
 10
70.2404
 20
24.9667
 30
0
 40
26
100
AcDbArc
 50
60
 51
120
  0
ARC
  5
A24
330
A02
100
AcDbEntity
  8
View001
100
AcDbCircle
 10
109.24
 20
47.4833
 30
0
 40
26
100
AcDbArc
 50
120
 51
180
  0
ARC
  5
A25
330
A02
100
AcDbEntity
  8
View001
100
AcDbCircle
 10
109.24
 20
92.5167
 30
0
 40
26
100
AcDbArc
 50
-180
 51
-120
  0
SPLINE
  5
A26
330
A02
100
AcDbEntity
  8
View001
100
AcDbSpline
210
0
220
0
230
1
 70
9
 71
3
 72
77
 73
73
 74
0
 40
0
 40
0
 40
0
 40
0
 40
0.261799
 40
0.261799
 40
0.261799
 40
0.523599
 40
0.523599
 40
0.523599
 40
0.785398
 40
0.785398
 40
0.785398
 40
1.0472
 40
1.0472
 40
1.0472
 40
1.309
 40
1.309
 40
1.309
 40
1.5708
 40
1.5708
 40
1.5708
 40
1.8326
 40
1.8326
 40
1.8326
 40
2.0944
 40
2.0944
 40
2.0944
 40
2.35619
 40
2.35619
 40
2.35619
 40
2.61799
 40
2.61799
 40
2.61799
 40
2.87979
 40
2.87979
 40
2.87979
 40
3.14159
 40
3.14159
 40
3.14159
 40
3.40339
 40
3.40339
 40
3.40339
 40
3.66519
 40
3.66519
 40
3.66519
 40
3.92699
 40
3.92699
 40
3.92699
 40
4.18879
 40
4.18879
 40
4.18879
 40
4.45059
 40
4.45059
 40
4.45059
 40
4.71239
 40
4.71239
 40
4.71239
 40
4.97419
 40
4.97419
 40
4.97419
 40
5.23599
 40
5.23599
 40
5.23599
 40
5.49779
 40
5.49779
 40
5.49779
 40
5.75959
 40
5.75959
 40
5.75959
 40
6.02139
 40
6.02139
 40
6.02139
 40
6.28319
 40
6.28319
 40
6.28319
 40
6.28319
 10
130.24
 20
70
 30
0
 10
130.241
 20
74.3281
 30
0
 10
129.77
 20
78.9381
 30
0
 10
128.661
 20
83.6741
 30
0
 10
127.555
 20
88.4063
 30
0
 10
125.805
 20
93.2632
 30
0
 10
123.317
 20
97.9793
 30
0
 10
120.835
 20
102.694
 30
0
 10
117.611
 20
107.26
 30
0
 10
113.71
 20
111.357
 30
0
 10
109.814
 20
115.457
 30
0
 10
105.243
 20
119.077
 30
0
 10
100.24
 20
121.962
 30
0
 10
95.2412
 20
124.852
 30
0
 10
89.8201
 20
127
 30
0
 10
84.322
 20
128.324
 30
0
 10
78.8227
 20
129.654
 30
0
 10
73.2563
 20
130.163
 30
0
 10
67.9327
 20
129.956
 30
0
 10
62.6047
 20
129.752
 30
0
 10
57.5232
 20
128.839
 30
0
 10
52.872
 20
127.431
 30
0
 10
48.2161
 20
126.023
 30
0
 10
43.9884
 20
124.126
 30
0
 10
40.2404
 20
121.962
 30
0
 10
36.4919
 20
119.798
 30
0
 10
32.7349
 20
117.085
 30
0
 10
29.1877
 20
113.757
 30
0
 10
25.6426
 20
110.433
 30
0
 10
22.3117
 20
106.489
 30
0
 10
19.4711
 20
101.976
 30
0
 10
16.6295
 20
97.4698
 30
0
 10
14.2869
 20
92.3947
 30
0
 10
12.6894
 20
86.967
 30
0
 10
11.0867
 20
81.5437
 30
0
 10
10.2369
 20
75.7746
 30
0
 10
10.2404
 20
70
 30
0
 10
10.2369
 20
64.2254
 30
0
 10
11.0867
 20
58.4563
 30
0
 10
12.6894
 20
53.033
 30
0
 10
14.2869
 20
47.6053
 30
0
 10
16.6295
 20
42.5302
 30
0
 10
19.4711
 20
38.0237
 30
0
 10
22.3117
 20
33.5114
 30
0
 10
25.6426
 20
29.5669
 30
0
 10
29.1877
 20
26.2429
 30
0
 10
32.7349
 20
22.9147
 30
0
 10
36.4919
 20
20.2021
 30
0
 10
40.2404
 20
18.0385
 30
0
 10
43.9884
 20
15.874
 30
0
 10
48.2161
 20
13.9766
 30
0
 10
52.872
 20
12.5688
 30
0
 10
57.5232
 20
11.1606
 30
0
 10
62.6047
 20
10.2482
 30
0
 10
67.9327
 20
10.0444
 30
0
 10
73.2563
 20
9.83672
 30
0
 10
78.8227
 20
10.3455
 30
0
 10
84.322
 20
11.6758
 30
0
 10
89.8201
 20
12.9996
 30
0
 10
95.2412
 20
15.1482
 30
0
 10
100.24
 20
18.0385
 30
0
 10
105.243
 20
20.9228
 30
0
 10
109.814
 20
24.5432
 30
0
 10
113.71
 20
28.6429
 30
0
 10
117.611
 20
32.7402
 30
0
 10
120.835
 20
37.3065
 30
0
 10
123.317
 20
42.0207
 30
0
 10
125.805
 20
46.7368
 30
0
 10
127.555
 20
51.5937
 30
0
 10
128.661
 20
56.3259
 30
0
 10
129.77
 20
61.0619
 30
0
 10
130.241
 20
65.6719
 30
0
 10
130.24
 20
70
 30
0
  0
SPLINE
  5
A27
330
A02
100
AcDbEntity
  8
View002
100
AcDbSpline
210
0
220
0
230
1
 70
8
 71
3
 72
8
 73
4
 74
0
 40
0
 40
0
 40
0
 40
0
 40
1
 40
1
 40
1
 40
1
 10
117.024
 20
60.8071
 30
0
 10
116.461
 20
58.2632
 30
0
 10
116.935
 20
57.073
 30
0
 10
117.284
 20
55.4638
 30
0
  0
SPLINE
  5
A28
330
A02
100
AcDbEntity
  8
View002
100
AcDbSpline
210
0
220
0
230
1
 70
8
 71
3
 72
8
 73
4
 74
0
 40
0
 40
0
 40
0
 40
0
 40
1
 40
1
 40
1
 40
1
 10
117.024
 20
60.8071
 30
0
 10
117.603
 20
63.4287
 30
0
 10
119.608
 20
64.1972
 30
0
 10
121.478
 20
65.5528
 30
0
  0
SPLINE
  5
A29
330
A02
100
AcDbEntity
  8
View002
100
AcDbSpline
210
0
220
0
230
1
 70
8
 71
3
 72
8
 73
4
 74
0
 40
0
 40
0
 40
0
 40
0
 40
1
 40
1
 40
1
 40
1
 10
123.649
 20
68.1008
 30
0
 10
123.866
 20
68.6429
 30
0
 10
123.997
 20
69.271
 30
0
 10
124
 20
70
 30
0
  0
SPLINE
  5
A2A
330
A02
100
AcDbEntity
  8
View002
100
AcDbSpline
210
0
220
0
230
1
 70
8
 71
3
 72
8
 73
4
 74
0
 40
0
 40
0
 40
0
 40
0
 40
1
 40
1
 40
1
 40
1
 10
118
 20
70
 30
0
 10
118.025
 20
67.3805
 30
0
 10
118.743
 20
66.3346
 30
0
 10
119.429
 20
64.826
 30
0
  0
SPLINE
  5
A2B
330
A02
100
AcDbEntity
  8
View002
100
AcDbSpline
210
0
220
0
230
1
 70
8
 71
3
 72
8
 73
4
 74
0
 40
0
 40
0
 40
0
 40
0
 40
1
 40
1
 40
1
 40
1
 10
120.12
 20
61.8282
 30
0
 10
120.114
 20
61.332
 30
0
 10
120.055
 20
60.7794
 30
0
 10
119.918
 20
60.1631
 30
0
  0
SPLINE
  5
A2C
330
A02
100
AcDbEntity
  8
View002
100
AcDbSpline
210
0
220
0
230
1
 70
8
 71
3
 72
8
 73
4
 74
0
 40
0
 40
0
 40
0
 40
0
 40
1
 40
1
 40
1
 40
1
 10
122.074
 20
57.7625
 30
0
 10
122.397
 20
58.2405
 30
0
 10
122.655
 20
58.8181
 30
0
 10
122.812
 20
59.5191
 30
0
  0
SPLINE
  5
A2D
330
A02
100
AcDbEntity
  8
View002
100
AcDbSpline
210
0
220
0
230
1
 70
8
 71
3
 72
8
 73
4
 74
0
 40
0
 40
0
 40
0
 40
0
 40
1
 40
1
 40
1
 40
1
 10
122.812
 20
59.5191
 30
0
 10
123.49
 20
62.5584
 30
0
 10
122.837
 20
64.0978
 30
0
 10
122.249
 20
65.2555
 30
0
  0
SPLINE
  5
A2E
330
A02
100
AcDbEntity
  8
View002
100
AcDbSpline
210
0
220
0
230
1
 70
8
 71
3
 72
8
 73
4
 74
0
 40
0
 40
0
 40
0
 40
0
 40
1
 40
1
 40
1
 40
1
 10
122.249
 20
65.2555
 30
0
 10
121.593
 20
66.5481
 30
0
 10
121.006
 20
67.45
 30
0
 10
121
 20
70
 30
0
  0
SPLINE
  5
A2F
330
A02
100
AcDbEntity
  8
View002
100
AcDbSpline
210
0
220
0
230
1
 70
8
 71
3
 72
8
 73
4
 74
0
 40
0
 40
0
 40
0
 40
0
 40
1
 40
1
 40
1
 40
1
 10
117.988
 20
60.5924
 30
0
 10
118.528
 20
63.0289
 30
0
 10
120.178
 20
63.6385
 30
0
 10
121.912
 20
64.6962
 30
0
  0
SPLINE
  5
A30
330
A02
100
AcDbEntity
  8
View002
100
AcDbSpline
210
0
220
0
230
1
 70
8
 71
3
 72
8
 73
4
 74
0
 40
0
 40
0
 40
0
 40
0
 40
1
 40
1
 40
1
 40
1
 10
124.085
 20
66.6423
 30
0
 10
124.615
 20
67.4429
 30
0
 10
124.991
 20
68.5237
 30
0
 10
125
 20
70
 30
0
  0
SPLINE
  5
A31
330
A02
100
AcDbEntity
  8
View002
100
AcDbSpline
210
0
220
0
230
1
 70
8
 71
3
 72
8
 73
4
 74
0
 40
0
 40
0
 40
0
 40
0
 40
1
 40
1
 40
1
 40
1
 10
119
 20
70
 30
0
 10
119.016
 20
67.7081
 30
0
 10
119.54
 20
66.5819
 30
0
 10
120.14
 20
65.3019
 30
0
  0
SPLINE
  5
A32
330
A02
100
AcDbEntity
  8
View002
100
AcDbSpline
210
0
220
0
230
1
 70
8
 71
3
 72
8
 73
4
 74
0
 40
0
 40
0
 40
0
 40
0
 40
1
 40
1
 40
1
 40
1
 10
121.04
 20
62.6046
 30
0
 10
121.135
 20
61.8708
 30
0
 10
121.117
 20
61.0005
 30
0
 10
120.882
 20
59.9485
 30
0
  0
SPLINE
  5
A33
330
A02
100
AcDbEntity
  8
View002
100
AcDbSpline
210
0
220
0
230
1
 70
8
 71
3
 72
8
 73
4
 74
0
 40
0
 40
0
 40
0
 40
0
 40
1
 40
1
 40
1
 40
1
 10
123.776
 20
59.3045
 30
0
 10
124.469
 20
62.4028
 30
0
 10
123.82
 20
63.9731
 30
0
 10
123.236
 20
65.153
 30
0
  0
SPLINE
  5
A34
330
A02
100
AcDbEntity
  8
View002
100
AcDbSpline
210
0
220
0
230
1
 70
8
 71
3
 72
8
 73
4
 74
0
 40
0
 40
0
 40
0
 40
0
 40
1
 40
1
 40
1
 40
1
 10
123.236
 20
65.153
 30
0
 10
122.584
 20
66.4723
 30
0
 10
122
 20
67.3912
 30
0
 10
122
 20
70
 30
0
  0
SPLINE
  5
A35
330
A02
100
AcDbEntity
  8
View002
100
AcDbSpline
210
0
220
0
230
1
 70
8
 71
3
 72
8
 73
4
 74
0
 40
0
 40
0
 40
0
 40
0
 40
1
 40
1
 40
1
 40
1
 10
118.953
 20
60.3778
 30
0
 10
119.439
 20
62.5705
 30
0
 10
120.737
 20
63.1156
 30
0
 10
122.251
 20
63.8682
 30
0
  0
SPLINE
  5
A36
330
A02
100
AcDbEntity
  8
View002
100
AcDbSpline
210
0
220
0
230
1
 70
8
 71
3
 72
8
 73
4
 74
0
 40
0
 40
0
 40
0
 40
0
 40
1
 40
1
 40
1
 40
1
 10
124.607
 20
65.5384
 30
0
 10
125.366
 20
66.4259
 30
0
 10
125.982
 20
67.8095
 30
0
 10
126
 20
70
 30
0
  0
SPLINE
  5
A37
330
A02
100
AcDbEntity
  8
View002
100
AcDbSpline
210
0
220
0
230
1
 70
8
 71
3
 72
8
 73
4
 74
0
 40
0
 40
0
 40
0
 40
0
 40
1
 40
1
 40
1
 40
1
 10
120
 20
70
 30
0
 10
120.009
 20
68.0288
 30
0
 10
120.375
 20
66.8994
 30
0
 10
120.86
 20
65.7868
 30
0
  0
SPLINE
  5
A38
330
A02
100
AcDbEntity
  8
View002
100
AcDbSpline
210
0
220
0
230
1
 70
8
 71
3
 72
8
 73
4
 74
0
 40
0
 40
0
 40
0
 40
0
 40
1
 40
1
 40
1
 40
1
 10
121.906
 20
63.0787
 30
0
 10
122.104
 20
62.1995
 30
0
 10
122.157
 20
61.1227
 30
0
 10
121.847
 20
59.7338
 30
0
  0
SPLINE
  5
A39
330
A02
100
AcDbEntity
  8
View002
100
AcDbSpline
210
0
220
0
230
1
 70
8
 71
3
 72
8
 73
4
 74
0
 40
0
 40
0
 40
0
 40
0
 40
1
 40
1
 40
1
 40
1
 10
124.741
 20
59.0898
 30
0
 10
125.447
 20
62.2471
 30
0
 10
124.802
 20
63.8485
 30
0
 10
124.223
 20
65.0506
 30
0
  0
SPLINE
  5
A3A
330
A02
100
AcDbEntity
  8
View002
100
AcDbSpline
210
0
220
0
230
1
 70
8
 71
3
 72
8
 73
4
 74
0
 40
0
 40
0
 40
0
 40
0
 40
1
 40
1
 40
1
 40
1
 10
124.223
 20
65.0506
 30
0
 10
123.574
 20
66.3966
 30
0
 10
122.994
 20
67.3322
 30
0
 10
123
 20
70
 30
0
  0
SPLINE
  5
A3B
330
A02
100
AcDbEntity
  8
View002
100
AcDbSpline
210
0
220
0
230
1
 70
8
 71
3
 72
8
 73
4
 74
0
 40
0
 40
0
 40
0
 40
0
 40
1
 40
1
 40
1
 40
1
 10
114.089
 20
52.0033
 30
0
 10
115.195
 20
54.4662
 30
0
 10
117.389
 20
54.8438
 30
0
 10
119.433
 20
55.7477
 30
0
  0
SPLINE
  5
A3C
330
A02
100
AcDbEntity
  8
View002
100
AcDbSpline
210
0
220
0
230
1
 70
8
 71
3
 72
8
 73
4
 74
0
 40
0
 40
0
 40
0
 40
0
 40
1
 40
1
 40
1
 40
1
 10
117.337
 20
52.386
 30
0
 10
117.23
 20
51.9005
 30
0
 10
117.059
 20
51.3704
 30
0
 10
116.8
 20
50.7922
 30
0
  0
SPLINE
  5
A3D
330
A02
100
AcDbEntity
  8
View002
100
AcDbSpline
210
0
220
0
230
1
 70
8
 71
3
 72
8
 73
4
 74
0
 40
0
 40
0
 40
0
 40
0
 40
1
 40
1
 40
1
 40
1
 10
119.511
 20
49.5811
 30
0
 10
120.776
 20
52.4197
 30
0
 10
120.455
 20
54.0454
 30
0
 10
120.122
 20
55.2974
 30
0
  0
SPLINE
  5
A3E
330
A02
100
AcDbEntity
  8
View002
100
AcDbSpline
210
0
220
0
230
1
 70
8
 71
3
 72
8
 73
4
 74
0
 40
0
 40
0
 40
0
 40
0
 40
1
 40
1
 40
1
 40
1
 10
120.122
 20
55.2974
 30
0
 10
119.753
 20
56.686
 30
0
 10
119.37
 20
57.7002
 30
0
 10
119.918
 20
60.1631
 30
0
  0
SPLINE
  5
A3F
330
A02
100
AcDbEntity
  8
View002
100
AcDbSpline
210
0
220
0
230
1
 70
8
 71
3
 72
8
 73
4
 74
0
 40
0
 40
0
 40
0
 40
0
 40
1
 40
1
 40
1
 40
1
 10
114.993
 20
51.5996
 30
0
 10
116.019
 20
53.8888
 30
0
 10
117.775
 20
54.1539
 30
0
 10
119.678
 20
54.823
 30
0
  0
SPLINE
  5
A40
330
A02
100
AcDbEntity
  8
View002
100
AcDbSpline
210
0
220
0
230
1
 70
8
 71
3
 72
8
 73
4
 74
0
 40
0
 40
0
 40
0
 40
0
 40
1
 40
1
 40
1
 40
1
 10
122.194
 20
56.2592
 30
0
 10
122.874
 20
56.9237
 30
0
 10
123.46
 20
57.8867
 30
0
 10
123.776
 20
59.3045
 30
0
  0
SPLINE
  5
A41
330
A02
100
AcDbEntity
  8
View002
100
AcDbSpline
210
0
220
0
230
1
 70
8
 71
3
 72
8
 73
4
 74
0
 40
0
 40
0
 40
0
 40
0
 40
1
 40
1
 40
1
 40
1
 10
117.988
 20
60.5924
 30
0
 10
117.496
 20
58.3696
 30
0
 10
117.764
 20
57.1516
 30
0
 10
118.078
 20
55.7814
 30
0
  0
SPLINE
  5
A42
330
A02
100
AcDbEntity
  8
View002
100
AcDbSpline
210
0
220
0
230
1
 70
8
 71
3
 72
8
 73
4
 74
0
 40
0
 40
0
 40
0
 40
0
 40
1
 40
1
 40
1
 40
1
 10
118.396
 20
52.9597
 30
0
 10
118.339
 20
52.2222
 30
0
 10
118.144
 20
51.3741
 30
0
 10
117.704
 20
50.3885
 30
0
  0
SPLINE
  5
A43
330
A02
100
AcDbEntity
  8
View002
100
AcDbSpline
210
0
220
0
230
1
 70
8
 71
3
 72
8
 73
4
 74
0
 40
0
 40
0
 40
0
 40
0
 40
1
 40
1
 40
1
 40
1
 10
120.415
 20
49.1774
 30
0
 10
121.701
 20
52.0674
 30
0
 10
121.388
 20
53.7208
 30
0
 10
121.062
 20
54.9921
 30
0
  0
SPLINE
  5
A44
330
A02
100
AcDbEntity
  8
View002
100
AcDbSpline
210
0
220
0
230
1
 70
8
 71
3
 72
8
 73
4
 74
0
 40
0
 40
0
 40
0
 40
0
 40
1
 40
1
 40
1
 40
1
 10
121.062
 20
54.9921
 30
0
 10
120.7
 20
56.4045
 30
0
 10
120.323
 20
57.4332
 30
0
 10
120.882
 20
59.9485
 30
0
  0
SPLINE
  5
A45
330
A02
100
AcDbEntity
  8
View002
100
AcDbSpline
210
0
220
0
230
1
 70
8
 71
3
 72
8
 73
4
 74
0
 40
0
 40
0
 40
0
 40
0
 40
1
 40
1
 40
1
 40
1
 10
115.896
 20
51.1959
 30
0
 10
116.816
 20
53.2501
 30
0
 10
118.243
 20
53.5336
 30
0
 10
119.838
 20
53.9457
 30
0
  0
SPLINE
  5
A46
330
A02
100
AcDbEntity
  8
View002
100
AcDbSpline
210
0
220
0
230
1
 70
8
 71
3
 72
8
 73
4
 74
0
 40
0
 40
0
 40
0
 40
0
 40
1
 40
1
 40
1
 40
1
 10
122.475
 20
55.08
 30
0
 10
123.396
 20
55.783
 30
0
 10
124.271
 20
56.9886
 30
0
 10
124.741
 20
59.0898
 30
0
  0
SPLINE
  5
A47
330
A02
100
AcDbEntity
  8
View002
100
AcDbSpline
210
0
220
0
230
1
 70
8
 71
3
 72
8
 73
4
 74
0
 40
0
 40
0
 40
0
 40
0
 40
1
 40
1
 40
1
 40
1
 10
118.953
 20
60.3778
 30
0
 10
118.53
 20
58.4693
 30
0
 10
118.643
 20
57.2875
 30
0
 10
118.881
 20
56.1044
 30
0
  0
SPLINE
  5
A48
330
A02
100
AcDbEntity
  8
View002
100
AcDbSpline
210
0
220
0
230
1
 70
8
 71
3
 72
8
 73
4
 74
0
 40
0
 40
0
 40
0
 40
0
 40
1
 40
1
 40
1
 40
1
 10
119.34
 20
53.246
 30
0
 10
119.353
 20
52.3466
 30
0
 10
119.187
 20
51.2841
 30
0
 10
118.608
 20
49.9848
 30
0
  0
SPLINE
  5
A49
330
A02
100
AcDbEntity
  8
View002
100
AcDbSpline
210
0
220
0
230
1
 70
8
 71
3
 72
8
 73
4
 74
0
 40
0
 40
0
 40
0
 40
0
 40
1
 40
1
 40
1
 40
1
 10
118.317
 20
45.294
 30
0
 10
119.36
 20
45.8057
 30
0
 10
120.447
 20
46.8145
 30
0
 10
121.319
 20
48.7738
 30
0
  0
SPLINE
  5
A4A
330
A02
100
AcDbEntity
  8
View002
100
AcDbSpline
210
0
220
0
230
1
 70
8
 71
3
 72
8
 73
4
 74
0
 40
0
 40
0
 40
0
 40
0
 40
1
 40
1
 40
1
 40
1
 10
121.319
 20
48.7738
 30
0
 10
122.627
 20
51.7151
 30
0
 10
122.321
 20
53.3962
 30
0
 10
122.002
 20
54.6869
 30
0
  0
SPLINE
  5
A4B
330
A02
100
AcDbEntity
  8
View002
100
AcDbSpline
210
0
220
0
230
1
 70
8
 71
3
 72
8
 73
4
 74
0
 40
0
 40
0
 40
0
 40
0
 40
1
 40
1
 40
1
 40
1
 10
122.002
 20
54.6869
 30
0
 10
121.646
 20
56.123
 30
0
 10
121.275
 20
57.1661
 30
0
 10
121.847
 20
59.7338
 30
0
  0
SPLINE
  5
A4C
330
A02
100
AcDbEntity
  8
View002
100
AcDbSpline
210
0
220
0
230
1
 70
8
 71
3
 72
8
 73
4
 74
0
 40
0
 40
0
 40
0
 40
0
 40
1
 40
1
 40
1
 40
1
 10
109.457
 20
43.8503
 30
0
 10
111.016
 20
46.0873
 30
0
 10
113.261
 20
46.0465
 30
0
 10
115.451
 20
46.5417
 30
0
  0
SPLINE
  5
A4D
330
A02
100
AcDbEntity
  8
View002
100
AcDbSpline
210
0
220
0
230
1
 70
8
 71
3
 72
8
 73
4
 74
0
 40
0
 40
0
 40
0
 40
0
 40
1
 40
1
 40
1
 40
1
 10
118.442
 20
48.0063
 30
0
 10
118.853
 20
48.4115
 30
0
 10
119.219
 20
48.9261
 30
0
 10
119.511
 20
49.5811
 30
0
  0
SPLINE
  5
A4E
330
A02
100
AcDbEntity
  8
View002
100
AcDbSpline
210
0
220
0
230
1
 70
8
 71
3
 72
8
 73
4
 74
0
 40
0
 40
0
 40
0
 40
0
 40
1
 40
1
 40
1
 40
1
 10
114.089
 20
52.0033
 30
0
 10
113.015
 20
49.611
 30
0
 10
113.246
 20
48.3237
 30
0
 10
113.277
 20
46.6753
 30
0
  0
SPLINE
  5
A4F
330
A02
100
AcDbEntity
  8
View002
100
AcDbSpline
210
0
220
0
230
1
 70
8
 71
3
 72
8
 73
4
 74
0
 40
0
 40
0
 40
0
 40
0
 40
1
 40
1
 40
1
 40
1
 10
112.739
 20
43.6237
 30
0
 10
112.541
 20
43.164
 30
0
 10
112.272
 20
42.6723
 30
0
 10
111.909
 20
42.1489
 30
0
  0
SPLINE
  5
A50
330
A02
100
AcDbEntity
  8
View002
100
AcDbSpline
210
0
220
0
230
1
 70
8
 71
3
 72
8
 73
4
 74
0
 40
0
 40
0
 40
0
 40
0
 40
1
 40
1
 40
1
 40
1
 10
114.36
 20
40.4476
 30
0
 10
116.135
 20
43.0098
 30
0
 10
116.129
 20
44.6642
 30
0
 10
116.043
 20
45.9647
 30
0
  0
SPLINE
  5
A51
330
A02
100
AcDbEntity
  8
View002
100
AcDbSpline
210
0
220
0
230
1
 70
8
 71
3
 72
8
 73
4
 74
0
 40
0
 40
0
 40
0
 40
0
 40
1
 40
1
 40
1
 40
1
 10
116.043
 20
45.9647
 30
0
 10
115.947
 20
47.3973
 30
0
 10
115.768
 20
48.4852
 30
0
 10
116.8
 20
50.7922
 30
0
  0
SPLINE
  5
A52
330
A02
100
AcDbEntity
  8
View002
100
AcDbSpline
210
0
220
0
230
1
 70
8
 71
3
 72
8
 73
4
 74
0
 40
0
 40
0
 40
0
 40
0
 40
1
 40
1
 40
1
 40
1
 10
110.275
 20
43.2832
 30
0
 10
111.72
 20
45.3593
 30
0
 10
113.512
 20
45.2909
 30
0
 10
115.513
 20
45.5832
 30
0
  0
SPLINE
  5
A53
330
A02
100
AcDbEntity
  8
View002
100
AcDbSpline
210
0
220
0
230
1
 70
8
 71
3
 72
8
 73
4
 74
0
 40
0
 40
0
 40
0
 40
0
 40
1
 40
1
 40
1
 40
1
 10
118.268
 20
46.5069
 30
0
 10
119.066
 20
47.0264
 30
0
 10
119.826
 20
47.8541
 30
0
 10
120.415
 20
49.1774
 30
0
  0
SPLINE
  5
A54
330
A02
100
AcDbEntity
  8
View002
100
AcDbSpline
210
0
220
0
230
1
 70
8
 71
3
 72
8
 73
4
 74
0
 40
0
 40
0
 40
0
 40
0
 40
1
 40
1
 40
1
 40
1
 10
114.993
 20
51.5996
 30
0
 10
114.056
 20
49.5106
 30
0
 10
114.079
 20
48.2449
 30
0
 10
114.121
 20
46.8366
 30
0
  0
SPLINE
  5
A55
330
A02
100
AcDbEntity
  8
View002
100
AcDbSpline
210
0
220
0
230
1
 70
8
 71
3
 72
8
 73
4
 74
0
 40
0
 40
0
 40
0
 40
0
 40
1
 40
1
 40
1
 40
1
 10
113.893
 20
43.9904
 30
0
 10
113.696
 20
43.273
 30
0
 10
113.344
 20
42.4731
 30
0
 10
112.726
 20
41.5818
 30
0
  0
SPLINE
  5
A56
330
A02
100
AcDbEntity
  8
View002
100
AcDbSpline
210
0
220
0
230
1
 70
8
 71
3
 72
8
 73
4
 74
0
 40
0
 40
0
 40
0
 40
0
 40
1
 40
1
 40
1
 40
1
 10
115.177
 20
39.8804
 30
0
 10
116.981
 20
42.4864
 30
0
 10
116.987
 20
44.1652
 30
0
 10
116.91
 20
45.4823
 30
0
  0
SPLINE
  5
A57
330
A02
100
AcDbEntity
  8
View002
100
AcDbSpline
210
0
220
0
230
1
 70
8
 71
3
 72
8
 73
4
 74
0
 40
0
 40
0
 40
0
 40
0
 40
1
 40
1
 40
1
 40
1
 10
116.91
 20
45.4823
 30
0
 10
116.824
 20
46.9355
 30
0
 10
116.653
 20
48.0356
 30
0
 10
117.704
 20
50.3885
 30
0
  0
SPLINE
  5
A58
330
A02
100
AcDbEntity
  8
View002
100
AcDbSpline
210
0
220
0
230
1
 70
8
 71
3
 72
8
 73
4
 74
0
 40
0
 40
0
 40
0
 40
0
 40
1
 40
1
 40
1
 40
1
 10
111.092
 20
42.7161
 30
0
 10
112.386
 20
44.5775
 30
0
 10
113.852
 20
44.5876
 30
0
 10
115.503
 20
44.688
 30
0
  0
SPLINE
  5
A59
330
A02
100
AcDbEntity
  8
View002
100
AcDbSpline
210
0
220
0
230
1
 70
8
 71
3
 72
8
 73
4
 74
0
 40
0
 40
0
 40
0
 40
0
 40
1
 40
1
 40
1
 40
1
 10
115.896
 20
51.1959
 30
0
 10
115.094
 20
49.4043
 30
0
 10
114.973
 20
48.2101
 30
0
 10
114.976
 20
47.0002
 30
0
  0
SPLINE
  5
A5A
330
A02
100
AcDbEntity
  8
View002
100
AcDbSpline
210
0
220
0
230
1
 70
8
 71
3
 72
8
 73
4
 74
0
 40
0
 40
0
 40
0
 40
0
 40
1
 40
1
 40
1
 40
1
 10
114.878
 20
44.0934
 30
0
 10
114.72
 20
43.2037
 30
0
 10
114.357
 20
42.1884
 30
0
 10
113.543
 20
41.0147
 30
0
  0
SPLINE
  5
A5B
330
A02
100
AcDbEntity
  8
View002
100
AcDbSpline
210
0
220
0
230
1
 70
8
 71
3
 72
8
 73
4
 74
0
 40
0
 40
0
 40
0
 40
0
 40
1
 40
1
 40
1
 40
1
 10
115.994
 20
39.3133
 30
0
 10
117.827
 20
41.9631
 30
0
 10
117.845
 20
43.6662
 30
0
 10
117.776
 20
44.9998
 30
0
  0
SPLINE
  5
A5C
330
A02
100
AcDbEntity
  8
View002
100
AcDbSpline
210
0
220
0
230
1
 70
8
 71
3
 72
8
 73
4
 74
0
 40
0
 40
0
 40
0
 40
0
 40
1
 40
1
 40
1
 40
1
 10
117.776
 20
44.9998
 30
0
 10
117.701
 20
46.4739
 30
0
 10
117.537
 20
47.586
 30
0
 10
118.608
 20
49.9848
 30
0
  0
SPLINE
  5
A5D
330
A02
100
AcDbEntity
  8
View002
100
AcDbSpline
210
0
220
0
230
1
 70
8
 71
3
 72
8
 73
4
 74
0
 40
0
 40
0
 40
0
 40
0
 40
1
 40
1
 40
1
 40
1
 10
103.39
 20
36.6095
 30
0
 10
105.326
 20
38.5451
 30
0
 10
107.54
 20
38.1054
 30
0
 10
109.792
 20
38.1964
 30
0
  0
SPLINE
  5
A5E
330
A02
100
AcDbEntity
  8
View002
100
AcDbSpline
210
0
220
0
230
1
 70
8
 71
3
 72
8
 73
4
 74
0
 40
0
 40
0
 40
0
 40
0
 40
1
 40
1
 40
1
 40
1
 10
113.014
 20
39.0936
 30
0
 10
113.494
 20
39.4172
 30
0
 10
113.951
 20
39.8565
 30
0
 10
114.36
 20
40.4476
 30
0
  0
SPLINE
  5
A5F
330
A02
100
AcDbEntity
  8
View002
100
AcDbSpline
210
0
220
0
230
1
 70
8
 71
3
 72
8
 73
4
 74
0
 40
0
 40
0
 40
0
 40
0
 40
1
 40
1
 40
1
 40
1
 10
109.457
 20
43.8503
 30
0
 10
107.947
 20
41.682
 30
0
 10
107.937
 20
40.352
 30
0
 10
107.669
 20
38.7222
 30
0
  0
SPLINE
  5
A60
330
A02
100
AcDbEntity
  8
View002
100
AcDbSpline
210
0
220
0
230
1
 70
8
 71
3
 72
8
 73
4
 74
0
 40
0
 40
0
 40
0
 40
0
 40
1
 40
1
 40
1
 40
1
 10
106.587
 20
35.8026
 30
0
 10
106.31
 20
35.384
 30
0
 10
105.957
 20
34.9466
 30
0
 10
105.505
 20
34.4947
 30
0
  0
SPLINE
  5
A61
330
A02
100
AcDbEntity
  8
View002
100
AcDbSpline
210
0
220
0
230
1
 70
8
 71
3
 72
8
 73
4
 74
0
 40
0
 40
0
 40
0
 40
0
 40
1
 40
1
 40
1
 40
1
 10
107.62
 20
32.38
 30
0
 10
109.828
 20
34.5883
 30
0
 10
110.121
 20
36.2176
 30
0
 10
110.272
 20
37.519
 30
0
  0
SPLINE
  5
A62
330
A02
100
AcDbEntity
  8
View002
100
AcDbSpline
210
0
220
0
230
1
 70
8
 71
3
 72
8
 73
4
 74
0
 40
0
 40
0
 40
0
 40
0
 40
1
 40
1
 40
1
 40
1
 10
110.272
 20
37.519
 30
0
 10
110.437
 20
38.9461
 30
0
 10
110.46
 20
40.0639
 30
0
 10
111.909
 20
42.1489
 30
0
  0
SPLINE
  5
A63
330
A02
100
AcDbEntity
  8
View002
100
AcDbSpline
210
0
220
0
230
1
 70
8
 71
3
 72
8
 73
4
 74
0
 40
0
 40
0
 40
0
 40
0
 40
1
 40
1
 40
1
 40
1
 10
104.095
 20
35.9046
 30
0
 10
105.891
 20
37.7005
 30
0
 10
107.651
 20
37.3128
 30
0
 10
109.68
 20
37.2385
 30
0
  0
SPLINE
  5
A64
330
A02
100
AcDbEntity
  8
View002
100
AcDbSpline
210
0
220
0
230
1
 70
8
 71
3
 72
8
 73
4
 74
0
 40
0
 40
0
 40
0
 40
0
 40
1
 40
1
 40
1
 40
1
 10
112.568
 20
37.6469
 30
0
 10
113.451
 20
38.0125
 30
0
 10
114.351
 20
38.6874
 30
0
 10
115.177
 20
39.8805
 30
0
  0
SPLINE
  5
A65
330
A02
100
AcDbEntity
  8
View002
100
AcDbSpline
210
0
220
0
230
1
 70
8
 71
3
 72
8
 73
4
 74
0
 40
0
 40
0
 40
0
 40
0
 40
1
 40
1
 40
1
 40
1
 10
110.275
 20
43.2832
 30
0
 10
108.957
 20
41.3906
 30
0
 10
108.746
 20
40.1256
 30
0
 10
108.533
 20
38.7291
 30
0
  0
SPLINE
  5
A66
330
A02
100
AcDbEntity
  8
View002
100
AcDbSpline
210
0
220
0
230
1
 70
8
 71
3
 72
8
 73
4
 74
0
 40
0
 40
0
 40
0
 40
0
 40
1
 40
1
 40
1
 40
1
 10
107.792
 20
35.9581
 30
0
 10
107.469
 20
35.2851
 30
0
 10
106.979
 20
34.5588
 30
0
 10
106.21
 20
33.7898
 30
0
  0
SPLINE
  5
A67
330
A02
100
AcDbEntity
  8
View002
100
AcDbSpline
210
0
220
0
230
1
 70
8
 71
3
 72
8
 73
4
 74
0
 40
0
 40
0
 40
0
 40
0
 40
1
 40
1
 40
1
 40
1
 10
108.325
 20
31.675
 30
0
 10
110.57
 20
33.9196
 30
0
 10
110.878
 20
35.5698
 30
0
 10
111.04
 20
36.885
 30
0
  0
SPLINE
  5
A68
330
A02
100
AcDbEntity
  8
View002
100
AcDbSpline
210
0
220
0
230
1
 70
8
 71
3
 72
8
 73
4
 74
0
 40
0
 40
0
 40
0
 40
0
 40
1
 40
1
 40
1
 40
1
 10
111.04
 20
36.885
 30
0
 10
111.219
 20
38.3298
 30
0
 10
111.252
 20
39.4575
 30
0
 10
112.726
 20
41.5818
 30
0
  0
SPLINE
  5
A69
330
A02
100
AcDbEntity
  8
View002
100
AcDbSpline
210
0
220
0
230
1
 70
8
 71
3
 72
8
 73
4
 74
0
 40
0
 40
0
 40
0
 40
0
 40
1
 40
1
 40
1
 40
1
 10
104.8
 20
35.1997
 30
0
 10
106.412
 20
36.8111
 30
0
 10
107.828
 20
36.56
 30
0
 10
109.507
 20
36.3567
 30
0
  0
SPLINE
  5
A6A
330
A02
100
AcDbEntity
  8
View002
100
AcDbSpline
210
0
220
0
230
1
 70
8
 71
3
 72
8
 73
4
 74
0
 40
0
 40
0
 40
0
 40
0
 40
1
 40
1
 40
1
 40
1
 10
112.396
 20
36.442
 30
0
 10
113.519
 20
36.7556
 30
0
 10
114.774
 20
37.5484
 30
0
 10
115.994
 20
39.3133
 30
0
  0
SPLINE
  5
A6B
330
A02
100
AcDbEntity
  8
View002
100
AcDbSpline
210
0
220
0
230
1
 70
8
 71
3
 72
8
 73
4
 74
0
 40
0
 40
0
 40
0
 40
0
 40
1
 40
1
 40
1
 40
1
 10
111.092
 20
42.716
 30
0
 10
109.964
 20
41.094
 30
0
 10
109.624
 20
39.93
 30
0
 10
109.407
 20
38.7357
 30
0
  0
SPLINE
  5
A6C
330
A02
100
AcDbEntity
  8
View002
100
AcDbSpline
210
0
220
0
230
1
 70
8
 71
3
 72
8
 73
4
 74
0
 40
0
 40
0
 40
0
 40
0
 40
1
 40
1
 40
1
 40
1
 10
108.784
 20
35.8825
 30
0
 10
108.468
 20
35.0326
 30
0
 10
107.927
 20
34.0969
 30
0
 10
106.915
 20
33.0848
 30
0
  0
SPLINE
  5
A6D
330
A02
100
AcDbEntity
  8
View002
100
AcDbSpline
210
0
220
0
230
1
 70
8
 71
3
 72
8
 73
4
 74
0
 40
0
 40
0
 40
0
 40
0
 40
1
 40
1
 40
1
 40
1
 10
104.36
 20
28.7018
 30
0
 10
104.808
 20
30.1048
 30
0
 10
105.051
 20
31.221
 30
0
 10
106.915
 20
33.0848
 30
0
  0
SPLINE
  5
A6E
330
A02
100
AcDbEntity
  8
View002
100
AcDbSpline
210
0
220
0
230
1
 70
8
 71
3
 72
8
 73
4
 74
0
 40
0
 40
0
 40
0
 40
0
 40
1
 40
1
 40
1
 40
1
 10
100.687
 20
24.0056
 30
0
 10
103.337
 20
25.8391
 30
0
 10
103.953
 20
27.4259
 30
0
 10
104.36
 20
28.7018
 30
0
  0
SPLINE
  5
A6F
330
A02
100
AcDbEntity
  8
View002
100
AcDbSpline
210
0
220
0
230
1
 70
8
 71
3
 72
8
 73
4
 74
0
 40
0
 40
0
 40
0
 40
0
 40
1
 40
1
 40
1
 40
1
 10
104.972
 20
28.7855
 30
0
 10
106.134
 20
28.8948
 30
0
 10
107.511
 20
29.4514
 30
0
 10
109.03
 20
30.9701
 30
0
  0
SPLINE
  5
A70
330
A02
100
AcDbEntity
  8
View002
100
AcDbSpline
210
0
220
0
230
1
 70
8
 71
3
 72
8
 73
4
 74
0
 40
0
 40
0
 40
0
 40
0
 40
1
 40
1
 40
1
 40
1
 10
109.03
 20
30.9701
 30
0
 10
111.311
 20
33.2509
 30
0
 10
111.634
 20
34.9219
 30
0
 10
111.809
 20
36.2509
 30
0
  0
SPLINE
  5
A71
330
A02
100
AcDbEntity
  8
View002
100
AcDbSpline
210
0
220
0
230
1
 70
8
 71
3
 72
8
 73
4
 74
0
 40
0
 40
0
 40
0
 40
0
 40
1
 40
1
 40
1
 40
1
 10
111.809
 20
36.2509
 30
0
 10
112.001
 20
37.7135
 30
0
 10
112.043
 20
38.8509
 30
0
 10
113.543
 20
41.0147
 30
0
  0
SPLINE
  5
A72
330
A02
100
AcDbEntity
  8
View002
100
AcDbSpline
210
0
220
0
230
1
 70
8
 71
3
 72
8
 73
4
 74
0
 40
0
 40
0
 40
0
 40
0
 40
1
 40
1
 40
1
 40
1
 10
96.1497
 20
30.5425
 30
0
 10
93.9844
 20
29.034
 30
0
 10
93.5148
 20
27.7929
 30
0
 10
92.6979
 20
26.3678
 30
0
  0
SPLINE
  5
A73
330
A02
100
AcDbEntity
  8
View002
100
AcDbSpline
210
0
220
0
230
1
 70
8
 71
3
 72
8
 73
4
 74
0
 40
0
 40
0
 40
0
 40
0
 40
1
 40
1
 40
1
 40
1
 10
96.1497
 20
30.5425
 30
0
 10
98.3931
 20
32.1056
 30
0
 10
100.431
 20
31.2894
 30
0
 10
102.719
 20
30.9735
 30
0
  0
SPLINE
  5
A74
330
A02
100
AcDbEntity
  8
View002
100
AcDbSpline
210
0
220
0
230
1
 70
8
 71
3
 72
8
 73
4
 74
0
 40
0
 40
0
 40
0
 40
0
 40
1
 40
1
 40
1
 40
1
 10
106.052
 20
31.286
 30
0
 10
106.583
 20
31.5193
 30
0
 10
107.111
 20
31.8707
 30
0
 10
107.62
 20
32.3799
 30
0
  0
SPLINE
  5
A75
330
A02
100
AcDbEntity
  8
View002
100
AcDbSpline
210
0
220
0
230
1
 70
8
 71
3
 72
8
 73
4
 74
0
 40
0
 40
0
 40
0
 40
0
 40
1
 40
1
 40
1
 40
1
 10
103.39
 20
36.6095
 30
0
 10
101.517
 20
34.7359
 30
0
 10
101.272
 20
33.4211
 30
0
 10
100.722
 20
31.8658
 30
0
  0
SPLINE
  5
A76
330
A02
100
AcDbEntity
  8
View002
100
AcDbSpline
210
0
220
0
230
1
 70
8
 71
3
 72
8
 73
4
 74
0
 40
0
 40
0
 40
0
 40
0
 40
1
 40
1
 40
1
 40
1
 10
99.1447
 20
29.1845
 30
0
 10
98.7985
 20
28.822
 30
0
 10
98.3744
 20
28.4547
 30
0
 10
97.8511
 20
28.0912
 30
0
  0
SPLINE
  5
A77
330
A02
100
AcDbEntity
  8
View002
100
AcDbSpline
210
0
220
0
230
1
 70
8
 71
3
 72
8
 73
4
 74
0
 40
0
 40
0
 40
0
 40
0
 40
1
 40
1
 40
1
 40
1
 10
94.7027
 20
24.3346
 30
0
 10
95.3569
 20
25.6072
 30
0
 10
95.7678
 20
26.644
 30
0
 10
97.8511
 20
28.0912
 30
0
  0
SPLINE
  5
A78
330
A02
100
AcDbEntity
  8
View002
100
AcDbSpline
210
0
220
0
230
1
 70
8
 71
3
 72
8
 73
4
 74
0
 40
0
 40
0
 40
0
 40
0
 40
1
 40
1
 40
1
 40
1
 10
90.4189
 20
20.4887
 30
0
 10
93.258
 20
21.7541
 30
0
 10
94.1078
 20
23.1773
 30
0
 10
94.7027
 20
24.3346
 30
0
  0
SPLINE
  5
A79
330
A02
100
AcDbEntity
  8
View002
100
AcDbSpline
210
0
220
0
230
1
 70
8
 71
3
 72
8
 73
4
 74
0
 40
0
 40
0
 40
0
 40
0
 40
1
 40
1
 40
1
 40
1
 10
88.5711
 20
20.0323
 30
0
 10
89.1474
 20
20.059
 30
0
 10
89.7639
 20
20.1968
 30
0
 10
90.4189
 20
20.4887
 30
0
  0
SPLINE
  5
A7A
330
A02
100
AcDbEntity
  8
View002
100
AcDbSpline
210
0
220
0
230
1
 70
8
 71
3
 72
8
 73
4
 74
0
 40
0
 40
0
 40
0
 40
0
 40
1
 40
1
 40
1
 40
1
 10
97.8171
 20
24.845
 30
0
 10
98.38
 20
24.9793
 30
0
 10
98.9614
 20
25.2303
 30
0
 10
99.5524
 20
25.6398
 30
0
  0
SPLINE
  5
A7B
330
A02
100
AcDbEntity
  8
View002
100
AcDbSpline
210
0
220
0
230
1
 70
8
 71
3
 72
8
 73
4
 74
0
 40
0
 40
0
 40
0
 40
0
 40
1
 40
1
 40
1
 40
1
 10
99.5524
 20
25.6398
 30
0
 10
102.116
 20
27.4159
 30
0
 10
102.693
 20
28.9681
 30
0
 10
103.071
 20
30.2218
 30
0
  0
SPLINE
  5
A7C
330
A02
100
AcDbEntity
  8
View002
100
AcDbSpline
210
0
220
0
230
1
 70
8
 71
3
 72
8
 73
4
 74
0
 40
0
 40
0
 40
0
 40
0
 40
1
 40
1
 40
1
 40
1
 10
103.071
 20
30.2218
 30
0
 10
103.486
 20
31.5955
 30
0
 10
103.707
 20
32.6964
 30
0
 10
105.505
 20
34.4947
 30
0
  0
SPLINE
  5
A7D
330
A02
100
AcDbEntity
  8
View002
100
AcDbSpline
210
0
220
0
230
1
 70
8
 71
3
 72
8
 73
4
 74
0
 40
0
 40
0
 40
0
 40
0
 40
1
 40
1
 40
1
 40
1
 10
96.7168
 20
29.7254
 30
0
 10
94.8262
 20
28.4095
 30
0
 10
94.1902
 20
27.2991
 30
0
 10
93.5044
 20
26.072
 30
0
  0
SPLINE
  5
A7E
330
A02
100
AcDbEntity
  8
View002
100
AcDbSpline
210
0
220
0
230
1
 70
8
 71
3
 72
8
 73
4
 74
0
 40
0
 40
0
 40
0
 40
0
 40
1
 40
1
 40
1
 40
1
 10
96.7168
 20
29.7254
 30
0
 10
98.7957
 20
31.1723
 30
0
 10
100.454
 20
30.4824
 30
0
 10
102.439
 20
30.0504
 30
0
  0
SPLINE
  5
A7F
330
A02
100
AcDbEntity
  8
View002
100
AcDbSpline
210
0
220
0
230
1
 70
8
 71
3
 72
8
 73
4
 74
0
 40
0
 40
0
 40
0
 40
0
 40
1
 40
1
 40
1
 40
1
 10
105.355
 20
29.9408
 30
0
 10
106.29
 20
30.1439
 30
0
 10
107.298
 20
30.6478
 30
0
 10
108.325
 20
31.675
 30
0
  0
SPLINE
  5
A80
330
A02
100
AcDbEntity
  8
View002
100
AcDbSpline
210
0
220
0
230
1
 70
8
 71
3
 72
8
 73
4
 74
0
 40
0
 40
0
 40
0
 40
0
 40
1
 40
1
 40
1
 40
1
 10
104.095
 20
35.9046
 30
0
 10
102.461
 20
34.2698
 30
0
 10
102.029
 20
33.0563
 30
0
 10
101.573
 20
31.7204
 30
0
  0
SPLINE
  5
A81
330
A02
100
AcDbEntity
  8
View002
100
AcDbSpline
210
0
220
0
230
1
 70
8
 71
3
 72
8
 73
4
 74
0
 40
0
 40
0
 40
0
 40
0
 40
1
 40
1
 40
1
 40
1
 10
100.356
 20
29.1244
 30
0
 10
99.9199
 20
28.5198
 30
0
 10
99.3095
 20
27.8927
 30
0
 10
98.4182
 20
27.274
 30
0
  0
SPLINE
  5
A82
330
A02
100
AcDbEntity
  8
View002
100
AcDbSpline
210
0
220
0
230
1
 70
8
 71
3
 72
8
 73
4
 74
0
 40
0
 40
0
 40
0
 40
0
 40
1
 40
1
 40
1
 40
1
 10
95.1974
 20
23.4743
 30
0
 10
95.8714
 20
24.7584
 30
0
 10
96.2954
 20
25.8007
 30
0
 10
98.4182
 20
27.274
 30
0
  0
SPLINE
  5
A83
330
A02
100
AcDbEntity
  8
View002
100
AcDbSpline
210
0
220
0
230
1
 70
8
 71
3
 72
8
 73
4
 74
0
 40
0
 40
0
 40
0
 40
0
 40
1
 40
1
 40
1
 40
1
 10
90.8225
 20
19.585
 30
0
 10
93.7126
 20
20.8717
 30
0
 10
94.5856
 20
22.3085
 30
0
 10
95.1974
 20
23.4743
 30
0
  0
SPLINE
  5
A84
330
A02
100
AcDbEntity
  8
View002
100
AcDbSpline
210
0
220
0
230
1
 70
8
 71
3
 72
8
 73
4
 74
0
 40
0
 40
0
 40
0
 40
0
 40
1
 40
1
 40
1
 40
1
 10
87.4399
 20
19.0364
 30
0
 10
88.38
 20
18.8891
 30
0
 10
89.4993
 20
18.9959
 30
0
 10
90.8225
 20
19.585
 30
0
  0
SPLINE
  5
A85
330
A02
100
AcDbEntity
  8
View002
100
AcDbSpline
210
0
220
0
230
1
 70
8
 71
3
 72
8
 73
4
 74
0
 40
0
 40
0
 40
0
 40
0
 40
1
 40
1
 40
1
 40
1
 10
96.8922
 20
23.6501
 30
0
 10
97.846
 20
23.6822
 30
0
 10
98.9266
 20
23.9968
 30
0
 10
100.12
 20
24.8227
 30
0
  0
SPLINE
  5
A86
330
A02
100
AcDbEntity
  8
View002
100
AcDbSpline
210
0
220
0
230
1
 70
8
 71
3
 72
8
 73
4
 74
0
 40
0
 40
0
 40
0
 40
0
 40
1
 40
1
 40
1
 40
1
 10
100.12
 20
24.8227
 30
0
 10
102.727
 20
26.6275
 30
0
 10
103.323
 20
28.197
 30
0
 10
103.716
 20
29.4618
 30
0
  0
SPLINE
  5
A87
330
A02
100
AcDbEntity
  8
View002
100
AcDbSpline
210
0
220
0
230
1
 70
8
 71
3
 72
8
 73
4
 74
0
 40
0
 40
0
 40
0
 40
0
 40
1
 40
1
 40
1
 40
1
 10
103.716
 20
29.4618
 30
0
 10
104.147
 20
30.8501
 30
0
 10
104.379
 20
31.9587
 30
0
 10
106.21
 20
33.7898
 30
0
  0
SPLINE
  5
A88
330
A02
100
AcDbEntity
  8
View002
100
AcDbSpline
210
0
220
0
230
1
 70
8
 71
3
 72
8
 73
4
 74
0
 40
0
 40
0
 40
0
 40
0
 40
1
 40
1
 40
1
 40
1
 10
97.2839
 20
28.9083
 30
0
 10
95.6632
 20
27.7813
 30
0
 10
94.9402
 20
26.8105
 30
0
 10
94.3217
 20
25.7723
 30
0
  0
SPLINE
  5
A89
330
A02
100
AcDbEntity
  8
View002
100
AcDbSpline
210
0
220
0
230
1
 70
8
 71
3
 72
8
 73
4
 74
0
 40
0
 40
0
 40
0
 40
0
 40
1
 40
1
 40
1
 40
1
 10
97.2839
 20
28.9083
 30
0
 10
99.1503
 20
30.206
 30
0
 10
100.496
 20
29.7104
 30
0
 10
102.113
 20
29.2132
 30
0
  0
SPLINE
  5
A8A
330
A02
100
AcDbEntity
  8
View002
100
AcDbSpline
210
0
220
0
230
1
 70
8
 71
3
 72
8
 73
4
 74
0
 40
0
 40
0
 40
0
 40
0
 40
1
 40
1
 40
1
 40
1
 10
104.8
 20
35.1996
 30
0
 10
103.4
 20
33.7993
 30
0
 10
102.859
 20
32.7096
 30
0
 10
102.435
 20
31.5726
 30
0
  0
SPLINE
  5
A8B
330
A02
100
AcDbEntity
  8
View002
100
AcDbSpline
210
0
220
0
230
1
 70
8
 71
3
 72
8
 73
4
 74
0
 40
0
 40
0
 40
0
 40
0
 40
1
 40
1
 40
1
 40
1
 10
101.318
 20
28.8749
 30
0
 10
100.857
 20
28.0951
 30
0
 10
100.159
 20
27.2709
 30
0
 10
98.9853
 20
26.4569
 30
0
  0
SPLINE
  5
A8C
330
A02
100
AcDbEntity
  8
View002
100
AcDbSpline
210
0
220
0
230
1
 70
8
 71
3
 72
8
 73
4
 74
0
 40
0
 40
0
 40
0
 40
0
 40
1
 40
1
 40
1
 40
1
 10
95.6922
 20
22.6139
 30
0
 10
96.3859
 20
23.9096
 30
0
 10
96.823
 20
24.9575
 30
0
 10
98.9853
 20
26.4569
 30
0
  0
SPLINE
  5
A8D
330
A02
100
AcDbEntity
  8
View002
100
AcDbSpline
210
0
220
0
230
1
 70
8
 71
3
 72
8
 73
4
 74
0
 40
0
 40
0
 40
0
 40
0
 40
1
 40
1
 40
1
 40
1
 10
91.2262
 20
18.6813
 30
0
 10
94.1672
 20
19.9893
 30
0
 10
95.0635
 20
21.4397
 30
0
 10
95.6922
 20
22.6139
 30
0
  0
SPLINE
  5
A8E
330
A02
100
AcDbEntity
  8
View002
100
AcDbSpline
210
0
220
0
230
1
 70
8
 71
3
 72
8
 73
4
 74
0
 40
0
 40
0
 40
0
 40
0
 40
1
 40
1
 40
1
 40
1
 10
87.9967
 20
25.9109
 30
0
 10
85.6086
 20
24.8386
 30
0
 10
84.9294
 20
23.7281
 30
0
 10
83.8579
 20
22.4898
 30
0
  0
SPLINE
  5
A8F
330
A02
100
AcDbEntity
  8
View002
100
AcDbSpline
210
0
220
0
230
1
 70
8
 71
3
 72
8
 73
4
 74
0
 40
0
 40
0
 40
0
 40
0
 40
1
 40
1
 40
1
 40
1
 10
87.9967
 20
25.9109
 30
0
 10
90.4685
 20
27.0209
 30
0
 10
92.3039
 20
25.8561
 30
0
 10
94.4924
 20
25.1343
 30
0
  0
SPLINE
  5
A90
330
A02
100
AcDbEntity
  8
View002
100
AcDbSpline
210
0
220
0
230
1
 70
8
 71
3
 72
8
 73
4
 74
0
 40
0
 40
0
 40
0
 40
0
 40
1
 40
1
 40
1
 40
1
 10
90.672
 20
24.0308
 30
0
 10
90.2676
 20
23.7398
 30
0
 10
89.7859
 20
23.4584
 30
0
 10
89.2078
 20
23.1998
 30
0
  0
SPLINE
  5
A91
330
A02
100
AcDbEntity
  8
View002
100
AcDbSpline
210
0
220
0
230
1
 70
8
 71
3
 72
8
 73
4
 74
0
 40
0
 40
0
 40
0
 40
0
 40
1
 40
1
 40
1
 40
1
 10
85.4275
 20
20.119
 30
0
 10
86.3131
 20
21.2421
 30
0
 10
86.9029
 20
22.169
 30
0
 10
89.2078
 20
23.1998
 30
0
  0
SPLINE
  5
A92
330
A02
100
AcDbEntity
  8
View002
100
AcDbSpline
210
0
220
0
230
1
 70
8
 71
3
 72
8
 73
4
 74
0
 40
0
 40
0
 40
0
 40
0
 40
1
 40
1
 40
1
 40
1
 10
80.4809
 20
17.1883
 30
0
 10
83.5149
 20
17.8653
 30
0
 10
84.6286
 20
19.1058
 30
0
 10
85.4275
 20
20.119
 30
0
  0
SPLINE
  5
A93
330
A02
100
AcDbEntity
  8
View002
100
AcDbSpline
210
0
220
0
230
1
 70
8
 71
3
 72
8
 73
4
 74
0
 40
0
 40
0
 40
0
 40
0
 40
1
 40
1
 40
1
 40
1
 10
88.4004
 20
25.0072
 30
0
 10
86.3142
 20
24.0717
 30
0
 10
85.4922
 20
23.1151
 30
0
 10
84.588
 20
22.0456
 30
0
  0
SPLINE
  5
A94
330
A02
100
AcDbEntity
  8
View002
100
AcDbSpline
210
0
220
0
230
1
 70
8
 71
3
 72
8
 73
4
 74
0
 40
0
 40
0
 40
0
 40
0
 40
1
 40
1
 40
1
 40
1
 10
88.4004
 20
25.0072
 30
0
 10
90.6933
 20
26.0354
 30
0
 10
92.1825
 20
25.0623
 30
0
 10
94.0521
 20
24.2805
 30
0
  0
SPLINE
  5
A95
330
A02
100
AcDbEntity
  8
View002
100
AcDbSpline
210
0
220
0
230
1
 70
8
 71
3
 72
8
 73
4
 74
0
 40
0
 40
0
 40
0
 40
0
 40
1
 40
1
 40
1
 40
1
 10
91.8458
 20
23.7508
 30
0
 10
91.3092
 20
23.2388
 30
0
 10
90.5971
 20
22.7364
 30
0
 10
89.6115
 20
22.2961
 30
0
  0
SPLINE
  5
A96
330
A02
100
AcDbEntity
  8
View002
100
AcDbSpline
210
0
220
0
230
1
 70
8
 71
3
 72
8
 73
4
 74
0
 40
0
 40
0
 40
0
 40
0
 40
1
 40
1
 40
1
 40
1
 10
85.7469
 20
19.1839
 30
0
 10
86.6556
 20
20.3154
 30
0
 10
87.2602
 20
21.2458
 30
0
 10
89.6115
 20
22.2961
 30
0
  0
SPLINE
  5
A97
330
A02
100
AcDbEntity
  8
View002
100
AcDbSpline
210
0
220
0
230
1
 70
8
 71
3
 72
8
 73
4
 74
0
 40
0
 40
0
 40
0
 40
0
 40
1
 40
1
 40
1
 40
1
 10
80.6955
 20
16.2236
 30
0
 10
83.7879
 20
16.9146
 30
0
 10
84.9286
 20
18.1648
 30
0
 10
85.7469
 20
19.1839
 30
0
  0
SPLINE
  5
A98
330
A02
100
AcDbEntity
  8
View002
100
AcDbSpline
210
0
220
0
230
1
 70
8
 71
3
 72
8
 73
4
 74
0
 40
0
 40
0
 40
0
 40
0
 40
1
 40
1
 40
1
 40
1
 10
88.8041
 20
24.1035
 30
0
 10
87.0142
 20
23.302
 30
0
 10
86.1306
 20
22.4943
 30
0
 10
85.3287
 20
21.5965
 30
0
  0
SPLINE
  5
A99
330
A02
100
AcDbEntity
  8
View002
100
AcDbSpline
210
0
220
0
230
1
 70
8
 71
3
 72
8
 73
4
 74
0
 40
0
 40
0
 40
0
 40
0
 40
1
 40
1
 40
1
 40
1
 10
88.8041
 20
24.1035
 30
0
 10
90.8645
 20
25.0263
 30
0
 10
92.0858
 20
24.2994
 30
0
 10
93.5821
 20
23.5193
 30
0
  0
SPLINE
  5
A9A
330
A02
100
AcDbEntity
  8
View002
100
AcDbSpline
210
0
220
0
230
1
 70
8
 71
3
 72
8
 73
4
 74
0
 40
0
 40
0
 40
0
 40
0
 40
1
 40
1
 40
1
 40
1
 10
96.3082
 20
22.5862
 30
0
 10
97.4677
 20
22.4852
 30
0
 10
98.922
 20
22.7848
 30
0
 10
100.687
 20
24.0056
 30
0
  0
SPLINE
  5
A9B
330
A02
100
AcDbEntity
  8
View002
100
AcDbSpline
210
0
220
0
230
1
 70
8
 71
3
 72
8
 73
4
 74
0
 40
0
 40
0
 40
0
 40
0
 40
1
 40
1
 40
1
 40
1
 10
92.7416
 20
23.332
 30
0
 10
92.1486
 20
22.6527
 30
0
 10
91.3145
 20
21.9722
 30
0
 10
90.0152
 20
21.3924
 30
0
  0
SPLINE
  5
A9C
330
A02
100
AcDbEntity
  8
View002
100
AcDbSpline
210
0
220
0
230
1
 70
8
 71
3
 72
8
 73
4
 74
0
 40
0
 40
0
 40
0
 40
0
 40
1
 40
1
 40
1
 40
1
 10
86.0664
 20
18.2489
 30
0
 10
86.9981
 20
19.3887
 30
0
 10
87.6175
 20
20.3227
 30
0
 10
90.0152
 20
21.3924
 30
0
  0
SPLINE
  5
A9D
330
A02
100
AcDbEntity
  8
View002
100
AcDbSpline
210
0
220
0
230
1
 70
8
 71
3
 72
8
 73
4
 74
0
 40
0
 40
0
 40
0
 40
0
 40
1
 40
1
 40
1
 40
1
 10
80.9102
 20
15.259
 30
0
 10
84.0608
 20
15.9639
 30
0
 10
85.2286
 20
17.2239
 30
0
 10
86.0664
 20
18.2489
 30
0
  0
SPLINE
  5
A9E
330
A02
100
AcDbEntity
  8
View002
100
AcDbSpline
210
0
220
0
230
1
 70
8
 71
3
 72
8
 73
4
 74
0
 40
0
 40
0
 40
0
 40
0
 40
1
 40
1
 40
1
 40
1
 10
79.1929
 20
22.9762
 30
0
 10
81.8153
 20
23.556
 30
0
 10
83.3695
 20
22.0651
 30
0
 10
85.3744
 20
20.9406
 30
0
  0
SPLINE
  5
A9F
330
A02
100
AcDbEntity
  8
View002
100
AcDbSpline
210
0
220
0
230
1
 70
8
 71
3
 72
8
 73
4
 74
0
 40
0
 40
0
 40
0
 40
0
 40
1
 40
1
 40
1
 40
1
 10
81.4309
 20
20.6031
 30
0
 10
80.9792
 20
20.3986
 30
0
 10
80.4531
 20
20.2192
 30
0
 10
79.8369
 20
20.0823
 30
0
  0
SPLINE
  5
AA0
330
A02
100
AcDbEntity
  8
View002
100
AcDbSpline
210
0
220
0
230
1
 70
8
 71
3
 72
8
 73
4
 74
0
 40
0
 40
0
 40
0
 40
0
 40
1
 40
1
 40
1
 40
1
 10
79.4076
 20
22.0116
 30
0
 10
81.8442
 20
22.5512
 30
0
 10
83.1001
 20
21.3144
 30
0
 10
84.7811
 20
20.1903
 30
0
  0
SPLINE
  5
AA1
330
A02
100
AcDbEntity
  8
View002
100
AcDbSpline
210
0
220
0
230
1
 70
8
 71
3
 72
8
 73
4
 74
0
 40
0
 40
0
 40
0
 40
0
 40
1
 40
1
 40
1
 40
1
 10
82.5226
 20
20.099
 30
0
 10
81.899
 20
19.7036
 30
0
 10
81.1033
 20
19.3516
 30
0
 10
80.0515
 20
19.1176
 30
0
  0
SPLINE
  5
AA2
330
A02
100
AcDbEntity
  8
View002
100
AcDbSpline
210
0
220
0
230
1
 70
8
 71
3
 72
8
 73
4
 74
0
 40
0
 40
0
 40
0
 40
0
 40
1
 40
1
 40
1
 40
1
 10
79.6222
 20
21.0469
 30
0
 10
81.815
 20
21.5333
 30
0
 10
82.86
 20
20.5883
 30
0
 10
84.1751
 20
19.5364
 30
0
  0
SPLINE
  5
AA3
330
A02
100
AcDbEntity
  8
View002
100
AcDbSpline
210
0
220
0
230
1
 70
8
 71
3
 72
8
 73
4
 74
0
 40
0
 40
0
 40
0
 40
0
 40
1
 40
1
 40
1
 40
1
 10
86.6647
 20
18.1055
 30
0
 10
87.7813
 20
17.7886
 30
0
 10
89.2668
 20
17.81
 30
0
 10
91.2262
 20
18.6814
 30
0
  0
SPLINE
  5
AA4
330
A02
100
AcDbEntity
  8
View002
100
AcDbSpline
210
0
220
0
230
1
 70
8
 71
3
 72
8
 73
4
 74
0
 40
0
 40
0
 40
0
 40
0
 40
1
 40
1
 40
1
 40
1
 10
83.3168
 20
19.5154
 30
0
 10
82.6057
 20
18.9668
 30
0
 10
81.6543
 20
18.4623
 30
0
 10
80.2662
 20
18.1529
 30
0
  0
SPLINE
  5
AA5
330
A02
100
AcDbEntity
  8
View002
100
AcDbSpline
210
0
220
0
230
1
 70
8
 71
1
 72
4
 73
2
 74
0
 40
0
 40
0
 40
1
 40
1
 10
70
 20
22
 30
0
 10
70
 20
22
 30
0
  0
SPLINE
  5
AA6
330
A02
100
AcDbEntity
  8
View002
100
AcDbSpline
210
0
220
0
230
1
 70
8
 71
3
 72
8
 73
4
 74
0
 40
0
 40
0
 40
0
 40
0
 40
1
 40
1
 40
1
 40
1
 10
70
 20
22
 30
0
 10
72.6878
 20
21.9739
 30
0
 10
73.9413
 20
20.1331
 30
0
 10
75.6262
 20
18.6539
 30
0
  0
SPLINE
  5
AA7
330
A02
100
AcDbEntity
  8
View002
100
AcDbSpline
210
0
220
0
230
1
 70
8
 71
3
 72
8
 73
4
 74
0
 40
0
 40
0
 40
0
 40
0
 40
1
 40
1
 40
1
 40
1
 10
78.5755
 20
17.1094
 30
0
 10
79.1466
 20
17.0197
 30
0
 10
79.7797
 20
17.0319
 30
0
 10
80.4808
 20
17.1883
 30
0
  0
SPLINE
  5
AA8
330
A02
100
AcDbEntity
  8
View002
100
AcDbSpline
210
0
220
0
230
1
 70
8
 71
3
 72
8
 73
4
 74
0
 40
0
 40
0
 40
0
 40
0
 40
1
 40
1
 40
1
 40
1
 10
79.1929
 20
22.9762
 30
0
 10
76.6492
 20
22.4138
 30
0
 10
75.7791
 20
21.4857
 30
0
 10
74.4635
 20
20.4932
 30
0
  0
SPLINE
  5
AA9
330
A02
100
AcDbEntity
  8
View002
100
AcDbSpline
210
0
220
0
230
1
 70
8
 71
3
 72
8
 73
4
 74
0
 40
0
 40
0
 40
0
 40
0
 40
1
 40
1
 40
1
 40
1
 10
71.6828
 20
19.163
 30
0
 10
71.1947
 20
19.0602
 30
0
 10
70.6374
 20
18.9986
 30
0
 10
70
 20
19
 30
0
  0
SPLINE
  5
AAA
330
A02
100
AcDbEntity
  8
View002
100
AcDbSpline
210
0
220
0
230
1
 70
8
 71
1
 72
4
 73
2
 74
0
 40
0
 40
0
 40
1
 40
1
 10
70
 20
19
 30
0
 10
70
 20
19
 30
0
  0
SPLINE
  5
AAB
330
A02
100
AcDbEntity
  8
View002
100
AcDbSpline
210
0
220
0
230
1
 70
8
 71
1
 72
4
 73
2
 74
0
 40
0
 40
0
 40
1
 40
1
 10
70
 20
16
 30
0
 10
70
 20
16
 30
0
  0
SPLINE
  5
AAC
330
A02
100
AcDbEntity
  8
View002
100
AcDbSpline
210
0
220
0
230
1
 70
8
 71
3
 72
8
 73
4
 74
0
 40
0
 40
0
 40
0
 40
0
 40
1
 40
1
 40
1
 40
1
 10
70
 20
16
 30
0
 10
73.1478
 20
16.0133
 30
0
 10
74.5173
 20
17.0132
 30
0
 10
75.5072
 20
17.8366
 30
0
  0
SPLINE
  5
AAD
330
A02
100
AcDbEntity
  8
View002
100
AcDbSpline
210
0
220
0
230
1
 70
8
 71
3
 72
8
 73
4
 74
0
 40
0
 40
0
 40
0
 40
0
 40
1
 40
1
 40
1
 40
1
 10
75.5072
 20
17.8366
 30
0
 10
76.6172
 20
18.7599
 30
0
 10
77.3725
 20
19.5347
 30
0
 10
79.8369
 20
20.0823
 30
0
  0
SPLINE
  5
AAE
330
A02
100
AcDbEntity
  8
View002
100
AcDbSpline
210
0
220
0
230
1
 70
8
 71
1
 72
4
 73
2
 74
0
 40
0
 40
0
 40
1
 40
1
 10
70
 20
21
 30
0
 10
70
 20
21
 30
0
  0
SPLINE
  5
AAF
330
A02
100
AcDbEntity
  8
View002
100
AcDbSpline
210
0
220
0
230
1
 70
8
 71
3
 72
8
 73
4
 74
0
 40
0
 40
0
 40
0
 40
0
 40
1
 40
1
 40
1
 40
1
 10
70
 20
21
 30
0
 10
72.5081
 20
20.9822
 30
0
 10
73.4701
 20
19.499
 30
0
 10
74.8873
 20
18.0414
 30
0
  0
SPLINE
  5
AB0
330
A02
100
AcDbEntity
  8
View002
100
AcDbSpline
210
0
220
0
230
1
 70
8
 71
3
 72
8
 73
4
 74
0
 40
0
 40
0
 40
0
 40
0
 40
1
 40
1
 40
1
 40
1
 10
77.2599
 20
16.3613
 30
0
 10
78.1537
 20
16.0261
 30
0
 10
79.2771
 20
15.9067
 30
0
 10
80.6955
 20
16.2237
 30
0
  0
SPLINE
  5
AB1
330
A02
100
AcDbEntity
  8
View002
100
AcDbSpline
210
0
220
0
230
1
 70
8
 71
3
 72
8
 73
4
 74
0
 40
0
 40
0
 40
0
 40
0
 40
1
 40
1
 40
1
 40
1
 10
79.4075
 20
22.0116
 30
0
 10
77.185
 20
21.5194
 30
0
 10
76.1979
 20
20.7643
 30
0
 10
75.0855
 20
19.9026
 30
0
  0
SPLINE
  5
AB2
330
A02
100
AcDbEntity
  8
View002
100
AcDbSpline
210
0
220
0
230
1
 70
8
 71
3
 72
8
 73
4
 74
0
 40
0
 40
0
 40
0
 40
0
 40
1
 40
1
 40
1
 40
1
 10
72.6482
 20
18.4305
 30
0
 10
71.9508
 20
18.1756
 30
0
 10
71.0896
 20
18
 30
0
 10
70
 20
18
 30
0
  0
SPLINE
  5
AB3
330
A02
100
AcDbEntity
  8
View002
100
AcDbSpline
210
0
220
0
230
1
 70
8
 71
1
 72
4
 73
2
 74
0
 40
0
 40
0
 40
1
 40
1
 10
70
 20
18
 30
0
 10
70
 20
18
 30
0
  0
SPLINE
  5
AB4
330
A02
100
AcDbEntity
  8
View002
100
AcDbSpline
210
0
220
0
230
1
 70
8
 71
1
 72
4
 73
2
 74
0
 40
0
 40
0
 40
1
 40
1
 10
70
 20
15
 30
0
 10
70
 20
15
 30
0
  0
SPLINE
  5
AB5
330
A02
100
AcDbEntity
  8
View002
100
AcDbSpline
210
0
220
0
230
1
 70
8
 71
3
 72
8
 73
4
 74
0
 40
0
 40
0
 40
0
 40
0
 40
1
 40
1
 40
1
 40
1
 10
70
 20
15
 30
0
 10
73.2135
 20
15.0199
 30
0
 10
74.6137
 20
16.0256
 30
0
 10
75.6258
 20
16.8524
 30
0
  0
SPLINE
  5
AB6
330
A02
100
AcDbEntity
  8
View002
100
AcDbSpline
210
0
220
0
230
1
 70
8
 71
3
 72
8
 73
4
 74
0
 40
0
 40
0
 40
0
 40
0
 40
1
 40
1
 40
1
 40
1
 10
75.6258
 20
16.8524
 30
0
 10
76.7621
 20
17.7808
 30
0
 10
77.534
 20
18.5574
 30
0
 10
80.0515
 20
19.1176
 30
0
  0
SPLINE
  5
AB7
330
A02
100
AcDbEntity
  8
View002
100
AcDbSpline
210
0
220
0
230
1
 70
8
 71
1
 72
4
 73
2
 74
0
 40
0
 40
0
 40
1
 40
1
 10
70
 20
20
 30
0
 10
70
 20
20
 30
0
  0
SPLINE
  5
AB8
330
A02
100
AcDbEntity
  8
View002
100
AcDbSpline
210
0
220
0
230
1
 70
8
 71
3
 72
8
 73
4
 74
0
 40
0
 40
0
 40
0
 40
0
 40
1
 40
1
 40
1
 40
1
 10
70
 20
20
 30
0
 10
72.2581
 20
19.9896
 30
0
 10
73.1066
 20
18.8075
 30
0
 10
74.1539
 20
17.5262
 30
0
  0
SPLINE
  5
AB9
330
A02
100
AcDbEntity
  8
View002
100
AcDbSpline
210
0
220
0
230
1
 70
8
 71
3
 72
8
 73
4
 74
0
 40
0
 40
0
 40
0
 40
0
 40
1
 40
1
 40
1
 40
1
 10
76.3037
 20
15.6051
 30
0
 10
77.3369
 20
15.0663
 30
0
 10
78.8069
 20
14.7884
 30
0
 10
80.9101
 20
15.259
 30
0
  0
SPLINE
  5
ABA
330
A02
100
AcDbEntity
  8
View002
100
AcDbSpline
210
0
220
0
230
1
 70
8
 71
3
 72
8
 73
4
 74
0
 40
0
 40
0
 40
0
 40
0
 40
1
 40
1
 40
1
 40
1
 10
79.6222
 20
21.047
 30
0
 10
77.7139
 20
20.6236
 30
0
 10
76.692
 20
20.0216
 30
0
 10
75.7176
 20
19.3067
 30
0
  0
SPLINE
  5
ABB
330
A02
100
AcDbEntity
  8
View002
100
AcDbSpline
210
0
220
0
230
1
 70
8
 71
3
 72
8
 73
4
 74
0
 40
0
 40
0
 40
0
 40
0
 40
1
 40
1
 40
1
 40
1
 10
73.305
 20
17.6868
 30
0
 10
72.4894
 20
17.2985
 30
0
 10
71.4403
 20
17.0031
 30
0
 10
70
 20
17
 30
0
  0
SPLINE
  5
ABC
330
A02
100
AcDbEntity
  8
View002
100
AcDbSpline
210
0
220
0
230
1
 70
8
 71
1
 72
4
 73
2
 74
0
 40
0
 40
0
 40
1
 40
1
 10
70
 20
17
 30
0
 10
70
 20
17
 30
0
  0
SPLINE
  5
ABD
330
A02
100
AcDbEntity
  8
View002
100
AcDbSpline
210
0
220
0
230
1
 70
8
 71
1
 72
4
 73
2
 74
0
 40
0
 40
0
 40
1
 40
1
 10
70
 20
14
 30
0
 10
70
 20
14
 30
0
  0
SPLINE
  5
ABE
330
A02
100
AcDbEntity
  8
View002
100
AcDbSpline
210
0
220
0
230
1
 70
8
 71
3
 72
8
 73
4
 74
0
 40
0
 40
0
 40
0
 40
0
 40
1
 40
1
 40
1
 40
1
 10
70
 20
14
 30
0
 10
73.2792
 20
14.0266
 30
0
 10
74.7102
 20
15.038
 30
0
 10
75.7443
 20
15.8682
 30
0
  0
SPLINE
  5
ABF
330
A02
100
AcDbEntity
  8
View002
100
AcDbSpline
210
0
220
0
230
1
 70
8
 71
3
 72
8
 73
4
 74
0
 40
0
 40
0
 40
0
 40
0
 40
1
 40
1
 40
1
 40
1
 10
75.7443
 20
15.8682
 30
0
 10
76.907
 20
16.8018
 30
0
 10
77.6955
 20
17.5801
 30
0
 10
80.2662
 20
18.153
 30
0
  0
SPLINE
  5
AC0
330
A02
100
AcDbEntity
  8
View002
100
AcDbSpline
210
0
220
0
230
1
 70
8
 71
3
 72
8
 73
4
 74
0
 40
0
 40
0
 40
0
 40
0
 40
1
 40
1
 40
1
 40
1
 10
60.8071
 20
22.9763
 30
0
 10
63.4287
 20
22.3966
 30
0
 10
64.1971
 20
20.3922
 30
0
 10
65.5528
 20
18.5221
 30
0
  0
SPLINE
  5
AC1
330
A02
100
AcDbEntity
  8
View002
100
AcDbSpline
210
0
220
0
230
1
 70
8
 71
3
 72
8
 73
4
 74
0
 40
0
 40
0
 40
0
 40
0
 40
1
 40
1
 40
1
 40
1
 10
68.1008
 20
16.3509
 30
0
 10
68.6429
 20
16.1343
 30
0
 10
69.2709
 20
16.0031
 30
0
 10
70
 20
16
 30
0
  0
SPLINE
  5
AC2
330
A02
100
AcDbEntity
  8
View002
100
AcDbSpline
210
0
220
0
230
1
 70
8
 71
3
 72
8
 73
4
 74
0
 40
0
 40
0
 40
0
 40
0
 40
1
 40
1
 40
1
 40
1
 10
70
 20
22
 30
0
 10
67.3805
 20
21.9746
 30
0
 10
66.3346
 20
21.257
 30
0
 10
64.8259
 20
20.571
 30
0
  0
SPLINE
  5
AC3
330
A02
100
AcDbEntity
  8
View002
100
AcDbSpline
210
0
220
0
230
1
 70
8
 71
3
 72
8
 73
4
 74
0
 40
0
 40
0
 40
0
 40
0
 40
1
 40
1
 40
1
 40
1
 10
61.8282
 20
19.8795
 30
0
 10
61.332
 20
19.8855
 30
0
 10
60.7794
 20
19.9454
 30
0
 10
60.1631
 20
20.0823
 30
0
  0
SPLINE
  5
AC4
330
A02
100
AcDbEntity
  8
View002
100
AcDbSpline
210
0
220
0
230
1
 70
8
 71
3
 72
8
 73
4
 74
0
 40
0
 40
0
 40
0
 40
0
 40
1
 40
1
 40
1
 40
1
 10
59.5191
 20
17.1883
 30
0
 10
62.5584
 20
16.5101
 30
0
 10
64.0978
 20
17.163
 30
0
 10
65.2555
 20
17.7507
 30
0
  0
SPLINE
  5
AC5
330
A02
100
AcDbEntity
  8
View002
100
AcDbSpline
210
0
220
0
230
1
 70
8
 71
3
 72
8
 73
4
 74
0
 40
0
 40
0
 40
0
 40
0
 40
1
 40
1
 40
1
 40
1
 10
65.2555
 20
17.7507
 30
0
 10
66.5481
 20
18.4068
 30
0
 10
67.45
 20
18.9942
 30
0
 10
70
 20
19
 30
0
  0
SPLINE
  5
AC6
330
A02
100
AcDbEntity
  8
View002
100
AcDbSpline
210
0
220
0
230
1
 70
8
 71
3
 72
8
 73
4
 74
0
 40
0
 40
0
 40
0
 40
0
 40
1
 40
1
 40
1
 40
1
 10
60.5924
 20
22.0116
 30
0
 10
63.0289
 20
21.472
 30
0
 10
63.6385
 20
19.8221
 30
0
 10
64.6962
 20
18.0883
 30
0
  0
SPLINE
  5
AC7
330
A02
100
AcDbEntity
  8
View002
100
AcDbSpline
210
0
220
0
230
1
 70
8
 71
3
 72
8
 73
4
 74
0
 40
0
 40
0
 40
0
 40
0
 40
1
 40
1
 40
1
 40
1
 10
66.6422
 20
15.9149
 30
0
 10
67.4429
 20
15.3851
 30
0
 10
68.5237
 20
15.0092
 30
0
 10
70
 20
15
 30
0
  0
SPLINE
  5
AC8
330
A02
100
AcDbEntity
  8
View002
100
AcDbSpline
210
0
220
0
230
1
 70
8
 71
3
 72
8
 73
4
 74
0
 40
0
 40
0
 40
0
 40
0
 40
1
 40
1
 40
1
 40
1
 10
70
 20
21
 30
0
 10
67.7081
 20
20.9837
 30
0
 10
66.5819
 20
20.4602
 30
0
 10
65.3018
 20
19.8599
 30
0
  0
SPLINE
  5
AC9
330
A02
100
AcDbEntity
  8
View002
100
AcDbSpline
210
0
220
0
230
1
 70
8
 71
3
 72
8
 73
4
 74
0
 40
0
 40
0
 40
0
 40
0
 40
1
 40
1
 40
1
 40
1
 10
62.6046
 20
18.96
 30
0
 10
61.8708
 20
18.865
 30
0
 10
61.0005
 20
18.8835
 30
0
 10
59.9484
 20
19.1176
 30
0
  0
SPLINE
  5
ACA
330
A02
100
AcDbEntity
  8
View002
100
AcDbSpline
210
0
220
0
230
1
 70
8
 71
3
 72
8
 73
4
 74
0
 40
0
 40
0
 40
0
 40
0
 40
1
 40
1
 40
1
 40
1
 10
59.3045
 20
16.2237
 30
0
 10
62.4028
 20
15.5314
 30
0
 10
63.9731
 20
16.1803
 30
0
 10
65.153
 20
16.7638
 30
0
  0
SPLINE
  5
ACB
330
A02
100
AcDbEntity
  8
View002
100
AcDbSpline
210
0
220
0
230
1
 70
8
 71
3
 72
8
 73
4
 74
0
 40
0
 40
0
 40
0
 40
0
 40
1
 40
1
 40
1
 40
1
 10
65.153
 20
16.7638
 30
0
 10
66.4723
 20
17.4164
 30
0
 10
67.3911
 20
18
 30
0
 10
70
 20
18
 30
0
  0
SPLINE
  5
ACC
330
A02
100
AcDbEntity
  8
View002
100
AcDbSpline
210
0
220
0
230
1
 70
8
 71
3
 72
8
 73
4
 74
0
 40
0
 40
0
 40
0
 40
0
 40
1
 40
1
 40
1
 40
1
 10
60.3777
 20
21.047
 30
0
 10
62.5705
 20
20.5605
 30
0
 10
63.1156
 20
19.2629
 30
0
 10
63.8682
 20
17.7494
 30
0
  0
SPLINE
  5
ACD
330
A02
100
AcDbEntity
  8
View002
100
AcDbSpline
210
0
220
0
230
1
 70
8
 71
3
 72
8
 73
4
 74
0
 40
0
 40
0
 40
0
 40
0
 40
1
 40
1
 40
1
 40
1
 10
65.5384
 20
15.393
 30
0
 10
66.4259
 20
14.6341
 30
0
 10
67.8095
 20
14.0178
 30
0
 10
70
 20
14
 30
0
  0
SPLINE
  5
ACE
330
A02
100
AcDbEntity
  8
View002
100
AcDbSpline
210
0
220
0
230
1
 70
8
 71
3
 72
8
 73
4
 74
0
 40
0
 40
0
 40
0
 40
0
 40
1
 40
1
 40
1
 40
1
 10
70
 20
20
 30
0
 10
68.0288
 20
19.991
 30
0
 10
66.8993
 20
19.6251
 30
0
 10
65.7868
 20
19.1396
 30
0
  0
SPLINE
  5
ACF
330
A02
100
AcDbEntity
  8
View002
100
AcDbSpline
210
0
220
0
230
1
 70
8
 71
3
 72
8
 73
4
 74
0
 40
0
 40
0
 40
0
 40
0
 40
1
 40
1
 40
1
 40
1
 10
63.0787
 20
18.0937
 30
0
 10
62.1995
 20
17.8964
 30
0
 10
61.1226
 20
17.8435
 30
0
 10
59.7338
 20
18.153
 30
0
  0
SPLINE
  5
AD0
330
A02
100
AcDbEntity
  8
View002
100
AcDbSpline
210
0
220
0
230
1
 70
8
 71
3
 72
8
 73
4
 74
0
 40
0
 40
0
 40
0
 40
0
 40
1
 40
1
 40
1
 40
1
 10
59.0898
 20
15.259
 30
0
 10
62.2471
 20
14.5526
 30
0
 10
63.8485
 20
15.1975
 30
0
 10
65.0505
 20
15.777
 30
0
  0
SPLINE
  5
AD1
330
A02
100
AcDbEntity
  8
View002
100
AcDbSpline
210
0
220
0
230
1
 70
8
 71
3
 72
8
 73
4
 74
0
 40
0
 40
0
 40
0
 40
0
 40
1
 40
1
 40
1
 40
1
 10
65.0505
 20
15.777
 30
0
 10
66.3966
 20
16.4259
 30
0
 10
67.3322
 20
17.0058
 30
0
 10
70
 20
17
 30
0
  0
SPLINE
  5
AD2
330
A02
100
AcDbEntity
  8
View002
100
AcDbSpline
210
0
220
0
230
1
 70
8
 71
3
 72
8
 73
4
 74
0
 40
0
 40
0
 40
0
 40
0
 40
1
 40
1
 40
1
 40
1
 10
52.0033
 20
25.911
 30
0
 10
54.4661
 20
24.8051
 30
0
 10
54.8438
 20
22.6111
 30
0
 10
55.7476
 20
20.5667
 30
0
  0
SPLINE
  5
AD3
330
A02
100
AcDbEntity
  8
View002
100
AcDbSpline
210
0
220
0
230
1
 70
8
 71
3
 72
8
 73
4
 74
0
 40
0
 40
0
 40
0
 40
0
 40
1
 40
1
 40
1
 40
1
 10
57.7625
 20
17.9258
 30
0
 10
58.2405
 20
17.6027
 30
0
 10
58.8181
 20
17.3448
 30
0
 10
59.5191
 20
17.1883
 30
0
  0
SPLINE
  5
AD4
330
A02
100
AcDbEntity
  8
View002
100
AcDbSpline
210
0
220
0
230
1
 70
8
 71
3
 72
8
 73
4
 74
0
 40
0
 40
0
 40
0
 40
0
 40
1
 40
1
 40
1
 40
1
 10
60.8071
 20
22.9763
 30
0
 10
58.2632
 20
23.5387
 30
0
 10
57.0729
 20
23.0649
 30
0
 10
55.4638
 20
22.7162
 30
0
  0
SPLINE
  5
AD5
330
A02
100
AcDbEntity
  8
View002
100
AcDbSpline
210
0
220
0
230
1
 70
8
 71
3
 72
8
 73
4
 74
0
 40
0
 40
0
 40
0
 40
0
 40
1
 40
1
 40
1
 40
1
 10
52.386
 20
22.6631
 30
0
 10
51.9005
 20
22.7701
 30
0
 10
51.3704
 20
22.9413
 30
0
 10
50.7922
 20
23.1999
 30
0
  0
SPLINE
  5
AD6
330
A02
100
AcDbEntity
  8
View002
100
AcDbSpline
210
0
220
0
230
1
 70
8
 71
3
 72
8
 73
4
 74
0
 40
0
 40
0
 40
0
 40
0
 40
1
 40
1
 40
1
 40
1
 10
49.5811
 20
20.4888
 30
0
 10
52.4197
 20
19.2237
 30
0
 10
54.0453
 20
19.5447
 30
0
 10
55.2974
 20
19.8776
 30
0
  0
SPLINE
  5
AD7
330
A02
100
AcDbEntity
  8
View002
100
AcDbSpline
210
0
220
0
230
1
 70
8
 71
3
 72
8
 73
4
 74
0
 40
0
 40
0
 40
0
 40
0
 40
1
 40
1
 40
1
 40
1
 10
55.2974
 20
19.8776
 30
0
 10
56.686
 20
20.2468
 30
0
 10
57.7002
 20
20.6295
 30
0
 10
60.1631
 20
20.0823
 30
0
  0
SPLINE
  5
AD8
330
A02
100
AcDbEntity
  8
View002
100
AcDbSpline
210
0
220
0
230
1
 70
8
 71
3
 72
8
 73
4
 74
0
 40
0
 40
0
 40
0
 40
0
 40
1
 40
1
 40
1
 40
1
 10
51.5996
 20
25.0073
 30
0
 10
53.8888
 20
23.9808
 30
0
 10
54.1539
 20
22.2254
 30
0
 10
54.8229
 20
20.3223
 30
0
  0
SPLINE
  5
AD9
330
A02
100
AcDbEntity
  8
View002
100
AcDbSpline
210
0
220
0
230
1
 70
8
 71
3
 72
8
 73
4
 74
0
 40
0
 40
0
 40
0
 40
0
 40
1
 40
1
 40
1
 40
1
 10
56.2592
 20
17.8058
 30
0
 10
56.9237
 20
17.1256
 30
0
 10
57.8867
 20
16.5405
 30
0
 10
59.3045
 20
16.2237
 30
0
  0
SPLINE
  5
ADA
330
A02
100
AcDbEntity
  8
View002
100
AcDbSpline
210
0
220
0
230
1
 70
8
 71
3
 72
8
 73
4
 74
0
 40
0
 40
0
 40
0
 40
0
 40
1
 40
1
 40
1
 40
1
 10
60.5924
 20
22.0116
 30
0
 10
58.3695
 20
22.5039
 30
0
 10
57.1515
 20
22.2363
 30
0
 10
55.7814
 20
21.9224
 30
0
  0
SPLINE
  5
ADB
330
A02
100
AcDbEntity
  8
View002
100
AcDbSpline
210
0
220
0
230
1
 70
8
 71
3
 72
8
 73
4
 74
0
 40
0
 40
0
 40
0
 40
0
 40
1
 40
1
 40
1
 40
1
 10
52.9597
 20
21.6042
 30
0
 10
52.2222
 20
21.6614
 30
0
 10
51.3741
 20
21.8559
 30
0
 10
50.3885
 20
22.2962
 30
0
  0
SPLINE
  5
ADC
330
A02
100
AcDbEntity
  8
View002
100
AcDbSpline
210
0
220
0
230
1
 70
8
 71
3
 72
8
 73
4
 74
0
 40
0
 40
0
 40
0
 40
0
 40
1
 40
1
 40
1
 40
1
 10
49.1774
 20
19.5851
 30
0
 10
52.0674
 20
18.2985
 30
0
 10
53.7207
 20
18.6117
 30
0
 10
54.9921
 20
18.938
 30
0
  0
SPLINE
  5
ADD
330
A02
100
AcDbEntity
  8
View002
100
AcDbSpline
210
0
220
0
230
1
 70
8
 71
3
 72
8
 73
4
 74
0
 40
0
 40
0
 40
0
 40
0
 40
1
 40
1
 40
1
 40
1
 10
54.9921
 20
18.938
 30
0
 10
56.4044
 20
19.3004
 30
0
 10
57.4331
 20
19.6774
 30
0
 10
59.9484
 20
19.1177
 30
0
  0
SPLINE
  5
ADE
330
A02
100
AcDbEntity
  8
View002
100
AcDbSpline
210
0
220
0
230
1
 70
8
 71
3
 72
8
 73
4
 74
0
 40
0
 40
0
 40
0
 40
0
 40
1
 40
1
 40
1
 40
1
 10
51.1959
 20
24.1036
 30
0
 10
53.2501
 20
23.1837
 30
0
 10
53.5335
 20
21.757
 30
0
 10
53.9457
 20
20.1624
 30
0
  0
SPLINE
  5
ADF
330
A02
100
AcDbEntity
  8
View002
100
AcDbSpline
210
0
220
0
230
1
 70
8
 71
3
 72
8
 73
4
 74
0
 40
0
 40
0
 40
0
 40
0
 40
1
 40
1
 40
1
 40
1
 10
55.0799
 20
17.5252
 30
0
 10
55.783
 20
16.6042
 30
0
 10
56.9886
 20
15.7291
 30
0
 10
59.0898
 20
15.259
 30
0
  0
SPLINE
  5
AE0
330
A02
100
AcDbEntity
  8
View002
100
AcDbSpline
210
0
220
0
230
1
 70
8
 71
3
 72
8
 73
4
 74
0
 40
0
 40
0
 40
0
 40
0
 40
1
 40
1
 40
1
 40
1
 10
60.3777
 20
21.047
 30
0
 10
58.4693
 20
21.4703
 30
0
 10
57.2875
 20
21.3565
 30
0
 10
56.1044
 20
21.1187
 30
0
  0
SPLINE
  5
AE1
330
A02
100
AcDbEntity
  8
View002
100
AcDbSpline
210
0
220
0
230
1
 70
8
 71
3
 72
8
 73
4
 74
0
 40
0
 40
0
 40
0
 40
0
 40
1
 40
1
 40
1
 40
1
 10
53.246
 20
20.6603
 30
0
 10
52.3465
 20
20.6472
 30
0
 10
51.2841
 20
20.8128
 30
0
 10
49.9848
 20
21.3925
 30
0
  0
SPLINE
  5
AE2
330
A02
100
AcDbEntity
  8
View002
100
AcDbSpline
210
0
220
0
230
1
 70
8
 71
3
 72
8
 73
4
 74
0
 40
0
 40
0
 40
0
 40
0
 40
1
 40
1
 40
1
 40
1
 10
48.7737
 20
18.6814
 30
0
 10
51.715
 20
17.3733
 30
0
 10
53.3961
 20
17.6786
 30
0
 10
54.6868
 20
17.9983
 30
0
  0
SPLINE
  5
AE3
330
A02
100
AcDbEntity
  8
View002
100
AcDbSpline
210
0
220
0
230
1
 70
8
 71
3
 72
8
 73
4
 74
0
 40
0
 40
0
 40
0
 40
0
 40
1
 40
1
 40
1
 40
1
 10
54.6868
 20
17.9983
 30
0
 10
56.123
 20
18.3539
 30
0
 10
57.166
 20
18.7252
 30
0
 10
59.7338
 20
18.153
 30
0
  0
SPLINE
  5
AE4
330
A02
100
AcDbEntity
  8
View002
100
AcDbSpline
210
0
220
0
230
1
 70
8
 71
3
 72
8
 73
4
 74
0
 40
0
 40
0
 40
0
 40
0
 40
1
 40
1
 40
1
 40
1
 10
43.8503
 20
30.5426
 30
0
 10
41.682
 20
32.0533
 30
0
 10
40.352
 20
32.0632
 30
0
 10
38.7221
 20
32.3313
 30
0
  0
SPLINE
  5
AE5
330
A02
100
AcDbEntity
  8
View002
100
AcDbSpline
210
0
220
0
230
1
 70
8
 71
3
 72
8
 73
4
 74
0
 40
0
 40
0
 40
0
 40
0
 40
1
 40
1
 40
1
 40
1
 10
43.8503
 20
30.5426
 30
0
 10
46.0873
 20
28.9841
 30
0
 10
46.0465
 20
26.7387
 30
0
 10
46.5416
 20
24.5491
 30
0
  0
SPLINE
  5
AE6
330
A02
100
AcDbEntity
  8
View002
100
AcDbSpline
210
0
220
0
230
1
 70
8
 71
3
 72
8
 73
4
 74
0
 40
0
 40
0
 40
0
 40
0
 40
1
 40
1
 40
1
 40
1
 10
48.0063
 20
21.558
 30
0
 10
48.4114
 20
21.147
 30
0
 10
48.9261
 20
20.7807
 30
0
 10
49.5811
 20
20.4888
 30
0
  0
SPLINE
  5
AE7
330
A02
100
AcDbEntity
  8
View002
100
AcDbSpline
210
0
220
0
230
1
 70
8
 71
3
 72
8
 73
4
 74
0
 40
0
 40
0
 40
0
 40
0
 40
1
 40
1
 40
1
 40
1
 10
52.0033
 20
25.911
 30
0
 10
49.611
 20
26.9852
 30
0
 10
48.3237
 20
26.7543
 30
0
 10
46.6753
 20
26.7235
 30
0
  0
SPLINE
  5
AE8
330
A02
100
AcDbEntity
  8
View002
100
AcDbSpline
210
0
220
0
230
1
 70
8
 71
3
 72
8
 73
4
 74
0
 40
0
 40
0
 40
0
 40
0
 40
1
 40
1
 40
1
 40
1
 10
43.6236
 20
27.2613
 30
0
 10
43.1639
 20
27.4588
 30
0
 10
42.6723
 20
27.7277
 30
0
 10
42.1489
 20
28.0912
 30
0
  0
SPLINE
  5
AE9
330
A02
100
AcDbEntity
  8
View002
100
AcDbSpline
210
0
220
0
230
1
 70
8
 71
3
 72
8
 73
4
 74
0
 40
0
 40
0
 40
0
 40
0
 40
1
 40
1
 40
1
 40
1
 10
37.519
 20
29.7281
 30
0
 10
38.9461
 20
29.5628
 30
0
 10
40.0639
 20
29.5397
 30
0
 10
42.1489
 20
28.0912
 30
0
  0
SPLINE
  5
AEA
330
A02
100
AcDbEntity
  8
View002
100
AcDbSpline
210
0
220
0
230
1
 70
8
 71
3
 72
8
 73
4
 74
0
 40
0
 40
0
 40
0
 40
0
 40
1
 40
1
 40
1
 40
1
 10
32.3799
 20
32.38
 30
0
 10
34.5883
 20
30.1716
 30
0
 10
36.2176
 20
29.8789
 30
0
 10
37.519
 20
29.7281
 30
0
  0
SPLINE
  5
AEB
330
A02
100
AcDbEntity
  8
View002
100
AcDbSpline
210
0
220
0
230
1
 70
8
 71
3
 72
8
 73
4
 74
0
 40
0
 40
0
 40
0
 40
0
 40
1
 40
1
 40
1
 40
1
 10
31.286
 20
33.9481
 30
0
 10
31.5193
 20
33.4172
 30
0
 10
31.8707
 20
32.8893
 30
0
 10
32.3799
 20
32.38
 30
0
  0
SPLINE
  5
AEC
330
A02
100
AcDbEntity
  8
View002
100
AcDbSpline
210
0
220
0
230
1
 70
8
 71
3
 72
8
 73
4
 74
0
 40
0
 40
0
 40
0
 40
0
 40
1
 40
1
 40
1
 40
1
 10
39.0936
 20
26.986
 30
0
 10
39.4172
 20
26.5057
 30
0
 10
39.8565
 20
26.0494
 30
0
 10
40.4475
 20
25.6399
 30
0
  0
SPLINE
  5
AED
330
A02
100
AcDbEntity
  8
View002
100
AcDbSpline
210
0
220
0
230
1
 70
8
 71
3
 72
8
 73
4
 74
0
 40
0
 40
0
 40
0
 40
0
 40
1
 40
1
 40
1
 40
1
 10
40.4475
 20
25.6399
 30
0
 10
43.0097
 20
23.8646
 30
0
 10
44.6642
 20
23.8705
 30
0
 10
45.9647
 20
23.9573
 30
0
  0
SPLINE
  5
AEE
330
A02
100
AcDbEntity
  8
View002
100
AcDbSpline
210
0
220
0
230
1
 70
8
 71
3
 72
8
 73
4
 74
0
 40
0
 40
0
 40
0
 40
0
 40
1
 40
1
 40
1
 40
1
 10
45.9647
 20
23.9573
 30
0
 10
47.3972
 20
24.0528
 30
0
 10
48.4852
 20
24.2317
 30
0
 10
50.7922
 20
23.1999
 30
0
  0
SPLINE
  5
AEF
330
A02
100
AcDbEntity
  8
View002
100
AcDbSpline
210
0
220
0
230
1
 70
8
 71
3
 72
8
 73
4
 74
0
 40
0
 40
0
 40
0
 40
0
 40
1
 40
1
 40
1
 40
1
 10
43.2832
 20
29.7255
 30
0
 10
41.3905
 20
31.0428
 30
0
 10
40.1255
 20
31.2537
 30
0
 10
38.7291
 20
31.4675
 30
0
  0
SPLINE
  5
AF0
330
A02
100
AcDbEntity
  8
View002
100
AcDbSpline
210
0
220
0
230
1
 70
8
 71
3
 72
8
 73
4
 74
0
 40
0
 40
0
 40
0
 40
0
 40
1
 40
1
 40
1
 40
1
 10
43.2832
 20
29.7255
 30
0
 10
45.3593
 20
28.2805
 30
0
 10
45.2909
 20
26.4879
 30
0
 10
45.5832
 20
24.4869
 30
0
  0
SPLINE
  5
AF1
330
A02
100
AcDbEntity
  8
View002
100
AcDbSpline
210
0
220
0
230
1
 70
8
 71
3
 72
8
 73
4
 74
0
 40
0
 40
0
 40
0
 40
0
 40
1
 40
1
 40
1
 40
1
 10
46.5069
 20
21.7321
 30
0
 10
47.0263
 20
20.9342
 30
0
 10
47.8541
 20
20.1742
 30
0
 10
49.1774
 20
19.5851
 30
0
  0
SPLINE
  5
AF2
330
A02
100
AcDbEntity
  8
View002
100
AcDbSpline
210
0
220
0
230
1
 70
8
 71
3
 72
8
 73
4
 74
0
 40
0
 40
0
 40
0
 40
0
 40
1
 40
1
 40
1
 40
1
 10
51.5996
 20
25.0073
 30
0
 10
49.5106
 20
25.9441
 30
0
 10
48.2449
 20
25.9214
 30
0
 10
46.8366
 20
25.8788
 30
0
  0
SPLINE
  5
AF3
330
A02
100
AcDbEntity
  8
View002
100
AcDbSpline
210
0
220
0
230
1
 70
8
 71
3
 72
8
 73
4
 74
0
 40
0
 40
0
 40
0
 40
0
 40
1
 40
1
 40
1
 40
1
 10
43.9903
 20
26.1072
 30
0
 10
43.273
 20
26.3038
 30
0
 10
42.4731
 20
26.6555
 30
0
 10
41.5818
 20
27.2741
 30
0
  0
SPLINE
  5
AF4
330
A02
100
AcDbEntity
  8
View002
100
AcDbSpline
210
0
220
0
230
1
 70
8
 71
3
 72
8
 73
4
 74
0
 40
0
 40
0
 40
0
 40
0
 40
1
 40
1
 40
1
 40
1
 10
36.885
 20
28.9597
 30
0
 10
38.3298
 20
28.7812
 30
0
 10
39.4574
 20
28.7485
 30
0
 10
41.5818
 20
27.2741
 30
0
  0
SPLINE
  5
AF5
330
A02
100
AcDbEntity
  8
View002
100
AcDbSpline
210
0
220
0
230
1
 70
8
 71
3
 72
8
 73
4
 74
0
 40
0
 40
0
 40
0
 40
0
 40
1
 40
1
 40
1
 40
1
 10
31.675
 20
31.6751
 30
0
 10
33.9196
 20
29.4304
 30
0
 10
35.5697
 20
29.1223
 30
0
 10
36.885
 20
28.9597
 30
0
  0
SPLINE
  5
AF6
330
A02
100
AcDbEntity
  8
View002
100
AcDbSpline
210
0
220
0
230
1
 70
8
 71
3
 72
8
 73
4
 74
0
 40
0
 40
0
 40
0
 40
0
 40
1
 40
1
 40
1
 40
1
 10
29.9408
 20
34.6447
 30
0
 10
30.1439
 20
33.7099
 30
0
 10
30.6478
 20
32.7023
 30
0
 10
31.675
 20
31.6751
 30
0
  0
SPLINE
  5
AF7
330
A02
100
AcDbEntity
  8
View002
100
AcDbSpline
210
0
220
0
230
1
 70
8
 71
3
 72
8
 73
4
 74
0
 40
0
 40
0
 40
0
 40
0
 40
1
 40
1
 40
1
 40
1
 10
37.6469
 20
27.4323
 30
0
 10
38.0125
 20
26.5494
 30
0
 10
38.6874
 20
25.6487
 30
0
 10
39.8804
 20
24.8228
 30
0
  0
SPLINE
  5
AF8
330
A02
100
AcDbEntity
  8
View002
100
AcDbSpline
210
0
220
0
230
1
 70
8
 71
3
 72
8
 73
4
 74
0
 40
0
 40
0
 40
0
 40
0
 40
1
 40
1
 40
1
 40
1
 10
39.8804
 20
24.8228
 30
0
 10
42.4864
 20
23.0187
 30
0
 10
44.1652
 20
23.0129
 30
0
 10
45.4822
 20
23.0904
 30
0
  0
SPLINE
  5
AF9
330
A02
100
AcDbEntity
  8
View002
100
AcDbSpline
210
0
220
0
230
1
 70
8
 71
3
 72
8
 73
4
 74
0
 40
0
 40
0
 40
0
 40
0
 40
1
 40
1
 40
1
 40
1
 10
45.4822
 20
23.0904
 30
0
 10
46.9355
 20
23.1759
 30
0
 10
48.0356
 20
23.3473
 30
0
 10
50.3885
 20
22.2962
 30
0
  0
SPLINE
  5
AFA
330
A02
100
AcDbEntity
  8
View002
100
AcDbSpline
210
0
220
0
230
1
 70
8
 71
3
 72
8
 73
4
 74
0
 40
0
 40
0
 40
0
 40
0
 40
1
 40
1
 40
1
 40
1
 10
42.716
 20
28.9084
 30
0
 10
44.5775
 20
27.614
 30
0
 10
44.5876
 20
26.1481
 30
0
 10
44.688
 20
24.4974
 30
0
  0
SPLINE
  5
AFB
330
A02
100
AcDbEntity
  8
View002
100
AcDbSpline
210
0
220
0
230
1
 70
8
 71
3
 72
8
 73
4
 74
0
 40
0
 40
0
 40
0
 40
0
 40
1
 40
1
 40
1
 40
1
 10
45.294
 20
21.6827
 30
0
 10
45.8056
 20
20.6403
 30
0
 10
46.8145
 20
19.5527
 30
0
 10
48.7737
 20
18.6814
 30
0
  0
SPLINE
  5
AFC
330
A02
100
AcDbEntity
  8
View002
100
AcDbSpline
210
0
220
0
230
1
 70
8
 71
3
 72
8
 73
4
 74
0
 40
0
 40
0
 40
0
 40
0
 40
1
 40
1
 40
1
 40
1
 10
51.1959
 20
24.1036
 30
0
 10
49.4043
 20
24.906
 30
0
 10
48.2101
 20
25.0275
 30
0
 10
47.0001
 20
25.0237
 30
0
  0
SPLINE
  5
AFD
330
A02
100
AcDbEntity
  8
View002
100
AcDbSpline
210
0
220
0
230
1
 70
8
 71
3
 72
8
 73
4
 74
0
 40
0
 40
0
 40
0
 40
0
 40
1
 40
1
 40
1
 40
1
 10
44.0934
 20
25.1216
 30
0
 10
43.2037
 20
25.2796
 30
0
 10
42.1884
 20
25.6431
 30
0
 10
41.0147
 20
26.457
 30
0
  0
SPLINE
  5
AFE
330
A02
100
AcDbEntity
  8
View002
100
AcDbSpline
210
0
220
0
230
1
 70
8
 71
3
 72
8
 73
4
 74
0
 40
0
 40
0
 40
0
 40
0
 40
1
 40
1
 40
1
 40
1
 10
39.3133
 20
24.0056
 30
0
 10
41.963
 20
22.1727
 30
0
 10
43.6662
 20
22.1553
 30
0
 10
44.9998
 20
22.2236
 30
0
  0
SPLINE
  5
AFF
330
A02
100
AcDbEntity
  8
View002
100
AcDbSpline
210
0
220
0
230
1
 70
8
 71
3
 72
8
 73
4
 74
0
 40
0
 40
0
 40
0
 40
0
 40
1
 40
1
 40
1
 40
1
 10
44.9998
 20
22.2236
 30
0
 10
46.4738
 20
22.2991
 30
0
 10
47.586
 20
22.4628
 30
0
 10
49.9848
 20
21.3925
 30
0
  0
SPLINE
  5
B00
330
A02
100
AcDbEntity
  8
View002
100
AcDbSpline
210
0
220
0
230
1
 70
8
 71
3
 72
8
 73
4
 74
0
 40
0
 40
0
 40
0
 40
0
 40
1
 40
1
 40
1
 40
1
 10
36.6095
 20
36.6096
 30
0
 10
34.7359
 20
38.4832
 30
0
 10
33.4211
 20
38.7281
 30
0
 10
31.8658
 20
39.278
 30
0
  0
SPLINE
  5
B01
330
A02
100
AcDbEntity
  8
View002
100
AcDbSpline
210
0
220
0
230
1
 70
8
 71
3
 72
8
 73
4
 74
0
 40
0
 40
0
 40
0
 40
0
 40
1
 40
1
 40
1
 40
1
 10
36.6095
 20
36.6096
 30
0
 10
38.5451
 20
34.674
 30
0
 10
38.1054
 20
32.4605
 30
0
 10
38.1964
 20
30.2078
 30
0
  0
SPLINE
  5
B02
330
A02
100
AcDbEntity
  8
View002
100
AcDbSpline
210
0
220
0
230
1
 70
8
 71
3
 72
8
 73
4
 74
0
 40
0
 40
0
 40
0
 40
0
 40
1
 40
1
 40
1
 40
1
 10
35.8026
 20
33.4126
 30
0
 10
35.384
 20
33.6898
 30
0
 10
34.9465
 20
34.043
 30
0
 10
34.4947
 20
34.4948
 30
0
  0
SPLINE
  5
B03
330
A02
100
AcDbEntity
  8
View002
100
AcDbSpline
210
0
220
0
230
1
 70
8
 71
3
 72
8
 73
4
 74
0
 40
0
 40
0
 40
0
 40
0
 40
1
 40
1
 40
1
 40
1
 10
30.2218
 20
36.9287
 30
0
 10
31.5955
 20
36.514
 30
0
 10
32.6964
 20
36.2931
 30
0
 10
34.4947
 20
34.4948
 30
0
  0
SPLINE
  5
B04
330
A02
100
AcDbEntity
  8
View002
100
AcDbSpline
210
0
220
0
230
1
 70
8
 71
3
 72
8
 73
4
 74
0
 40
0
 40
0
 40
0
 40
0
 40
1
 40
1
 40
1
 40
1
 10
25.6398
 20
40.4476
 30
0
 10
27.4159
 20
37.8842
 30
0
 10
28.9681
 20
37.3071
 30
0
 10
30.2218
 20
36.9287
 30
0
  0
SPLINE
  5
B05
330
A02
100
AcDbEntity
  8
View002
100
AcDbSpline
210
0
220
0
230
1
 70
8
 71
3
 72
8
 73
4
 74
0
 40
0
 40
0
 40
0
 40
0
 40
1
 40
1
 40
1
 40
1
 10
24.845
 20
42.183
 30
0
 10
24.9794
 20
41.6201
 30
0
 10
25.2303
 20
41.0387
 30
0
 10
25.6398
 20
40.4476
 30
0
  0
SPLINE
  5
B06
330
A02
100
AcDbEntity
  8
View002
100
AcDbSpline
210
0
220
0
230
1
 70
8
 71
3
 72
8
 73
4
 74
0
 40
0
 40
0
 40
0
 40
0
 40
1
 40
1
 40
1
 40
1
 10
35.9046
 20
35.9046
 30
0
 10
34.2698
 20
37.5394
 30
0
 10
33.0563
 20
37.9709
 30
0
 10
31.7204
 20
38.4269
 30
0
  0
SPLINE
  5
B07
330
A02
100
AcDbEntity
  8
View002
100
AcDbSpline
210
0
220
0
230
1
 70
8
 71
3
 72
8
 73
4
 74
0
 40
0
 40
0
 40
0
 40
0
 40
1
 40
1
 40
1
 40
1
 10
35.9046
 20
35.9046
 30
0
 10
37.7005
 20
34.1088
 30
0
 10
37.3128
 20
32.3487
 30
0
 10
37.2385
 20
30.3204
 30
0
  0
SPLINE
  5
B08
330
A02
100
AcDbEntity
  8
View002
100
AcDbSpline
210
0
220
0
230
1
 70
8
 71
3
 72
8
 73
4
 74
0
 40
0
 40
0
 40
0
 40
0
 40
1
 40
1
 40
1
 40
1
 10
35.9581
 20
32.2076
 30
0
 10
35.285
 20
32.5306
 30
0
 10
34.5588
 20
33.0209
 30
0
 10
33.7898
 20
33.7899
 30
0
  0
SPLINE
  5
B09
330
A02
100
AcDbEntity
  8
View002
100
AcDbSpline
210
0
220
0
230
1
 70
8
 71
3
 72
8
 73
4
 74
0
 40
0
 40
0
 40
0
 40
0
 40
1
 40
1
 40
1
 40
1
 10
29.4618
 20
36.2843
 30
0
 10
30.8501
 20
35.8532
 30
0
 10
31.9587
 20
35.6209
 30
0
 10
33.7898
 20
33.7899
 30
0
  0
SPLINE
  5
B0A
330
A02
100
AcDbEntity
  8
View002
100
AcDbSpline
210
0
220
0
230
1
 70
8
 71
3
 72
8
 73
4
 74
0
 40
0
 40
0
 40
0
 40
0
 40
1
 40
1
 40
1
 40
1
 10
24.8227
 20
39.8805
 30
0
 10
26.6275
 20
37.2734
 30
0
 10
28.197
 20
36.6771
 30
0
 10
29.4618
 20
36.2843
 30
0
  0
SPLINE
  5
B0B
330
A02
100
AcDbEntity
  8
View002
100
AcDbSpline
210
0
220
0
230
1
 70
8
 71
3
 72
8
 73
4
 74
0
 40
0
 40
0
 40
0
 40
0
 40
1
 40
1
 40
1
 40
1
 10
23.6502
 20
43.1079
 30
0
 10
23.6822
 20
42.154
 30
0
 10
23.9968
 20
41.0734
 30
0
 10
24.8227
 20
39.8805
 30
0
  0
SPLINE
  5
B0C
330
A02
100
AcDbEntity
  8
View002
100
AcDbSpline
210
0
220
0
230
1
 70
8
 71
3
 72
8
 73
4
 74
0
 40
0
 40
0
 40
0
 40
0
 40
1
 40
1
 40
1
 40
1
 10
35.1997
 20
35.1997
 30
0
 10
33.7993
 20
36.6001
 30
0
 10
32.7096
 20
37.1413
 30
0
 10
31.5726
 20
37.5651
 30
0
  0
SPLINE
  5
B0D
330
A02
100
AcDbEntity
  8
View002
100
AcDbSpline
210
0
220
0
230
1
 70
8
 71
3
 72
8
 73
4
 74
0
 40
0
 40
0
 40
0
 40
0
 40
1
 40
1
 40
1
 40
1
 10
35.1997
 20
35.1997
 30
0
 10
36.8111
 20
33.5883
 30
0
 10
36.5599
 20
32.1717
 30
0
 10
36.3566
 20
30.4926
 30
0
  0
SPLINE
  5
B0E
330
A02
100
AcDbEntity
  8
View002
100
AcDbSpline
210
0
220
0
230
1
 70
8
 71
3
 72
8
 73
4
 74
0
 40
0
 40
0
 40
0
 40
0
 40
1
 40
1
 40
1
 40
1
 10
36.442
 20
27.604
 30
0
 10
36.7556
 20
26.4813
 30
0
 10
37.5484
 20
25.2265
 30
0
 10
39.3133
 20
24.0056
 30
0
  0
SPLINE
  5
B0F
330
A02
100
AcDbEntity
  8
View002
100
AcDbSpline
210
0
220
0
230
1
 70
8
 71
3
 72
8
 73
4
 74
0
 40
0
 40
0
 40
0
 40
0
 40
1
 40
1
 40
1
 40
1
 10
42.716
 20
28.9084
 30
0
 10
41.094
 20
30.0362
 30
0
 10
39.93
 20
30.3764
 30
0
 10
38.7357
 20
30.593
 30
0
  0
SPLINE
  5
B10
330
A02
100
AcDbEntity
  8
View002
100
AcDbSpline
210
0
220
0
230
1
 70
8
 71
3
 72
8
 73
4
 74
0
 40
0
 40
0
 40
0
 40
0
 40
1
 40
1
 40
1
 40
1
 10
35.8825
 20
31.2161
 30
0
 10
35.0326
 20
31.5323
 30
0
 10
34.0969
 20
32.0729
 30
0
 10
33.0849
 20
33.0849
 30
0
  0
SPLINE
  5
B11
330
A02
100
AcDbEntity
  8
View002
100
AcDbSpline
210
0
220
0
230
1
 70
8
 71
3
 72
8
 73
4
 74
0
 40
0
 40
0
 40
0
 40
0
 40
1
 40
1
 40
1
 40
1
 10
30.9701
 20
30.9701
 30
0
 10
33.2509
 20
28.6893
 30
0
 10
34.9219
 20
28.3656
 30
0
 10
36.2509
 20
28.1913
 30
0
  0
SPLINE
  5
B12
330
A02
100
AcDbEntity
  8
View002
100
AcDbSpline
210
0
220
0
230
1
 70
8
 71
3
 72
8
 73
4
 74
0
 40
0
 40
0
 40
0
 40
0
 40
1
 40
1
 40
1
 40
1
 10
36.2509
 20
28.1913
 30
0
 10
37.7135
 20
27.9995
 30
0
 10
38.8509
 20
27.9574
 30
0
 10
41.0147
 20
26.457
 30
0
  0
SPLINE
  5
B13
330
A02
100
AcDbEntity
  8
View002
100
AcDbSpline
210
0
220
0
230
1
 70
8
 71
3
 72
8
 73
4
 74
0
 40
0
 40
0
 40
0
 40
0
 40
1
 40
1
 40
1
 40
1
 10
30.5426
 20
43.8504
 30
0
 10
29.034
 20
46.0156
 30
0
 10
27.7929
 20
46.4852
 30
0
 10
26.3679
 20
47.3021
 30
0
  0
SPLINE
  5
B14
330
A02
100
AcDbEntity
  8
View002
100
AcDbSpline
210
0
220
0
230
1
 70
8
 71
3
 72
8
 73
4
 74
0
 40
0
 40
0
 40
0
 40
0
 40
1
 40
1
 40
1
 40
1
 10
30.5426
 20
43.8503
 30
0
 10
32.1056
 20
41.6069
 30
0
 10
31.2894
 20
39.5689
 30
0
 10
30.9735
 20
37.2811
 30
0
  0
SPLINE
  5
B15
330
A02
100
AcDbEntity
  8
View002
100
AcDbSpline
210
0
220
0
230
1
 70
8
 71
3
 72
8
 73
4
 74
0
 40
0
 40
0
 40
0
 40
0
 40
1
 40
1
 40
1
 40
1
 10
29.1845
 20
40.8553
 30
0
 10
28.822
 20
41.2016
 30
0
 10
28.4548
 20
41.6256
 30
0
 10
28.0912
 20
42.149
 30
0
  0
SPLINE
  5
B16
330
A02
100
AcDbEntity
  8
View002
100
AcDbSpline
210
0
220
0
230
1
 70
8
 71
3
 72
8
 73
4
 74
0
 40
0
 40
0
 40
0
 40
0
 40
1
 40
1
 40
1
 40
1
 10
24.3346
 20
45.2973
 30
0
 10
25.6072
 20
44.6432
 30
0
 10
26.644
 20
44.2322
 30
0
 10
28.0912
 20
42.149
 30
0
  0
SPLINE
  5
B17
330
A02
100
AcDbEntity
  8
View002
100
AcDbSpline
210
0
220
0
230
1
 70
8
 71
3
 72
8
 73
4
 74
0
 40
0
 40
0
 40
0
 40
0
 40
1
 40
1
 40
1
 40
1
 10
20.4888
 20
49.5812
 30
0
 10
21.7541
 20
46.7421
 30
0
 10
23.1773
 20
45.8922
 30
0
 10
24.3346
 20
45.2973
 30
0
  0
SPLINE
  5
B18
330
A02
100
AcDbEntity
  8
View002
100
AcDbSpline
210
0
220
0
230
1
 70
8
 71
3
 72
8
 73
4
 74
0
 40
0
 40
0
 40
0
 40
0
 40
1
 40
1
 40
1
 40
1
 10
20.0323
 20
51.429
 30
0
 10
20.059
 20
50.8527
 30
0
 10
20.1968
 20
50.2362
 30
0
 10
20.4888
 20
49.5812
 30
0
  0
SPLINE
  5
B19
330
A02
100
AcDbEntity
  8
View002
100
AcDbSpline
210
0
220
0
230
1
 70
8
 71
3
 72
8
 73
4
 74
0
 40
0
 40
0
 40
0
 40
0
 40
1
 40
1
 40
1
 40
1
 10
29.7254
 20
43.2832
 30
0
 10
28.4096
 20
45.1738
 30
0
 10
27.2991
 20
45.8099
 30
0
 10
26.0721
 20
46.4956
 30
0
  0
SPLINE
  5
B1A
330
A02
100
AcDbEntity
  8
View002
100
AcDbSpline
210
0
220
0
230
1
 70
8
 71
3
 72
8
 73
4
 74
0
 40
0
 40
0
 40
0
 40
0
 40
1
 40
1
 40
1
 40
1
 10
29.7254
 20
43.2832
 30
0
 10
31.1723
 20
41.2044
 30
0
 10
30.4824
 20
39.5461
 30
0
 10
30.0505
 20
37.5613
 30
0
  0
SPLINE
  5
B1B
330
A02
100
AcDbEntity
  8
View002
100
AcDbSpline
210
0
220
0
230
1
 70
8
 71
3
 72
8
 73
4
 74
0
 40
0
 40
0
 40
0
 40
0
 40
1
 40
1
 40
1
 40
1
 10
29.1244
 20
39.6438
 30
0
 10
28.5198
 20
40.0802
 30
0
 10
27.8927
 20
40.6905
 30
0
 10
27.2741
 20
41.5819
 30
0
  0
SPLINE
  5
B1C
330
A02
100
AcDbEntity
  8
View002
100
AcDbSpline
210
0
220
0
230
1
 70
8
 71
3
 72
8
 73
4
 74
0
 40
0
 40
0
 40
0
 40
0
 40
1
 40
1
 40
1
 40
1
 10
23.4743
 20
44.8026
 30
0
 10
24.7584
 20
44.1287
 30
0
 10
25.8008
 20
43.7046
 30
0
 10
27.2741
 20
41.5819
 30
0
  0
SPLINE
  5
B1D
330
A02
100
AcDbEntity
  8
View002
100
AcDbSpline
210
0
220
0
230
1
 70
8
 71
3
 72
8
 73
4
 74
0
 40
0
 40
0
 40
0
 40
0
 40
1
 40
1
 40
1
 40
1
 10
19.5851
 20
49.1775
 30
0
 10
20.8717
 20
46.2874
 30
0
 10
22.3085
 20
45.4144
 30
0
 10
23.4743
 20
44.8026
 30
0
  0
SPLINE
  5
B1E
330
A02
100
AcDbEntity
  8
View002
100
AcDbSpline
210
0
220
0
230
1
 70
8
 71
3
 72
8
 73
4
 74
0
 40
0
 40
0
 40
0
 40
0
 40
1
 40
1
 40
1
 40
1
 10
19.0364
 20
52.5602
 30
0
 10
18.8891
 20
51.6201
 30
0
 10
18.996
 20
50.5008
 30
0
 10
19.5851
 20
49.1775
 30
0
  0
SPLINE
  5
B1F
330
A02
100
AcDbEntity
  8
View002
100
AcDbSpline
210
0
220
0
230
1
 70
8
 71
3
 72
8
 73
4
 74
0
 40
0
 40
0
 40
0
 40
0
 40
1
 40
1
 40
1
 40
1
 10
28.9083
 20
42.7161
 30
0
 10
27.7814
 20
44.3369
 30
0
 10
26.8106
 20
45.0598
 30
0
 10
25.7723
 20
45.6784
 30
0
  0
SPLINE
  5
B20
330
A02
100
AcDbEntity
  8
View002
100
AcDbSpline
210
0
220
0
230
1
 70
8
 71
3
 72
8
 73
4
 74
0
 40
0
 40
0
 40
0
 40
0
 40
1
 40
1
 40
1
 40
1
 10
28.9083
 20
42.7161
 30
0
 10
30.206
 20
40.8498
 30
0
 10
29.7105
 20
39.504
 30
0
 10
29.2132
 20
37.8867
 30
0
  0
SPLINE
  5
B21
330
A02
100
AcDbEntity
  8
View002
100
AcDbSpline
210
0
220
0
230
1
 70
8
 71
3
 72
8
 73
4
 74
0
 40
0
 40
0
 40
0
 40
0
 40
1
 40
1
 40
1
 40
1
 10
28.7856
 20
35.0276
 30
0
 10
28.8948
 20
33.8659
 30
0
 10
29.4514
 20
32.4888
 30
0
 10
30.9701
 20
30.9701
 30
0
  0
SPLINE
  5
B22
330
A02
100
AcDbEntity
  8
View002
100
AcDbSpline
210
0
220
0
230
1
 70
8
 71
3
 72
8
 73
4
 74
0
 40
0
 40
0
 40
0
 40
0
 40
1
 40
1
 40
1
 40
1
 10
28.8749
 20
38.6822
 30
0
 10
28.0951
 20
39.1435
 30
0
 10
27.271
 20
39.8409
 30
0
 10
26.4569
 20
41.0148
 30
0
  0
SPLINE
  5
B23
330
A02
100
AcDbEntity
  8
View002
100
AcDbSpline
210
0
220
0
230
1
 70
8
 71
3
 72
8
 73
4
 74
0
 40
0
 40
0
 40
0
 40
0
 40
1
 40
1
 40
1
 40
1
 10
22.6139
 20
44.3079
 30
0
 10
23.9096
 20
43.6142
 30
0
 10
24.9575
 20
43.1771
 30
0
 10
26.4569
 20
41.0148
 30
0
  0
SPLINE
  5
B24
330
A02
100
AcDbEntity
  8
View002
100
AcDbSpline
210
0
220
0
230
1
 70
8
 71
3
 72
8
 73
4
 74
0
 40
0
 40
0
 40
0
 40
0
 40
1
 40
1
 40
1
 40
1
 10
18.6814
 20
48.7738
 30
0
 10
19.9893
 20
45.8328
 30
0
 10
21.4397
 20
44.9366
 30
0
 10
22.6139
 20
44.3079
 30
0
  0
SPLINE
  5
B25
330
A02
100
AcDbEntity
  8
View002
100
AcDbSpline
210
0
220
0
230
1
 70
8
 71
3
 72
8
 73
4
 74
0
 40
0
 40
0
 40
0
 40
0
 40
1
 40
1
 40
1
 40
1
 10
24.0056
 20
39.3134
 30
0
 10
25.8391
 20
36.6628
 30
0
 10
27.4259
 20
36.047
 30
0
 10
28.7018
 20
35.6399
 30
0
  0
SPLINE
  5
B26
330
A02
100
AcDbEntity
  8
View002
100
AcDbSpline
210
0
220
0
230
1
 70
8
 71
3
 72
8
 73
4
 74
0
 40
0
 40
0
 40
0
 40
0
 40
1
 40
1
 40
1
 40
1
 10
28.7018
 20
35.6399
 30
0
 10
30.1048
 20
35.1923
 30
0
 10
31.221
 20
34.9488
 30
0
 10
33.0849
 20
33.0849
 30
0
  0
SPLINE
  5
B27
330
A02
100
AcDbEntity
  8
View002
100
AcDbSpline
210
0
220
0
230
1
 70
8
 71
3
 72
8
 73
4
 74
0
 40
0
 40
0
 40
0
 40
0
 40
1
 40
1
 40
1
 40
1
 10
25.911
 20
52.0034
 30
0
 10
24.8386
 20
54.3914
 30
0
 10
23.7281
 20
55.0706
 30
0
 10
22.4898
 20
56.1422
 30
0
  0
SPLINE
  5
B28
330
A02
100
AcDbEntity
  8
View002
100
AcDbSpline
210
0
220
0
230
1
 70
8
 71
3
 72
8
 73
4
 74
0
 40
0
 40
0
 40
0
 40
0
 40
1
 40
1
 40
1
 40
1
 10
25.911
 20
52.0034
 30
0
 10
27.0209
 20
49.5315
 30
0
 10
25.8561
 20
47.6962
 30
0
 10
25.1344
 20
45.5076
 30
0
  0
SPLINE
  5
B29
330
A02
100
AcDbEntity
  8
View002
100
AcDbSpline
210
0
220
0
230
1
 70
8
 71
3
 72
8
 73
4
 74
0
 40
0
 40
0
 40
0
 40
0
 40
1
 40
1
 40
1
 40
1
 10
24.0308
 20
49.328
 30
0
 10
23.7398
 20
49.7324
 30
0
 10
23.4584
 20
50.2142
 30
0
 10
23.1999
 20
50.7923
 30
0
  0
SPLINE
  5
B2A
330
A02
100
AcDbEntity
  8
View002
100
AcDbSpline
210
0
220
0
230
1
 70
8
 71
3
 72
8
 73
4
 74
0
 40
0
 40
0
 40
0
 40
0
 40
1
 40
1
 40
1
 40
1
 10
20.119
 20
54.5726
 30
0
 10
21.2421
 20
53.687
 30
0
 10
22.169
 20
53.0972
 30
0
 10
23.1999
 20
50.7923
 30
0
  0
SPLINE
  5
B2B
330
A02
100
AcDbEntity
  8
View002
100
AcDbSpline
210
0
220
0
230
1
 70
8
 71
3
 72
8
 73
4
 74
0
 40
0
 40
0
 40
0
 40
0
 40
1
 40
1
 40
1
 40
1
 10
17.1883
 20
59.5192
 30
0
 10
17.8654
 20
56.4851
 30
0
 10
19.1059
 20
55.3715
 30
0
 10
20.119
 20
54.5726
 30
0
  0
SPLINE
  5
B2C
330
A02
100
AcDbEntity
  8
View002
100
AcDbSpline
210
0
220
0
230
1
 70
8
 71
3
 72
8
 73
4
 74
0
 40
0
 40
0
 40
0
 40
0
 40
1
 40
1
 40
1
 40
1
 10
25.0073
 20
51.5997
 30
0
 10
24.0718
 20
53.6859
 30
0
 10
23.1151
 20
54.5079
 30
0
 10
22.0456
 20
55.412
 30
0
  0
SPLINE
  5
B2D
330
A02
100
AcDbEntity
  8
View002
100
AcDbSpline
210
0
220
0
230
1
 70
8
 71
3
 72
8
 73
4
 74
0
 40
0
 40
0
 40
0
 40
0
 40
1
 40
1
 40
1
 40
1
 10
25.0073
 20
51.5997
 30
0
 10
26.0355
 20
49.3068
 30
0
 10
25.0624
 20
47.8175
 30
0
 10
24.2806
 20
45.948
 30
0
  0
SPLINE
  5
B2E
330
A02
100
AcDbEntity
  8
View002
100
AcDbSpline
210
0
220
0
230
1
 70
8
 71
3
 72
8
 73
4
 74
0
 40
0
 40
0
 40
0
 40
0
 40
1
 40
1
 40
1
 40
1
 10
23.7509
 20
48.1543
 30
0
 10
23.2388
 20
48.6909
 30
0
 10
22.7365
 20
49.403
 30
0
 10
22.2962
 20
50.3886
 30
0
  0
SPLINE
  5
B2F
330
A02
100
AcDbEntity
  8
View002
100
AcDbSpline
210
0
220
0
230
1
 70
8
 71
3
 72
8
 73
4
 74
0
 40
0
 40
0
 40
0
 40
0
 40
1
 40
1
 40
1
 40
1
 10
19.184
 20
54.2531
 30
0
 10
20.3155
 20
53.3445
 30
0
 10
21.2458
 20
52.7398
 30
0
 10
22.2962
 20
50.3886
 30
0
  0
SPLINE
  5
B30
330
A02
100
AcDbEntity
  8
View002
100
AcDbSpline
210
0
220
0
230
1
 70
8
 71
3
 72
8
 73
4
 74
0
 40
0
 40
0
 40
0
 40
0
 40
1
 40
1
 40
1
 40
1
 10
16.2237
 20
59.3046
 30
0
 10
16.9146
 20
56.2122
 30
0
 10
18.1649
 20
55.0715
 30
0
 10
19.184
 20
54.2531
 30
0
  0
SPLINE
  5
B31
330
A02
100
AcDbEntity
  8
View002
100
AcDbSpline
210
0
220
0
230
1
 70
8
 71
3
 72
8
 73
4
 74
0
 40
0
 40
0
 40
0
 40
0
 40
1
 40
1
 40
1
 40
1
 10
16.3613
 20
62.7402
 30
0
 10
16.0261
 20
61.8463
 30
0
 10
15.9067
 20
60.723
 30
0
 10
16.2237
 20
59.3045
 30
0
  0
SPLINE
  5
B32
330
A02
100
AcDbEntity
  8
View002
100
AcDbSpline
210
0
220
0
230
1
 70
8
 71
3
 72
8
 73
4
 74
0
 40
0
 40
0
 40
0
 40
0
 40
1
 40
1
 40
1
 40
1
 10
24.1036
 20
51.196
 30
0
 10
23.302
 20
52.9858
 30
0
 10
22.4943
 20
53.8695
 30
0
 10
21.5965
 20
54.6714
 30
0
  0
SPLINE
  5
B33
330
A02
100
AcDbEntity
  8
View002
100
AcDbSpline
210
0
220
0
230
1
 70
8
 71
3
 72
8
 73
4
 74
0
 40
0
 40
0
 40
0
 40
0
 40
1
 40
1
 40
1
 40
1
 10
24.1036
 20
51.196
 30
0
 10
25.0263
 20
49.1355
 30
0
 10
24.2994
 20
47.9143
 30
0
 10
23.5193
 20
46.418
 30
0
  0
SPLINE
  5
B34
330
A02
100
AcDbEntity
  8
View002
100
AcDbSpline
210
0
220
0
230
1
 70
8
 71
3
 72
8
 73
4
 74
0
 40
0
 40
0
 40
0
 40
0
 40
1
 40
1
 40
1
 40
1
 10
22.5862
 20
43.6919
 30
0
 10
22.4853
 20
42.5324
 30
0
 10
22.7848
 20
41.0781
 30
0
 10
24.0056
 20
39.3134
 30
0
  0
SPLINE
  5
B35
330
A02
100
AcDbEntity
  8
View002
100
AcDbSpline
210
0
220
0
230
1
 70
8
 71
3
 72
8
 73
4
 74
0
 40
0
 40
0
 40
0
 40
0
 40
1
 40
1
 40
1
 40
1
 10
23.332
 20
47.2585
 30
0
 10
22.6527
 20
47.8514
 30
0
 10
21.9722
 20
48.6856
 30
0
 10
21.3925
 20
49.9849
 30
0
  0
SPLINE
  5
B36
330
A02
100
AcDbEntity
  8
View002
100
AcDbSpline
210
0
220
0
230
1
 70
8
 71
3
 72
8
 73
4
 74
0
 40
0
 40
0
 40
0
 40
0
 40
1
 40
1
 40
1
 40
1
 10
18.2489
 20
53.9337
 30
0
 10
19.3888
 20
53.002
 30
0
 10
20.3227
 20
52.3825
 30
0
 10
21.3925
 20
49.9849
 30
0
  0
SPLINE
  5
B37
330
A02
100
AcDbEntity
  8
View002
100
AcDbSpline
210
0
220
0
230
1
 70
8
 71
3
 72
8
 73
4
 74
0
 40
0
 40
0
 40
0
 40
0
 40
1
 40
1
 40
1
 40
1
 10
15.259
 20
59.0899
 30
0
 10
15.9639
 20
55.9392
 30
0
 10
17.2239
 20
54.7715
 30
0
 10
18.2489
 20
53.9337
 30
0
  0
SPLINE
  5
B38
330
A02
100
AcDbEntity
  8
View002
100
AcDbSpline
210
0
220
0
230
1
 70
8
 71
3
 72
8
 73
4
 74
0
 40
0
 40
0
 40
0
 40
0
 40
1
 40
1
 40
1
 40
1
 10
22.9763
 20
60.8071
 30
0
 10
23.556
 20
58.1848
 30
0
 10
22.0651
 20
56.6306
 30
0
 10
20.9407
 20
54.6257
 30
0
  0
SPLINE
  5
B39
330
A02
100
AcDbEntity
  8
View002
100
AcDbSpline
210
0
220
0
230
1
 70
8
 71
3
 72
8
 73
4
 74
0
 40
0
 40
0
 40
0
 40
0
 40
1
 40
1
 40
1
 40
1
 10
20.6032
 20
58.5692
 30
0
 10
20.3987
 20
59.0209
 30
0
 10
20.2192
 20
59.547
 30
0
 10
20.0823
 20
60.1632
 30
0
  0
SPLINE
  5
B3A
330
A02
100
AcDbEntity
  8
View002
100
AcDbSpline
210
0
220
0
230
1
 70
8
 71
3
 72
8
 73
4
 74
0
 40
0
 40
0
 40
0
 40
0
 40
1
 40
1
 40
1
 40
1
 10
17.8366
 20
64.4928
 30
0
 10
18.7599
 20
63.3828
 30
0
 10
19.5347
 20
62.6275
 30
0
 10
20.0823
 20
60.1632
 30
0
  0
SPLINE
  5
B3B
330
A02
100
AcDbEntity
  8
View002
100
AcDbSpline
210
0
220
0
230
1
 70
8
 71
3
 72
8
 73
4
 74
0
 40
0
 40
0
 40
0
 40
0
 40
1
 40
1
 40
1
 40
1
 10
16
 20
70
 30
0
 10
16.0133
 20
66.8522
 30
0
 10
17.0132
 20
65.4828
 30
0
 10
17.8366
 20
64.4928
 30
0
  0
SPLINE
  5
B3C
330
A02
100
AcDbEntity
  8
View002
100
AcDbSpline
210
0
220
0
230
1
 70
8
 71
1
 72
4
 73
2
 74
0
 40
0
 40
0
 40
1
 40
1
 10
16
 20
70
 30
0
 10
16
 20
70
 30
0
  0
SPLINE
  5
B3D
330
A02
100
AcDbEntity
  8
View002
100
AcDbSpline
210
0
220
0
230
1
 70
8
 71
3
 72
8
 73
4
 74
0
 40
0
 40
0
 40
0
 40
0
 40
1
 40
1
 40
1
 40
1
 10
22.0116
 20
60.5925
 30
0
 10
21.5194
 20
62.8151
 30
0
 10
20.7643
 20
63.8021
 30
0
 10
19.9026
 20
64.9145
 30
0
  0
SPLINE
  5
B3E
330
A02
100
AcDbEntity
  8
View002
100
AcDbSpline
210
0
220
0
230
1
 70
8
 71
3
 72
8
 73
4
 74
0
 40
0
 40
0
 40
0
 40
0
 40
1
 40
1
 40
1
 40
1
 10
22.0116
 20
60.5925
 30
0
 10
22.5512
 20
58.1558
 30
0
 10
21.3144
 20
56.8999
 30
0
 10
20.1904
 20
55.219
 30
0
  0
SPLINE
  5
B3F
330
A02
100
AcDbEntity
  8
View002
100
AcDbSpline
210
0
220
0
230
1
 70
8
 71
3
 72
8
 73
4
 74
0
 40
0
 40
0
 40
0
 40
0
 40
1
 40
1
 40
1
 40
1
 10
20.0991
 20
57.4775
 30
0
 10
19.7036
 20
58.1011
 30
0
 10
19.3517
 20
58.8968
 30
0
 10
19.1176
 20
59.9485
 30
0
  0
SPLINE
  5
B40
330
A02
100
AcDbEntity
  8
View002
100
AcDbSpline
210
0
220
0
230
1
 70
8
 71
3
 72
8
 73
4
 74
0
 40
0
 40
0
 40
0
 40
0
 40
1
 40
1
 40
1
 40
1
 10
16.8524
 20
64.3742
 30
0
 10
17.7809
 20
63.2379
 30
0
 10
18.5574
 20
62.466
 30
0
 10
19.1176
 20
59.9485
 30
0
  0
SPLINE
  5
B41
330
A02
100
AcDbEntity
  8
View002
100
AcDbSpline
210
0
220
0
230
1
 70
8
 71
3
 72
8
 73
4
 74
0
 40
0
 40
0
 40
0
 40
0
 40
1
 40
1
 40
1
 40
1
 10
15
 20
70
 30
0
 10
15.02
 20
66.7865
 30
0
 10
16.0256
 20
65.3863
 30
0
 10
16.8524
 20
64.3742
 30
0
  0
SPLINE
  5
B42
330
A02
100
AcDbEntity
  8
View002
100
AcDbSpline
210
0
220
0
230
1
 70
8
 71
1
 72
4
 73
2
 74
0
 40
0
 40
0
 40
1
 40
1
 10
15
 20
70
 30
0
 10
15
 20
70
 30
0
  0
SPLINE
  5
B43
330
A02
100
AcDbEntity
  8
View002
100
AcDbSpline
210
0
220
0
230
1
 70
8
 71
3
 72
8
 73
4
 74
0
 40
0
 40
0
 40
0
 40
0
 40
1
 40
1
 40
1
 40
1
 10
21.0469
 20
60.3778
 30
0
 10
20.6236
 20
62.2861
 30
0
 10
20.0216
 20
63.3081
 30
0
 10
19.3066
 20
64.2825
 30
0
  0
SPLINE
  5
B44
330
A02
100
AcDbEntity
  8
View002
100
AcDbSpline
210
0
220
0
230
1
 70
8
 71
3
 72
8
 73
4
 74
0
 40
0
 40
0
 40
0
 40
0
 40
1
 40
1
 40
1
 40
1
 10
21.0469
 20
60.3778
 30
0
 10
21.5334
 20
58.1851
 30
0
 10
20.5883
 20
57.14
 30
0
 10
19.5365
 20
55.825
 30
0
  0
SPLINE
  5
B45
330
A02
100
AcDbEntity
  8
View002
100
AcDbSpline
210
0
220
0
230
1
 70
8
 71
3
 72
8
 73
4
 74
0
 40
0
 40
0
 40
0
 40
0
 40
1
 40
1
 40
1
 40
1
 10
18.1056
 20
53.3353
 30
0
 10
17.7886
 20
52.2188
 30
0
 10
17.81
 20
50.7333
 30
0
 10
18.6814
 20
48.7738
 30
0
  0
SPLINE
  5
B46
330
A02
100
AcDbEntity
  8
View002
100
AcDbSpline
210
0
220
0
230
1
 70
8
 71
3
 72
8
 73
4
 74
0
 40
0
 40
0
 40
0
 40
0
 40
1
 40
1
 40
1
 40
1
 10
19.5155
 20
56.6833
 30
0
 10
18.9668
 20
57.3943
 30
0
 10
18.4623
 20
58.3457
 30
0
 10
18.153
 20
59.7339
 30
0
  0
SPLINE
  5
B47
330
A02
100
AcDbEntity
  8
View002
100
AcDbSpline
210
0
220
0
230
1
 70
8
 71
3
 72
8
 73
4
 74
0
 40
0
 40
0
 40
0
 40
0
 40
1
 40
1
 40
1
 40
1
 10
15.8683
 20
64.2557
 30
0
 10
16.8018
 20
63.093
 30
0
 10
17.5801
 20
62.3045
 30
0
 10
18.153
 20
59.7339
 30
0
  0
SPLINE
  5
B48
330
A02
100
AcDbEntity
  8
View002
100
AcDbSpline
210
0
220
0
230
1
 70
8
 71
3
 72
8
 73
4
 74
0
 40
0
 40
0
 40
0
 40
0
 40
1
 40
1
 40
1
 40
1
 10
14
 20
70
 30
0
 10
14.0266
 20
66.7208
 30
0
 10
15.038
 20
65.2898
 30
0
 10
15.8683
 20
64.2557
 30
0
  0
SPLINE
  5
B49
330
A02
100
AcDbEntity
  8
View002
100
AcDbSpline
210
0
220
0
230
1
 70
8
 71
1
 72
4
 73
2
 74
0
 40
0
 40
0
 40
1
 40
1
 10
14
 20
70
 30
0
 10
14
 20
70
 30
0
  0
SPLINE
  5
B4A
330
A02
100
AcDbEntity
  8
View002
100
AcDbSpline
210
0
220
0
230
1
 70
8
 71
1
 72
4
 73
2
 74
0
 40
0
 40
0
 40
1
 40
1
 10
22
 20
70
 30
0
 10
22
 20
70
 30
0
  0
SPLINE
  5
B4B
330
A02
100
AcDbEntity
  8
View002
100
AcDbSpline
210
0
220
0
230
1
 70
8
 71
3
 72
8
 73
4
 74
0
 40
0
 40
0
 40
0
 40
0
 40
1
 40
1
 40
1
 40
1
 10
22
 20
70
 30
0
 10
21.9739
 20
67.3123
 30
0
 10
20.1331
 20
66.0587
 30
0
 10
18.6539
 20
64.3738
 30
0
  0
SPLINE
  5
B4C
330
A02
100
AcDbEntity
  8
View002
100
AcDbSpline
210
0
220
0
230
1
 70
8
 71
3
 72
8
 73
4
 74
0
 40
0
 40
0
 40
0
 40
0
 40
1
 40
1
 40
1
 40
1
 10
17.1094
 20
61.4245
 30
0
 10
17.0197
 20
60.8534
 30
0
 10
17.0319
 20
60.2203
 30
0
 10
17.1883
 20
59.5192
 30
0
  0
SPLINE
  5
B4D
330
A02
100
AcDbEntity
  8
View002
100
AcDbSpline
210
0
220
0
230
1
 70
8
 71
3
 72
8
 73
4
 74
0
 40
0
 40
0
 40
0
 40
0
 40
1
 40
1
 40
1
 40
1
 10
22.9763
 20
60.8071
 30
0
 10
22.4139
 20
63.3508
 30
0
 10
21.4857
 20
64.221
 30
0
 10
20.4933
 20
65.5365
 30
0
  0
SPLINE
  5
B4E
330
A02
100
AcDbEntity
  8
View002
100
AcDbSpline
210
0
220
0
230
1
 70
8
 71
3
 72
8
 73
4
 74
0
 40
0
 40
0
 40
0
 40
0
 40
1
 40
1
 40
1
 40
1
 10
19.163
 20
68.3172
 30
0
 10
19.0602
 20
68.8053
 30
0
 10
18.9986
 20
69.3626
 30
0
 10
19
 20
70
 30
0
  0
SPLINE
  5
B4F
330
A02
100
AcDbEntity
  8
View002
100
AcDbSpline
210
0
220
0
230
1
 70
8
 71
1
 72
4
 73
2
 74
0
 40
0
 40
0
 40
1
 40
1
 10
19
 20
70
 30
0
 10
19
 20
70
 30
0
  0
SPLINE
  5
B50
330
A02
100
AcDbEntity
  8
View002
100
AcDbSpline
210
0
220
0
230
1
 70
8
 71
1
 72
4
 73
2
 74
0
 40
0
 40
0
 40
1
 40
1
 10
21
 20
70
 30
0
 10
21
 20
70
 30
0
  0
SPLINE
  5
B51
330
A02
100
AcDbEntity
  8
View002
100
AcDbSpline
210
0
220
0
230
1
 70
8
 71
3
 72
8
 73
4
 74
0
 40
0
 40
0
 40
0
 40
0
 40
1
 40
1
 40
1
 40
1
 10
21
 20
70
 30
0
 10
20.9822
 20
67.4919
 30
0
 10
19.499
 20
66.5299
 30
0
 10
18.0414
 20
65.1128
 30
0
  0
SPLINE
  5
B52
330
A02
100
AcDbEntity
  8
View002
100
AcDbSpline
210
0
220
0
230
1
 70
8
 71
3
 72
8
 73
4
 74
0
 40
0
 40
0
 40
0
 40
0
 40
1
 40
1
 40
1
 40
1
 10
18.4305
 20
67.3518
 30
0
 10
18.1756
 20
68.0492
 30
0
 10
18
 20
68.9104
 30
0
 10
18
 20
70
 30
0
  0
SPLINE
  5
B53
330
A02
100
AcDbEntity
  8
View002
100
AcDbSpline
210
0
220
0
230
1
 70
8
 71
1
 72
4
 73
2
 74
0
 40
0
 40
0
 40
1
 40
1
 10
18
 20
70
 30
0
 10
18
 20
70
 30
0
  0
SPLINE
  5
B54
330
A02
100
AcDbEntity
  8
View002
100
AcDbSpline
210
0
220
0
230
1
 70
8
 71
1
 72
4
 73
2
 74
0
 40
0
 40
0
 40
1
 40
1
 10
20
 20
70
 30
0
 10
20
 20
70
 30
0
  0
SPLINE
  5
B55
330
A02
100
AcDbEntity
  8
View002
100
AcDbSpline
210
0
220
0
230
1
 70
8
 71
3
 72
8
 73
4
 74
0
 40
0
 40
0
 40
0
 40
0
 40
1
 40
1
 40
1
 40
1
 10
20
 20
70
 30
0
 10
19.9895
 20
67.742
 30
0
 10
18.8075
 20
66.8934
 30
0
 10
17.5262
 20
65.8461
 30
0
  0
SPLINE
  5
B56
330
A02
100
AcDbEntity
  8
View002
100
AcDbSpline
210
0
220
0
230
1
 70
8
 71
3
 72
8
 73
4
 74
0
 40
0
 40
0
 40
0
 40
0
 40
1
 40
1
 40
1
 40
1
 10
15.6051
 20
63.6963
 30
0
 10
15.0663
 20
62.6632
 30
0
 10
14.7884
 20
61.1931
 30
0
 10
15.259
 20
59.0899
 30
0
  0
SPLINE
  5
B57
330
A02
100
AcDbEntity
  8
View002
100
AcDbSpline
210
0
220
0
230
1
 70
8
 71
3
 72
8
 73
4
 74
0
 40
0
 40
0
 40
0
 40
0
 40
1
 40
1
 40
1
 40
1
 10
17.6868
 20
66.695
 30
0
 10
17.2985
 20
67.5106
 30
0
 10
17.0031
 20
68.5597
 30
0
 10
17
 20
70
 30
0
  0
SPLINE
  5
B58
330
A02
100
AcDbEntity
  8
View002
100
AcDbSpline
210
0
220
0
230
1
 70
8
 71
1
 72
4
 73
2
 74
0
 40
0
 40
0
 40
1
 40
1
 10
17
 20
70
 30
0
 10
17
 20
70
 30
0
  0
SPLINE
  5
B59
330
A02
100
AcDbEntity
  8
View002
100
AcDbSpline
210
0
220
0
230
1
 70
8
 71
3
 72
8
 73
4
 74
0
 40
0
 40
0
 40
0
 40
0
 40
1
 40
1
 40
1
 40
1
 10
22.9763
 20
79.193
 30
0
 10
23.5387
 20
81.7368
 30
0
 10
23.0649
 20
82.9271
 30
0
 10
22.7162
 20
84.5363
 30
0
  0
SPLINE
  5
B5A
330
A02
100
AcDbEntity
  8
View002
100
AcDbSpline
210
0
220
0
230
1
 70
8
 71
3
 72
8
 73
4
 74
0
 40
0
 40
0
 40
0
 40
0
 40
1
 40
1
 40
1
 40
1
 10
22.9763
 20
79.193
 30
0
 10
22.3966
 20
76.5713
 30
0
 10
20.3922
 20
75.8029
 30
0
 10
18.5221
 20
74.4472
 30
0
  0
SPLINE
  5
B5B
330
A02
100
AcDbEntity
  8
View002
100
AcDbSpline
210
0
220
0
230
1
 70
8
 71
3
 72
8
 73
4
 74
0
 40
0
 40
0
 40
0
 40
0
 40
1
 40
1
 40
1
 40
1
 10
16.3509
 20
71.8992
 30
0
 10
16.1343
 20
71.3572
 30
0
 10
16.0031
 20
70.7291
 30
0
 10
16
 20
70.0001
 30
0
  0
SPLINE
  5
B5C
330
A02
100
AcDbEntity
  8
View002
100
AcDbSpline
210
0
220
0
230
1
 70
8
 71
3
 72
8
 73
4
 74
0
 40
0
 40
0
 40
0
 40
0
 40
1
 40
1
 40
1
 40
1
 10
22
 20
70.0001
 30
0
 10
21.9746
 20
72.6195
 30
0
 10
21.257
 20
73.6655
 30
0
 10
20.571
 20
75.1741
 30
0
  0
SPLINE
  5
B5D
330
A02
100
AcDbEntity
  8
View002
100
AcDbSpline
210
0
220
0
230
1
 70
8
 71
3
 72
8
 73
4
 74
0
 40
0
 40
0
 40
0
 40
0
 40
1
 40
1
 40
1
 40
1
 10
19.8796
 20
78.1719
 30
0
 10
19.8852
 20
78.6681
 30
0
 10
19.9454
 20
79.2207
 30
0
 10
20.0823
 20
79.837
 30
0
  0
SPLINE
  5
B5E
330
A02
100
AcDbEntity
  8
View002
100
AcDbSpline
210
0
220
0
230
1
 70
8
 71
3
 72
8
 73
4
 74
0
 40
0
 40
0
 40
0
 40
0
 40
1
 40
1
 40
1
 40
1
 10
17.9258
 20
82.2375
 30
0
 10
17.6027
 20
81.7595
 30
0
 10
17.3448
 20
81.1819
 30
0
 10
17.1883
 20
80.4809
 30
0
  0
SPLINE
  5
B5F
330
A02
100
AcDbEntity
  8
View002
100
AcDbSpline
210
0
220
0
230
1
 70
8
 71
3
 72
8
 73
4
 74
0
 40
0
 40
0
 40
0
 40
0
 40
1
 40
1
 40
1
 40
1
 10
17.1883
 20
80.4809
 30
0
 10
16.5101
 20
77.4416
 30
0
 10
17.1631
 20
75.9023
 30
0
 10
17.7507
 20
74.7446
 30
0
  0
SPLINE
  5
B60
330
A02
100
AcDbEntity
  8
View002
100
AcDbSpline
210
0
220
0
230
1
 70
8
 71
3
 72
8
 73
4
 74
0
 40
0
 40
0
 40
0
 40
0
 40
1
 40
1
 40
1
 40
1
 10
17.7507
 20
74.7446
 30
0
 10
18.4068
 20
73.4519
 30
0
 10
18.9942
 20
72.55
 30
0
 10
19
 20
70.0001
 30
0
  0
SPLINE
  5
B61
330
A02
100
AcDbEntity
  8
View002
100
AcDbSpline
210
0
220
0
230
1
 70
8
 71
3
 72
8
 73
4
 74
0
 40
0
 40
0
 40
0
 40
0
 40
1
 40
1
 40
1
 40
1
 10
22.0116
 20
79.4076
 30
0
 10
21.472
 20
76.9712
 30
0
 10
19.8221
 20
76.3615
 30
0
 10
18.0883
 20
75.3038
 30
0
  0
SPLINE
  5
B62
330
A02
100
AcDbEntity
  8
View002
100
AcDbSpline
210
0
220
0
230
1
 70
8
 71
3
 72
8
 73
4
 74
0
 40
0
 40
0
 40
0
 40
0
 40
1
 40
1
 40
1
 40
1
 10
15.9149
 20
73.3578
 30
0
 10
15.3851
 20
72.5572
 30
0
 10
15.0092
 20
71.4763
 30
0
 10
15
 20
70.0001
 30
0
  0
SPLINE
  5
B63
330
A02
100
AcDbEntity
  8
View002
100
AcDbSpline
210
0
220
0
230
1
 70
8
 71
3
 72
8
 73
4
 74
0
 40
0
 40
0
 40
0
 40
0
 40
1
 40
1
 40
1
 40
1
 10
21
 20
70.0001
 30
0
 10
20.9837
 20
72.2919
 30
0
 10
20.4602
 20
73.4181
 30
0
 10
19.8599
 20
74.6982
 30
0
  0
SPLINE
  5
B64
330
A02
100
AcDbEntity
  8
View002
100
AcDbSpline
210
0
220
0
230
1
 70
8
 71
3
 72
8
 73
4
 74
0
 40
0
 40
0
 40
0
 40
0
 40
1
 40
1
 40
1
 40
1
 10
18.96
 20
77.3955
 30
0
 10
18.865
 20
78.1292
 30
0
 10
18.8835
 20
78.9995
 30
0
 10
19.1177
 20
80.0516
 30
0
  0
SPLINE
  5
B65
330
A02
100
AcDbEntity
  8
View002
100
AcDbSpline
210
0
220
0
230
1
 70
8
 71
3
 72
8
 73
4
 74
0
 40
0
 40
0
 40
0
 40
0
 40
1
 40
1
 40
1
 40
1
 10
16.2237
 20
80.6956
 30
0
 10
15.5314
 20
77.5973
 30
0
 10
16.1803
 20
76.0269
 30
0
 10
16.7638
 20
74.847
 30
0
  0
SPLINE
  5
B66
330
A02
100
AcDbEntity
  8
View002
100
AcDbSpline
210
0
220
0
230
1
 70
8
 71
3
 72
8
 73
4
 74
0
 40
0
 40
0
 40
0
 40
0
 40
1
 40
1
 40
1
 40
1
 10
16.7638
 20
74.847
 30
0
 10
17.4164
 20
73.5277
 30
0
 10
18
 20
72.6089
 30
0
 10
18
 20
70.0001
 30
0
  0
SPLINE
  5
B67
330
A02
100
AcDbEntity
  8
View002
100
AcDbSpline
210
0
220
0
230
1
 70
8
 71
3
 72
8
 73
4
 74
0
 40
0
 40
0
 40
0
 40
0
 40
1
 40
1
 40
1
 40
1
 10
21.047
 20
79.6223
 30
0
 10
20.5605
 20
77.4295
 30
0
 10
19.2629
 20
76.8844
 30
0
 10
17.7494
 20
76.1318
 30
0
  0
SPLINE
  5
B68
330
A02
100
AcDbEntity
  8
View002
100
AcDbSpline
210
0
220
0
230
1
 70
8
 71
3
 72
8
 73
4
 74
0
 40
0
 40
0
 40
0
 40
0
 40
1
 40
1
 40
1
 40
1
 10
15.393
 20
74.4617
 30
0
 10
14.6341
 20
73.5742
 30
0
 10
14.0178
 20
72.1906
 30
0
 10
14
 20
70.0001
 30
0
  0
SPLINE
  5
B69
330
A02
100
AcDbEntity
  8
View002
100
AcDbSpline
210
0
220
0
230
1
 70
8
 71
3
 72
8
 73
4
 74
0
 40
0
 40
0
 40
0
 40
0
 40
1
 40
1
 40
1
 40
1
 10
20
 20
70.0001
 30
0
 10
19.9909
 20
71.9712
 30
0
 10
19.6251
 20
73.1007
 30
0
 10
19.1396
 20
74.2132
 30
0
  0
SPLINE
  5
B6A
330
A02
100
AcDbEntity
  8
View002
100
AcDbSpline
210
0
220
0
230
1
 70
8
 71
3
 72
8
 73
4
 74
0
 40
0
 40
0
 40
0
 40
0
 40
1
 40
1
 40
1
 40
1
 10
18.0937
 20
76.9213
 30
0
 10
17.8964
 20
77.8005
 30
0
 10
17.8435
 20
78.8774
 30
0
 10
18.153
 20
80.2663
 30
0
  0
SPLINE
  5
B6B
330
A02
100
AcDbEntity
  8
View002
100
AcDbSpline
210
0
220
0
230
1
 70
8
 71
3
 72
8
 73
4
 74
0
 40
0
 40
0
 40
0
 40
0
 40
1
 40
1
 40
1
 40
1
 10
15.259
 20
80.9102
 30
0
 10
14.5526
 20
77.7529
 30
0
 10
15.1975
 20
76.1515
 30
0
 10
15.777
 20
74.9495
 30
0
  0
SPLINE
  5
B6C
330
A02
100
AcDbEntity
  8
View002
100
AcDbSpline
210
0
220
0
230
1
 70
8
 71
3
 72
8
 73
4
 74
0
 40
0
 40
0
 40
0
 40
0
 40
1
 40
1
 40
1
 40
1
 10
15.777
 20
74.9495
 30
0
 10
16.4259
 20
73.6034
 30
0
 10
17.0058
 20
72.6678
 30
0
 10
17
 20
70.0001
 30
0
  0
SPLINE
  5
B6D
330
A02
100
AcDbEntity
  8
View002
100
AcDbSpline
210
0
220
0
230
1
 70
8
 71
3
 72
8
 73
4
 74
0
 40
0
 40
0
 40
0
 40
0
 40
1
 40
1
 40
1
 40
1
 10
25.911
 20
87.9967
 30
0
 10
26.9853
 20
90.389
 30
0
 10
26.7543
 20
91.6763
 30
0
 10
26.7235
 20
93.3247
 30
0
  0
SPLINE
  5
B6E
330
A02
100
AcDbEntity
  8
View002
100
AcDbSpline
210
0
220
0
230
1
 70
8
 71
3
 72
8
 73
4
 74
0
 40
0
 40
0
 40
0
 40
0
 40
1
 40
1
 40
1
 40
1
 10
25.911
 20
87.9967
 30
0
 10
24.8051
 20
85.5339
 30
0
 10
22.6111
 20
85.1563
 30
0
 10
20.5667
 20
84.2524
 30
0
  0
SPLINE
  5
B6F
330
A02
100
AcDbEntity
  8
View002
100
AcDbSpline
210
0
220
0
230
1
 70
8
 71
3
 72
8
 73
4
 74
0
 40
0
 40
0
 40
0
 40
0
 40
1
 40
1
 40
1
 40
1
 10
22.6631
 20
87.614
 30
0
 10
22.7701
 20
88.0996
 30
0
 10
22.9413
 20
88.6297
 30
0
 10
23.1999
 20
89.2078
 30
0
  0
SPLINE
  5
B70
330
A02
100
AcDbEntity
  8
View002
100
AcDbSpline
210
0
220
0
230
1
 70
8
 71
3
 72
8
 73
4
 74
0
 40
0
 40
0
 40
0
 40
0
 40
1
 40
1
 40
1
 40
1
 10
20.4888
 20
90.4189
 30
0
 10
19.2237
 20
87.5803
 30
0
 10
19.5447
 20
85.9547
 30
0
 10
19.8776
 20
84.7027
 30
0
  0
SPLINE
  5
B71
330
A02
100
AcDbEntity
  8
View002
100
AcDbSpline
210
0
220
0
230
1
 70
8
 71
3
 72
8
 73
4
 74
0
 40
0
 40
0
 40
0
 40
0
 40
1
 40
1
 40
1
 40
1
 10
19.8776
 20
84.7027
 30
0
 10
20.2468
 20
83.3141
 30
0
 10
20.6295
 20
82.2998
 30
0
 10
20.0823
 20
79.837
 30
0
  0
SPLINE
  5
B72
330
A02
100
AcDbEntity
  8
View002
100
AcDbSpline
210
0
220
0
230
1
 70
8
 71
3
 72
8
 73
4
 74
0
 40
0
 40
0
 40
0
 40
0
 40
1
 40
1
 40
1
 40
1
 10
25.0073
 20
88.4004
 30
0
 10
23.9808
 20
86.1113
 30
0
 10
22.2255
 20
85.8462
 30
0
 10
20.3223
 20
85.1771
 30
0
  0
SPLINE
  5
B73
330
A02
100
AcDbEntity
  8
View002
100
AcDbSpline
210
0
220
0
230
1
 70
8
 71
3
 72
8
 73
4
 74
0
 40
0
 40
0
 40
0
 40
0
 40
1
 40
1
 40
1
 40
1
 10
17.8058
 20
83.7409
 30
0
 10
17.1256
 20
83.0764
 30
0
 10
16.5405
 20
82.1133
 30
0
 10
16.2237
 20
80.6956
 30
0
  0
SPLINE
  5
B74
330
A02
100
AcDbEntity
  8
View002
100
AcDbSpline
210
0
220
0
230
1
 70
8
 71
3
 72
8
 73
4
 74
0
 40
0
 40
0
 40
0
 40
0
 40
1
 40
1
 40
1
 40
1
 10
22.0116
 20
79.4076
 30
0
 10
22.5039
 20
81.6305
 30
0
 10
22.2363
 20
82.8485
 30
0
 10
21.9224
 20
84.2187
 30
0
  0
SPLINE
  5
B75
330
A02
100
AcDbEntity
  8
View002
100
AcDbSpline
210
0
220
0
230
1
 70
8
 71
3
 72
8
 73
4
 74
0
 40
0
 40
0
 40
0
 40
0
 40
1
 40
1
 40
1
 40
1
 10
21.6042
 20
87.0403
 30
0
 10
21.6614
 20
87.7779
 30
0
 10
21.8559
 20
88.6259
 30
0
 10
22.2962
 20
89.6115
 30
0
  0
SPLINE
  5
B76
330
A02
100
AcDbEntity
  8
View002
100
AcDbSpline
210
0
220
0
230
1
 70
8
 71
3
 72
8
 73
4
 74
0
 40
0
 40
0
 40
0
 40
0
 40
1
 40
1
 40
1
 40
1
 10
19.5851
 20
90.8226
 30
0
 10
18.2985
 20
87.9327
 30
0
 10
18.6117
 20
86.2793
 30
0
 10
18.938
 20
85.0079
 30
0
  0
SPLINE
  5
B77
330
A02
100
AcDbEntity
  8
View002
100
AcDbSpline
210
0
220
0
230
1
 70
8
 71
3
 72
8
 73
4
 74
0
 40
0
 40
0
 40
0
 40
0
 40
1
 40
1
 40
1
 40
1
 10
18.938
 20
85.0079
 30
0
 10
19.3004
 20
83.5956
 30
0
 10
19.6774
 20
82.5669
 30
0
 10
19.1177
 20
80.0516
 30
0
  0
SPLINE
  5
B78
330
A02
100
AcDbEntity
  8
View002
100
AcDbSpline
210
0
220
0
230
1
 70
8
 71
3
 72
8
 73
4
 74
0
 40
0
 40
0
 40
0
 40
0
 40
1
 40
1
 40
1
 40
1
 10
24.1036
 20
88.8041
 30
0
 10
23.1837
 20
86.7499
 30
0
 10
21.757
 20
86.4665
 30
0
 10
20.1624
 20
86.0544
 30
0
  0
SPLINE
  5
B79
330
A02
100
AcDbEntity
  8
View002
100
AcDbSpline
210
0
220
0
230
1
 70
8
 71
3
 72
8
 73
4
 74
0
 40
0
 40
0
 40
0
 40
0
 40
1
 40
1
 40
1
 40
1
 10
17.5252
 20
84.9201
 30
0
 10
16.6042
 20
84.217
 30
0
 10
15.7291
 20
83.0114
 30
0
 10
15.259
 20
80.9102
 30
0
  0
SPLINE
  5
B7A
330
A02
100
AcDbEntity
  8
View002
100
AcDbSpline
210
0
220
0
230
1
 70
8
 71
3
 72
8
 73
4
 74
0
 40
0
 40
0
 40
0
 40
0
 40
1
 40
1
 40
1
 40
1
 10
21.047
 20
79.6223
 30
0
 10
21.4703
 20
81.5307
 30
0
 10
21.3565
 20
82.7126
 30
0
 10
21.1187
 20
83.8957
 30
0
  0
SPLINE
  5
B7B
330
A02
100
AcDbEntity
  8
View002
100
AcDbSpline
210
0
220
0
230
1
 70
8
 71
3
 72
8
 73
4
 74
0
 40
0
 40
0
 40
0
 40
0
 40
1
 40
1
 40
1
 40
1
 10
20.6603
 20
86.7541
 30
0
 10
20.6472
 20
87.6535
 30
0
 10
20.8128
 20
88.716
 30
0
 10
21.3925
 20
90.0152
 30
0
  0
SPLINE
  5
B7C
330
A02
100
AcDbEntity
  8
View002
100
AcDbSpline
210
0
220
0
230
1
 70
8
 71
3
 72
8
 73
4
 74
0
 40
0
 40
0
 40
0
 40
0
 40
1
 40
1
 40
1
 40
1
 10
18.6814
 20
91.2263
 30
0
 10
17.3734
 20
88.285
 30
0
 10
17.6787
 20
86.6039
 30
0
 10
17.9983
 20
85.3132
 30
0
  0
SPLINE
  5
B7D
330
A02
100
AcDbEntity
  8
View002
100
AcDbSpline
210
0
220
0
230
1
 70
8
 71
3
 72
8
 73
4
 74
0
 40
0
 40
0
 40
0
 40
0
 40
1
 40
1
 40
1
 40
1
 10
17.9983
 20
85.3132
 30
0
 10
18.3539
 20
83.8771
 30
0
 10
18.7252
 20
82.834
 30
0
 10
18.153
 20
80.2663
 30
0
  0
SPLINE
  5
B7E
330
A02
100
AcDbEntity
  8
View002
100
AcDbSpline
210
0
220
0
230
1
 70
8
 71
3
 72
8
 73
4
 74
0
 40
0
 40
0
 40
0
 40
0
 40
1
 40
1
 40
1
 40
1
 10
30.5426
 20
96.1497
 30
0
 10
28.9841
 20
93.9128
 30
0
 10
26.7387
 20
93.9535
 30
0
 10
24.5491
 20
93.4584
 30
0
  0
SPLINE
  5
B7F
330
A02
100
AcDbEntity
  8
View002
100
AcDbSpline
210
0
220
0
230
1
 70
8
 71
3
 72
8
 73
4
 74
0
 40
0
 40
0
 40
0
 40
0
 40
1
 40
1
 40
1
 40
1
 10
21.558
 20
91.9938
 30
0
 10
21.147
 20
91.5886
 30
0
 10
20.7807
 20
91.0739
 30
0
 10
20.4888
 20
90.4189
 30
0
  0
SPLINE
  5
B80
330
A02
100
AcDbEntity
  8
View002
100
AcDbSpline
210
0
220
0
230
1
 70
8
 71
3
 72
8
 73
4
 74
0
 40
0
 40
0
 40
0
 40
0
 40
1
 40
1
 40
1
 40
1
 10
27.2613
 20
96.3764
 30
0
 10
27.4588
 20
96.8361
 30
0
 10
27.7277
 20
97.3278
 30
0
 10
28.0913
 20
97.8511
 30
0
  0
SPLINE
  5
B81
330
A02
100
AcDbEntity
  8
View002
100
AcDbSpline
210
0
220
0
230
1
 70
8
 71
3
 72
8
 73
4
 74
0
 40
0
 40
0
 40
0
 40
0
 40
1
 40
1
 40
1
 40
1
 10
25.6399
 20
99.5525
 30
0
 10
23.8647
 20
96.9903
 30
0
 10
23.8706
 20
95.3359
 30
0
 10
23.9573
 20
94.0353
 30
0
  0
SPLINE
  5
B82
330
A02
100
AcDbEntity
  8
View002
100
AcDbSpline
210
0
220
0
230
1
 70
8
 71
3
 72
8
 73
4
 74
0
 40
0
 40
0
 40
0
 40
0
 40
1
 40
1
 40
1
 40
1
 10
23.9573
 20
94.0353
 30
0
 10
24.0528
 20
92.6028
 30
0
 10
24.2318
 20
91.5148
 30
0
 10
23.1999
 20
89.2078
 30
0
  0
SPLINE
  5
B83
330
A02
100
AcDbEntity
  8
View002
100
AcDbSpline
210
0
220
0
230
1
 70
8
 71
3
 72
8
 73
4
 74
0
 40
0
 40
0
 40
0
 40
0
 40
1
 40
1
 40
1
 40
1
 10
29.7255
 20
96.7169
 30
0
 10
28.2805
 20
94.6407
 30
0
 10
26.4879
 20
94.7091
 30
0
 10
24.4869
 20
94.4168
 30
0
  0
SPLINE
  5
B84
330
A02
100
AcDbEntity
  8
View002
100
AcDbSpline
210
0
220
0
230
1
 70
8
 71
3
 72
8
 73
4
 74
0
 40
0
 40
0
 40
0
 40
0
 40
1
 40
1
 40
1
 40
1
 10
21.7321
 20
93.4932
 30
0
 10
20.9342
 20
92.9737
 30
0
 10
20.1743
 20
92.1459
 30
0
 10
19.5851
 20
90.8226
 30
0
  0
SPLINE
  5
B85
330
A02
100
AcDbEntity
  8
View002
100
AcDbSpline
210
0
220
0
230
1
 70
8
 71
3
 72
8
 73
4
 74
0
 40
0
 40
0
 40
0
 40
0
 40
1
 40
1
 40
1
 40
1
 10
25.0073
 20
88.4004
 30
0
 10
25.9441
 20
90.4895
 30
0
 10
25.9214
 20
91.7552
 30
0
 10
25.8788
 20
93.1634
 30
0
  0
SPLINE
  5
B86
330
A02
100
AcDbEntity
  8
View002
100
AcDbSpline
210
0
220
0
230
1
 70
8
 71
3
 72
8
 73
4
 74
0
 40
0
 40
0
 40
0
 40
0
 40
1
 40
1
 40
1
 40
1
 10
26.1072
 20
96.0097
 30
0
 10
26.3038
 20
96.727
 30
0
 10
26.6556
 20
97.527
 30
0
 10
27.2741
 20
98.4182
 30
0
  0
SPLINE
  5
B87
330
A02
100
AcDbEntity
  8
View002
100
AcDbSpline
210
0
220
0
230
1
 70
8
 71
3
 72
8
 73
4
 74
0
 40
0
 40
0
 40
0
 40
0
 40
1
 40
1
 40
1
 40
1
 10
24.8228
 20
100.12
 30
0
 10
23.0187
 20
97.5136
 30
0
 10
23.0129
 20
95.8349
 30
0
 10
23.0904
 20
94.5178
 30
0
  0
SPLINE
  5
B88
330
A02
100
AcDbEntity
  8
View002
100
AcDbSpline
210
0
220
0
230
1
 70
8
 71
3
 72
8
 73
4
 74
0
 40
0
 40
0
 40
0
 40
0
 40
1
 40
1
 40
1
 40
1
 10
23.0904
 20
94.5178
 30
0
 10
23.1759
 20
93.0645
 30
0
 10
23.3473
 20
91.9644
 30
0
 10
22.2962
 20
89.6115
 30
0
  0
SPLINE
  5
B89
330
A02
100
AcDbEntity
  8
View002
100
AcDbSpline
210
0
220
0
230
1
 70
8
 71
3
 72
8
 73
4
 74
0
 40
0
 40
0
 40
0
 40
0
 40
1
 40
1
 40
1
 40
1
 10
28.9084
 20
97.284
 30
0
 10
27.6141
 20
95.4226
 30
0
 10
26.1481
 20
95.4125
 30
0
 10
24.4974
 20
95.3121
 30
0
  0
SPLINE
  5
B8A
330
A02
100
AcDbEntity
  8
View002
100
AcDbSpline
210
0
220
0
230
1
 70
8
 71
3
 72
8
 73
4
 74
0
 40
0
 40
0
 40
0
 40
0
 40
1
 40
1
 40
1
 40
1
 10
21.6827
 20
94.7061
 30
0
 10
20.6403
 20
94.1944
 30
0
 10
19.5528
 20
93.1856
 30
0
 10
18.6814
 20
91.2263
 30
0
  0
SPLINE
  5
B8B
330
A02
100
AcDbEntity
  8
View002
100
AcDbSpline
210
0
220
0
230
1
 70
8
 71
3
 72
8
 73
4
 74
0
 40
0
 40
0
 40
0
 40
0
 40
1
 40
1
 40
1
 40
1
 10
24.1036
 20
88.8041
 30
0
 10
24.906
 20
90.5957
 30
0
 10
25.0275
 20
91.79
 30
0
 10
25.0237
 20
92.9999
 30
0
  0
SPLINE
  5
B8C
330
A02
100
AcDbEntity
  8
View002
100
AcDbSpline
210
0
220
0
230
1
 70
8
 71
3
 72
8
 73
4
 74
0
 40
0
 40
0
 40
0
 40
0
 40
1
 40
1
 40
1
 40
1
 10
25.1216
 20
95.9066
 30
0
 10
25.2797
 20
96.7964
 30
0
 10
25.6431
 20
97.8117
 30
0
 10
26.457
 20
98.9854
 30
0
  0
SPLINE
  5
B8D
330
A02
100
AcDbEntity
  8
View002
100
AcDbSpline
210
0
220
0
230
1
 70
8
 71
3
 72
8
 73
4
 74
0
 40
0
 40
0
 40
0
 40
0
 40
1
 40
1
 40
1
 40
1
 10
24.0056
 20
100.687
 30
0
 10
22.1727
 20
98.037
 30
0
 10
22.1553
 20
96.3339
 30
0
 10
22.2236
 20
95.0003
 30
0
  0
SPLINE
  5
B8E
330
A02
100
AcDbEntity
  8
View002
100
AcDbSpline
210
0
220
0
230
1
 70
8
 71
3
 72
8
 73
4
 74
0
 40
0
 40
0
 40
0
 40
0
 40
1
 40
1
 40
1
 40
1
 10
22.2236
 20
95.0003
 30
0
 10
22.2991
 20
93.5262
 30
0
 10
22.4629
 20
92.414
 30
0
 10
21.3925
 20
90.0152
 30
0
  0
SPLINE
  5
B8F
330
A02
100
AcDbEntity
  8
View002
100
AcDbSpline
210
0
220
0
230
1
 70
8
 71
3
 72
8
 73
4
 74
0
 40
0
 40
0
 40
0
 40
0
 40
1
 40
1
 40
1
 40
1
 10
36.6096
 20
103.391
 30
0
 10
34.674
 20
101.455
 30
0
 10
32.4606
 20
101.895
 30
0
 10
30.2078
 20
101.804
 30
0
  0
SPLINE
  5
B90
330
A02
100
AcDbEntity
  8
View002
100
AcDbSpline
210
0
220
0
230
1
 70
8
 71
3
 72
8
 73
4
 74
0
 40
0
 40
0
 40
0
 40
0
 40
1
 40
1
 40
1
 40
1
 10
26.986
 20
100.906
 30
0
 10
26.5057
 20
100.583
 30
0
 10
26.0494
 20
100.144
 30
0
 10
25.6399
 20
99.5525
 30
0
  0
SPLINE
  5
B91
330
A02
100
AcDbEntity
  8
View002
100
AcDbSpline
210
0
220
0
230
1
 70
8
 71
3
 72
8
 73
4
 74
0
 40
0
 40
0
 40
0
 40
0
 40
1
 40
1
 40
1
 40
1
 10
30.5426
 20
96.1497
 30
0
 10
32.0533
 20
98.318
 30
0
 10
32.0632
 20
99.648
 30
0
 10
32.3313
 20
101.278
 30
0
  0
SPLINE
  5
B92
330
A02
100
AcDbEntity
  8
View002
100
AcDbSpline
210
0
220
0
230
1
 70
8
 71
3
 72
8
 73
4
 74
0
 40
0
 40
0
 40
0
 40
0
 40
1
 40
1
 40
1
 40
1
 10
33.4126
 20
104.197
 30
0
 10
33.6899
 20
104.616
 30
0
 10
34.043
 20
105.053
 30
0
 10
34.4948
 20
105.505
 30
0
  0
SPLINE
  5
B93
330
A02
100
AcDbEntity
  8
View002
100
AcDbSpline
210
0
220
0
230
1
 70
8
 71
3
 72
8
 73
4
 74
0
 40
0
 40
0
 40
0
 40
0
 40
1
 40
1
 40
1
 40
1
 10
32.38
 20
107.62
 30
0
 10
30.1716
 20
105.412
 30
0
 10
29.8789
 20
103.782
 30
0
 10
29.7282
 20
102.481
 30
0
  0
SPLINE
  5
B94
330
A02
100
AcDbEntity
  8
View002
100
AcDbSpline
210
0
220
0
230
1
 70
8
 71
3
 72
8
 73
4
 74
0
 40
0
 40
0
 40
0
 40
0
 40
1
 40
1
 40
1
 40
1
 10
29.7282
 20
102.481
 30
0
 10
29.5628
 20
101.054
 30
0
 10
29.5397
 20
99.9361
 30
0
 10
28.0913
 20
97.8511
 30
0
  0
SPLINE
  5
B95
330
A02
100
AcDbEntity
  8
View002
100
AcDbSpline
210
0
220
0
230
1
 70
8
 71
3
 72
8
 73
4
 74
0
 40
0
 40
0
 40
0
 40
0
 40
1
 40
1
 40
1
 40
1
 10
35.9047
 20
104.095
 30
0
 10
34.1088
 20
102.3
 30
0
 10
32.3487
 20
102.687
 30
0
 10
30.3204
 20
102.762
 30
0
  0
SPLINE
  5
B96
330
A02
100
AcDbEntity
  8
View002
100
AcDbSpline
210
0
220
0
230
1
 70
8
 71
3
 72
8
 73
4
 74
0
 40
0
 40
0
 40
0
 40
0
 40
1
 40
1
 40
1
 40
1
 10
27.4323
 20
102.353
 30
0
 10
26.5494
 20
101.988
 30
0
 10
25.6487
 20
101.313
 30
0
 10
24.8228
 20
100.12
 30
0
  0
SPLINE
  5
B97
330
A02
100
AcDbEntity
  8
View002
100
AcDbSpline
210
0
220
0
230
1
 70
8
 71
3
 72
8
 73
4
 74
0
 40
0
 40
0
 40
0
 40
0
 40
1
 40
1
 40
1
 40
1
 10
29.7255
 20
96.7169
 30
0
 10
31.0428
 20
98.6095
 30
0
 10
31.2537
 20
99.8745
 30
0
 10
31.4675
 20
101.271
 30
0
  0
SPLINE
  5
B98
330
A02
100
AcDbEntity
  8
View002
100
AcDbSpline
210
0
220
0
230
1
 70
8
 71
3
 72
8
 73
4
 74
0
 40
0
 40
0
 40
0
 40
0
 40
1
 40
1
 40
1
 40
1
 10
32.2076
 20
104.042
 30
0
 10
32.5306
 20
104.715
 30
0
 10
33.0209
 20
105.441
 30
0
 10
33.7899
 20
106.21
 30
0
  0
SPLINE
  5
B99
330
A02
100
AcDbEntity
  8
View002
100
AcDbSpline
210
0
220
0
230
1
 70
8
 71
3
 72
8
 73
4
 74
0
 40
0
 40
0
 40
0
 40
0
 40
1
 40
1
 40
1
 40
1
 10
31.6751
 20
108.325
 30
0
 10
29.4305
 20
106.08
 30
0
 10
29.1223
 20
104.43
 30
0
 10
28.9597
 20
103.115
 30
0
  0
SPLINE
  5
B9A
330
A02
100
AcDbEntity
  8
View002
100
AcDbSpline
210
0
220
0
230
1
 70
8
 71
3
 72
8
 73
4
 74
0
 40
0
 40
0
 40
0
 40
0
 40
1
 40
1
 40
1
 40
1
 10
28.9597
 20
103.115
 30
0
 10
28.7812
 20
101.67
 30
0
 10
28.7485
 20
100.543
 30
0
 10
27.2741
 20
98.4182
 30
0
  0
SPLINE
  5
B9B
330
A02
100
AcDbEntity
  8
View002
100
AcDbSpline
210
0
220
0
230
1
 70
8
 71
3
 72
8
 73
4
 74
0
 40
0
 40
0
 40
0
 40
0
 40
1
 40
1
 40
1
 40
1
 10
35.1997
 20
104.8
 30
0
 10
33.5883
 20
103.189
 30
0
 10
32.1717
 20
103.44
 30
0
 10
30.4926
 20
103.643
 30
0
  0
SPLINE
  5
B9C
330
A02
100
AcDbEntity
  8
View002
100
AcDbSpline
210
0
220
0
230
1
 70
8
 71
3
 72
8
 73
4
 74
0
 40
0
 40
0
 40
0
 40
0
 40
1
 40
1
 40
1
 40
1
 10
27.6041
 20
103.558
 30
0
 10
26.4814
 20
103.244
 30
0
 10
25.2265
 20
102.452
 30
0
 10
24.0057
 20
100.687
 30
0
  0
SPLINE
  5
B9D
330
A02
100
AcDbEntity
  8
View002
100
AcDbSpline
210
0
220
0
230
1
 70
8
 71
3
 72
8
 73
4
 74
0
 40
0
 40
0
 40
0
 40
0
 40
1
 40
1
 40
1
 40
1
 10
28.9084
 20
97.284
 30
0
 10
30.0362
 20
98.9061
 30
0
 10
30.3765
 20
100.07
 30
0
 10
30.593
 20
101.264
 30
0
  0
SPLINE
  5
B9E
330
A02
100
AcDbEntity
  8
View002
100
AcDbSpline
210
0
220
0
230
1
 70
8
 71
3
 72
8
 73
4
 74
0
 40
0
 40
0
 40
0
 40
0
 40
1
 40
1
 40
1
 40
1
 10
31.2161
 20
104.118
 30
0
 10
31.5324
 20
104.967
 30
0
 10
32.0729
 20
105.903
 30
0
 10
33.0849
 20
106.915
 30
0
  0
SPLINE
  5
B9F
330
A02
100
AcDbEntity
  8
View002
100
AcDbSpline
210
0
220
0
230
1
 70
8
 71
3
 72
8
 73
4
 74
0
 40
0
 40
0
 40
0
 40
0
 40
1
 40
1
 40
1
 40
1
 10
35.64
 20
111.298
 30
0
 10
35.1923
 20
109.895
 30
0
 10
34.9488
 20
108.779
 30
0
 10
33.0849
 20
106.915
 30
0
  0
SPLINE
  5
BA0
330
A02
100
AcDbEntity
  8
View002
100
AcDbSpline
210
0
220
0
230
1
 70
8
 71
3
 72
8
 73
4
 74
0
 40
0
 40
0
 40
0
 40
0
 40
1
 40
1
 40
1
 40
1
 10
39.3134
 20
115.994
 30
0
 10
36.6628
 20
114.161
 30
0
 10
36.047
 20
112.574
 30
0
 10
35.64
 20
111.298
 30
0
  0
SPLINE
  5
BA1
330
A02
100
AcDbEntity
  8
View002
100
AcDbSpline
210
0
220
0
230
1
 70
8
 71
3
 72
8
 73
4
 74
0
 40
0
 40
0
 40
0
 40
0
 40
1
 40
1
 40
1
 40
1
 10
43.6919
 20
117.414
 30
0
 10
42.5324
 20
117.515
 30
0
 10
41.0781
 20
117.215
 30
0
 10
39.3134
 20
115.994
 30
0
  0
SPLINE
  5
BA2
330
A02
100
AcDbEntity
  8
View002
100
AcDbSpline
210
0
220
0
230
1
 70
8
 71
3
 72
8
 73
4
 74
0
 40
0
 40
0
 40
0
 40
0
 40
1
 40
1
 40
1
 40
1
 10
30.9702
 20
109.03
 30
0
 10
28.6893
 20
106.749
 30
0
 10
28.3656
 20
105.078
 30
0
 10
28.1913
 20
103.749
 30
0
  0
SPLINE
  5
BA3
330
A02
100
AcDbEntity
  8
View002
100
AcDbSpline
210
0
220
0
230
1
 70
8
 71
3
 72
8
 73
4
 74
0
 40
0
 40
0
 40
0
 40
0
 40
1
 40
1
 40
1
 40
1
 10
28.1913
 20
103.749
 30
0
 10
27.9995
 20
102.287
 30
0
 10
27.9574
 20
101.149
 30
0
 10
26.457
 20
98.9854
 30
0
  0
SPLINE
  5
BA4
330
A02
100
AcDbEntity
  8
View002
100
AcDbSpline
210
0
220
0
230
1
 70
8
 71
3
 72
8
 73
4
 74
0
 40
0
 40
0
 40
0
 40
0
 40
1
 40
1
 40
1
 40
1
 10
43.8504
 20
109.458
 30
0
 10
46.0156
 20
110.966
 30
0
 10
46.4852
 20
112.207
 30
0
 10
47.3021
 20
113.632
 30
0
  0
SPLINE
  5
BA5
330
A02
100
AcDbEntity
  8
View002
100
AcDbSpline
210
0
220
0
230
1
 70
8
 71
3
 72
8
 73
4
 74
0
 40
0
 40
0
 40
0
 40
0
 40
1
 40
1
 40
1
 40
1
 10
43.8504
 20
109.458
 30
0
 10
41.6069
 20
107.894
 30
0
 10
39.569
 20
108.711
 30
0
 10
37.2811
 20
109.027
 30
0
  0
SPLINE
  5
BA6
330
A02
100
AcDbEntity
  8
View002
100
AcDbSpline
210
0
220
0
230
1
 70
8
 71
3
 72
8
 73
4
 74
0
 40
0
 40
0
 40
0
 40
0
 40
1
 40
1
 40
1
 40
1
 10
33.9482
 20
108.714
 30
0
 10
33.4173
 20
108.481
 30
0
 10
32.8893
 20
108.129
 30
0
 10
32.38
 20
107.62
 30
0
  0
SPLINE
  5
BA7
330
A02
100
AcDbEntity
  8
View002
100
AcDbSpline
210
0
220
0
230
1
 70
8
 71
3
 72
8
 73
4
 74
0
 40
0
 40
0
 40
0
 40
0
 40
1
 40
1
 40
1
 40
1
 10
36.6096
 20
103.391
 30
0
 10
38.4832
 20
105.264
 30
0
 10
38.7281
 20
106.579
 30
0
 10
39.278
 20
108.134
 30
0
  0
SPLINE
  5
BA8
330
A02
100
AcDbEntity
  8
View002
100
AcDbSpline
210
0
220
0
230
1
 70
8
 71
3
 72
8
 73
4
 74
0
 40
0
 40
0
 40
0
 40
0
 40
1
 40
1
 40
1
 40
1
 10
40.8553
 20
110.816
 30
0
 10
41.2016
 20
111.178
 30
0
 10
41.6256
 20
111.545
 30
0
 10
42.149
 20
111.909
 30
0
  0
SPLINE
  5
BA9
330
A02
100
AcDbEntity
  8
View002
100
AcDbSpline
210
0
220
0
230
1
 70
8
 71
3
 72
8
 73
4
 74
0
 40
0
 40
0
 40
0
 40
0
 40
1
 40
1
 40
1
 40
1
 10
45.2974
 20
115.665
 30
0
 10
44.6432
 20
114.393
 30
0
 10
44.2322
 20
113.356
 30
0
 10
42.149
 20
111.909
 30
0
  0
SPLINE
  5
BAA
330
A02
100
AcDbEntity
  8
View002
100
AcDbSpline
210
0
220
0
230
1
 70
8
 71
3
 72
8
 73
4
 74
0
 40
0
 40
0
 40
0
 40
0
 40
1
 40
1
 40
1
 40
1
 10
49.5812
 20
119.511
 30
0
 10
46.7421
 20
118.246
 30
0
 10
45.8923
 20
116.823
 30
0
 10
45.2974
 20
115.665
 30
0
  0
SPLINE
  5
BAB
330
A02
100
AcDbEntity
  8
View002
100
AcDbSpline
210
0
220
0
230
1
 70
8
 71
3
 72
8
 73
4
 74
0
 40
0
 40
0
 40
0
 40
0
 40
1
 40
1
 40
1
 40
1
 10
51.429
 20
119.968
 30
0
 10
50.8527
 20
119.941
 30
0
 10
50.2362
 20
119.803
 30
0
 10
49.5812
 20
119.511
 30
0
  0
SPLINE
  5
BAC
330
A02
100
AcDbEntity
  8
View002
100
AcDbSpline
210
0
220
0
230
1
 70
8
 71
3
 72
8
 73
4
 74
0
 40
0
 40
0
 40
0
 40
0
 40
1
 40
1
 40
1
 40
1
 10
42.183
 20
115.155
 30
0
 10
41.6201
 20
115.021
 30
0
 10
41.0387
 20
114.77
 30
0
 10
40.4476
 20
114.36
 30
0
  0
SPLINE
  5
BAD
330
A02
100
AcDbEntity
  8
View002
100
AcDbSpline
210
0
220
0
230
1
 70
8
 71
3
 72
8
 73
4
 74
0
 40
0
 40
0
 40
0
 40
0
 40
1
 40
1
 40
1
 40
1
 10
40.4476
 20
114.36
 30
0
 10
37.8842
 20
112.584
 30
0
 10
37.3071
 20
111.032
 30
0
 10
36.9287
 20
109.778
 30
0
  0
SPLINE
  5
BAE
330
A02
100
AcDbEntity
  8
View002
100
AcDbSpline
210
0
220
0
230
1
 70
8
 71
3
 72
8
 73
4
 74
0
 40
0
 40
0
 40
0
 40
0
 40
1
 40
1
 40
1
 40
1
 10
36.9287
 20
109.778
 30
0
 10
36.5141
 20
108.405
 30
0
 10
36.2931
 20
107.304
 30
0
 10
34.4948
 20
105.505
 30
0
  0
SPLINE
  5
BAF
330
A02
100
AcDbEntity
  8
View002
100
AcDbSpline
210
0
220
0
230
1
 70
8
 71
3
 72
8
 73
4
 74
0
 40
0
 40
0
 40
0
 40
0
 40
1
 40
1
 40
1
 40
1
 10
43.2832
 20
110.275
 30
0
 10
45.1738
 20
111.59
 30
0
 10
45.8099
 20
112.701
 30
0
 10
46.4957
 20
113.928
 30
0
  0
SPLINE
  5
BB0
330
A02
100
AcDbEntity
  8
View002
100
AcDbSpline
210
0
220
0
230
1
 70
8
 71
3
 72
8
 73
4
 74
0
 40
0
 40
0
 40
0
 40
0
 40
1
 40
1
 40
1
 40
1
 10
43.2832
 20
110.275
 30
0
 10
41.2044
 20
108.828
 30
0
 10
39.5461
 20
109.518
 30
0
 10
37.5613
 20
109.95
 30
0
  0
SPLINE
  5
BB1
330
A02
100
AcDbEntity
  8
View002
100
AcDbSpline
210
0
220
0
230
1
 70
8
 71
3
 72
8
 73
4
 74
0
 40
0
 40
0
 40
0
 40
0
 40
1
 40
1
 40
1
 40
1
 10
34.6447
 20
110.059
 30
0
 10
33.7099
 20
109.856
 30
0
 10
32.7023
 20
109.352
 30
0
 10
31.6751
 20
108.325
 30
0
  0
SPLINE
  5
BB2
330
A02
100
AcDbEntity
  8
View002
100
AcDbSpline
210
0
220
0
230
1
 70
8
 71
3
 72
8
 73
4
 74
0
 40
0
 40
0
 40
0
 40
0
 40
1
 40
1
 40
1
 40
1
 10
35.9047
 20
104.095
 30
0
 10
37.5394
 20
105.73
 30
0
 10
37.9709
 20
106.944
 30
0
 10
38.427
 20
108.28
 30
0
  0
SPLINE
  5
BB3
330
A02
100
AcDbEntity
  8
View002
100
AcDbSpline
210
0
220
0
230
1
 70
8
 71
3
 72
8
 73
4
 74
0
 40
0
 40
0
 40
0
 40
0
 40
1
 40
1
 40
1
 40
1
 10
39.6438
 20
110.876
 30
0
 10
40.0802
 20
111.48
 30
0
 10
40.6905
 20
112.107
 30
0
 10
41.5819
 20
112.726
 30
0
  0
SPLINE
  5
BB4
330
A02
100
AcDbEntity
  8
View002
100
AcDbSpline
210
0
220
0
230
1
 70
8
 71
3
 72
8
 73
4
 74
0
 40
0
 40
0
 40
0
 40
0
 40
1
 40
1
 40
1
 40
1
 10
44.8026
 20
116.526
 30
0
 10
44.1287
 20
115.242
 30
0
 10
43.7047
 20
114.199
 30
0
 10
41.5819
 20
112.726
 30
0
  0
SPLINE
  5
BB5
330
A02
100
AcDbEntity
  8
View002
100
AcDbSpline
210
0
220
0
230
1
 70
8
 71
3
 72
8
 73
4
 74
0
 40
0
 40
0
 40
0
 40
0
 40
1
 40
1
 40
1
 40
1
 10
49.1775
 20
120.415
 30
0
 10
46.2875
 20
119.128
 30
0
 10
45.4144
 20
117.692
 30
0
 10
44.8026
 20
116.526
 30
0
  0
SPLINE
  5
BB6
330
A02
100
AcDbEntity
  8
View002
100
AcDbSpline
210
0
220
0
230
1
 70
8
 71
3
 72
8
 73
4
 74
0
 40
0
 40
0
 40
0
 40
0
 40
1
 40
1
 40
1
 40
1
 10
52.5602
 20
120.964
 30
0
 10
51.6201
 20
121.111
 30
0
 10
50.5008
 20
121.004
 30
0
 10
49.1775
 20
120.415
 30
0
  0
SPLINE
  5
BB7
330
A02
100
AcDbEntity
  8
View002
100
AcDbSpline
210
0
220
0
230
1
 70
8
 71
3
 72
8
 73
4
 74
0
 40
0
 40
0
 40
0
 40
0
 40
1
 40
1
 40
1
 40
1
 10
43.1079
 20
116.35
 30
0
 10
42.154
 20
116.318
 30
0
 10
41.0735
 20
116.003
 30
0
 10
39.8805
 20
115.177
 30
0
  0
SPLINE
  5
BB8
330
A02
100
AcDbEntity
  8
View002
100
AcDbSpline
210
0
220
0
230
1
 70
8
 71
3
 72
8
 73
4
 74
0
 40
0
 40
0
 40
0
 40
0
 40
1
 40
1
 40
1
 40
1
 10
39.8805
 20
115.177
 30
0
 10
37.2735
 20
113.373
 30
0
 10
36.6771
 20
111.803
 30
0
 10
36.2843
 20
110.538
 30
0
  0
SPLINE
  5
BB9
330
A02
100
AcDbEntity
  8
View002
100
AcDbSpline
210
0
220
0
230
1
 70
8
 71
3
 72
8
 73
4
 74
0
 40
0
 40
0
 40
0
 40
0
 40
1
 40
1
 40
1
 40
1
 10
36.2843
 20
110.538
 30
0
 10
35.8532
 20
109.15
 30
0
 10
35.6209
 20
108.041
 30
0
 10
33.7899
 20
106.21
 30
0
  0
SPLINE
  5
BBA
330
A02
100
AcDbEntity
  8
View002
100
AcDbSpline
210
0
220
0
230
1
 70
8
 71
3
 72
8
 73
4
 74
0
 40
0
 40
0
 40
0
 40
0
 40
1
 40
1
 40
1
 40
1
 10
42.7161
 20
111.092
 30
0
 10
44.3369
 20
112.219
 30
0
 10
45.0598
 20
113.189
 30
0
 10
45.6784
 20
114.228
 30
0
  0
SPLINE
  5
BBB
330
A02
100
AcDbEntity
  8
View002
100
AcDbSpline
210
0
220
0
230
1
 70
8
 71
3
 72
8
 73
4
 74
0
 40
0
 40
0
 40
0
 40
0
 40
1
 40
1
 40
1
 40
1
 10
42.7161
 20
111.092
 30
0
 10
40.8498
 20
109.794
 30
0
 10
39.504
 20
110.29
 30
0
 10
37.8867
 20
110.787
 30
0
  0
SPLINE
  5
BBC
330
A02
100
AcDbEntity
  8
View002
100
AcDbSpline
210
0
220
0
230
1
 70
8
 71
3
 72
8
 73
4
 74
0
 40
0
 40
0
 40
0
 40
0
 40
1
 40
1
 40
1
 40
1
 10
35.0276
 20
111.215
 30
0
 10
33.8659
 20
111.105
 30
0
 10
32.4888
 20
110.549
 30
0
 10
30.9702
 20
109.03
 30
0
  0
SPLINE
  5
BBD
330
A02
100
AcDbEntity
  8
View002
100
AcDbSpline
210
0
220
0
230
1
 70
8
 71
3
 72
8
 73
4
 74
0
 40
0
 40
0
 40
0
 40
0
 40
1
 40
1
 40
1
 40
1
 10
35.1997
 20
104.8
 30
0
 10
36.6001
 20
106.201
 30
0
 10
37.1414
 20
107.291
 30
0
 10
37.5651
 20
108.427
 30
0
  0
SPLINE
  5
BBE
330
A02
100
AcDbEntity
  8
View002
100
AcDbSpline
210
0
220
0
230
1
 70
8
 71
3
 72
8
 73
4
 74
0
 40
0
 40
0
 40
0
 40
0
 40
1
 40
1
 40
1
 40
1
 10
38.6823
 20
111.125
 30
0
 10
39.1435
 20
111.905
 30
0
 10
39.8409
 20
112.729
 30
0
 10
41.0148
 20
113.543
 30
0
  0
SPLINE
  5
BBF
330
A02
100
AcDbEntity
  8
View002
100
AcDbSpline
210
0
220
0
230
1
 70
8
 71
3
 72
8
 73
4
 74
0
 40
0
 40
0
 40
0
 40
0
 40
1
 40
1
 40
1
 40
1
 10
44.3079
 20
117.386
 30
0
 10
43.6142
 20
116.09
 30
0
 10
43.1771
 20
115.043
 30
0
 10
41.0148
 20
113.543
 30
0
  0
SPLINE
  5
BC0
330
A02
100
AcDbEntity
  8
View002
100
AcDbSpline
210
0
220
0
230
1
 70
8
 71
3
 72
8
 73
4
 74
0
 40
0
 40
0
 40
0
 40
0
 40
1
 40
1
 40
1
 40
1
 10
48.7738
 20
121.319
 30
0
 10
45.8329
 20
120.011
 30
0
 10
44.9366
 20
118.56
 30
0
 10
44.3079
 20
117.386
 30
0
  0
SPLINE
  5
BC1
330
A02
100
AcDbEntity
  8
View002
100
AcDbSpline
210
0
220
0
230
1
 70
8
 71
3
 72
8
 73
4
 74
0
 40
0
 40
0
 40
0
 40
0
 40
1
 40
1
 40
1
 40
1
 10
53.3353
 20
121.894
 30
0
 10
52.2188
 20
122.211
 30
0
 10
50.7333
 20
122.19
 30
0
 10
48.7738
 20
121.319
 30
0
  0
SPLINE
  5
BC2
330
A02
100
AcDbEntity
  8
View002
100
AcDbSpline
210
0
220
0
230
1
 70
8
 71
3
 72
8
 73
4
 74
0
 40
0
 40
0
 40
0
 40
0
 40
1
 40
1
 40
1
 40
1
 10
52.0034
 20
114.089
 30
0
 10
54.3915
 20
115.161
 30
0
 10
55.0706
 20
116.272
 30
0
 10
56.1422
 20
117.51
 30
0
  0
SPLINE
  5
BC3
330
A02
100
AcDbEntity
  8
View002
100
AcDbSpline
210
0
220
0
230
1
 70
8
 71
3
 72
8
 73
4
 74
0
 40
0
 40
0
 40
0
 40
0
 40
1
 40
1
 40
1
 40
1
 10
52.0034
 20
114.089
 30
0
 10
49.5315
 20
112.979
 30
0
 10
47.6962
 20
114.144
 30
0
 10
45.5076
 20
114.866
 30
0
  0
SPLINE
  5
BC4
330
A02
100
AcDbEntity
  8
View002
100
AcDbSpline
210
0
220
0
230
1
 70
8
 71
3
 72
8
 73
4
 74
0
 40
0
 40
0
 40
0
 40
0
 40
1
 40
1
 40
1
 40
1
 10
49.3281
 20
115.969
 30
0
 10
49.7325
 20
116.26
 30
0
 10
50.2142
 20
116.542
 30
0
 10
50.7923
 20
116.8
 30
0
  0
SPLINE
  5
BC5
330
A02
100
AcDbEntity
  8
View002
100
AcDbSpline
210
0
220
0
230
1
 70
8
 71
3
 72
8
 73
4
 74
0
 40
0
 40
0
 40
0
 40
0
 40
1
 40
1
 40
1
 40
1
 10
54.5726
 20
119.881
 30
0
 10
53.687
 20
118.758
 30
0
 10
53.0972
 20
117.831
 30
0
 10
50.7923
 20
116.8
 30
0
  0
SPLINE
  5
BC6
330
A02
100
AcDbEntity
  8
View002
100
AcDbSpline
210
0
220
0
230
1
 70
8
 71
3
 72
8
 73
4
 74
0
 40
0
 40
0
 40
0
 40
0
 40
1
 40
1
 40
1
 40
1
 10
59.5192
 20
122.812
 30
0
 10
56.4852
 20
122.135
 30
0
 10
55.3715
 20
120.894
 30
0
 10
54.5726
 20
119.881
 30
0
  0
SPLINE
  5
BC7
330
A02
100
AcDbEntity
  8
View002
100
AcDbSpline
210
0
220
0
230
1
 70
8
 71
3
 72
8
 73
4
 74
0
 40
0
 40
0
 40
0
 40
0
 40
1
 40
1
 40
1
 40
1
 10
51.5997
 20
114.993
 30
0
 10
53.6859
 20
115.928
 30
0
 10
54.5079
 20
116.885
 30
0
 10
55.4121
 20
117.954
 30
0
  0
SPLINE
  5
BC8
330
A02
100
AcDbEntity
  8
View002
100
AcDbSpline
210
0
220
0
230
1
 70
8
 71
3
 72
8
 73
4
 74
0
 40
0
 40
0
 40
0
 40
0
 40
1
 40
1
 40
1
 40
1
 10
51.5997
 20
114.993
 30
0
 10
49.3068
 20
113.965
 30
0
 10
47.8175
 20
114.938
 30
0
 10
45.948
 20
115.72
 30
0
  0
SPLINE
  5
BC9
330
A02
100
AcDbEntity
  8
View002
100
AcDbSpline
210
0
220
0
230
1
 70
8
 71
3
 72
8
 73
4
 74
0
 40
0
 40
0
 40
0
 40
0
 40
1
 40
1
 40
1
 40
1
 10
48.1543
 20
116.249
 30
0
 10
48.6909
 20
116.761
 30
0
 10
49.403
 20
117.264
 30
0
 10
50.3886
 20
117.704
 30
0
  0
SPLINE
  5
BCA
330
A02
100
AcDbEntity
  8
View002
100
AcDbSpline
210
0
220
0
230
1
 70
8
 71
3
 72
8
 73
4
 74
0
 40
0
 40
0
 40
0
 40
0
 40
1
 40
1
 40
1
 40
1
 10
54.2531
 20
120.816
 30
0
 10
53.3445
 20
119.685
 30
0
 10
52.7398
 20
118.754
 30
0
 10
50.3886
 20
117.704
 30
0
  0
SPLINE
  5
BCB
330
A02
100
AcDbEntity
  8
View002
100
AcDbSpline
210
0
220
0
230
1
 70
8
 71
3
 72
8
 73
4
 74
0
 40
0
 40
0
 40
0
 40
0
 40
1
 40
1
 40
1
 40
1
 10
59.3046
 20
123.776
 30
0
 10
56.2122
 20
123.085
 30
0
 10
55.0715
 20
121.835
 30
0
 10
54.2531
 20
120.816
 30
0
  0
SPLINE
  5
BCC
330
A02
100
AcDbEntity
  8
View002
100
AcDbSpline
210
0
220
0
230
1
 70
8
 71
3
 72
8
 73
4
 74
0
 40
0
 40
0
 40
0
 40
0
 40
1
 40
1
 40
1
 40
1
 10
51.196
 20
115.896
 30
0
 10
52.9858
 20
116.698
 30
0
 10
53.8695
 20
117.506
 30
0
 10
54.6714
 20
118.404
 30
0
  0
SPLINE
  5
BCD
330
A02
100
AcDbEntity
  8
View002
100
AcDbSpline
210
0
220
0
230
1
 70
8
 71
3
 72
8
 73
4
 74
0
 40
0
 40
0
 40
0
 40
0
 40
1
 40
1
 40
1
 40
1
 10
51.196
 20
115.896
 30
0
 10
49.1356
 20
114.974
 30
0
 10
47.9143
 20
115.701
 30
0
 10
46.418
 20
116.481
 30
0
  0
SPLINE
  5
BCE
330
A02
100
AcDbEntity
  8
View002
100
AcDbSpline
210
0
220
0
230
1
 70
8
 71
3
 72
8
 73
4
 74
0
 40
0
 40
0
 40
0
 40
0
 40
1
 40
1
 40
1
 40
1
 10
47.2585
 20
116.668
 30
0
 10
47.8514
 20
117.347
 30
0
 10
48.6856
 20
118.028
 30
0
 10
49.9849
 20
118.608
 30
0
  0
SPLINE
  5
BCF
330
A02
100
AcDbEntity
  8
View002
100
AcDbSpline
210
0
220
0
230
1
 70
8
 71
3
 72
8
 73
4
 74
0
 40
0
 40
0
 40
0
 40
0
 40
1
 40
1
 40
1
 40
1
 10
53.9337
 20
121.751
 30
0
 10
53.002
 20
120.611
 30
0
 10
52.3825
 20
119.677
 30
0
 10
49.9849
 20
118.608
 30
0
  0
SPLINE
  5
BD0
330
A02
100
AcDbEntity
  8
View002
100
AcDbSpline
210
0
220
0
230
1
 70
8
 71
3
 72
8
 73
4
 74
0
 40
0
 40
0
 40
0
 40
0
 40
1
 40
1
 40
1
 40
1
 10
59.0899
 20
124.741
 30
0
 10
55.9393
 20
124.036
 30
0
 10
54.7715
 20
122.776
 30
0
 10
53.9337
 20
121.751
 30
0
  0
SPLINE
  5
BD1
330
A02
100
AcDbEntity
  8
View002
100
AcDbSpline
210
0
220
0
230
1
 70
8
 71
3
 72
8
 73
4
 74
0
 40
0
 40
0
 40
0
 40
0
 40
1
 40
1
 40
1
 40
1
 10
60.8072
 20
117.024
 30
0
 10
58.1848
 20
116.444
 30
0
 10
56.6306
 20
117.935
 30
0
 10
54.6257
 20
119.059
 30
0
  0
SPLINE
  5
BD2
330
A02
100
AcDbEntity
  8
View002
100
AcDbSpline
210
0
220
0
230
1
 70
8
 71
3
 72
8
 73
4
 74
0
 40
0
 40
0
 40
0
 40
0
 40
1
 40
1
 40
1
 40
1
 10
58.5692
 20
119.397
 30
0
 10
59.0209
 20
119.601
 30
0
 10
59.547
 20
119.781
 30
0
 10
60.1632
 20
119.918
 30
0
  0
SPLINE
  5
BD3
330
A02
100
AcDbEntity
  8
View002
100
AcDbSpline
210
0
220
0
230
1
 70
8
 71
3
 72
8
 73
4
 74
0
 40
0
 40
0
 40
0
 40
0
 40
1
 40
1
 40
1
 40
1
 10
60.5925
 20
117.988
 30
0
 10
58.1558
 20
117.449
 30
0
 10
56.8999
 20
118.686
 30
0
 10
55.219
 20
119.81
 30
0
  0
SPLINE
  5
BD4
330
A02
100
AcDbEntity
  8
View002
100
AcDbSpline
210
0
220
0
230
1
 70
8
 71
3
 72
8
 73
4
 74
0
 40
0
 40
0
 40
0
 40
0
 40
1
 40
1
 40
1
 40
1
 10
57.4775
 20
119.901
 30
0
 10
58.1011
 20
120.296
 30
0
 10
58.8968
 20
120.648
 30
0
 10
59.9485
 20
120.882
 30
0
  0
SPLINE
  5
BD5
330
A02
100
AcDbEntity
  8
View002
100
AcDbSpline
210
0
220
0
230
1
 70
8
 71
3
 72
8
 73
4
 74
0
 40
0
 40
0
 40
0
 40
0
 40
1
 40
1
 40
1
 40
1
 10
60.3779
 20
118.953
 30
0
 10
58.1851
 20
118.467
 30
0
 10
57.14
 20
119.412
 30
0
 10
55.825
 20
120.464
 30
0
  0
SPLINE
  5
BD6
330
A02
100
AcDbEntity
  8
View002
100
AcDbSpline
210
0
220
0
230
1
 70
8
 71
3
 72
8
 73
4
 74
0
 40
0
 40
0
 40
0
 40
0
 40
1
 40
1
 40
1
 40
1
 10
56.6833
 20
120.485
 30
0
 10
57.3944
 20
121.033
 30
0
 10
58.3457
 20
121.538
 30
0
 10
59.7339
 20
121.847
 30
0
  0
SPLINE
  5
BD7
330
A02
100
AcDbEntity
  8
View002
100
AcDbSpline
210
0
220
0
230
1
 70
8
 71
3
 72
8
 73
4
 74
0
 40
0
 40
0
 40
0
 40
0
 40
1
 40
1
 40
1
 40
1
 10
70.0001
 20
118
 30
0
 10
72.6195
 20
118.025
 30
0
 10
73.6655
 20
118.743
 30
0
 10
75.1741
 20
119.429
 30
0
  0
SPLINE
  5
BD8
330
A02
100
AcDbEntity
  8
View002
100
AcDbSpline
210
0
220
0
230
1
 70
8
 71
1
 72
4
 73
2
 74
0
 40
0
 40
0
 40
1
 40
1
 10
70.0001
 20
118
 30
0
 10
70
 20
118
 30
0
  0
SPLINE
  5
BD9
330
A02
100
AcDbEntity
  8
View002
100
AcDbSpline
210
0
220
0
230
1
 70
8
 71
3
 72
8
 73
4
 74
0
 40
0
 40
0
 40
0
 40
0
 40
1
 40
1
 40
1
 40
1
 10
70
 20
118
 30
0
 10
67.3123
 20
118.026
 30
0
 10
66.0588
 20
119.867
 30
0
 10
64.3738
 20
121.346
 30
0
  0
SPLINE
  5
BDA
330
A02
100
AcDbEntity
  8
View002
100
AcDbSpline
210
0
220
0
230
1
 70
8
 71
3
 72
8
 73
4
 74
0
 40
0
 40
0
 40
0
 40
0
 40
1
 40
1
 40
1
 40
1
 10
61.4245
 20
122.891
 30
0
 10
60.8534
 20
122.98
 30
0
 10
60.2203
 20
122.968
 30
0
 10
59.5192
 20
122.812
 30
0
  0
SPLINE
  5
BDB
330
A02
100
AcDbEntity
  8
View002
100
AcDbSpline
210
0
220
0
230
1
 70
8
 71
3
 72
8
 73
4
 74
0
 40
0
 40
0
 40
0
 40
0
 40
1
 40
1
 40
1
 40
1
 10
60.8072
 20
117.024
 30
0
 10
63.3509
 20
117.586
 30
0
 10
64.221
 20
118.514
 30
0
 10
65.5365
 20
119.507
 30
0
  0
SPLINE
  5
BDC
330
A02
100
AcDbEntity
  8
View002
100
AcDbSpline
210
0
220
0
230
1
 70
8
 71
3
 72
8
 73
4
 74
0
 40
0
 40
0
 40
0
 40
0
 40
1
 40
1
 40
1
 40
1
 10
68.3172
 20
120.837
 30
0
 10
68.8054
 20
120.94
 30
0
 10
69.3626
 20
121.001
 30
0
 10
70
 20
121
 30
0
  0
SPLINE
  5
BDD
330
A02
100
AcDbEntity
  8
View002
100
AcDbSpline
210
0
220
0
230
1
 70
8
 71
1
 72
4
 73
2
 74
0
 40
0
 40
0
 40
1
 40
1
 10
70
 20
121
 30
0
 10
70.0001
 20
121
 30
0
  0
SPLINE
  5
BDE
330
A02
100
AcDbEntity
  8
View002
100
AcDbSpline
210
0
220
0
230
1
 70
8
 71
3
 72
8
 73
4
 74
0
 40
0
 40
0
 40
0
 40
0
 40
1
 40
1
 40
1
 40
1
 10
74.7446
 20
122.249
 30
0
 10
73.452
 20
121.593
 30
0
 10
72.55
 20
121.006
 30
0
 10
70.0001
 20
121
 30
0
  0
SPLINE
  5
BDF
330
A02
100
AcDbEntity
  8
View002
100
AcDbSpline
210
0
220
0
230
1
 70
8
 71
3
 72
8
 73
4
 74
0
 40
0
 40
0
 40
0
 40
0
 40
1
 40
1
 40
1
 40
1
 10
80.481
 20
122.812
 30
0
 10
77.4417
 20
123.49
 30
0
 10
75.9023
 20
122.837
 30
0
 10
74.7446
 20
122.249
 30
0
  0
SPLINE
  5
BE0
330
A02
100
AcDbEntity
  8
View002
100
AcDbSpline
210
0
220
0
230
1
 70
8
 71
3
 72
8
 73
4
 74
0
 40
0
 40
0
 40
0
 40
0
 40
1
 40
1
 40
1
 40
1
 10
71.8993
 20
123.649
 30
0
 10
71.3572
 20
123.866
 30
0
 10
70.7291
 20
123.997
 30
0
 10
70.0001
 20
124
 30
0
  0
SPLINE
  5
BE1
330
A02
100
AcDbEntity
  8
View002
100
AcDbSpline
210
0
220
0
230
1
 70
8
 71
1
 72
4
 73
2
 74
0
 40
0
 40
0
 40
1
 40
1
 10
70.0001
 20
124
 30
0
 10
70
 20
124
 30
0
  0
SPLINE
  5
BE2
330
A02
100
AcDbEntity
  8
View002
100
AcDbSpline
210
0
220
0
230
1
 70
8
 71
3
 72
8
 73
4
 74
0
 40
0
 40
0
 40
0
 40
0
 40
1
 40
1
 40
1
 40
1
 10
70
 20
124
 30
0
 10
66.8523
 20
123.987
 30
0
 10
65.4828
 20
122.987
 30
0
 10
64.4928
 20
122.163
 30
0
  0
SPLINE
  5
BE3
330
A02
100
AcDbEntity
  8
View002
100
AcDbSpline
210
0
220
0
230
1
 70
8
 71
3
 72
8
 73
4
 74
0
 40
0
 40
0
 40
0
 40
0
 40
1
 40
1
 40
1
 40
1
 10
64.4928
 20
122.163
 30
0
 10
63.3828
 20
121.24
 30
0
 10
62.6275
 20
120.465
 30
0
 10
60.1632
 20
119.918
 30
0
  0
SPLINE
  5
BE4
330
A02
100
AcDbEntity
  8
View002
100
AcDbSpline
210
0
220
0
230
1
 70
8
 71
3
 72
8
 73
4
 74
0
 40
0
 40
0
 40
0
 40
0
 40
1
 40
1
 40
1
 40
1
 10
70.0001
 20
119
 30
0
 10
72.292
 20
119.016
 30
0
 10
73.4181
 20
119.54
 30
0
 10
74.6982
 20
120.14
 30
0
  0
SPLINE
  5
BE5
330
A02
100
AcDbEntity
  8
View002
100
AcDbSpline
210
0
220
0
230
1
 70
8
 71
1
 72
4
 73
2
 74
0
 40
0
 40
0
 40
1
 40
1
 10
70.0001
 20
119
 30
0
 10
70
 20
119
 30
0
  0
SPLINE
  5
BE6
330
A02
100
AcDbEntity
  8
View002
100
AcDbSpline
210
0
220
0
230
1
 70
8
 71
3
 72
8
 73
4
 74
0
 40
0
 40
0
 40
0
 40
0
 40
1
 40
1
 40
1
 40
1
 10
70
 20
119
 30
0
 10
67.4919
 20
119.018
 30
0
 10
66.5299
 20
120.501
 30
0
 10
65.1128
 20
121.959
 30
0
  0
SPLINE
  5
BE7
330
A02
100
AcDbEntity
  8
View002
100
AcDbSpline
210
0
220
0
230
1
 70
8
 71
3
 72
8
 73
4
 74
0
 40
0
 40
0
 40
0
 40
0
 40
1
 40
1
 40
1
 40
1
 10
62.7402
 20
123.639
 30
0
 10
61.8464
 20
123.974
 30
0
 10
60.723
 20
124.093
 30
0
 10
59.3046
 20
123.776
 30
0
  0
SPLINE
  5
BE8
330
A02
100
AcDbEntity
  8
View002
100
AcDbSpline
210
0
220
0
230
1
 70
8
 71
3
 72
8
 73
4
 74
0
 40
0
 40
0
 40
0
 40
0
 40
1
 40
1
 40
1
 40
1
 10
60.5925
 20
117.988
 30
0
 10
62.8151
 20
118.481
 30
0
 10
63.8021
 20
119.236
 30
0
 10
64.9146
 20
120.097
 30
0
  0
SPLINE
  5
BE9
330
A02
100
AcDbEntity
  8
View002
100
AcDbSpline
210
0
220
0
230
1
 70
8
 71
3
 72
8
 73
4
 74
0
 40
0
 40
0
 40
0
 40
0
 40
1
 40
1
 40
1
 40
1
 10
67.3518
 20
121.569
 30
0
 10
68.0492
 20
121.824
 30
0
 10
68.9104
 20
122
 30
0
 10
70
 20
122
 30
0
  0
SPLINE
  5
BEA
330
A02
100
AcDbEntity
  8
View002
100
AcDbSpline
210
0
220
0
230
1
 70
8
 71
1
 72
4
 73
2
 74
0
 40
0
 40
0
 40
1
 40
1
 10
70
 20
122
 30
0
 10
70.0001
 20
122
 30
0
  0
SPLINE
  5
BEB
330
A02
100
AcDbEntity
  8
View002
100
AcDbSpline
210
0
220
0
230
1
 70
8
 71
3
 72
8
 73
4
 74
0
 40
0
 40
0
 40
0
 40
0
 40
1
 40
1
 40
1
 40
1
 10
74.8471
 20
123.236
 30
0
 10
73.5277
 20
122.584
 30
0
 10
72.6089
 20
122
 30
0
 10
70.0001
 20
122
 30
0
  0
SPLINE
  5
BEC
330
A02
100
AcDbEntity
  8
View002
100
AcDbSpline
210
0
220
0
230
1
 70
8
 71
3
 72
8
 73
4
 74
0
 40
0
 40
0
 40
0
 40
0
 40
1
 40
1
 40
1
 40
1
 10
80.6956
 20
123.776
 30
0
 10
77.5973
 20
124.469
 30
0
 10
76.0269
 20
123.82
 30
0
 10
74.8471
 20
123.236
 30
0
  0
SPLINE
  5
BED
330
A02
100
AcDbEntity
  8
View002
100
AcDbSpline
210
0
220
0
230
1
 70
8
 71
3
 72
8
 73
4
 74
0
 40
0
 40
0
 40
0
 40
0
 40
1
 40
1
 40
1
 40
1
 10
83.7409
 20
122.194
 30
0
 10
83.0764
 20
122.874
 30
0
 10
82.1134
 20
123.46
 30
0
 10
80.6956
 20
123.776
 30
0
  0
SPLINE
  5
BEE
330
A02
100
AcDbEntity
  8
View002
100
AcDbSpline
210
0
220
0
230
1
 70
8
 71
3
 72
8
 73
4
 74
0
 40
0
 40
0
 40
0
 40
0
 40
1
 40
1
 40
1
 40
1
 10
73.3578
 20
124.085
 30
0
 10
72.5572
 20
124.615
 30
0
 10
71.4764
 20
124.991
 30
0
 10
70.0001
 20
125
 30
0
  0
SPLINE
  5
BEF
330
A02
100
AcDbEntity
  8
View002
100
AcDbSpline
210
0
220
0
230
1
 70
8
 71
1
 72
4
 73
2
 74
0
 40
0
 40
0
 40
1
 40
1
 10
70.0001
 20
125
 30
0
 10
70
 20
125
 30
0
  0
SPLINE
  5
BF0
330
A02
100
AcDbEntity
  8
View002
100
AcDbSpline
210
0
220
0
230
1
 70
8
 71
3
 72
8
 73
4
 74
0
 40
0
 40
0
 40
0
 40
0
 40
1
 40
1
 40
1
 40
1
 10
70
 20
125
 30
0
 10
66.7865
 20
124.98
 30
0
 10
65.3863
 20
123.974
 30
0
 10
64.3743
 20
123.148
 30
0
  0
SPLINE
  5
BF1
330
A02
100
AcDbEntity
  8
View002
100
AcDbSpline
210
0
220
0
230
1
 70
8
 71
3
 72
8
 73
4
 74
0
 40
0
 40
0
 40
0
 40
0
 40
1
 40
1
 40
1
 40
1
 10
64.3743
 20
123.148
 30
0
 10
63.2379
 20
122.219
 30
0
 10
62.466
 20
121.443
 30
0
 10
59.9485
 20
120.882
 30
0
  0
SPLINE
  5
BF2
330
A02
100
AcDbEntity
  8
View002
100
AcDbSpline
210
0
220
0
230
1
 70
8
 71
3
 72
8
 73
4
 74
0
 40
0
 40
0
 40
0
 40
0
 40
1
 40
1
 40
1
 40
1
 10
70.0001
 20
120
 30
0
 10
71.9713
 20
120.009
 30
0
 10
73.1007
 20
120.375
 30
0
 10
74.2133
 20
120.86
 30
0
  0
SPLINE
  5
BF3
330
A02
100
AcDbEntity
  8
View002
100
AcDbSpline
210
0
220
0
230
1
 70
8
 71
1
 72
4
 73
2
 74
0
 40
0
 40
0
 40
1
 40
1
 10
70.0001
 20
120
 30
0
 10
70
 20
120
 30
0
  0
SPLINE
  5
BF4
330
A02
100
AcDbEntity
  8
View002
100
AcDbSpline
210
0
220
0
230
1
 70
8
 71
3
 72
8
 73
4
 74
0
 40
0
 40
0
 40
0
 40
0
 40
1
 40
1
 40
1
 40
1
 10
70
 20
120
 30
0
 10
67.742
 20
120.01
 30
0
 10
66.8934
 20
121.193
 30
0
 10
65.8462
 20
122.474
 30
0
  0
SPLINE
  5
BF5
330
A02
100
AcDbEntity
  8
View002
100
AcDbSpline
210
0
220
0
230
1
 70
8
 71
3
 72
8
 73
4
 74
0
 40
0
 40
0
 40
0
 40
0
 40
1
 40
1
 40
1
 40
1
 10
63.6964
 20
124.395
 30
0
 10
62.6632
 20
124.934
 30
0
 10
61.1932
 20
125.212
 30
0
 10
59.0899
 20
124.741
 30
0
  0
SPLINE
  5
BF6
330
A02
100
AcDbEntity
  8
View002
100
AcDbSpline
210
0
220
0
230
1
 70
8
 71
3
 72
8
 73
4
 74
0
 40
0
 40
0
 40
0
 40
0
 40
1
 40
1
 40
1
 40
1
 10
60.3779
 20
118.953
 30
0
 10
62.2861
 20
119.376
 30
0
 10
63.3081
 20
119.978
 30
0
 10
64.2825
 20
120.693
 30
0
  0
SPLINE
  5
BF7
330
A02
100
AcDbEntity
  8
View002
100
AcDbSpline
210
0
220
0
230
1
 70
8
 71
3
 72
8
 73
4
 74
0
 40
0
 40
0
 40
0
 40
0
 40
1
 40
1
 40
1
 40
1
 10
66.6951
 20
122.313
 30
0
 10
67.5107
 20
122.701
 30
0
 10
68.5598
 20
122.997
 30
0
 10
70
 20
123
 30
0
  0
SPLINE
  5
BF8
330
A02
100
AcDbEntity
  8
View002
100
AcDbSpline
210
0
220
0
230
1
 70
8
 71
1
 72
4
 73
2
 74
0
 40
0
 40
0
 40
1
 40
1
 10
70
 20
123
 30
0
 10
70.0001
 20
123
 30
0
  0
SPLINE
  5
BF9
330
A02
100
AcDbEntity
  8
View002
100
AcDbSpline
210
0
220
0
230
1
 70
8
 71
3
 72
8
 73
4
 74
0
 40
0
 40
0
 40
0
 40
0
 40
1
 40
1
 40
1
 40
1
 10
74.4617
 20
124.607
 30
0
 10
73.5742
 20
125.366
 30
0
 10
72.1906
 20
125.982
 30
0
 10
70.0001
 20
126
 30
0
  0
SPLINE
  5
BFA
330
A02
100
AcDbEntity
  8
View002
100
AcDbSpline
210
0
220
0
230
1
 70
8
 71
1
 72
4
 73
2
 74
0
 40
0
 40
0
 40
1
 40
1
 10
70.0001
 20
126
 30
0
 10
70
 20
126
 30
0
  0
SPLINE
  5
BFB
330
A02
100
AcDbEntity
  8
View002
100
AcDbSpline
210
0
220
0
230
1
 70
8
 71
3
 72
8
 73
4
 74
0
 40
0
 40
0
 40
0
 40
0
 40
1
 40
1
 40
1
 40
1
 10
70
 20
126
 30
0
 10
66.7208
 20
125.973
 30
0
 10
65.2898
 20
124.962
 30
0
 10
64.2557
 20
124.132
 30
0
  0
SPLINE
  5
BFC
330
A02
100
AcDbEntity
  8
View002
100
AcDbSpline
210
0
220
0
230
1
 70
8
 71
3
 72
8
 73
4
 74
0
 40
0
 40
0
 40
0
 40
0
 40
1
 40
1
 40
1
 40
1
 10
64.2557
 20
124.132
 30
0
 10
63.093
 20
123.198
 30
0
 10
62.3046
 20
122.42
 30
0
 10
59.7339
 20
121.847
 30
0
  0
SPLINE
  5
BFD
330
A02
100
AcDbEntity
  8
View002
100
AcDbSpline
210
0
220
0
230
1
 70
8
 71
3
 72
8
 73
4
 74
0
 40
0
 40
0
 40
0
 40
0
 40
1
 40
1
 40
1
 40
1
 10
79.193
 20
117.024
 30
0
 10
81.7369
 20
116.461
 30
0
 10
82.9271
 20
116.935
 30
0
 10
84.5363
 20
117.284
 30
0
  0
SPLINE
  5
BFE
330
A02
100
AcDbEntity
  8
View002
100
AcDbSpline
210
0
220
0
230
1
 70
8
 71
3
 72
8
 73
4
 74
0
 40
0
 40
0
 40
0
 40
0
 40
1
 40
1
 40
1
 40
1
 10
79.193
 20
117.024
 30
0
 10
76.5713
 20
117.603
 30
0
 10
75.8029
 20
119.608
 30
0
 10
74.4472
 20
121.478
 30
0
  0
SPLINE
  5
BFF
330
A02
100
AcDbEntity
  8
View002
100
AcDbSpline
210
0
220
0
230
1
 70
8
 71
3
 72
8
 73
4
 74
0
 40
0
 40
0
 40
0
 40
0
 40
1
 40
1
 40
1
 40
1
 10
78.1719
 20
120.12
 30
0
 10
78.6681
 20
120.114
 30
0
 10
79.2207
 20
120.055
 30
0
 10
79.837
 20
119.918
 30
0
  0
SPLINE
  5
C00
330
A02
100
AcDbEntity
  8
View002
100
AcDbSpline
210
0
220
0
230
1
 70
8
 71
3
 72
8
 73
4
 74
0
 40
0
 40
0
 40
0
 40
0
 40
1
 40
1
 40
1
 40
1
 10
84.7027
 20
120.122
 30
0
 10
83.3141
 20
119.753
 30
0
 10
82.2998
 20
119.37
 30
0
 10
79.837
 20
119.918
 30
0
  0
SPLINE
  5
C01
330
A02
100
AcDbEntity
  8
View002
100
AcDbSpline
210
0
220
0
230
1
 70
8
 71
3
 72
8
 73
4
 74
0
 40
0
 40
0
 40
0
 40
0
 40
1
 40
1
 40
1
 40
1
 10
90.4189
 20
119.511
 30
0
 10
87.5804
 20
120.776
 30
0
 10
85.9547
 20
120.455
 30
0
 10
84.7027
 20
120.122
 30
0
  0
SPLINE
  5
C02
330
A02
100
AcDbEntity
  8
View002
100
AcDbSpline
210
0
220
0
230
1
 70
8
 71
3
 72
8
 73
4
 74
0
 40
0
 40
0
 40
0
 40
0
 40
1
 40
1
 40
1
 40
1
 10
79.4077
 20
117.988
 30
0
 10
81.6305
 20
117.496
 30
0
 10
82.8485
 20
117.764
 30
0
 10
84.2187
 20
118.078
 30
0
  0
SPLINE
  5
C03
330
A02
100
AcDbEntity
  8
View002
100
AcDbSpline
210
0
220
0
230
1
 70
8
 71
3
 72
8
 73
4
 74
0
 40
0
 40
0
 40
0
 40
0
 40
1
 40
1
 40
1
 40
1
 10
79.4077
 20
117.988
 30
0
 10
76.9712
 20
118.528
 30
0
 10
76.3616
 20
120.178
 30
0
 10
75.3038
 20
121.912
 30
0
  0
SPLINE
  5
C04
330
A02
100
AcDbEntity
  8
View002
100
AcDbSpline
210
0
220
0
230
1
 70
8
 71
3
 72
8
 73
4
 74
0
 40
0
 40
0
 40
0
 40
0
 40
1
 40
1
 40
1
 40
1
 10
77.3955
 20
121.04
 30
0
 10
78.1293
 20
121.135
 30
0
 10
78.9995
 20
121.116
 30
0
 10
80.0516
 20
120.882
 30
0
  0
SPLINE
  5
C05
330
A02
100
AcDbEntity
  8
View002
100
AcDbSpline
210
0
220
0
230
1
 70
8
 71
3
 72
8
 73
4
 74
0
 40
0
 40
0
 40
0
 40
0
 40
1
 40
1
 40
1
 40
1
 10
79.6223
 20
118.953
 30
0
 10
77.4295
 20
119.439
 30
0
 10
76.8845
 20
120.737
 30
0
 10
76.1318
 20
122.251
 30
0
  0
SPLINE
  5
C06
330
A02
100
AcDbEntity
  8
View002
100
AcDbSpline
210
0
220
0
230
1
 70
8
 71
3
 72
8
 73
4
 74
0
 40
0
 40
0
 40
0
 40
0
 40
1
 40
1
 40
1
 40
1
 10
76.9214
 20
121.906
 30
0
 10
77.8006
 20
122.104
 30
0
 10
78.8774
 20
122.157
 30
0
 10
80.2663
 20
121.847
 30
0
  0
SPLINE
  5
C07
330
A02
100
AcDbEntity
  8
View002
100
AcDbSpline
210
0
220
0
230
1
 70
8
 71
3
 72
8
 73
4
 74
0
 40
0
 40
0
 40
0
 40
0
 40
1
 40
1
 40
1
 40
1
 10
84.9201
 20
122.475
 30
0
 10
84.2171
 20
123.396
 30
0
 10
83.0115
 20
124.271
 30
0
 10
80.9103
 20
124.741
 30
0
  0
SPLINE
  5
C08
330
A02
100
AcDbEntity
  8
View002
100
AcDbSpline
210
0
220
0
230
1
 70
8
 71
3
 72
8
 73
4
 74
0
 40
0
 40
0
 40
0
 40
0
 40
1
 40
1
 40
1
 40
1
 10
80.9103
 20
124.741
 30
0
 10
77.753
 20
125.447
 30
0
 10
76.1516
 20
124.802
 30
0
 10
74.9495
 20
124.223
 30
0
  0
SPLINE
  5
C09
330
A02
100
AcDbEntity
  8
View002
100
AcDbSpline
210
0
220
0
230
1
 70
8
 71
3
 72
8
 73
4
 74
0
 40
0
 40
0
 40
0
 40
0
 40
1
 40
1
 40
1
 40
1
 10
74.9495
 20
124.223
 30
0
 10
73.6035
 20
123.574
 30
0
 10
72.6679
 20
122.994
 30
0
 10
70.0001
 20
123
 30
0
  0
SPLINE
  5
C0A
330
A02
100
AcDbEntity
  8
View002
100
AcDbSpline
210
0
220
0
230
1
 70
8
 71
3
 72
8
 73
4
 74
0
 40
0
 40
0
 40
0
 40
0
 40
1
 40
1
 40
1
 40
1
 10
87.9967
 20
114.089
 30
0
 10
85.5339
 20
115.195
 30
0
 10
85.1563
 20
117.389
 30
0
 10
84.2524
 20
119.433
 30
0
  0
SPLINE
  5
C0B
330
A02
100
AcDbEntity
  8
View002
100
AcDbSpline
210
0
220
0
230
1
 70
8
 71
3
 72
8
 73
4
 74
0
 40
0
 40
0
 40
0
 40
0
 40
1
 40
1
 40
1
 40
1
 10
82.2375
 20
122.074
 30
0
 10
81.7595
 20
122.397
 30
0
 10
81.182
 20
122.655
 30
0
 10
80.481
 20
122.812
 30
0
  0
SPLINE
  5
C0C
330
A02
100
AcDbEntity
  8
View002
100
AcDbSpline
210
0
220
0
230
1
 70
8
 71
3
 72
8
 73
4
 74
0
 40
0
 40
0
 40
0
 40
0
 40
1
 40
1
 40
1
 40
1
 10
87.6141
 20
117.337
 30
0
 10
88.0996
 20
117.23
 30
0
 10
88.6297
 20
117.059
 30
0
 10
89.2078
 20
116.8
 30
0
  0
SPLINE
  5
C0D
330
A02
100
AcDbEntity
  8
View002
100
AcDbSpline
210
0
220
0
230
1
 70
8
 71
3
 72
8
 73
4
 74
0
 40
0
 40
0
 40
0
 40
0
 40
1
 40
1
 40
1
 40
1
 10
88.4004
 20
114.993
 30
0
 10
86.1113
 20
116.019
 30
0
 10
85.8462
 20
117.775
 30
0
 10
85.1771
 20
119.678
 30
0
  0
SPLINE
  5
C0E
330
A02
100
AcDbEntity
  8
View002
100
AcDbSpline
210
0
220
0
230
1
 70
8
 71
3
 72
8
 73
4
 74
0
 40
0
 40
0
 40
0
 40
0
 40
1
 40
1
 40
1
 40
1
 10
87.0404
 20
118.396
 30
0
 10
87.7779
 20
118.339
 30
0
 10
88.6259
 20
118.144
 30
0
 10
89.6115
 20
117.704
 30
0
  0
SPLINE
  5
C0F
330
A02
100
AcDbEntity
  8
View002
100
AcDbSpline
210
0
220
0
230
1
 70
8
 71
3
 72
8
 73
4
 74
0
 40
0
 40
0
 40
0
 40
0
 40
1
 40
1
 40
1
 40
1
 10
90.8226
 20
120.415
 30
0
 10
87.9327
 20
121.701
 30
0
 10
86.2793
 20
121.388
 30
0
 10
85.008
 20
121.062
 30
0
  0
SPLINE
  5
C10
330
A02
100
AcDbEntity
  8
View002
100
AcDbSpline
210
0
220
0
230
1
 70
8
 71
3
 72
8
 73
4
 74
0
 40
0
 40
0
 40
0
 40
0
 40
1
 40
1
 40
1
 40
1
 10
85.008
 20
121.062
 30
0
 10
83.5956
 20
120.7
 30
0
 10
82.5669
 20
120.323
 30
0
 10
80.0516
 20
120.882
 30
0
  0
SPLINE
  5
C11
330
A02
100
AcDbEntity
  8
View002
100
AcDbSpline
210
0
220
0
230
1
 70
8
 71
3
 72
8
 73
4
 74
0
 40
0
 40
0
 40
0
 40
0
 40
1
 40
1
 40
1
 40
1
 10
88.8041
 20
115.896
 30
0
 10
86.75
 20
116.816
 30
0
 10
86.4665
 20
118.243
 30
0
 10
86.0544
 20
119.838
 30
0
  0
SPLINE
  5
C12
330
A02
100
AcDbEntity
  8
View002
100
AcDbSpline
210
0
220
0
230
1
 70
8
 71
3
 72
8
 73
4
 74
0
 40
0
 40
0
 40
0
 40
0
 40
1
 40
1
 40
1
 40
1
 10
79.6223
 20
118.953
 30
0
 10
81.5308
 20
118.53
 30
0
 10
82.7126
 20
118.643
 30
0
 10
83.8957
 20
118.881
 30
0
  0
SPLINE
  5
C13
330
A02
100
AcDbEntity
  8
View002
100
AcDbSpline
210
0
220
0
230
1
 70
8
 71
3
 72
8
 73
4
 74
0
 40
0
 40
0
 40
0
 40
0
 40
1
 40
1
 40
1
 40
1
 10
86.7541
 20
119.34
 30
0
 10
87.6535
 20
119.353
 30
0
 10
88.716
 20
119.187
 30
0
 10
90.0152
 20
118.607
 30
0
  0
SPLINE
  5
C14
330
A02
100
AcDbEntity
  8
View002
100
AcDbSpline
210
0
220
0
230
1
 70
8
 71
3
 72
8
 73
4
 74
0
 40
0
 40
0
 40
0
 40
0
 40
1
 40
1
 40
1
 40
1
 10
94.7061
 20
118.317
 30
0
 10
94.1944
 20
119.36
 30
0
 10
93.1856
 20
120.447
 30
0
 10
91.2263
 20
121.319
 30
0
  0
SPLINE
  5
C15
330
A02
100
AcDbEntity
  8
View002
100
AcDbSpline
210
0
220
0
230
1
 70
8
 71
3
 72
8
 73
4
 74
0
 40
0
 40
0
 40
0
 40
0
 40
1
 40
1
 40
1
 40
1
 10
91.2263
 20
121.319
 30
0
 10
88.285
 20
122.627
 30
0
 10
86.6039
 20
122.321
 30
0
 10
85.3132
 20
122.002
 30
0
  0
SPLINE
  5
C16
330
A02
100
AcDbEntity
  8
View002
100
AcDbSpline
210
0
220
0
230
1
 70
8
 71
3
 72
8
 73
4
 74
0
 40
0
 40
0
 40
0
 40
0
 40
1
 40
1
 40
1
 40
1
 10
85.3132
 20
122.002
 30
0
 10
83.8771
 20
121.646
 30
0
 10
82.834
 20
121.275
 30
0
 10
80.2663
 20
121.847
 30
0
  0
SPLINE
  5
C17
330
A02
100
AcDbEntity
  8
View002
100
AcDbSpline
210
0
220
0
230
1
 70
8
 71
3
 72
8
 73
4
 74
0
 40
0
 40
0
 40
0
 40
0
 40
1
 40
1
 40
1
 40
1
 10
96.1498
 20
109.457
 30
0
 10
93.9128
 20
111.016
 30
0
 10
93.9535
 20
113.261
 30
0
 10
93.4584
 20
115.451
 30
0
  0
SPLINE
  5
C18
330
A02
100
AcDbEntity
  8
View002
100
AcDbSpline
210
0
220
0
230
1
 70
8
 71
3
 72
8
 73
4
 74
0
 40
0
 40
0
 40
0
 40
0
 40
1
 40
1
 40
1
 40
1
 10
91.9938
 20
118.442
 30
0
 10
91.5886
 20
118.853
 30
0
 10
91.074
 20
119.219
 30
0
 10
90.4189
 20
119.511
 30
0
  0
SPLINE
  5
C19
330
A02
100
AcDbEntity
  8
View002
100
AcDbSpline
210
0
220
0
230
1
 70
8
 71
3
 72
8
 73
4
 74
0
 40
0
 40
0
 40
0
 40
0
 40
1
 40
1
 40
1
 40
1
 10
87.9967
 20
114.089
 30
0
 10
90.3891
 20
113.015
 30
0
 10
91.6763
 20
113.246
 30
0
 10
93.3247
 20
113.276
 30
0
  0
SPLINE
  5
C1A
330
A02
100
AcDbEntity
  8
View002
100
AcDbSpline
210
0
220
0
230
1
 70
8
 71
3
 72
8
 73
4
 74
0
 40
0
 40
0
 40
0
 40
0
 40
1
 40
1
 40
1
 40
1
 10
96.3764
 20
112.739
 30
0
 10
96.8361
 20
112.541
 30
0
 10
97.3278
 20
112.272
 30
0
 10
97.8511
 20
111.909
 30
0
  0
SPLINE
  5
C1B
330
A02
100
AcDbEntity
  8
View002
100
AcDbSpline
210
0
220
0
230
1
 70
8
 71
3
 72
8
 73
4
 74
0
 40
0
 40
0
 40
0
 40
0
 40
1
 40
1
 40
1
 40
1
 10
99.5525
 20
114.36
 30
0
 10
96.9903
 20
116.135
 30
0
 10
95.3359
 20
116.129
 30
0
 10
94.0353
 20
116.043
 30
0
  0
SPLINE
  5
C1C
330
A02
100
AcDbEntity
  8
View002
100
AcDbSpline
210
0
220
0
230
1
 70
8
 71
3
 72
8
 73
4
 74
0
 40
0
 40
0
 40
0
 40
0
 40
1
 40
1
 40
1
 40
1
 10
94.0353
 20
116.043
 30
0
 10
92.6028
 20
115.947
 30
0
 10
91.5148
 20
115.768
 30
0
 10
89.2078
 20
116.8
 30
0
  0
SPLINE
  5
C1D
330
A02
100
AcDbEntity
  8
View002
100
AcDbSpline
210
0
220
0
230
1
 70
8
 71
3
 72
8
 73
4
 74
0
 40
0
 40
0
 40
0
 40
0
 40
1
 40
1
 40
1
 40
1
 10
96.7169
 20
110.274
 30
0
 10
94.6407
 20
111.719
 30
0
 10
94.7092
 20
113.512
 30
0
 10
94.4169
 20
115.513
 30
0
  0
SPLINE
  5
C1E
330
A02
100
AcDbEntity
  8
View002
100
AcDbSpline
210
0
220
0
230
1
 70
8
 71
3
 72
8
 73
4
 74
0
 40
0
 40
0
 40
0
 40
0
 40
1
 40
1
 40
1
 40
1
 10
93.4932
 20
118.268
 30
0
 10
92.9737
 20
119.066
 30
0
 10
92.1459
 20
119.826
 30
0
 10
90.8226
 20
120.415
 30
0
  0
SPLINE
  5
C1F
330
A02
100
AcDbEntity
  8
View002
100
AcDbSpline
210
0
220
0
230
1
 70
8
 71
3
 72
8
 73
4
 74
0
 40
0
 40
0
 40
0
 40
0
 40
1
 40
1
 40
1
 40
1
 10
88.4004
 20
114.993
 30
0
 10
90.4895
 20
114.056
 30
0
 10
91.7552
 20
114.079
 30
0
 10
93.1634
 20
114.121
 30
0
  0
SPLINE
  5
C20
330
A02
100
AcDbEntity
  8
View002
100
AcDbSpline
210
0
220
0
230
1
 70
8
 71
3
 72
8
 73
4
 74
0
 40
0
 40
0
 40
0
 40
0
 40
1
 40
1
 40
1
 40
1
 10
96.0097
 20
113.893
 30
0
 10
96.727
 20
113.696
 30
0
 10
97.527
 20
113.344
 30
0
 10
98.4183
 20
112.726
 30
0
  0
SPLINE
  5
C21
330
A02
100
AcDbEntity
  8
View002
100
AcDbSpline
210
0
220
0
230
1
 70
8
 71
3
 72
8
 73
4
 74
0
 40
0
 40
0
 40
0
 40
0
 40
1
 40
1
 40
1
 40
1
 10
100.12
 20
115.177
 30
0
 10
97.5137
 20
116.981
 30
0
 10
95.8349
 20
116.987
 30
0
 10
94.5178
 20
116.909
 30
0
  0
SPLINE
  5
C22
330
A02
100
AcDbEntity
  8
View002
100
AcDbSpline
210
0
220
0
230
1
 70
8
 71
3
 72
8
 73
4
 74
0
 40
0
 40
0
 40
0
 40
0
 40
1
 40
1
 40
1
 40
1
 10
94.5178
 20
116.909
 30
0
 10
93.0645
 20
116.824
 30
0
 10
91.9644
 20
116.653
 30
0
 10
89.6115
 20
117.704
 30
0
  0
SPLINE
  5
C23
330
A02
100
AcDbEntity
  8
View002
100
AcDbSpline
210
0
220
0
230
1
 70
8
 71
3
 72
8
 73
4
 74
0
 40
0
 40
0
 40
0
 40
0
 40
1
 40
1
 40
1
 40
1
 10
97.284
 20
111.092
 30
0
 10
95.4226
 20
112.386
 30
0
 10
95.4125
 20
113.852
 30
0
 10
95.3121
 20
115.503
 30
0
  0
SPLINE
  5
C24
330
A02
100
AcDbEntity
  8
View002
100
AcDbSpline
210
0
220
0
230
1
 70
8
 71
3
 72
8
 73
4
 74
0
 40
0
 40
0
 40
0
 40
0
 40
1
 40
1
 40
1
 40
1
 10
88.8041
 20
115.896
 30
0
 10
90.5958
 20
115.094
 30
0
 10
91.79
 20
114.972
 30
0
 10
92.9999
 20
114.976
 30
0
  0
SPLINE
  5
C25
330
A02
100
AcDbEntity
  8
View002
100
AcDbSpline
210
0
220
0
230
1
 70
8
 71
3
 72
8
 73
4
 74
0
 40
0
 40
0
 40
0
 40
0
 40
1
 40
1
 40
1
 40
1
 10
95.9067
 20
114.878
 30
0
 10
96.7964
 20
114.72
 30
0
 10
97.8117
 20
114.357
 30
0
 10
98.9854
 20
113.543
 30
0
  0
SPLINE
  5
C26
330
A02
100
AcDbEntity
  8
View002
100
AcDbSpline
210
0
220
0
230
1
 70
8
 71
3
 72
8
 73
4
 74
0
 40
0
 40
0
 40
0
 40
0
 40
1
 40
1
 40
1
 40
1
 10
103.749
 20
111.809
 30
0
 10
102.287
 20
112
 30
0
 10
101.149
 20
112.043
 30
0
 10
98.9854
 20
113.543
 30
0
  0
SPLINE
  5
C27
330
A02
100
AcDbEntity
  8
View002
100
AcDbSpline
210
0
220
0
230
1
 70
8
 71
3
 72
8
 73
4
 74
0
 40
0
 40
0
 40
0
 40
0
 40
1
 40
1
 40
1
 40
1
 10
109.03
 20
109.03
 30
0
 10
106.749
 20
111.311
 30
0
 10
105.078
 20
111.634
 30
0
 10
103.749
 20
111.809
 30
0
  0
SPLINE
  5
C28
330
A02
100
AcDbEntity
  8
View002
100
AcDbSpline
210
0
220
0
230
1
 70
8
 71
3
 72
8
 73
4
 74
0
 40
0
 40
0
 40
0
 40
0
 40
1
 40
1
 40
1
 40
1
 10
103.558
 20
112.396
 30
0
 10
103.244
 20
113.519
 30
0
 10
102.452
 20
114.773
 30
0
 10
100.687
 20
115.994
 30
0
  0
SPLINE
  5
C29
330
A02
100
AcDbEntity
  8
View002
100
AcDbSpline
210
0
220
0
230
1
 70
8
 71
3
 72
8
 73
4
 74
0
 40
0
 40
0
 40
0
 40
0
 40
1
 40
1
 40
1
 40
1
 10
100.687
 20
115.994
 30
0
 10
98.037
 20
117.827
 30
0
 10
96.3339
 20
117.845
 30
0
 10
95.0003
 20
117.776
 30
0
  0
SPLINE
  5
C2A
330
A02
100
AcDbEntity
  8
View002
100
AcDbSpline
210
0
220
0
230
1
 70
8
 71
3
 72
8
 73
4
 74
0
 40
0
 40
0
 40
0
 40
0
 40
1
 40
1
 40
1
 40
1
 10
95.0003
 20
117.776
 30
0
 10
93.5262
 20
117.701
 30
0
 10
92.4141
 20
117.537
 30
0
 10
90.0152
 20
118.607
 30
0
  0
SPLINE
  5
C2B
330
A02
100
AcDbEntity
  8
View002
100
AcDbSpline
210
0
220
0
230
1
 70
8
 71
3
 72
8
 73
4
 74
0
 40
0
 40
0
 40
0
 40
0
 40
1
 40
1
 40
1
 40
1
 10
103.391
 20
103.39
 30
0
 10
105.264
 20
101.517
 30
0
 10
106.579
 20
101.272
 30
0
 10
108.134
 20
100.722
 30
0
  0
SPLINE
  5
C2C
330
A02
100
AcDbEntity
  8
View002
100
AcDbSpline
210
0
220
0
230
1
 70
8
 71
3
 72
8
 73
4
 74
0
 40
0
 40
0
 40
0
 40
0
 40
1
 40
1
 40
1
 40
1
 10
103.391
 20
103.39
 30
0
 10
101.455
 20
105.326
 30
0
 10
101.895
 20
107.539
 30
0
 10
101.804
 20
109.792
 30
0
  0
SPLINE
  5
C2D
330
A02
100
AcDbEntity
  8
View002
100
AcDbSpline
210
0
220
0
230
1
 70
8
 71
3
 72
8
 73
4
 74
0
 40
0
 40
0
 40
0
 40
0
 40
1
 40
1
 40
1
 40
1
 10
100.906
 20
113.014
 30
0
 10
100.583
 20
113.494
 30
0
 10
100.144
 20
113.951
 30
0
 10
99.5525
 20
114.36
 30
0
  0
SPLINE
  5
C2E
330
A02
100
AcDbEntity
  8
View002
100
AcDbSpline
210
0
220
0
230
1
 70
8
 71
3
 72
8
 73
4
 74
0
 40
0
 40
0
 40
0
 40
0
 40
1
 40
1
 40
1
 40
1
 10
96.1498
 20
109.457
 30
0
 10
98.3181
 20
107.947
 30
0
 10
99.648
 20
107.937
 30
0
 10
101.278
 20
107.669
 30
0
  0
SPLINE
  5
C2F
330
A02
100
AcDbEntity
  8
View002
100
AcDbSpline
210
0
220
0
230
1
 70
8
 71
3
 72
8
 73
4
 74
0
 40
0
 40
0
 40
0
 40
0
 40
1
 40
1
 40
1
 40
1
 10
104.197
 20
106.587
 30
0
 10
104.616
 20
106.31
 30
0
 10
105.054
 20
105.957
 30
0
 10
105.505
 20
105.505
 30
0
  0
SPLINE
  5
C30
330
A02
100
AcDbEntity
  8
View002
100
AcDbSpline
210
0
220
0
230
1
 70
8
 71
3
 72
8
 73
4
 74
0
 40
0
 40
0
 40
0
 40
0
 40
1
 40
1
 40
1
 40
1
 10
109.778
 20
103.071
 30
0
 10
108.405
 20
103.486
 30
0
 10
107.304
 20
103.707
 30
0
 10
105.505
 20
105.505
 30
0
  0
SPLINE
  5
C31
330
A02
100
AcDbEntity
  8
View002
100
AcDbSpline
210
0
220
0
230
1
 70
8
 71
3
 72
8
 73
4
 74
0
 40
0
 40
0
 40
0
 40
0
 40
1
 40
1
 40
1
 40
1
 10
114.36
 20
99.5523
 30
0
 10
112.584
 20
102.116
 30
0
 10
111.032
 20
102.693
 30
0
 10
109.778
 20
103.071
 30
0
  0
SPLINE
  5
C32
330
A02
100
AcDbEntity
  8
View002
100
AcDbSpline
210
0
220
0
230
1
 70
8
 71
3
 72
8
 73
4
 74
0
 40
0
 40
0
 40
0
 40
0
 40
1
 40
1
 40
1
 40
1
 10
115.155
 20
97.8169
 30
0
 10
115.021
 20
98.3798
 30
0
 10
114.77
 20
98.9612
 30
0
 10
114.36
 20
99.5523
 30
0
  0
SPLINE
  5
C33
330
A02
100
AcDbEntity
  8
View002
100
AcDbSpline
210
0
220
0
230
1
 70
8
 71
3
 72
8
 73
4
 74
0
 40
0
 40
0
 40
0
 40
0
 40
1
 40
1
 40
1
 40
1
 10
108.714
 20
106.052
 30
0
 10
108.481
 20
106.583
 30
0
 10
108.129
 20
107.111
 30
0
 10
107.62
 20
107.62
 30
0
  0
SPLINE
  5
C34
330
A02
100
AcDbEntity
  8
View002
100
AcDbSpline
210
0
220
0
230
1
 70
8
 71
3
 72
8
 73
4
 74
0
 40
0
 40
0
 40
0
 40
0
 40
1
 40
1
 40
1
 40
1
 10
107.62
 20
107.62
 30
0
 10
105.412
 20
109.828
 30
0
 10
103.782
 20
110.121
 30
0
 10
102.481
 20
110.272
 30
0
  0
SPLINE
  5
C35
330
A02
100
AcDbEntity
  8
View002
100
AcDbSpline
210
0
220
0
230
1
 70
8
 71
3
 72
8
 73
4
 74
0
 40
0
 40
0
 40
0
 40
0
 40
1
 40
1
 40
1
 40
1
 10
102.481
 20
110.272
 30
0
 10
101.054
 20
110.437
 30
0
 10
99.9362
 20
110.46
 30
0
 10
97.8511
 20
111.909
 30
0
  0
SPLINE
  5
C36
330
A02
100
AcDbEntity
  8
View002
100
AcDbSpline
210
0
220
0
230
1
 70
8
 71
3
 72
8
 73
4
 74
0
 40
0
 40
0
 40
0
 40
0
 40
1
 40
1
 40
1
 40
1
 10
104.095
 20
104.095
 30
0
 10
105.73
 20
102.461
 30
0
 10
106.944
 20
102.029
 30
0
 10
108.28
 20
101.573
 30
0
  0
SPLINE
  5
C37
330
A02
100
AcDbEntity
  8
View002
100
AcDbSpline
210
0
220
0
230
1
 70
8
 71
3
 72
8
 73
4
 74
0
 40
0
 40
0
 40
0
 40
0
 40
1
 40
1
 40
1
 40
1
 10
104.095
 20
104.095
 30
0
 10
102.3
 20
105.891
 30
0
 10
102.687
 20
107.651
 30
0
 10
102.762
 20
109.68
 30
0
  0
SPLINE
  5
C38
330
A02
100
AcDbEntity
  8
View002
100
AcDbSpline
210
0
220
0
230
1
 70
8
 71
3
 72
8
 73
4
 74
0
 40
0
 40
0
 40
0
 40
0
 40
1
 40
1
 40
1
 40
1
 10
102.353
 20
112.568
 30
0
 10
101.988
 20
113.451
 30
0
 10
101.313
 20
114.351
 30
0
 10
100.12
 20
115.177
 30
0
  0
SPLINE
  5
C39
330
A02
100
AcDbEntity
  8
View002
100
AcDbSpline
210
0
220
0
230
1
 70
8
 71
3
 72
8
 73
4
 74
0
 40
0
 40
0
 40
0
 40
0
 40
1
 40
1
 40
1
 40
1
 10
96.7169
 20
110.274
 30
0
 10
98.6095
 20
108.957
 30
0
 10
99.8745
 20
108.746
 30
0
 10
101.271
 20
108.532
 30
0
  0
SPLINE
  5
C3A
330
A02
100
AcDbEntity
  8
View002
100
AcDbSpline
210
0
220
0
230
1
 70
8
 71
3
 72
8
 73
4
 74
0
 40
0
 40
0
 40
0
 40
0
 40
1
 40
1
 40
1
 40
1
 10
104.042
 20
107.792
 30
0
 10
104.715
 20
107.469
 30
0
 10
105.441
 20
106.979
 30
0
 10
106.21
 20
106.21
 30
0
  0
SPLINE
  5
C3B
330
A02
100
AcDbEntity
  8
View002
100
AcDbSpline
210
0
220
0
230
1
 70
8
 71
3
 72
8
 73
4
 74
0
 40
0
 40
0
 40
0
 40
0
 40
1
 40
1
 40
1
 40
1
 10
110.538
 20
103.716
 30
0
 10
109.15
 20
104.147
 30
0
 10
108.041
 20
104.379
 30
0
 10
106.21
 20
106.21
 30
0
  0
SPLINE
  5
C3C
330
A02
100
AcDbEntity
  8
View002
100
AcDbSpline
210
0
220
0
230
1
 70
8
 71
3
 72
8
 73
4
 74
0
 40
0
 40
0
 40
0
 40
0
 40
1
 40
1
 40
1
 40
1
 10
115.177
 20
100.119
 30
0
 10
113.372
 20
102.726
 30
0
 10
111.803
 20
103.323
 30
0
 10
110.538
 20
103.716
 30
0
  0
SPLINE
  5
C3D
330
A02
100
AcDbEntity
  8
View002
100
AcDbSpline
210
0
220
0
230
1
 70
8
 71
3
 72
8
 73
4
 74
0
 40
0
 40
0
 40
0
 40
0
 40
1
 40
1
 40
1
 40
1
 10
116.35
 20
96.8921
 30
0
 10
116.318
 20
97.8459
 30
0
 10
116.003
 20
98.9265
 30
0
 10
115.177
 20
100.119
 30
0
  0
SPLINE
  5
C3E
330
A02
100
AcDbEntity
  8
View002
100
AcDbSpline
210
0
220
0
230
1
 70
8
 71
3
 72
8
 73
4
 74
0
 40
0
 40
0
 40
0
 40
0
 40
1
 40
1
 40
1
 40
1
 10
110.059
 20
105.355
 30
0
 10
109.856
 20
106.29
 30
0
 10
109.352
 20
107.298
 30
0
 10
108.325
 20
108.325
 30
0
  0
SPLINE
  5
C3F
330
A02
100
AcDbEntity
  8
View002
100
AcDbSpline
210
0
220
0
230
1
 70
8
 71
3
 72
8
 73
4
 74
0
 40
0
 40
0
 40
0
 40
0
 40
1
 40
1
 40
1
 40
1
 10
108.325
 20
108.325
 30
0
 10
106.08
 20
110.569
 30
0
 10
104.43
 20
110.878
 30
0
 10
103.115
 20
111.04
 30
0
  0
SPLINE
  5
C40
330
A02
100
AcDbEntity
  8
View002
100
AcDbSpline
210
0
220
0
230
1
 70
8
 71
3
 72
8
 73
4
 74
0
 40
0
 40
0
 40
0
 40
0
 40
1
 40
1
 40
1
 40
1
 10
103.115
 20
111.04
 30
0
 10
101.67
 20
111.219
 30
0
 10
100.543
 20
111.251
 30
0
 10
98.4183
 20
112.726
 30
0
  0
SPLINE
  5
C41
330
A02
100
AcDbEntity
  8
View002
100
AcDbSpline
210
0
220
0
230
1
 70
8
 71
3
 72
8
 73
4
 74
0
 40
0
 40
0
 40
0
 40
0
 40
1
 40
1
 40
1
 40
1
 10
104.8
 20
104.8
 30
0
 10
106.201
 20
103.4
 30
0
 10
107.29
 20
102.859
 30
0
 10
108.427
 20
102.435
 30
0
  0
SPLINE
  5
C42
330
A02
100
AcDbEntity
  8
View002
100
AcDbSpline
210
0
220
0
230
1
 70
8
 71
3
 72
8
 73
4
 74
0
 40
0
 40
0
 40
0
 40
0
 40
1
 40
1
 40
1
 40
1
 10
104.8
 20
104.8
 30
0
 10
103.189
 20
106.412
 30
0
 10
103.44
 20
107.828
 30
0
 10
103.643
 20
109.507
 30
0
  0
SPLINE
  5
C43
330
A02
100
AcDbEntity
  8
View002
100
AcDbSpline
210
0
220
0
230
1
 70
8
 71
3
 72
8
 73
4
 74
0
 40
0
 40
0
 40
0
 40
0
 40
1
 40
1
 40
1
 40
1
 10
97.284
 20
111.092
 30
0
 10
98.906
 20
109.964
 30
0
 10
100.07
 20
109.623
 30
0
 10
101.264
 20
109.407
 30
0
  0
SPLINE
  5
C44
330
A02
100
AcDbEntity
  8
View002
100
AcDbSpline
210
0
220
0
230
1
 70
8
 71
3
 72
8
 73
4
 74
0
 40
0
 40
0
 40
0
 40
0
 40
1
 40
1
 40
1
 40
1
 10
104.118
 20
108.784
 30
0
 10
104.967
 20
108.468
 30
0
 10
105.903
 20
107.927
 30
0
 10
106.915
 20
106.915
 30
0
  0
SPLINE
  5
C45
330
A02
100
AcDbEntity
  8
View002
100
AcDbSpline
210
0
220
0
230
1
 70
8
 71
3
 72
8
 73
4
 74
0
 40
0
 40
0
 40
0
 40
0
 40
1
 40
1
 40
1
 40
1
 10
111.298
 20
104.36
 30
0
 10
109.895
 20
104.808
 30
0
 10
108.779
 20
105.051
 30
0
 10
106.915
 20
106.915
 30
0
  0
SPLINE
  5
C46
330
A02
100
AcDbEntity
  8
View002
100
AcDbSpline
210
0
220
0
230
1
 70
8
 71
3
 72
8
 73
4
 74
0
 40
0
 40
0
 40
0
 40
0
 40
1
 40
1
 40
1
 40
1
 10
115.994
 20
100.687
 30
0
 10
114.161
 20
103.337
 30
0
 10
112.574
 20
103.953
 30
0
 10
111.298
 20
104.36
 30
0
  0
SPLINE
  5
C47
330
A02
100
AcDbEntity
  8
View002
100
AcDbSpline
210
0
220
0
230
1
 70
8
 71
3
 72
8
 73
4
 74
0
 40
0
 40
0
 40
0
 40
0
 40
1
 40
1
 40
1
 40
1
 10
117.414
 20
96.308
 30
0
 10
117.515
 20
97.4676
 30
0
 10
117.215
 20
98.9218
 30
0
 10
115.994
 20
100.687
 30
0
  0
SPLINE
  5
C48
330
A02
100
AcDbEntity
  8
View002
100
AcDbSpline
210
0
220
0
230
1
 70
8
 71
3
 72
8
 73
4
 74
0
 40
0
 40
0
 40
0
 40
0
 40
1
 40
1
 40
1
 40
1
 10
109.457
 20
96.1496
 30
0
 10
110.966
 20
93.9843
 30
0
 10
112.207
 20
93.5147
 30
0
 10
113.632
 20
92.6978
 30
0
  0
SPLINE
  5
C49
330
A02
100
AcDbEntity
  8
View002
100
AcDbSpline
210
0
220
0
230
1
 70
8
 71
3
 72
8
 73
4
 74
0
 40
0
 40
0
 40
0
 40
0
 40
1
 40
1
 40
1
 40
1
 10
109.457
 20
96.1496
 30
0
 10
107.894
 20
98.393
 30
0
 10
108.711
 20
100.431
 30
0
 10
109.027
 20
102.719
 30
0
  0
SPLINE
  5
C4A
330
A02
100
AcDbEntity
  8
View002
100
AcDbSpline
210
0
220
0
230
1
 70
8
 71
3
 72
8
 73
4
 74
0
 40
0
 40
0
 40
0
 40
0
 40
1
 40
1
 40
1
 40
1
 10
110.816
 20
99.1446
 30
0
 10
111.178
 20
98.7984
 30
0
 10
111.545
 20
98.3743
 30
0
 10
111.909
 20
97.8509
 30
0
  0
SPLINE
  5
C4B
330
A02
100
AcDbEntity
  8
View002
100
AcDbSpline
210
0
220
0
230
1
 70
8
 71
3
 72
8
 73
4
 74
0
 40
0
 40
0
 40
0
 40
0
 40
1
 40
1
 40
1
 40
1
 10
115.665
 20
94.7026
 30
0
 10
114.393
 20
95.3567
 30
0
 10
113.356
 20
95.7677
 30
0
 10
111.909
 20
97.8509
 30
0
  0
SPLINE
  5
C4C
330
A02
100
AcDbEntity
  8
View002
100
AcDbSpline
210
0
220
0
230
1
 70
8
 71
3
 72
8
 73
4
 74
0
 40
0
 40
0
 40
0
 40
0
 40
1
 40
1
 40
1
 40
1
 10
119.511
 20
90.4187
 30
0
 10
118.246
 20
93.2578
 30
0
 10
116.823
 20
94.1077
 30
0
 10
115.665
 20
94.7026
 30
0
  0
SPLINE
  5
C4D
330
A02
100
AcDbEntity
  8
View002
100
AcDbSpline
210
0
220
0
230
1
 70
8
 71
3
 72
8
 73
4
 74
0
 40
0
 40
0
 40
0
 40
0
 40
1
 40
1
 40
1
 40
1
 10
119.968
 20
88.571
 30
0
 10
119.941
 20
89.1472
 30
0
 10
119.803
 20
89.7637
 30
0
 10
119.511
 20
90.4187
 30
0
  0
SPLINE
  5
C4E
330
A02
100
AcDbEntity
  8
View002
100
AcDbSpline
210
0
220
0
230
1
 70
8
 71
3
 72
8
 73
4
 74
0
 40
0
 40
0
 40
0
 40
0
 40
1
 40
1
 40
1
 40
1
 10
110.275
 20
96.7167
 30
0
 10
111.59
 20
94.8261
 30
0
 10
112.701
 20
94.19
 30
0
 10
113.928
 20
93.5043
 30
0
  0
SPLINE
  5
C4F
330
A02
100
AcDbEntity
  8
View002
100
AcDbSpline
210
0
220
0
230
1
 70
8
 71
3
 72
8
 73
4
 74
0
 40
0
 40
0
 40
0
 40
0
 40
1
 40
1
 40
1
 40
1
 10
110.275
 20
96.7167
 30
0
 10
108.828
 20
98.7955
 30
0
 10
109.518
 20
100.454
 30
0
 10
109.95
 20
102.439
 30
0
  0
SPLINE
  5
C50
330
A02
100
AcDbEntity
  8
View002
100
AcDbSpline
210
0
220
0
230
1
 70
8
 71
3
 72
8
 73
4
 74
0
 40
0
 40
0
 40
0
 40
0
 40
1
 40
1
 40
1
 40
1
 10
110.876
 20
100.356
 30
0
 10
111.48
 20
99.9197
 30
0
 10
112.107
 20
99.3094
 30
0
 10
112.726
 20
98.4181
 30
0
  0
SPLINE
  5
C51
330
A02
100
AcDbEntity
  8
View002
100
AcDbSpline
210
0
220
0
230
1
 70
8
 71
3
 72
8
 73
4
 74
0
 40
0
 40
0
 40
0
 40
0
 40
1
 40
1
 40
1
 40
1
 10
116.526
 20
95.1973
 30
0
 10
115.242
 20
95.8712
 30
0
 10
114.199
 20
96.2953
 30
0
 10
112.726
 20
98.4181
 30
0
  0
SPLINE
  5
C52
330
A02
100
AcDbEntity
  8
View002
100
AcDbSpline
210
0
220
0
230
1
 70
8
 71
3
 72
8
 73
4
 74
0
 40
0
 40
0
 40
0
 40
0
 40
1
 40
1
 40
1
 40
1
 10
120.415
 20
90.8224
 30
0
 10
119.128
 20
93.7125
 30
0
 10
117.692
 20
94.5855
 30
0
 10
116.526
 20
95.1973
 30
0
  0
SPLINE
  5
C53
330
A02
100
AcDbEntity
  8
View002
100
AcDbSpline
210
0
220
0
230
1
 70
8
 71
3
 72
8
 73
4
 74
0
 40
0
 40
0
 40
0
 40
0
 40
1
 40
1
 40
1
 40
1
 10
120.964
 20
87.4397
 30
0
 10
121.111
 20
88.3798
 30
0
 10
121.004
 20
89.4991
 30
0
 10
120.415
 20
90.8224
 30
0
  0
SPLINE
  5
C54
330
A02
100
AcDbEntity
  8
View002
100
AcDbSpline
210
0
220
0
230
1
 70
8
 71
3
 72
8
 73
4
 74
0
 40
0
 40
0
 40
0
 40
0
 40
1
 40
1
 40
1
 40
1
 10
111.092
 20
97.2838
 30
0
 10
112.219
 20
95.6631
 30
0
 10
113.189
 20
94.9401
 30
0
 10
114.228
 20
94.3216
 30
0
  0
SPLINE
  5
C55
330
A02
100
AcDbEntity
  8
View002
100
AcDbSpline
210
0
220
0
230
1
 70
8
 71
3
 72
8
 73
4
 74
0
 40
0
 40
0
 40
0
 40
0
 40
1
 40
1
 40
1
 40
1
 10
111.092
 20
97.2838
 30
0
 10
109.794
 20
99.1502
 30
0
 10
110.29
 20
100.496
 30
0
 10
110.787
 20
102.113
 30
0
  0
SPLINE
  5
C56
330
A02
100
AcDbEntity
  8
View002
100
AcDbSpline
210
0
220
0
230
1
 70
8
 71
3
 72
8
 73
4
 74
0
 40
0
 40
0
 40
0
 40
0
 40
1
 40
1
 40
1
 40
1
 10
111.214
 20
104.972
 30
0
 10
111.105
 20
106.134
 30
0
 10
110.549
 20
107.511
 30
0
 10
109.03
 20
109.03
 30
0
  0
SPLINE
  5
C57
330
A02
100
AcDbEntity
  8
View002
100
AcDbSpline
210
0
220
0
230
1
 70
8
 71
3
 72
8
 73
4
 74
0
 40
0
 40
0
 40
0
 40
0
 40
1
 40
1
 40
1
 40
1
 10
111.125
 20
101.318
 30
0
 10
111.905
 20
100.856
 30
0
 10
112.729
 20
100.159
 30
0
 10
113.543
 20
98.9852
 30
0
  0
SPLINE
  5
C58
330
A02
100
AcDbEntity
  8
View002
100
AcDbSpline
210
0
220
0
230
1
 70
8
 71
3
 72
8
 73
4
 74
0
 40
0
 40
0
 40
0
 40
0
 40
1
 40
1
 40
1
 40
1
 10
117.386
 20
95.692
 30
0
 10
116.09
 20
96.3857
 30
0
 10
115.043
 20
96.8228
 30
0
 10
113.543
 20
98.9852
 30
0
  0
SPLINE
  5
C59
330
A02
100
AcDbEntity
  8
View002
100
AcDbSpline
210
0
220
0
230
1
 70
8
 71
3
 72
8
 73
4
 74
0
 40
0
 40
0
 40
0
 40
0
 40
1
 40
1
 40
1
 40
1
 10
121.319
 20
91.2261
 30
0
 10
120.011
 20
94.1671
 30
0
 10
118.56
 20
95.0634
 30
0
 10
117.386
 20
95.692
 30
0
  0
SPLINE
  5
C5A
330
A02
100
AcDbEntity
  8
View002
100
AcDbSpline
210
0
220
0
230
1
 70
8
 71
3
 72
8
 73
4
 74
0
 40
0
 40
0
 40
0
 40
0
 40
1
 40
1
 40
1
 40
1
 10
114.089
 20
87.9965
 30
0
 10
115.161
 20
85.6085
 30
0
 10
116.272
 20
84.9293
 30
0
 10
117.51
 20
83.8578
 30
0
  0
SPLINE
  5
C5B
330
A02
100
AcDbEntity
  8
View002
100
AcDbSpline
210
0
220
0
230
1
 70
8
 71
3
 72
8
 73
4
 74
0
 40
0
 40
0
 40
0
 40
0
 40
1
 40
1
 40
1
 40
1
 10
114.089
 20
87.9965
 30
0
 10
112.979
 20
90.4684
 30
0
 10
114.144
 20
92.3037
 30
0
 10
114.866
 20
94.4923
 30
0
  0
SPLINE
  5
C5C
330
A02
100
AcDbEntity
  8
View002
100
AcDbSpline
210
0
220
0
230
1
 70
8
 71
3
 72
8
 73
4
 74
0
 40
0
 40
0
 40
0
 40
0
 40
1
 40
1
 40
1
 40
1
 10
115.969
 20
90.6719
 30
0
 10
116.26
 20
90.2675
 30
0
 10
116.542
 20
89.7858
 30
0
 10
116.8
 20
89.2076
 30
0
  0
SPLINE
  5
C5D
330
A02
100
AcDbEntity
  8
View002
100
AcDbSpline
210
0
220
0
230
1
 70
8
 71
3
 72
8
 73
4
 74
0
 40
0
 40
0
 40
0
 40
0
 40
1
 40
1
 40
1
 40
1
 10
119.881
 20
85.4273
 30
0
 10
118.758
 20
86.3129
 30
0
 10
117.831
 20
86.9028
 30
0
 10
116.8
 20
89.2076
 30
0
  0
SPLINE
  5
C5E
330
A02
100
AcDbEntity
  8
View002
100
AcDbSpline
210
0
220
0
230
1
 70
8
 71
3
 72
8
 73
4
 74
0
 40
0
 40
0
 40
0
 40
0
 40
1
 40
1
 40
1
 40
1
 10
122.812
 20
80.4807
 30
0
 10
122.135
 20
83.5148
 30
0
 10
120.894
 20
84.6284
 30
0
 10
119.881
 20
85.4273
 30
0
  0
SPLINE
  5
C5F
330
A02
100
AcDbEntity
  8
View002
100
AcDbSpline
210
0
220
0
230
1
 70
8
 71
3
 72
8
 73
4
 74
0
 40
0
 40
0
 40
0
 40
0
 40
1
 40
1
 40
1
 40
1
 10
114.993
 20
88.4002
 30
0
 10
115.928
 20
86.3141
 30
0
 10
116.885
 20
85.4921
 30
0
 10
117.954
 20
84.5879
 30
0
  0
SPLINE
  5
C60
330
A02
100
AcDbEntity
  8
View002
100
AcDbSpline
210
0
220
0
230
1
 70
8
 71
3
 72
8
 73
4
 74
0
 40
0
 40
0
 40
0
 40
0
 40
1
 40
1
 40
1
 40
1
 10
114.993
 20
88.4002
 30
0
 10
113.965
 20
90.6932
 30
0
 10
114.938
 20
92.1824
 30
0
 10
115.719
 20
94.0519
 30
0
  0
SPLINE
  5
C61
330
A02
100
AcDbEntity
  8
View002
100
AcDbSpline
210
0
220
0
230
1
 70
8
 71
3
 72
8
 73
4
 74
0
 40
0
 40
0
 40
0
 40
0
 40
1
 40
1
 40
1
 40
1
 10
116.249
 20
91.8456
 30
0
 10
116.761
 20
91.309
 30
0
 10
117.264
 20
90.5969
 30
0
 10
117.704
 20
89.6113
 30
0
  0
SPLINE
  5
C62
330
A02
100
AcDbEntity
  8
View002
100
AcDbSpline
210
0
220
0
230
1
 70
8
 71
3
 72
8
 73
4
 74
0
 40
0
 40
0
 40
0
 40
0
 40
1
 40
1
 40
1
 40
1
 10
120.816
 20
85.7468
 30
0
 10
119.685
 20
86.6554
 30
0
 10
118.754
 20
87.2601
 30
0
 10
117.704
 20
89.6113
 30
0
  0
SPLINE
  5
C63
330
A02
100
AcDbEntity
  8
View002
100
AcDbSpline
210
0
220
0
230
1
 70
8
 71
3
 72
8
 73
4
 74
0
 40
0
 40
0
 40
0
 40
0
 40
1
 40
1
 40
1
 40
1
 10
123.776
 20
80.6954
 30
0
 10
123.085
 20
83.7877
 30
0
 10
121.835
 20
84.9284
 30
0
 10
120.816
 20
85.7468
 30
0
  0
SPLINE
  5
C64
330
A02
100
AcDbEntity
  8
View002
100
AcDbSpline
210
0
220
0
230
1
 70
8
 71
3
 72
8
 73
4
 74
0
 40
0
 40
0
 40
0
 40
0
 40
1
 40
1
 40
1
 40
1
 10
115.896
 20
88.8039
 30
0
 10
116.698
 20
87.0141
 30
0
 10
117.506
 20
86.1305
 30
0
 10
118.404
 20
85.3286
 30
0
  0
SPLINE
  5
C65
330
A02
100
AcDbEntity
  8
View002
100
AcDbSpline
210
0
220
0
230
1
 70
8
 71
3
 72
8
 73
4
 74
0
 40
0
 40
0
 40
0
 40
0
 40
1
 40
1
 40
1
 40
1
 10
115.896
 20
88.8039
 30
0
 10
114.974
 20
90.8644
 30
0
 10
115.701
 20
92.0856
 30
0
 10
116.481
 20
93.5819
 30
0
  0
SPLINE
  5
C66
330
A02
100
AcDbEntity
  8
View002
100
AcDbSpline
210
0
220
0
230
1
 70
8
 71
3
 72
8
 73
4
 74
0
 40
0
 40
0
 40
0
 40
0
 40
1
 40
1
 40
1
 40
1
 10
116.668
 20
92.7415
 30
0
 10
117.347
 20
92.1485
 30
0
 10
118.028
 20
91.3143
 30
0
 10
118.608
 20
90.015
 30
0
  0
SPLINE
  5
C67
330
A02
100
AcDbEntity
  8
View002
100
AcDbSpline
210
0
220
0
230
1
 70
8
 71
3
 72
8
 73
4
 74
0
 40
0
 40
0
 40
0
 40
0
 40
1
 40
1
 40
1
 40
1
 10
121.751
 20
86.0662
 30
0
 10
120.611
 20
86.9979
 30
0
 10
119.677
 20
87.6174
 30
0
 10
118.608
 20
90.015
 30
0
  0
SPLINE
  5
C68
330
A02
100
AcDbEntity
  8
View002
100
AcDbSpline
210
0
220
0
230
1
 70
8
 71
3
 72
8
 73
4
 74
0
 40
0
 40
0
 40
0
 40
0
 40
1
 40
1
 40
1
 40
1
 10
124.741
 20
80.91
 30
0
 10
124.036
 20
84.0607
 30
0
 10
122.776
 20
85.2284
 30
0
 10
121.751
 20
86.0662
 30
0
  0
SPLINE
  5
C69
330
A02
100
AcDbEntity
  8
View002
100
AcDbSpline
210
0
220
0
230
1
 70
8
 71
3
 72
8
 73
4
 74
0
 40
0
 40
0
 40
0
 40
0
 40
1
 40
1
 40
1
 40
1
 10
117.024
 20
79.1928
 30
0
 10
116.444
 20
81.8151
 30
0
 10
117.935
 20
83.3693
 30
0
 10
119.059
 20
85.3742
 30
0
  0
SPLINE
  5
C6A
330
A02
100
AcDbEntity
  8
View002
100
AcDbSpline
210
0
220
0
230
1
 70
8
 71
3
 72
8
 73
4
 74
0
 40
0
 40
0
 40
0
 40
0
 40
1
 40
1
 40
1
 40
1
 10
119.397
 20
81.4307
 30
0
 10
119.601
 20
80.979
 30
0
 10
119.781
 20
80.4529
 30
0
 10
119.918
 20
79.8367
 30
0
  0
SPLINE
  5
C6B
330
A02
100
AcDbEntity
  8
View002
100
AcDbSpline
210
0
220
0
230
1
 70
8
 71
3
 72
8
 73
4
 74
0
 40
0
 40
0
 40
0
 40
0
 40
1
 40
1
 40
1
 40
1
 10
117.988
 20
79.4074
 30
0
 10
117.449
 20
81.8441
 30
0
 10
118.686
 20
83.1
 30
0
 10
119.81
 20
84.7809
 30
0
  0
SPLINE
  5
C6C
330
A02
100
AcDbEntity
  8
View002
100
AcDbSpline
210
0
220
0
230
1
 70
8
 71
3
 72
8
 73
4
 74
0
 40
0
 40
0
 40
0
 40
0
 40
1
 40
1
 40
1
 40
1
 10
119.901
 20
82.5225
 30
0
 10
120.296
 20
81.8988
 30
0
 10
120.648
 20
81.1031
 30
0
 10
120.882
 20
80.0514
 30
0
  0
SPLINE
  5
C6D
330
A02
100
AcDbEntity
  8
View002
100
AcDbSpline
210
0
220
0
230
1
 70
8
 71
3
 72
8
 73
4
 74
0
 40
0
 40
0
 40
0
 40
0
 40
1
 40
1
 40
1
 40
1
 10
118.953
 20
79.6221
 30
0
 10
118.467
 20
81.8148
 30
0
 10
119.412
 20
82.8599
 30
0
 10
120.464
 20
84.1749
 30
0
  0
SPLINE
  5
C6E
330
A02
100
AcDbEntity
  8
View002
100
AcDbSpline
210
0
220
0
230
1
 70
8
 71
3
 72
8
 73
4
 74
0
 40
0
 40
0
 40
0
 40
0
 40
1
 40
1
 40
1
 40
1
 10
121.894
 20
86.6646
 30
0
 10
122.211
 20
87.7811
 30
0
 10
122.19
 20
89.2667
 30
0
 10
121.319
 20
91.2261
 30
0
  0
SPLINE
  5
C6F
330
A02
100
AcDbEntity
  8
View002
100
AcDbSpline
210
0
220
0
230
1
 70
8
 71
3
 72
8
 73
4
 74
0
 40
0
 40
0
 40
0
 40
0
 40
1
 40
1
 40
1
 40
1
 10
120.485
 20
83.3167
 30
0
 10
121.033
 20
82.6056
 30
0
 10
121.538
 20
81.6542
 30
0
 10
121.847
 20
80.2661
 30
0
  0
SPLINE
  5
C70
330
A02
100
AcDbEntity
  8
View002
100
AcDbSpline
210
0
220
0
230
1
 70
8
 71
3
 72
8
 73
4
 74
0
 40
0
 40
0
 40
0
 40
0
 40
1
 40
1
 40
1
 40
1
 10
118
 20
69.9999
 30
0
 10
118.026
 20
72.6877
 30
0
 10
119.867
 20
73.9412
 30
0
 10
121.346
 20
75.6261
 30
0
  0
SPLINE
  5
C71
330
A02
100
AcDbEntity
  8
View002
100
AcDbSpline
210
0
220
0
230
1
 70
8
 71
3
 72
8
 73
4
 74
0
 40
0
 40
0
 40
0
 40
0
 40
1
 40
1
 40
1
 40
1
 10
122.891
 20
78.5754
 30
0
 10
122.98
 20
79.1465
 30
0
 10
122.968
 20
79.7796
 30
0
 10
122.812
 20
80.4807
 30
0
  0
SPLINE
  5
C72
330
A02
100
AcDbEntity
  8
View002
100
AcDbSpline
210
0
220
0
230
1
 70
8
 71
3
 72
8
 73
4
 74
0
 40
0
 40
0
 40
0
 40
0
 40
1
 40
1
 40
1
 40
1
 10
117.024
 20
79.1928
 30
0
 10
117.586
 20
76.6491
 30
0
 10
118.514
 20
75.779
 30
0
 10
119.507
 20
74.4634
 30
0
  0
SPLINE
  5
C73
330
A02
100
AcDbEntity
  8
View002
100
AcDbSpline
210
0
220
0
230
1
 70
8
 71
3
 72
8
 73
4
 74
0
 40
0
 40
0
 40
0
 40
0
 40
1
 40
1
 40
1
 40
1
 10
120.837
 20
71.6827
 30
0
 10
120.94
 20
71.1946
 30
0
 10
121.001
 20
70.6373
 30
0
 10
121
 20
69.9999
 30
0
  0
SPLINE
  5
C74
330
A02
100
AcDbEntity
  8
View002
100
AcDbSpline
210
0
220
0
230
1
 70
8
 71
3
 72
8
 73
4
 74
0
 40
0
 40
0
 40
0
 40
0
 40
1
 40
1
 40
1
 40
1
 10
124
 20
69.9999
 30
0
 10
123.987
 20
73.1477
 30
0
 10
122.987
 20
74.5172
 30
0
 10
122.163
 20
75.5071
 30
0
  0
SPLINE
  5
C75
330
A02
100
AcDbEntity
  8
View002
100
AcDbSpline
210
0
220
0
230
1
 70
8
 71
3
 72
8
 73
4
 74
0
 40
0
 40
0
 40
0
 40
0
 40
1
 40
1
 40
1
 40
1
 10
122.163
 20
75.5071
 30
0
 10
121.24
 20
76.6171
 30
0
 10
120.465
 20
77.3724
 30
0
 10
119.918
 20
79.8368
 30
0
  0
SPLINE
  5
C76
330
A02
100
AcDbEntity
  8
View002
100
AcDbSpline
210
0
220
0
230
1
 70
8
 71
3
 72
8
 73
4
 74
0
 40
0
 40
0
 40
0
 40
0
 40
1
 40
1
 40
1
 40
1
 10
119
 20
69.9999
 30
0
 10
119.018
 20
72.508
 30
0
 10
120.501
 20
73.47
 30
0
 10
121.959
 20
74.8872
 30
0
  0
SPLINE
  5
C77
330
A02
100
AcDbEntity
  8
View002
100
AcDbSpline
210
0
220
0
230
1
 70
8
 71
3
 72
8
 73
4
 74
0
 40
0
 40
0
 40
0
 40
0
 40
1
 40
1
 40
1
 40
1
 10
123.639
 20
77.2598
 30
0
 10
123.974
 20
78.1536
 30
0
 10
124.093
 20
79.277
 30
0
 10
123.776
 20
80.6954
 30
0
  0
SPLINE
  5
C78
330
A02
100
AcDbEntity
  8
View002
100
AcDbSpline
210
0
220
0
230
1
 70
8
 71
3
 72
8
 73
4
 74
0
 40
0
 40
0
 40
0
 40
0
 40
1
 40
1
 40
1
 40
1
 10
117.988
 20
79.4075
 30
0
 10
118.481
 20
77.1849
 30
0
 10
119.236
 20
76.1979
 30
0
 10
120.097
 20
75.0854
 30
0
  0
SPLINE
  5
C79
330
A02
100
AcDbEntity
  8
View002
100
AcDbSpline
210
0
220
0
230
1
 70
8
 71
3
 72
8
 73
4
 74
0
 40
0
 40
0
 40
0
 40
0
 40
1
 40
1
 40
1
 40
1
 10
121.569
 20
72.6481
 30
0
 10
121.824
 20
71.9507
 30
0
 10
122
 20
71.0895
 30
0
 10
122
 20
69.9999
 30
0
  0
SPLINE
  5
C7A
330
A02
100
AcDbEntity
  8
View002
100
AcDbSpline
210
0
220
0
230
1
 70
8
 71
3
 72
8
 73
4
 74
0
 40
0
 40
0
 40
0
 40
0
 40
1
 40
1
 40
1
 40
1
 10
125
 20
69.9999
 30
0
 10
124.98
 20
73.2134
 30
0
 10
123.974
 20
74.6136
 30
0
 10
123.148
 20
75.6257
 30
0
  0
SPLINE
  5
C7B
330
A02
100
AcDbEntity
  8
View002
100
AcDbSpline
210
0
220
0
230
1
 70
8
 71
3
 72
8
 73
4
 74
0
 40
0
 40
0
 40
0
 40
0
 40
1
 40
1
 40
1
 40
1
 10
123.148
 20
75.6257
 30
0
 10
122.219
 20
76.762
 30
0
 10
121.443
 20
77.5339
 30
0
 10
120.882
 20
80.0514
 30
0
  0
SPLINE
  5
C7C
330
A02
100
AcDbEntity
  8
View002
100
AcDbSpline
210
0
220
0
230
1
 70
8
 71
3
 72
8
 73
4
 74
0
 40
0
 40
0
 40
0
 40
0
 40
1
 40
1
 40
1
 40
1
 10
120
 20
69.9999
 30
0
 10
120.01
 20
72.258
 30
0
 10
121.193
 20
73.1066
 30
0
 10
122.474
 20
74.1538
 30
0
  0
SPLINE
  5
C7D
330
A02
100
AcDbEntity
  8
View002
100
AcDbSpline
210
0
220
0
230
1
 70
8
 71
3
 72
8
 73
4
 74
0
 40
0
 40
0
 40
0
 40
0
 40
1
 40
1
 40
1
 40
1
 10
124.395
 20
76.3036
 30
0
 10
124.934
 20
77.3368
 30
0
 10
125.212
 20
78.8068
 30
0
 10
124.741
 20
80.91
 30
0
  0
SPLINE
  5
C7E
330
A02
100
AcDbEntity
  8
View002
100
AcDbSpline
210
0
220
0
230
1
 70
8
 71
3
 72
8
 73
4
 74
0
 40
0
 40
0
 40
0
 40
0
 40
1
 40
1
 40
1
 40
1
 10
118.953
 20
79.6221
 30
0
 10
119.376
 20
77.7138
 30
0
 10
119.978
 20
76.6919
 30
0
 10
120.693
 20
75.7175
 30
0
  0
SPLINE
  5
C7F
330
A02
100
AcDbEntity
  8
View002
100
AcDbSpline
210
0
220
0
230
1
 70
8
 71
3
 72
8
 73
4
 74
0
 40
0
 40
0
 40
0
 40
0
 40
1
 40
1
 40
1
 40
1
 10
122.313
 20
73.3049
 30
0
 10
122.701
 20
72.4893
 30
0
 10
122.997
 20
71.4402
 30
0
 10
123
 20
69.9999
 30
0
  0
SPLINE
  5
C80
330
A02
100
AcDbEntity
  8
View002
100
AcDbSpline
210
0
220
0
230
1
 70
8
 71
3
 72
8
 73
4
 74
0
 40
0
 40
0
 40
0
 40
0
 40
1
 40
1
 40
1
 40
1
 10
126
 20
69.9999
 30
0
 10
125.973
 20
73.2791
 30
0
 10
124.962
 20
74.7101
 30
0
 10
124.132
 20
75.7442
 30
0
  0
SPLINE
  5
C81
330
A02
100
AcDbEntity
  8
View002
100
AcDbSpline
210
0
220
0
230
1
 70
8
 71
3
 72
8
 73
4
 74
0
 40
0
 40
0
 40
0
 40
0
 40
1
 40
1
 40
1
 40
1
 10
124.132
 20
75.7442
 30
0
 10
123.198
 20
76.9069
 30
0
 10
122.42
 20
77.6954
 30
0
 10
121.847
 20
80.2661
 30
0
  0
ENDSEC
  0
SECTION
  2
OBJECTS
  0
DICTIONARY
  5
F000
330
0
100
AcDbDictionary
  3
ACAD_GROUP
350
F001
  0
DICTIONARY
  5
F001
330
F000
100
AcDbDictionary
  0
ENDSEC
  0
EOF