999
FreeCAD v0.20 24910 (Git)
  0
SECTION
  2
HEADER
  9
$ACADVER
  1
AC1014
  9
$ACADMAINTVER
 70
     9
  9
$DWGCODEPAGE
  3
ANSI_1252
  9
$TEXTSTYLE
  7
STANDARD
  9
$DIMSTYLE
  2
STANDARD
  9
$DIMTXSTY
  7
STANDARD
  9
$CMLSTYLE
  2
STANDARD
  9
$PEXTMAX
 10
50
 20
50
 30
50
  9
$PEXTMIN
 10
0
 20
0
 30
0
  9
$HANDSEED
  5
FFFF
  0
ENDSEC
  0
SECTION
  2
CLASSES
  0
CLASS
  1
ACDBDICTIONARYWDFLT
  2
AcDbDictionaryWithDefault
  3
ObjectDBX Classes
 90
        0
280
     0
281
     0
  0
CLASS
  1
XRECORD
  2
AcDbXrecord
  3
ObjectDBX Classes
 90
        0
280
     0
281
     0
  0
CLASS
  1
LWPOLYLINE
  2
AcDbPolyline
  3
ObjectDBX Classes
 90
        0
280
     0
281
     1
  0
ENDSEC
  0
SECTION
  2
TABLES
  0
TABLE
  2
VPORT
  5
20
330
0
100
AcDbSymbolTable
 70
     1
  0
VPORT
  5
21
330
20
100
AcDbSymbolTableRecord
100
AcDbViewportTableRecord
  2
*ACTIVE
 70
     0
  0
ENDTAB
  0
TABLE
  2
LTYPE
  5
22
330
0
100
AcDbSymbolTable
 70
     1
  0
LTYPE
  5
23
330
21
100
AcDbSymbolTableRecord
100
AcDbLinetypeTableRecord
  2
BYBLOCK
 70
     0
  3

 72
    65
 73
     0
 40
0.0
  0
LTYPE
  5
24
330
21
100
AcDbSymbolTableRecord
100
AcDbLinetypeTableRecord
  2
BYLAYER
 70
     0
  3

 72
    65
 73
     0
 40
0.0
  0
LTYPE
  5
25
330
21
100
AcDbSymbolTableRecord
100
AcDbLinetypeTableRecord
  2
CONTINUOUS
 70
     0
  3
Solid line
 72
    65
 73
     0
 40
0.0
  0
ENDTAB
  0
TABLE
  2
LAYER
  5
C82
330
0
100
AcDbSymbolTable
 70
2
  0
LAYER
  5
C83
330
C82
100
AcDbSymbolTableRecord
100
AcDbLayerTableRecord
  2
0
 70
   0
 62
   7
  6
CONTINUOUS
  0
LAYER
  5
C84
330
C82
100
AcDbSymbolTableRecord
100
AcDbLayerTableRecord
  2
View
 70
    0
 62
    7
  6
CONTINUOUS
  0
ENDTAB
  0
TABLE
  2
STYLE
  5
70
330
0
100
AcDbSymbolTable
 70
     2
  0
STYLE
  5
71
330
70
100
AcDbSymbolTableRecord
100
AcDbTextStyleTableRecord
  2
STANDARD
 70
     0
 40
0.0
 41
1.0
 50
0.0
 71
     0
 42
2.5
  3
arial.ttf
  4

  0
STYLE
  5
72
330
70
100
AcDbSymbolTableRecord
100
AcDbTextStyleTableRecord
  2
ANNOTATIVE
 70
     0
 40
0.0
 41
1.0
 50
0.0
 71
     0
 42
2.5
  3
arial.ttf
  4

  0
ENDTAB
  0
TABLE
  2
VIEW
  5
73
330
0
100
AcDbSymbolTable
 70
     0
  0
ENDTAB
  0
TABLE
  2
UCS
  5
74
330
0
100
AcDbSymbolTable
 70
     0
  0
ENDTAB
  0
TABLE
  2
APPID
  5
75
330
0
100
AcDbSymbolTable
 70
     2
  0
APPID
  5
76
330
75
100
AcDbSymbolTableRecord
100
AcDbRegAppTableRecord
  2
ACAD
 70
     0
  0
APPID
  5
77
330
75
100
AcDbSymbolTableRecord
100
AcDbRegAppTableRecord
  2
ACADANNOTATIVE
 70
     0
  0
ENDTAB
  0
TABLE
  2
DIMSTYLE
  5
78
330
0
100
AcDbSymbolTable
 70
     2
  0
DIMSTYLE
105
79
330
78
100
AcDbSymbolTableRecord
100
AcDbDimStyleTableRecord
  2
STANDARD
 70
     0
  3

  4

  5

  6

  7

 40
0.0
 41
2.5
 42
0.625
 43
3.75
 44
1.25
 45
0.0
 46
0.0
 47
0.0
 48
0.0
140
2.5
141
2.5
142
0.0
143
0.03937007874016
144
1.0
145
0.0
146
1.0
147
0.625
 71
     0
 72
     0
 73
     0
 74
     0
 75
     0
 76
     0
 77
     1
 78
     8
170
     0
171
     3
172
     1
173
     0
174
     0
175
     0
176
     0
177
     0
178
     0
270
     2
271
     2
272
     2
273
     2
274
     3
340
71
275
     0
280
     0
281
     0
282
     0
283
     0
284
     8
285
     0
286
     0
287
     3
288
     0
  0
ENDTAB
  0
TABLE
  2
BLOCK_RECORD
  5
A01
330
0
100
AcDbSymbolTable
  70
5
  0
BLOCK_RECORD
  5
A02
330
A01
100
AcDbSymbolTableRecord
100
AcDbBlockTableRecord
  2
*MODEL_SPACE
  0
BLOCK_RECORD
  5
A03
330
A01
100
AcDbSymbolTableRecord
100
AcDbBlockTableRecord
  2
*PAPER_SPACE
  0
ENDTAB
  0
ENDSEC
  0
SECTION
  2
BLOCKS
  0
BLOCK
  5
A04
330
A02
100
AcDbEntity
  8
0
100
AcDbBlockBegin
  2
*MODEL_SPACE
 70
   0
 10
0
 20
0
 30
0
  3
*MODEL_SPACE
  1
 
  0
ENDBLK
  5
A05
330
A02
100
AcDbEntity
  8
0
100
AcDbBlockEnd
  0
BLOCK
  5
A06
330
A03
100
AcDbEntity
 67
1
  8
0
100
AcDbBlockBegin
  2
*PAPER_SPACE
 70
   0
 10
0
 20
0
 30
0
  3
*PAPER_SPACE
  1
 
  0
ENDBLK
  5
A07
330
A03
100
AcDbEntity
 67
    1
  8
0
100
AcDbBlockEnd
  0
ENDSEC
  0
SECTION
  2
ENTITIES
  0
ARC
  5
A08
330
A02
100
AcDbEntity
  8
View
100
AcDbCircle
 10
89.1207
 20
154.213
 30
0
 40
26
100
AcDbArc
 50
120
 51
180
  0
ARC
  5
A09
330
A02
100
AcDbEntity
  8
View
100
AcDbCircle
 10
50.1207
 20
131.696
 30
0
 40
26
100
AcDbArc
 50
-2.06687e-12
 51
60
  0
ARC
  5
A0A
330
A02
100
AcDbEntity
  8
View
100
AcDbCircle
 10
102.121
 20
131.696
 30
0
 40
26
100
AcDbArc
 50
120
 51
180
  0
ARC
  5
A0B
330
A02
100
AcDbEntity
  8
View
100
AcDbCircle
 10
63.1207
 20
154.213
 30
0
 40
26
100
AcDbArc
 50
0
 51
60
  0
ARC
  5
A0C
330
A02
100
AcDbEntity
  8
View
100
AcDbCircle
 10
63.1207
 20
154.213
 30
0
 40
26
100
AcDbArc
 50
180
 51
-120
  0
ARC
  5
A0D
330
A02
100
AcDbEntity
  8
View
100
AcDbCircle
 10
63.1207
 20
109.179
 30
0
 40
26
100
AcDbArc
 50
60
 51
120
  0
ARC
  5
A0E
330
A02
100
AcDbEntity
  8
View
100
AcDbCircle
 10
89.1207
 20
154.213
 30
0
 40
26
100
AcDbArc
 50
180
 51
-120
  0
ARC
  5
A0F
330
A02
100
AcDbEntity
  8
View
100
AcDbCircle
 10
50.1207
 20
131.696
 30
0
 40
26
100
AcDbArc
 50
60
 51
120
  0
ARC
  5
A10
330
A02
100
AcDbEntity
  8
View
100
AcDbCircle
 10
50.1207
 20
131.696
 30
0
 40
26
100
AcDbArc
 50
-120
 51
-60
  0
ARC
  5
A11
330
A02
100
AcDbEntity
  8
View
100
AcDbCircle
 10
89.1207
 20
109.179
 30
0
 40
26
100
AcDbArc
 50
120
 51
180
  0
ARC
  5
A12
330
A02
100
AcDbEntity
  8
View
100
AcDbCircle
 10
63.1207
 20
154.213
 30
0
 40
26
100
AcDbArc
 50
-120
 51
-60
  0
ARC
  5
A13
330
A02
100
AcDbEntity
  8
View
100
AcDbCircle
 10
63.1207
 20
109.179
 30
0
 40
26
100
AcDbArc
 50
120
 51
180
  0
ARC
  5
A14
330
A02
100
AcDbEntity
  8
View
100
AcDbCircle
 10
63.1207
 20
109.179
 30
0
 40
26
100
AcDbArc
 50
-60
 51
-3.13162e-14
  0
ARC
  5
A15
330
A02
100
AcDbEntity
  8
View
100
AcDbCircle
 10
102.121
 20
131.696
 30
0
 40
26
100
AcDbArc
 50
180
 51
-120
  0
ARC
  5
A16
330
A02
100
AcDbEntity
  8
View
100
AcDbCircle
 10
50.1207
 20
131.696
 30
0
 40
26
100
AcDbArc
 50
-60
 51
-1.19002e-12
  0
ARC
  5
A17
330
A02
100
AcDbEntity
  8
View
100
AcDbCircle
 10
89.1207
 20
109.179
 30
0
 40
26
100
AcDbArc
 50
180
 51
-120
  0
ARC
  5
A18
330
A02
100
AcDbEntity
  8
View
100
AcDbCircle
 10
89.1207
 20
109.179
 30
0
 40
26
100
AcDbArc
 50
-1.84766e-12
 51
60
  0
ARC
  5
A19
330
A02
100
AcDbEntity
  8
View
100
AcDbCircle
 10
89.1207
 20
154.213
 30
0
 40
26
100
AcDbArc
 50
-120
 51
-60
  0
ARC
  5
A1A
330
A02
100
AcDbEntity
  8
View
100
AcDbCircle
 10
63.1207
 20
109.179
 30
0
 40
26
100
AcDbArc
 50
-4.32164e-12
 51
60
  0
ARC
  5
A1B
330
A02
100
AcDbEntity
  8
View
100
AcDbCircle
 10
102.121
 20
131.696
 30
0
 40
26
100
AcDbArc
 50
-120
 51
-60
  0
ARC
  5
A1C
330
A02
100
AcDbEntity
  8
View
100
AcDbCircle
 10
102.121
 20
131.696
 30
0
 40
26
100
AcDbArc
 50
60
 51
120
  0
ARC
  5
A1D
330
A02
100
AcDbEntity
  8
View
100
AcDbCircle
 10
63.1207
 20
154.213
 30
0
 40
26
100
AcDbArc
 50
-60
 51
-1.94161e-12
  0
ARC
  5
A1E
330
A02
100
AcDbEntity
  8
View
100
AcDbCircle
 10
89.1207
 20
109.179
 30
0
 40
26
100
AcDbArc
 50
60
 51
120
  0
ARC
  5
A1F
330
A02
100
AcDbEntity
  8
View
100
AcDbCircle
 10
89.1207
 20
154.213
 30
0
 40
26
100
AcDbArc
 50
-60
 51
-1.87897e-13
  0
ARC
  5
A20
330
A02
100
AcDbEntity
  8
View
100
AcDbCircle
 10
76.1207
 20
176.729
 30
0
 40
26
100
AcDbArc
 50
-120
 51
-60
  0
ARC
  5
A21
330
A02
100
AcDbEntity
  8
View
100
AcDbCircle
 10
37.1207
 20
154.213
 30
0
 40
26
100
AcDbArc
 50
-60
 51
0
  0
ARC
  5
A22
330
A02
100
AcDbEntity
  8
View
100
AcDbCircle
 10
37.1207
 20
109.179
 30
0
 40
26
100
AcDbArc
 50
0
 51
60
  0
ARC
  5
A23
330
A02
100
AcDbEntity
  8
View
100
AcDbCircle
 10
76.1207
 20
86.6628
 30
0
 40
26
100
AcDbArc
 50
60
 51
120
  0
ARC
  5
A24
330
A02
100
AcDbEntity
  8
View
100
AcDbCircle
 10
115.121
 20
109.179
 30
0
 40
26
100
AcDbArc
 50
120
 51
180
  0
ARC
  5
A25
330
A02
100
AcDbEntity
  8
View
100
AcDbCircle
 10
115.121
 20
154.213
 30
0
 40
26
100
AcDbArc
 50
180
 51
-120
  0
CIRCLE
  5
A26
330
A02
100
AcDbEntity
  8
View
100
AcDbCircle
 10
76.1207
 20
131.696
 40
60
  0
SPLINE
  5
A27
330
A02
100
AcDbEntity
  8
View
100
AcDbSpline
210
0
220
0
230
1
 70
8
 71
3
 72
8
 73
4
 74
0
 40
0
 40
0
 40
0
 40
0
 40
1
 40
1
 40
1
 40
1
 10
123.144
 20
122.503
 30
0
 10
122.582
 20
119.959
 30
0
 10
123.056
 20
118.769
 30
0
 10
123.404
 20
117.16
 30
0
  0
SPLINE
  5
A28
330
A02
100
AcDbEntity
  8
View
100
AcDbSpline
210
0
220
0
230
1
 70
8
 71
3
 72
8
 73
4
 74
0
 40
0
 40
0
 40
0
 40
0
 40
1
 40
1
 40
1
 40
1
 10
123.144
 20
122.503
 30
0
 10
123.724
 20
125.125
 30
0
 10
125.728
 20
125.893
 30
0
 10
127.599
 20
127.249
 30
0
  0
SPLINE
  5
A29
330
A02
100
AcDbEntity
  8
View
100
AcDbSpline
210
0
220
0
230
1
 70
8
 71
3
 72
8
 73
4
 74
0
 40
0
 40
0
 40
0
 40
0
 40
1
 40
1
 40
1
 40
1
 10
129.77
 20
129.797
 30
0
 10
129.986
 20
130.339
 30
0
 10
130.118
 20
130.967
 30
0
 10
130.121
 20
131.696
 30
0
  0
SPLINE
  5
A2A
330
A02
100
AcDbEntity
  8
View
100
AcDbSpline
210
0
220
0
230
1
 70
8
 71
3
 72
8
 73
4
 74
0
 40
0
 40
0
 40
0
 40
0
 40
1
 40
1
 40
1
 40
1
 10
124.121
 20
131.696
 30
0
 10
124.146
 20
129.077
 30
0
 10
124.864
 20
128.031
 30
0
 10
125.55
 20
126.522
 30
0
  0
SPLINE
  5
A2B
330
A02
100
AcDbEntity
  8
View
100
AcDbSpline
210
0
220
0
230
1
 70
8
 71
3
 72
8
 73
4
 74
0
 40
0
 40
0
 40
0
 40
0
 40
1
 40
1
 40
1
 40
1
 10
126.241
 20
123.524
 30
0
 10
126.235
 20
123.028
 30
0
 10
126.175
 20
122.476
 30
0
 10
126.038
 20
121.859
 30
0
  0
SPLINE
  5
A2C
330
A02
100
AcDbEntity
  8
View
100
AcDbSpline
210
0
220
0
230
1
 70
8
 71
3
 72
8
 73
4
 74
0
 40
0
 40
0
 40
0
 40
0
 40
1
 40
1
 40
1
 40
1
 10
128.195
 20
119.459
 30
0
 10
128.518
 20
119.937
 30
0
 10
128.776
 20
120.514
 30
0
 10
128.932
 20
121.215
 30
0
  0
SPLINE
  5
A2D
330
A02
100
AcDbEntity
  8
View
100
AcDbSpline
210
0
220
0
230
1
 70
8
 71
3
 72
8
 73
4
 74
0
 40
0
 40
0
 40
0
 40
0
 40
1
 40
1
 40
1
 40
1
 10
128.932
 20
121.215
 30
0
 10
129.611
 20
124.255
 30
0
 10
128.958
 20
125.794
 30
0
 10
128.37
 20
126.952
 30
0
  0
SPLINE
  5
A2E
330
A02
100
AcDbEntity
  8
View
100
AcDbSpline
210
0
220
0
230
1
 70
8
 71
3
 72
8
 73
4
 74
0
 40
0
 40
0
 40
0
 40
0
 40
1
 40
1
 40
1
 40
1
 10
128.37
 20
126.952
 30
0
 10
127.714
 20
128.244
 30
0
 10
127.126
 20
129.146
 30
0
 10
127.121
 20
131.696
 30
0
  0
SPLINE
  5
A2F
330
A02
100
AcDbEntity
  8
View
100
AcDbSpline
210
0
220
0
230
1
 70
8
 71
3
 72
8
 73
4
 74
0
 40
0
 40
0
 40
0
 40
0
 40
1
 40
1
 40
1
 40
1
 10
124.109
 20
122.289
 30
0
 10
124.649
 20
124.725
 30
0
 10
126.299
 20
125.335
 30
0
 10
128.032
 20
126.392
 30
0
  0
SPLINE
  5
A30
330
A02
100
AcDbEntity
  8
View
100
AcDbSpline
210
0
220
0
230
1
 70
8
 71
3
 72
8
 73
4
 74
0
 40
0
 40
0
 40
0
 40
0
 40
1
 40
1
 40
1
 40
1
 10
130.206
 20
128.338
 30
0
 10
130.736
 20
129.139
 30
0
 10
131.112
 20
130.22
 30
0
 10
131.121
 20
131.696
 30
0
  0
SPLINE
  5
A31
330
A02
100
AcDbEntity
  8
View
100
AcDbSpline
210
0
220
0
230
1
 70
8
 71
3
 72
8
 73
4
 74
0
 40
0
 40
0
 40
0
 40
0
 40
1
 40
1
 40
1
 40
1
 10
125.121
 20
131.696
 30
0
 10
125.137
 20
129.404
 30
0
 10
125.661
 20
128.278
 30
0
 10
126.261
 20
126.998
 30
0
  0
SPLINE
  5
A32
330
A02
100
AcDbEntity
  8
View
100
AcDbSpline
210
0
220
0
230
1
 70
8
 71
3
 72
8
 73
4
 74
0
 40
0
 40
0
 40
0
 40
0
 40
1
 40
1
 40
1
 40
1
 10
127.161
 20
124.301
 30
0
 10
127.256
 20
123.567
 30
0
 10
127.237
 20
122.697
 30
0
 10
127.003
 20
121.645
 30
0
  0
SPLINE
  5
A33
330
A02
100
AcDbEntity
  8
View
100
AcDbSpline
210
0
220
0
230
1
 70
8
 71
3
 72
8
 73
4
 74
0
 40
0
 40
0
 40
0
 40
0
 40
1
 40
1
 40
1
 40
1
 10
129.897
 20
121.001
 30
0
 10
130.589
 20
124.099
 30
0
 10
129.94
 20
125.669
 30
0
 10
129.357
 20
126.849
 30
0
  0
SPLINE
  5
A34
330
A02
100
AcDbEntity
  8
View
100
AcDbSpline
210
0
220
0
230
1
 70
8
 71
3
 72
8
 73
4
 74
0
 40
0
 40
0
 40
0
 40
0
 40
1
 40
1
 40
1
 40
1
 10
129.357
 20
126.849
 30
0
 10
128.704
 20
128.168
 30
0
 10
128.121
 20
129.087
 30
0
 10
128.121
 20
131.696
 30
0
  0
SPLINE
  5
A35
330
A02
100
AcDbEntity
  8
View
100
AcDbSpline
210
0
220
0
230
1
 70
8
 71
3
 72
8
 73
4
 74
0
 40
0
 40
0
 40
0
 40
0
 40
1
 40
1
 40
1
 40
1
 10
125.074
 20
122.074
 30
0
 10
125.56
 20
124.267
 30
0
 10
126.858
 20
124.812
 30
0
 10
128.371
 20
125.564
 30
0
  0
SPLINE
  5
A36
330
A02
100
AcDbEntity
  8
View
100
AcDbSpline
210
0
220
0
230
1
 70
8
 71
3
 72
8
 73
4
 74
0
 40
0
 40
0
 40
0
 40
0
 40
1
 40
1
 40
1
 40
1
 10
130.728
 20
127.235
 30
0
 10
131.487
 20
128.122
 30
0
 10
132.103
 20
129.506
 30
0
 10
132.121
 20
131.696
 30
0
  0
SPLINE
  5
A37
330
A02
100
AcDbEntity
  8
View
100
AcDbSpline
210
0
220
0
230
1
 70
8
 71
3
 72
8
 73
4
 74
0
 40
0
 40
0
 40
0
 40
0
 40
1
 40
1
 40
1
 40
1
 10
126.121
 20
131.696
 30
0
 10
126.13
 20
129.725
 30
0
 10
126.496
 20
128.595
 30
0
 10
126.981
 20
127.483
 30
0
  0
SPLINE
  5
A38
330
A02
100
AcDbEntity
  8
View
100
AcDbSpline
210
0
220
0
230
1
 70
8
 71
3
 72
8
 73
4
 74
0
 40
0
 40
0
 40
0
 40
0
 40
1
 40
1
 40
1
 40
1
 10
128.027
 20
124.775
 30
0
 10
128.224
 20
123.896
 30
0
 10
128.277
 20
122.819
 30
0
 10
127.968
 20
121.43
 30
0
  0
SPLINE
  5
A39
330
A02
100
AcDbEntity
  8
View
100
AcDbSpline
210
0
220
0
230
1
 70
8
 71
3
 72
8
 73
4
 74
0
 40
0
 40
0
 40
0
 40
0
 40
1
 40
1
 40
1
 40
1
 10
130.862
 20
120.786
 30
0
 10
131.568
 20
123.943
 30
0
 10
130.923
 20
125.545
 30
0
 10
130.344
 20
126.747
 30
0
  0
SPLINE
  5
A3A
330
A02
100
AcDbEntity
  8
View
100
AcDbSpline
210
0
220
0
230
1
 70
8
 71
3
 72
8
 73
4
 74
0
 40
0
 40
0
 40
0
 40
0
 40
1
 40
1
 40
1
 40
1
 10
130.344
 20
126.747
 30
0
 10
129.695
 20
128.093
 30
0
 10
129.115
 20
129.028
 30
0
 10
129.121
 20
131.696
 30
0
  0
SPLINE
  5
A3B
330
A02
100
AcDbEntity
  8
View
100
AcDbSpline
210
0
220
0
230
1
 70
8
 71
3
 72
8
 73
4
 74
0
 40
0
 40
0
 40
0
 40
0
 40
1
 40
1
 40
1
 40
1
 10
120.21
 20
113.699
 30
0
 10
121.316
 20
116.162
 30
0
 10
123.51
 20
116.54
 30
0
 10
125.554
 20
117.444
 30
0
  0
SPLINE
  5
A3C
330
A02
100
AcDbEntity
  8
View
100
AcDbSpline
210
0
220
0
230
1
 70
8
 71
3
 72
8
 73
4
 74
0
 40
0
 40
0
 40
0
 40
0
 40
1
 40
1
 40
1
 40
1
 10
123.458
 20
114.082
 30
0
 10
123.351
 20
113.597
 30
0
 10
123.179
 20
113.067
 30
0
 10
122.921
 20
112.488
 30
0
  0
SPLINE
  5
A3D
330
A02
100
AcDbEntity
  8
View
100
AcDbSpline
210
0
220
0
230
1
 70
8
 71
3
 72
8
 73
4
 74
0
 40
0
 40
0
 40
0
 40
0
 40
1
 40
1
 40
1
 40
1
 10
125.632
 20
111.277
 30
0
 10
126.897
 20
114.116
 30
0
 10
126.576
 20
115.742
 30
0
 10
126.243
 20
116.994
 30
0
  0
SPLINE
  5
A3E
330
A02
100
AcDbEntity
  8
View
100
AcDbSpline
210
0
220
0
230
1
 70
8
 71
3
 72
8
 73
4
 74
0
 40
0
 40
0
 40
0
 40
0
 40
1
 40
1
 40
1
 40
1
 10
126.243
 20
116.994
 30
0
 10
125.874
 20
118.382
 30
0
 10
125.491
 20
119.396
 30
0
 10
126.038
 20
121.859
 30
0
  0
SPLINE
  5
A3F
330
A02
100
AcDbEntity
  8
View
100
AcDbSpline
210
0
220
0
230
1
 70
8
 71
3
 72
8
 73
4
 74
0
 40
0
 40
0
 40
0
 40
0
 40
1
 40
1
 40
1
 40
1
 10
121.113
 20
113.296
 30
0
 10
122.14
 20
115.585
 30
0
 10
123.895
 20
115.85
 30
0
 10
125.798
 20
116.519
 30
0
  0
SPLINE
  5
A40
330
A02
100
AcDbEntity
  8
View
100
AcDbSpline
210
0
220
0
230
1
 70
8
 71
3
 72
8
 73
4
 74
0
 40
0
 40
0
 40
0
 40
0
 40
1
 40
1
 40
1
 40
1
 10
128.315
 20
117.955
 30
0
 10
128.995
 20
118.62
 30
0
 10
129.58
 20
119.583
 30
0
 10
129.897
 20
121.001
 30
0
  0
SPLINE
  5
A41
330
A02
100
AcDbEntity
  8
View
100
AcDbSpline
210
0
220
0
230
1
 70
8
 71
3
 72
8
 73
4
 74
0
 40
0
 40
0
 40
0
 40
0
 40
1
 40
1
 40
1
 40
1
 10
124.109
 20
122.289
 30
0
 10
123.617
 20
120.066
 30
0
 10
123.884
 20
118.848
 30
0
 10
124.198
 20
117.478
 30
0
  0
SPLINE
  5
A42
330
A02
100
AcDbEntity
  8
View
100
AcDbSpline
210
0
220
0
230
1
 70
8
 71
3
 72
8
 73
4
 74
0
 40
0
 40
0
 40
0
 40
0
 40
1
 40
1
 40
1
 40
1
 10
124.516
 20
114.656
 30
0
 10
124.459
 20
113.918
 30
0
 10
124.265
 20
113.07
 30
0
 10
123.824
 20
112.085
 30
0
  0
SPLINE
  5
A43
330
A02
100
AcDbEntity
  8
View
100
AcDbSpline
210
0
220
0
230
1
 70
8
 71
3
 72
8
 73
4
 74
0
 40
0
 40
0
 40
0
 40
0
 40
1
 40
1
 40
1
 40
1
 10
126.536
 20
110.874
 30
0
 10
127.822
 20
113.764
 30
0
 10
127.509
 20
115.417
 30
0
 10
127.183
 20
116.688
 30
0
  0
SPLINE
  5
A44
330
A02
100
AcDbEntity
  8
View
100
AcDbSpline
210
0
220
0
230
1
 70
8
 71
3
 72
8
 73
4
 74
0
 40
0
 40
0
 40
0
 40
0
 40
1
 40
1
 40
1
 40
1
 10
127.183
 20
116.688
 30
0
 10
126.82
 20
118.101
 30
0
 10
126.443
 20
119.129
 30
0
 10
127.003
 20
121.645
 30
0
  0
SPLINE
  5
A45
330
A02
100
AcDbEntity
  8
View
100
AcDbSpline
210
0
220
0
230
1
 70
8
 71
3
 72
8
 73
4
 74
0
 40
0
 40
0
 40
0
 40
0
 40
1
 40
1
 40
1
 40
1
 10
122.017
 20
112.892
 30
0
 10
122.937
 20
114.946
 30
0
 10
124.364
 20
115.23
 30
0
 10
125.958
 20
115.642
 30
0
  0
SPLINE
  5
A46
330
A02
100
AcDbEntity
  8
View
100
AcDbSpline
210
0
220
0
230
1
 70
8
 71
3
 72
8
 73
4
 74
0
 40
0
 40
0
 40
0
 40
0
 40
1
 40
1
 40
1
 40
1
 10
128.595
 20
116.776
 30
0
 10
129.516
 20
117.479
 30
0
 10
130.392
 20
118.685
 30
0
 10
130.862
 20
120.786
 30
0
  0
SPLINE
  5
A47
330
A02
100
AcDbEntity
  8
View
100
AcDbSpline
210
0
220
0
230
1
 70
8
 71
3
 72
8
 73
4
 74
0
 40
0
 40
0
 40
0
 40
0
 40
1
 40
1
 40
1
 40
1
 10
125.074
 20
122.074
 30
0
 10
124.65
 20
120.165
 30
0
 10
124.764
 20
118.984
 30
0
 10
125.002
 20
117.801
 30
0
  0
SPLINE
  5
A48
330
A02
100
AcDbEntity
  8
View
100
AcDbSpline
210
0
220
0
230
1
 70
8
 71
3
 72
8
 73
4
 74
0
 40
0
 40
0
 40
0
 40
0
 40
1
 40
1
 40
1
 40
1
 10
125.46
 20
114.942
 30
0
 10
125.474
 20
114.043
 30
0
 10
125.308
 20
112.98
 30
0
 10
124.728
 20
111.681
 30
0
  0
SPLINE
  5
A49
330
A02
100
AcDbEntity
  8
View
100
AcDbSpline
210
0
220
0
230
1
 70
8
 71
3
 72
8
 73
4
 74
0
 40
0
 40
0
 40
0
 40
0
 40
1
 40
1
 40
1
 40
1
 10
124.438
 20
106.99
 30
0
 10
125.48
 20
107.502
 30
0
 10
126.568
 20
108.511
 30
0
 10
127.439
 20
110.47
 30
0
  0
SPLINE
  5
A4A
330
A02
100
AcDbEntity
  8
View
100
AcDbSpline
210
0
220
0
230
1
 70
8
 71
3
 72
8
 73
4
 74
0
 40
0
 40
0
 40
0
 40
0
 40
1
 40
1
 40
1
 40
1
 10
127.439
 20
110.47
 30
0
 10
128.747
 20
113.411
 30
0
 10
128.442
 20
115.092
 30
0
 10
128.122
 20
116.383
 30
0
  0
SPLINE
  5
A4B
330
A02
100
AcDbEntity
  8
View
100
AcDbSpline
210
0
220
0
230
1
 70
8
 71
3
 72
8
 73
4
 74
0
 40
0
 40
0
 40
0
 40
0
 40
1
 40
1
 40
1
 40
1
 10
128.122
 20
116.383
 30
0
 10
127.767
 20
117.819
 30
0
 10
127.395
 20
118.862
 30
0
 10
127.968
 20
121.43
 30
0
  0
SPLINE
  5
A4C
330
A02
100
AcDbEntity
  8
View
100
AcDbSpline
210
0
220
0
230
1
 70
8
 71
3
 72
8
 73
4
 74
0
 40
0
 40
0
 40
0
 40
0
 40
1
 40
1
 40
1
 40
1
 10
115.578
 20
105.546
 30
0
 10
117.137
 20
107.783
 30
0
 10
119.382
 20
107.743
 30
0
 10
121.572
 20
108.238
 30
0
  0
SPLINE
  5
A4D
330
A02
100
AcDbEntity
  8
View
100
AcDbSpline
210
0
220
0
230
1
 70
8
 71
3
 72
8
 73
4
 74
0
 40
0
 40
0
 40
0
 40
0
 40
1
 40
1
 40
1
 40
1
 10
124.563
 20
109.702
 30
0
 10
124.974
 20
110.108
 30
0
 10
125.34
 20
110.622
 30
0
 10
125.632
 20
111.277
 30
0
  0
SPLINE
  5
A4E
330
A02
100
AcDbEntity
  8
View
100
AcDbSpline
210
0
220
0
230
1
 70
8
 71
3
 72
8
 73
4
 74
0
 40
0
 40
0
 40
0
 40
0
 40
1
 40
1
 40
1
 40
1
 10
120.21
 20
113.699
 30
0
 10
119.135
 20
111.307
 30
0
 10
119.366
 20
110.02
 30
0
 10
119.397
 20
108.371
 30
0
  0
SPLINE
  5
A4F
330
A02
100
AcDbEntity
  8
View
100
AcDbSpline
210
0
220
0
230
1
 70
8
 71
3
 72
8
 73
4
 74
0
 40
0
 40
0
 40
0
 40
0
 40
1
 40
1
 40
1
 40
1
 10
118.859
 20
105.32
 30
0
 10
118.662
 20
104.86
 30
0
 10
118.393
 20
104.368
 30
0
 10
118.029
 20
103.845
 30
0
  0
SPLINE
  5
A50
330
A02
100
AcDbEntity
  8
View
100
AcDbSpline
210
0
220
0
230
1
 70
8
 71
3
 72
8
 73
4
 74
0
 40
0
 40
0
 40
0
 40
0
 40
1
 40
1
 40
1
 40
1
 10
120.481
 20
102.144
 30
0
 10
122.256
 20
104.706
 30
0
 10
122.25
 20
106.36
 30
0
 10
122.163
 20
107.661
 30
0
  0
SPLINE
  5
A51
330
A02
100
AcDbEntity
  8
View
100
AcDbSpline
210
0
220
0
230
1
 70
8
 71
3
 72
8
 73
4
 74
0
 40
0
 40
0
 40
0
 40
0
 40
1
 40
1
 40
1
 40
1
 10
122.163
 20
107.661
 30
0
 10
122.068
 20
109.093
 30
0
 10
121.889
 20
110.181
 30
0
 10
122.921
 20
112.488
 30
0
  0
SPLINE
  5
A52
330
A02
100
AcDbEntity
  8
View
100
AcDbSpline
210
0
220
0
230
1
 70
8
 71
3
 72
8
 73
4
 74
0
 40
0
 40
0
 40
0
 40
0
 40
1
 40
1
 40
1
 40
1
 10
116.395
 20
104.979
 30
0
 10
117.84
 20
107.055
 30
0
 10
119.633
 20
106.987
 30
0
 10
121.634
 20
107.279
 30
0
  0
SPLINE
  5
A53
330
A02
100
AcDbEntity
  8
View
100
AcDbSpline
210
0
220
0
230
1
 70
8
 71
3
 72
8
 73
4
 74
0
 40
0
 40
0
 40
0
 40
0
 40
1
 40
1
 40
1
 40
1
 10
124.389
 20
108.203
 30
0
 10
125.187
 20
108.722
 30
0
 10
125.946
 20
109.55
 30
0
 10
126.536
 20
110.874
 30
0
  0
SPLINE
  5
A54
330
A02
100
AcDbEntity
  8
View
100
AcDbSpline
210
0
220
0
230
1
 70
8
 71
3
 72
8
 73
4
 74
0
 40
0
 40
0
 40
0
 40
0
 40
1
 40
1
 40
1
 40
1
 10
121.113
 20
113.296
 30
0
 10
120.177
 20
111.207
 30
0
 10
120.199
 20
109.941
 30
0
 10
120.242
 20
108.533
 30
0
  0
SPLINE
  5
A55
330
A02
100
AcDbEntity
  8
View
100
AcDbSpline
210
0
220
0
230
1
 70
8
 71
3
 72
8
 73
4
 74
0
 40
0
 40
0
 40
0
 40
0
 40
1
 40
1
 40
1
 40
1
 10
120.013
 20
105.686
 30
0
 10
119.817
 20
104.969
 30
0
 10
119.465
 20
104.169
 30
0
 10
118.847
 20
103.278
 30
0
  0
SPLINE
  5
A56
330
A02
100
AcDbEntity
  8
View
100
AcDbSpline
210
0
220
0
230
1
 70
8
 71
3
 72
8
 73
4
 74
0
 40
0
 40
0
 40
0
 40
0
 40
1
 40
1
 40
1
 40
1
 10
121.298
 20
101.577
 30
0
 10
123.102
 20
104.183
 30
0
 10
123.108
 20
105.861
 30
0
 10
123.03
 20
107.178
 30
0
  0
SPLINE
  5
A57
330
A02
100
AcDbEntity
  8
View
100
AcDbSpline
210
0
220
0
230
1
 70
8
 71
3
 72
8
 73
4
 74
0
 40
0
 40
0
 40
0
 40
0
 40
1
 40
1
 40
1
 40
1
 10
123.03
 20
107.178
 30
0
 10
122.945
 20
108.632
 30
0
 10
122.773
 20
109.732
 30
0
 10
123.824
 20
112.085
 30
0
  0
SPLINE
  5
A58
330
A02
100
AcDbEntity
  8
View
100
AcDbSpline
210
0
220
0
230
1
 70
8
 71
3
 72
8
 73
4
 74
0
 40
0
 40
0
 40
0
 40
0
 40
1
 40
1
 40
1
 40
1
 10
117.212
 20
104.412
 30
0
 10
118.507
 20
106.274
 30
0
 10
119.973
 20
106.284
 30
0
 10
121.623
 20
106.384
 30
0
  0
SPLINE
  5
A59
330
A02
100
AcDbEntity
  8
View
100
AcDbSpline
210
0
220
0
230
1
 70
8
 71
3
 72
8
 73
4
 74
0
 40
0
 40
0
 40
0
 40
0
 40
1
 40
1
 40
1
 40
1
 10
122.017
 20
112.892
 30
0
 10
121.215
 20
111.1
 30
0
 10
121.093
 20
109.906
 30
0
 10
121.097
 20
108.696
 30
0
  0
SPLINE
  5
A5A
330
A02
100
AcDbEntity
  8
View
100
AcDbSpline
210
0
220
0
230
1
 70
8
 71
3
 72
8
 73
4
 74
0
 40
0
 40
0
 40
0
 40
0
 40
1
 40
1
 40
1
 40
1
 10
120.999
 20
105.79
 30
0
 10
120.841
 20
104.9
 30
0
 10
120.478
 20
103.885
 30
0
 10
119.664
 20
102.711
 30
0
  0
SPLINE
  5
A5B
330
A02
100
AcDbEntity
  8
View
100
AcDbSpline
210
0
220
0
230
1
 70
8
 71
3
 72
8
 73
4
 74
0
 40
0
 40
0
 40
0
 40
0
 40
1
 40
1
 40
1
 40
1
 10
122.115
 20
101.009
 30
0
 10
123.948
 20
103.659
 30
0
 10
123.965
 20
105.362
 30
0
 10
123.897
 20
106.696
 30
0
  0
SPLINE
  5
A5C
330
A02
100
AcDbEntity
  8
View
100
AcDbSpline
210
0
220
0
230
1
 70
8
 71
3
 72
8
 73
4
 74
0
 40
0
 40
0
 40
0
 40
0
 40
1
 40
1
 40
1
 40
1
 10
123.897
 20
106.696
 30
0
 10
123.822
 20
108.17
 30
0
 10
123.658
 20
109.282
 30
0
 10
124.728
 20
111.681
 30
0
  0
SPLINE
  5
A5D
330
A02
100
AcDbEntity
  8
View
100
AcDbSpline
210
0
220
0
230
1
 70
8
 71
3
 72
8
 73
4
 74
0
 40
0
 40
0
 40
0
 40
0
 40
1
 40
1
 40
1
 40
1
 10
109.511
 20
98.3057
 30
0
 10
111.447
 20
100.241
 30
0
 10
113.66
 20
99.8016
 30
0
 10
115.913
 20
99.8926
 30
0
  0
SPLINE
  5
A5E
330
A02
100
AcDbEntity
  8
View
100
AcDbSpline
210
0
220
0
230
1
 70
8
 71
3
 72
8
 73
4
 74
0
 40
0
 40
0
 40
0
 40
0
 40
1
 40
1
 40
1
 40
1
 10
119.135
 20
100.79
 30
0
 10
119.615
 20
101.113
 30
0
 10
120.071
 20
101.553
 30
0
 10
120.481
 20
102.144
 30
0
  0
SPLINE
  5
A5F
330
A02
100
AcDbEntity
  8
View
100
AcDbSpline
210
0
220
0
230
1
 70
8
 71
3
 72
8
 73
4
 74
0
 40
0
 40
0
 40
0
 40
0
 40
1
 40
1
 40
1
 40
1
 10
115.578
 20
105.546
 30
0
 10
114.067
 20
103.378
 30
0
 10
114.058
 20
102.048
 30
0
 10
113.789
 20
100.418
 30
0
  0
SPLINE
  5
A60
330
A02
100
AcDbEntity
  8
View
100
AcDbSpline
210
0
220
0
230
1
 70
8
 71
3
 72
8
 73
4
 74
0
 40
0
 40
0
 40
0
 40
0
 40
1
 40
1
 40
1
 40
1
 10
112.708
 20
97.4988
 30
0
 10
112.431
 20
97.0801
 30
0
 10
112.078
 20
96.6427
 30
0
 10
111.626
 20
96.1909
 30
0
  0
SPLINE
  5
A61
330
A02
100
AcDbEntity
  8
View
100
AcDbSpline
210
0
220
0
230
1
 70
8
 71
3
 72
8
 73
4
 74
0
 40
0
 40
0
 40
0
 40
0
 40
1
 40
1
 40
1
 40
1
 10
113.741
 20
94.0761
 30
0
 10
115.949
 20
96.2845
 30
0
 10
116.242
 20
97.9137
 30
0
 10
116.393
 20
99.2151
 30
0
  0
SPLINE
  5
A62
330
A02
100
AcDbEntity
  8
View
100
AcDbSpline
210
0
220
0
230
1
 70
8
 71
3
 72
8
 73
4
 74
0
 40
0
 40
0
 40
0
 40
0
 40
1
 40
1
 40
1
 40
1
 10
116.393
 20
99.2151
 30
0
 10
116.558
 20
100.642
 30
0
 10
116.581
 20
101.76
 30
0
 10
118.029
 20
103.845
 30
0
  0
SPLINE
  5
A63
330
A02
100
AcDbEntity
  8
View
100
AcDbSpline
210
0
220
0
230
1
 70
8
 71
3
 72
8
 73
4
 74
0
 40
0
 40
0
 40
0
 40
0
 40
1
 40
1
 40
1
 40
1
 10
110.216
 20
97.6007
 30
0
 10
112.012
 20
99.3966
 30
0
 10
113.772
 20
99.0089
 30
0
 10
115.8
 20
98.9347
 30
0
  0
SPLINE
  5
A64
330
A02
100
AcDbEntity
  8
View
100
AcDbSpline
210
0
220
0
230
1
 70
8
 71
3
 72
8
 73
4
 74
0
 40
0
 40
0
 40
0
 40
0
 40
1
 40
1
 40
1
 40
1
 10
118.688
 20
99.3431
 30
0
 10
119.571
 20
99.7087
 30
0
 10
120.472
 20
100.384
 30
0
 10
121.298
 20
101.577
 30
0
  0
SPLINE
  5
A65
330
A02
100
AcDbEntity
  8
View
100
AcDbSpline
210
0
220
0
230
1
 70
8
 71
3
 72
8
 73
4
 74
0
 40
0
 40
0
 40
0
 40
0
 40
1
 40
1
 40
1
 40
1
 10
116.395
 20
104.979
 30
0
 10
115.078
 20
103.087
 30
0
 10
114.867
 20
101.822
 30
0
 10
114.653
 20
100.425
 30
0
  0
SPLINE
  5
A66
330
A02
100
AcDbEntity
  8
View
100
AcDbSpline
210
0
220
0
230
1
 70
8
 71
3
 72
8
 73
4
 74
0
 40
0
 40
0
 40
0
 40
0
 40
1
 40
1
 40
1
 40
1
 10
113.913
 20
97.6542
 30
0
 10
113.59
 20
96.9812
 30
0
 10
113.1
 20
96.2549
 30
0
 10
112.331
 20
95.4859
 30
0
  0
SPLINE
  5
A67
330
A02
100
AcDbEntity
  8
View
100
AcDbSpline
210
0
220
0
230
1
 70
8
 71
3
 72
8
 73
4
 74
0
 40
0
 40
0
 40
0
 40
0
 40
1
 40
1
 40
1
 40
1
 10
114.446
 20
93.3711
 30
0
 10
116.69
 20
95.6158
 30
0
 10
116.998
 20
97.2659
 30
0
 10
117.161
 20
98.5811
 30
0
  0
SPLINE
  5
A68
330
A02
100
AcDbEntity
  8
View
100
AcDbSpline
210
0
220
0
230
1
 70
8
 71
3
 72
8
 73
4
 74
0
 40
0
 40
0
 40
0
 40
0
 40
1
 40
1
 40
1
 40
1
 10
117.161
 20
98.5811
 30
0
 10
117.34
 20
100.026
 30
0
 10
117.372
 20
101.154
 30
0
 10
118.847
 20
103.278
 30
0
  0
SPLINE
  5
A69
330
A02
100
AcDbEntity
  8
View
100
AcDbSpline
210
0
220
0
230
1
 70
8
 71
3
 72
8
 73
4
 74
0
 40
0
 40
0
 40
0
 40
0
 40
1
 40
1
 40
1
 40
1
 10
110.921
 20
96.8958
 30
0
 10
112.532
 20
98.5072
 30
0
 10
113.949
 20
98.2561
 30
0
 10
115.628
 20
98.0528
 30
0
  0
SPLINE
  5
A6A
330
A02
100
AcDbEntity
  8
View
100
AcDbSpline
210
0
220
0
230
1
 70
8
 71
3
 72
8
 73
4
 74
0
 40
0
 40
0
 40
0
 40
0
 40
1
 40
1
 40
1
 40
1
 10
118.517
 20
98.1381
 30
0
 10
119.639
 20
98.4517
 30
0
 10
120.894
 20
99.2445
 30
0
 10
122.115
 20
101.009
 30
0
  0
SPLINE
  5
A6B
330
A02
100
AcDbEntity
  8
View
100
AcDbSpline
210
0
220
0
230
1
 70
8
 71
3
 72
8
 73
4
 74
0
 40
0
 40
0
 40
0
 40
0
 40
1
 40
1
 40
1
 40
1
 10
117.212
 20
104.412
 30
0
 10
116.085
 20
102.79
 30
0
 10
115.744
 20
101.626
 30
0
 10
115.528
 20
100.432
 30
0
  0
SPLINE
  5
A6C
330
A02
100
AcDbEntity
  8
View
100
AcDbSpline
210
0
220
0
230
1
 70
8
 71
3
 72
8
 73
4
 74
0
 40
0
 40
0
 40
0
 40
0
 40
1
 40
1
 40
1
 40
1
 10
114.905
 20
97.5786
 30
0
 10
114.588
 20
96.7287
 30
0
 10
114.048
 20
95.793
 30
0
 10
113.036
 20
94.781
 30
0
  0
SPLINE
  5
A6D
330
A02
100
AcDbEntity
  8
View
100
AcDbSpline
210
0
220
0
230
1
 70
8
 71
3
 72
8
 73
4
 74
0
 40
0
 40
0
 40
0
 40
0
 40
1
 40
1
 40
1
 40
1
 10
110.481
 20
90.3979
 30
0
 10
110.928
 20
91.8009
 30
0
 10
111.172
 20
92.9171
 30
0
 10
113.036
 20
94.781
 30
0
  0
SPLINE
  5
A6E
330
A02
100
AcDbEntity
  8
View
100
AcDbSpline
210
0
220
0
230
1
 70
8
 71
3
 72
8
 73
4
 74
0
 40
0
 40
0
 40
0
 40
0
 40
1
 40
1
 40
1
 40
1
 10
106.807
 20
85.7017
 30
0
 10
109.458
 20
87.5352
 30
0
 10
110.074
 20
89.122
 30
0
 10
110.481
 20
90.3979
 30
0
  0
SPLINE
  5
A6F
330
A02
100
AcDbEntity
  8
View
100
AcDbSpline
210
0
220
0
230
1
 70
8
 71
3
 72
8
 73
4
 74
0
 40
0
 40
0
 40
0
 40
0
 40
1
 40
1
 40
1
 40
1
 10
111.093
 20
90.4817
 30
0
 10
112.255
 20
90.5909
 30
0
 10
113.632
 20
91.1475
 30
0
 10
115.151
 20
92.6662
 30
0
  0
SPLINE
  5
A70
330
A02
100
AcDbEntity
  8
View
100
AcDbSpline
210
0
220
0
230
1
 70
8
 71
3
 72
8
 73
4
 74
0
 40
0
 40
0
 40
0
 40
0
 40
1
 40
1
 40
1
 40
1
 10
115.151
 20
92.6662
 30
0
 10
117.431
 20
94.947
 30
0
 10
117.755
 20
96.618
 30
0
 10
117.929
 20
97.947
 30
0
  0
SPLINE
  5
A71
330
A02
100
AcDbEntity
  8
View
100
AcDbSpline
210
0
220
0
230
1
 70
8
 71
3
 72
8
 73
4
 74
0
 40
0
 40
0
 40
0
 40
0
 40
1
 40
1
 40
1
 40
1
 10
117.929
 20
97.947
 30
0
 10
118.121
 20
99.4096
 30
0
 10
118.163
 20
100.547
 30
0
 10
119.664
 20
102.711
 30
0
  0
SPLINE
  5
A72
330
A02
100
AcDbEntity
  8
View
100
AcDbSpline
210
0
220
0
230
1
 70
8
 71
3
 72
8
 73
4
 74
0
 40
0
 40
0
 40
0
 40
0
 40
1
 40
1
 40
1
 40
1
 10
102.27
 20
92.2387
 30
0
 10
100.105
 20
90.7301
 30
0
 10
99.6355
 20
89.489
 30
0
 10
98.8186
 20
88.0639
 30
0
  0
SPLINE
  5
A73
330
A02
100
AcDbEntity
  8
View
100
AcDbSpline
210
0
220
0
230
1
 70
8
 71
3
 72
8
 73
4
 74
0
 40
0
 40
0
 40
0
 40
0
 40
1
 40
1
 40
1
 40
1
 10
102.27
 20
92.2387
 30
0
 10
104.514
 20
93.8017
 30
0
 10
106.552
 20
92.9855
 30
0
 10
108.84
 20
92.6696
 30
0
  0
SPLINE
  5
A74
330
A02
100
AcDbEntity
  8
View
100
AcDbSpline
210
0
220
0
230
1
 70
8
 71
3
 72
8
 73
4
 74
0
 40
0
 40
0
 40
0
 40
0
 40
1
 40
1
 40
1
 40
1
 10
112.173
 20
92.9821
 30
0
 10
112.703
 20
93.2154
 30
0
 10
113.231
 20
93.5668
 30
0
 10
113.741
 20
94.076
 30
0
  0
SPLINE
  5
A75
330
A02
100
AcDbEntity
  8
View
100
AcDbSpline
210
0
220
0
230
1
 70
8
 71
3
 72
8
 73
4
 74
0
 40
0
 40
0
 40
0
 40
0
 40
1
 40
1
 40
1
 40
1
 10
109.511
 20
98.3056
 30
0
 10
107.638
 20
96.432
 30
0
 10
107.393
 20
95.1172
 30
0
 10
106.843
 20
93.5619
 30
0
  0
SPLINE
  5
A76
330
A02
100
AcDbEntity
  8
View
100
AcDbSpline
210
0
220
0
230
1
 70
8
 71
3
 72
8
 73
4
 74
0
 40
0
 40
0
 40
0
 40
0
 40
1
 40
1
 40
1
 40
1
 10
105.265
 20
90.8806
 30
0
 10
104.919
 20
90.5181
 30
0
 10
104.495
 20
90.1509
 30
0
 10
103.972
 20
89.7873
 30
0
  0
SPLINE
  5
A77
330
A02
100
AcDbEntity
  8
View
100
AcDbSpline
210
0
220
0
230
1
 70
8
 71
3
 72
8
 73
4
 74
0
 40
0
 40
0
 40
0
 40
0
 40
1
 40
1
 40
1
 40
1
 10
100.823
 20
86.0307
 30
0
 10
101.478
 20
87.3033
 30
0
 10
101.889
 20
88.3401
 30
0
 10
103.972
 20
89.7873
 30
0
  0
SPLINE
  5
A78
330
A02
100
AcDbEntity
  8
View
100
AcDbSpline
210
0
220
0
230
1
 70
8
 71
3
 72
8
 73
4
 74
0
 40
0
 40
0
 40
0
 40
0
 40
1
 40
1
 40
1
 40
1
 10
96.5395
 20
82.1849
 30
0
 10
99.3786
 20
83.4502
 30
0
 10
100.228
 20
84.8734
 30
0
 10
100.823
 20
86.0307
 30
0
  0
SPLINE
  5
A79
330
A02
100
AcDbEntity
  8
View
100
AcDbSpline
210
0
220
0
230
1
 70
8
 71
3
 72
8
 73
4
 74
0
 40
0
 40
0
 40
0
 40
0
 40
1
 40
1
 40
1
 40
1
 10
94.6918
 20
81.7284
 30
0
 10
95.2681
 20
81.7551
 30
0
 10
95.8845
 20
81.8929
 30
0
 10
96.5395
 20
82.1849
 30
0
  0
SPLINE
  5
A7A
330
A02
100
AcDbEntity
  8
View
100
AcDbSpline
210
0
220
0
230
1
 70
8
 71
3
 72
8
 73
4
 74
0
 40
0
 40
0
 40
0
 40
0
 40
1
 40
1
 40
1
 40
1
 10
103.938
 20
86.5411
 30
0
 10
104.501
 20
86.6755
 30
0
 10
105.082
 20
86.9264
 30
0
 10
105.673
 20
87.3359
 30
0
  0
SPLINE
  5
A7B
330
A02
100
AcDbEntity
  8
View
100
AcDbSpline
210
0
220
0
230
1
 70
8
 71
3
 72
8
 73
4
 74
0
 40
0
 40
0
 40
0
 40
0
 40
1
 40
1
 40
1
 40
1
 10
105.673
 20
87.3359
 30
0
 10
108.237
 20
89.112
 30
0
 10
108.814
 20
90.6642
 30
0
 10
109.192
 20
91.9179
 30
0
  0
SPLINE
  5
A7C
330
A02
100
AcDbEntity
  8
View
100
AcDbSpline
210
0
220
0
230
1
 70
8
 71
3
 72
8
 73
4
 74
0
 40
0
 40
0
 40
0
 40
0
 40
1
 40
1
 40
1
 40
1
 10
109.192
 20
91.9179
 30
0
 10
109.607
 20
93.2916
 30
0
 10
109.828
 20
94.3925
 30
0
 10
111.626
 20
96.1908
 30
0
  0
SPLINE
  5
A7D
330
A02
100
AcDbEntity
  8
View
100
AcDbSpline
210
0
220
0
230
1
 70
8
 71
3
 72
8
 73
4
 74
0
 40
0
 40
0
 40
0
 40
0
 40
1
 40
1
 40
1
 40
1
 10
102.837
 20
91.4215
 30
0
 10
100.947
 20
90.1057
 30
0
 10
100.311
 20
88.9952
 30
0
 10
99.6251
 20
87.7682
 30
0
  0
SPLINE
  5
A7E
330
A02
100
AcDbEntity
  8
View
100
AcDbSpline
210
0
220
0
230
1
 70
8
 71
3
 72
8
 73
4
 74
0
 40
0
 40
0
 40
0
 40
0
 40
1
 40
1
 40
1
 40
1
 10
102.837
 20
91.4215
 30
0
 10
104.916
 20
92.8684
 30
0
 10
106.575
 20
92.1785
 30
0
 10
108.559
 20
91.7466
 30
0
  0
SPLINE
  5
A7F
330
A02
100
AcDbEntity
  8
View
100
AcDbSpline
210
0
220
0
230
1
 70
8
 71
3
 72
8
 73
4
 74
0
 40
0
 40
0
 40
0
 40
0
 40
1
 40
1
 40
1
 40
1
 10
111.476
 20
91.6369
 30
0
 10
112.411
 20
91.84
 30
0
 10
113.418
 20
92.3439
 30
0
 10
114.446
 20
93.3711
 30
0
  0
SPLINE
  5
A80
330
A02
100
AcDbEntity
  8
View
100
AcDbSpline
210
0
220
0
230
1
 70
8
 71
3
 72
8
 73
4
 74
0
 40
0
 40
0
 40
0
 40
0
 40
1
 40
1
 40
1
 40
1
 10
110.216
 20
97.6007
 30
0
 10
108.581
 20
95.9659
 30
0
 10
108.15
 20
94.7524
 30
0
 10
107.694
 20
93.4165
 30
0
  0
SPLINE
  5
A81
330
A02
100
AcDbEntity
  8
View
100
AcDbSpline
210
0
220
0
230
1
 70
8
 71
3
 72
8
 73
4
 74
0
 40
0
 40
0
 40
0
 40
0
 40
1
 40
1
 40
1
 40
1
 10
106.477
 20
90.8205
 30
0
 10
106.041
 20
90.2159
 30
0
 10
105.43
 20
89.5888
 30
0
 10
104.539
 20
88.9702
 30
0
  0
SPLINE
  5
A82
330
A02
100
AcDbEntity
  8
View
100
AcDbSpline
210
0
220
0
230
1
 70
8
 71
3
 72
8
 73
4
 74
0
 40
0
 40
0
 40
0
 40
0
 40
1
 40
1
 40
1
 40
1
 10
101.318
 20
85.1704
 30
0
 10
101.992
 20
86.4545
 30
0
 10
102.416
 20
87.4969
 30
0
 10
104.539
 20
88.9702
 30
0
  0
SPLINE
  5
A83
330
A02
100
AcDbEntity
  8
View
100
AcDbSpline
210
0
220
0
230
1
 70
8
 71
3
 72
8
 73
4
 74
0
 40
0
 40
0
 40
0
 40
0
 40
1
 40
1
 40
1
 40
1
 10
96.9432
 20
81.2812
 30
0
 10
99.8333
 20
82.5678
 30
0
 10
100.706
 20
84.0046
 30
0
 10
101.318
 20
85.1704
 30
0
  0
SPLINE
  5
A84
330
A02
100
AcDbEntity
  8
View
100
AcDbSpline
210
0
220
0
230
1
 70
8
 71
3
 72
8
 73
4
 74
0
 40
0
 40
0
 40
0
 40
0
 40
1
 40
1
 40
1
 40
1
 10
93.5605
 20
80.7325
 30
0
 10
94.5007
 20
80.5852
 30
0
 10
95.6199
 20
80.692
 30
0
 10
96.9432
 20
81.2812
 30
0
  0
SPLINE
  5
A85
330
A02
100
AcDbEntity
  8
View
100
AcDbSpline
210
0
220
0
230
1
 70
8
 71
3
 72
8
 73
4
 74
0
 40
0
 40
0
 40
0
 40
0
 40
1
 40
1
 40
1
 40
1
 10
103.013
 20
85.3463
 30
0
 10
103.967
 20
85.3784
 30
0
 10
105.047
 20
85.6929
 30
0
 10
106.24
 20
86.5188
 30
0
  0
SPLINE
  5
A86
330
A02
100
AcDbEntity
  8
View
100
AcDbSpline
210
0
220
0
230
1
 70
8
 71
3
 72
8
 73
4
 74
0
 40
0
 40
0
 40
0
 40
0
 40
1
 40
1
 40
1
 40
1
 10
106.24
 20
86.5188
 30
0
 10
108.847
 20
88.3237
 30
0
 10
109.444
 20
89.8931
 30
0
 10
109.836
 20
91.1579
 30
0
  0
SPLINE
  5
A87
330
A02
100
AcDbEntity
  8
View
100
AcDbSpline
210
0
220
0
230
1
 70
8
 71
3
 72
8
 73
4
 74
0
 40
0
 40
0
 40
0
 40
0
 40
1
 40
1
 40
1
 40
1
 10
109.836
 20
91.1579
 30
0
 10
110.268
 20
92.5462
 30
0
 10
110.5
 20
93.6548
 30
0
 10
112.331
 20
95.4859
 30
0
  0
SPLINE
  5
A88
330
A02
100
AcDbEntity
  8
View
100
AcDbSpline
210
0
220
0
230
1
 70
8
 71
3
 72
8
 73
4
 74
0
 40
0
 40
0
 40
0
 40
0
 40
1
 40
1
 40
1
 40
1
 10
103.405
 20
90.6044
 30
0
 10
101.784
 20
89.4775
 30
0
 10
101.061
 20
88.5067
 30
0
 10
100.442
 20
87.4684
 30
0
  0
SPLINE
  5
A89
330
A02
100
AcDbEntity
  8
View
100
AcDbSpline
210
0
220
0
230
1
 70
8
 71
3
 72
8
 73
4
 74
0
 40
0
 40
0
 40
0
 40
0
 40
1
 40
1
 40
1
 40
1
 10
103.405
 20
90.6044
 30
0
 10
105.271
 20
91.9021
 30
0
 10
106.617
 20
91.4066
 30
0
 10
108.234
 20
90.9094
 30
0
  0
SPLINE
  5
A8A
330
A02
100
AcDbEntity
  8
View
100
AcDbSpline
210
0
220
0
230
1
 70
8
 71
3
 72
8
 73
4
 74
0
 40
0
 40
0
 40
0
 40
0
 40
1
 40
1
 40
1
 40
1
 10
110.921
 20
96.8958
 30
0
 10
109.521
 20
95.4954
 30
0
 10
108.979
 20
94.4057
 30
0
 10
108.556
 20
93.2687
 30
0
  0
SPLINE
  5
A8B
330
A02
100
AcDbEntity
  8
View
100
AcDbSpline
210
0
220
0
230
1
 70
8
 71
3
 72
8
 73
4
 74
0
 40
0
 40
0
 40
0
 40
0
 40
1
 40
1
 40
1
 40
1
 10
107.438
 20
90.571
 30
0
 10
106.977
 20
89.7913
 30
0
 10
106.28
 20
88.9671
 30
0
 10
105.106
 20
88.153
 30
0
  0
SPLINE
  5
A8C
330
A02
100
AcDbEntity
  8
View
100
AcDbSpline
210
0
220
0
230
1
 70
8
 71
3
 72
8
 73
4
 74
0
 40
0
 40
0
 40
0
 40
0
 40
1
 40
1
 40
1
 40
1
 10
101.813
 20
84.31
 30
0
 10
102.507
 20
85.6057
 30
0
 10
102.944
 20
86.6536
 30
0
 10
105.106
 20
88.153
 30
0
  0
SPLINE
  5
A8D
330
A02
100
AcDbEntity
  8
View
100
AcDbSpline
210
0
220
0
230
1
 70
8
 71
3
 72
8
 73
4
 74
0
 40
0
 40
0
 40
0
 40
0
 40
1
 40
1
 40
1
 40
1
 10
97.3469
 20
80.3775
 30
0
 10
100.288
 20
81.6854
 30
0
 10
101.184
 20
83.1358
 30
0
 10
101.813
 20
84.31
 30
0
  0
SPLINE
  5
A8E
330
A02
100
AcDbEntity
  8
View
100
AcDbSpline
210
0
220
0
230
1
 70
8
 71
3
 72
8
 73
4
 74
0
 40
0
 40
0
 40
0
 40
0
 40
1
 40
1
 40
1
 40
1
 10
94.1173
 20
87.607
 30
0
 10
91.7293
 20
86.5347
 30
0
 10
91.0501
 20
85.4242
 30
0
 10
89.9786
 20
84.1859
 30
0
  0
SPLINE
  5
A8F
330
A02
100
AcDbEntity
  8
View
100
AcDbSpline
210
0
220
0
230
1
 70
8
 71
3
 72
8
 73
4
 74
0
 40
0
 40
0
 40
0
 40
0
 40
1
 40
1
 40
1
 40
1
 10
94.1173
 20
87.607
 30
0
 10
96.5892
 20
88.717
 30
0
 10
98.4245
 20
87.5522
 30
0
 10
100.613
 20
86.8305
 30
0
  0
SPLINE
  5
A90
330
A02
100
AcDbEntity
  8
View
100
AcDbSpline
210
0
220
0
230
1
 70
8
 71
3
 72
8
 73
4
 74
0
 40
0
 40
0
 40
0
 40
0
 40
1
 40
1
 40
1
 40
1
 10
96.7927
 20
85.7269
 30
0
 10
96.3883
 20
85.4359
 30
0
 10
95.9066
 20
85.1545
 30
0
 10
95.3284
 20
84.896
 30
0
  0
SPLINE
  5
A91
330
A02
100
AcDbEntity
  8
View
100
AcDbSpline
210
0
220
0
230
1
 70
8
 71
3
 72
8
 73
4
 74
0
 40
0
 40
0
 40
0
 40
0
 40
1
 40
1
 40
1
 40
1
 10
91.5482
 20
81.8151
 30
0
 10
92.4337
 20
82.9382
 30
0
 10
93.0236
 20
83.8651
 30
0
 10
95.3284
 20
84.896
 30
0
  0
SPLINE
  5
A92
330
A02
100
AcDbEntity
  8
View
100
AcDbSpline
210
0
220
0
230
1
 70
8
 71
3
 72
8
 73
4
 74
0
 40
0
 40
0
 40
0
 40
0
 40
1
 40
1
 40
1
 40
1
 10
86.6015
 20
78.8844
 30
0
 10
89.6356
 20
79.5615
 30
0
 10
90.7492
 20
80.8019
 30
0
 10
91.5482
 20
81.8151
 30
0
  0
SPLINE
  5
A93
330
A02
100
AcDbEntity
  8
View
100
AcDbSpline
210
0
220
0
230
1
 70
8
 71
3
 72
8
 73
4
 74
0
 40
0
 40
0
 40
0
 40
0
 40
1
 40
1
 40
1
 40
1
 10
94.521
 20
86.7034
 30
0
 10
92.4349
 20
85.7679
 30
0
 10
91.6129
 20
84.8112
 30
0
 10
90.7087
 20
83.7417
 30
0
  0
SPLINE
  5
A94
330
A02
100
AcDbEntity
  8
View
100
AcDbSpline
210
0
220
0
230
1
 70
8
 71
3
 72
8
 73
4
 74
0
 40
0
 40
0
 40
0
 40
0
 40
1
 40
1
 40
1
 40
1
 10
94.521
 20
86.7034
 30
0
 10
96.814
 20
87.7316
 30
0
 10
98.3032
 20
86.7585
 30
0
 10
100.173
 20
85.9767
 30
0
  0
SPLINE
  5
A95
330
A02
100
AcDbEntity
  8
View
100
AcDbSpline
210
0
220
0
230
1
 70
8
 71
3
 72
8
 73
4
 74
0
 40
0
 40
0
 40
0
 40
0
 40
1
 40
1
 40
1
 40
1
 10
97.9664
 20
85.447
 30
0
 10
97.4298
 20
84.9349
 30
0
 10
96.7178
 20
84.4326
 30
0
 10
95.7321
 20
83.9923
 30
0
  0
SPLINE
  5
A96
330
A02
100
AcDbEntity
  8
View
100
AcDbSpline
210
0
220
0
230
1
 70
8
 71
3
 72
8
 73
4
 74
0
 40
0
 40
0
 40
0
 40
0
 40
1
 40
1
 40
1
 40
1
 10
91.8676
 20
80.8801
 30
0
 10
92.7762
 20
82.0115
 30
0
 10
93.3809
 20
82.9419
 30
0
 10
95.7321
 20
83.9923
 30
0
  0
SPLINE
  5
A97
330
A02
100
AcDbEntity
  8
View
100
AcDbSpline
210
0
220
0
230
1
 70
8
 71
3
 72
8
 73
4
 74
0
 40
0
 40
0
 40
0
 40
0
 40
1
 40
1
 40
1
 40
1
 10
86.8162
 20
77.9197
 30
0
 10
89.9086
 20
78.6107
 30
0
 10
91.0492
 20
79.861
 30
0
 10
91.8676
 20
80.8801
 30
0
  0
SPLINE
  5
A98
330
A02
100
AcDbEntity
  8
View
100
AcDbSpline
210
0
220
0
230
1
 70
8
 71
3
 72
8
 73
4
 74
0
 40
0
 40
0
 40
0
 40
0
 40
1
 40
1
 40
1
 40
1
 10
94.9247
 20
85.7997
 30
0
 10
93.1349
 20
84.9981
 30
0
 10
92.2513
 20
84.1904
 30
0
 10
91.4494
 20
83.2926
 30
0
  0
SPLINE
  5
A99
330
A02
100
AcDbEntity
  8
View
100
AcDbSpline
210
0
220
0
230
1
 70
8
 71
3
 72
8
 73
4
 74
0
 40
0
 40
0
 40
0
 40
0
 40
1
 40
1
 40
1
 40
1
 10
94.9247
 20
85.7997
 30
0
 10
96.9852
 20
86.7224
 30
0
 10
98.2064
 20
85.9955
 30
0
 10
99.7027
 20
85.2154
 30
0
  0
SPLINE
  5
A9A
330
A02
100
AcDbEntity
  8
View
100
AcDbSpline
210
0
220
0
230
1
 70
8
 71
3
 72
8
 73
4
 74
0
 40
0
 40
0
 40
0
 40
0
 40
1
 40
1
 40
1
 40
1
 10
102.429
 20
84.2823
 30
0
 10
103.588
 20
84.1814
 30
0
 10
105.043
 20
84.481
 30
0
 10
106.807
 20
85.7017
 30
0
  0
SPLINE
  5
A9B
330
A02
100
AcDbEntity
  8
View
100
AcDbSpline
210
0
220
0
230
1
 70
8
 71
3
 72
8
 73
4
 74
0
 40
0
 40
0
 40
0
 40
0
 40
1
 40
1
 40
1
 40
1
 10
98.8623
 20
85.0281
 30
0
 10
98.2693
 20
84.3488
 30
0
 10
97.4351
 20
83.6683
 30
0
 10
96.1358
 20
83.0886
 30
0
  0
SPLINE
  5
A9C
330
A02
100
AcDbEntity
  8
View
100
AcDbSpline
210
0
220
0
230
1
 70
8
 71
3
 72
8
 73
4
 74
0
 40
0
 40
0
 40
0
 40
0
 40
1
 40
1
 40
1
 40
1
 10
92.1871
 20
79.945
 30
0
 10
93.1188
 20
81.0849
 30
0
 10
93.7382
 20
82.0188
 30
0
 10
96.1358
 20
83.0886
 30
0
  0
SPLINE
  5
A9D
330
A02
100
AcDbEntity
  8
View
100
AcDbSpline
210
0
220
0
230
1
 70
8
 71
3
 72
8
 73
4
 74
0
 40
0
 40
0
 40
0
 40
0
 40
1
 40
1
 40
1
 40
1
 10
87.0308
 20
76.9551
 30
0
 10
90.1815
 20
77.66
 30
0
 10
91.3492
 20
78.92
 30
0
 10
92.1871
 20
79.945
 30
0
  0
SPLINE
  5
A9E
330
A02
100
AcDbEntity
  8
View
100
AcDbSpline
210
0
220
0
230
1
 70
8
 71
3
 72
8
 73
4
 74
0
 40
0
 40
0
 40
0
 40
0
 40
1
 40
1
 40
1
 40
1
 10
85.3136
 20
84.6723
 30
0
 10
87.9359
 20
85.2521
 30
0
 10
89.4901
 20
83.7612
 30
0
 10
91.495
 20
82.6368
 30
0
  0
SPLINE
  5
A9F
330
A02
100
AcDbEntity
  8
View
100
AcDbSpline
210
0
220
0
230
1
 70
8
 71
3
 72
8
 73
4
 74
0
 40
0
 40
0
 40
0
 40
0
 40
1
 40
1
 40
1
 40
1
 10
87.5515
 20
82.2993
 30
0
 10
87.0998
 20
82.0947
 30
0
 10
86.5737
 20
81.9153
 30
0
 10
85.9576
 20
81.7784
 30
0
  0
SPLINE
  5
AA0
330
A02
100
AcDbEntity
  8
View
100
AcDbSpline
210
0
220
0
230
1
 70
8
 71
3
 72
8
 73
4
 74
0
 40
0
 40
0
 40
0
 40
0
 40
1
 40
1
 40
1
 40
1
 10
85.5282
 20
83.7077
 30
0
 10
87.9649
 20
84.2473
 30
0
 10
89.2208
 20
83.0105
 30
0
 10
90.9017
 20
81.8865
 30
0
  0
SPLINE
  5
AA1
330
A02
100
AcDbEntity
  8
View
100
AcDbSpline
210
0
220
0
230
1
 70
8
 71
3
 72
8
 73
4
 74
0
 40
0
 40
0
 40
0
 40
0
 40
1
 40
1
 40
1
 40
1
 10
88.6433
 20
81.7952
 30
0
 10
88.0196
 20
81.3997
 30
0
 10
87.2239
 20
81.0477
 30
0
 10
86.1722
 20
80.8137
 30
0
  0
SPLINE
  5
AA2
330
A02
100
AcDbEntity
  8
View
100
AcDbSpline
210
0
220
0
230
1
 70
8
 71
3
 72
8
 73
4
 74
0
 40
0
 40
0
 40
0
 40
0
 40
1
 40
1
 40
1
 40
1
 10
85.7429
 20
82.743
 30
0
 10
87.9356
 20
83.2295
 30
0
 10
88.9807
 20
82.2844
 30
0
 10
90.2957
 20
81.2326
 30
0
  0
SPLINE
  5
AA3
330
A02
100
AcDbEntity
  8
View
100
AcDbSpline
210
0
220
0
230
1
 70
8
 71
3
 72
8
 73
4
 74
0
 40
0
 40
0
 40
0
 40
0
 40
1
 40
1
 40
1
 40
1
 10
92.7854
 20
79.8017
 30
0
 10
93.902
 20
79.4847
 30
0
 10
95.3875
 20
79.5061
 30
0
 10
97.3469
 20
80.3775
 30
0
  0
SPLINE
  5
AA4
330
A02
100
AcDbEntity
  8
View
100
AcDbSpline
210
0
220
0
230
1
 70
8
 71
3
 72
8
 73
4
 74
0
 40
0
 40
0
 40
0
 40
0
 40
1
 40
1
 40
1
 40
1
 10
89.4375
 20
81.2116
 30
0
 10
88.7264
 20
80.6629
 30
0
 10
87.775
 20
80.1584
 30
0
 10
86.3869
 20
79.8491
 30
0
  0
SPLINE
  5
AA5
330
A02
100
AcDbEntity
  8
View
100
AcDbSpline
210
0
220
0
230
1
 70
8
 71
1
 72
4
 73
2
 74
0
 40
0
 40
0
 40
1
 40
1
 10
76.1206
 20
83.6961
 30
0
 10
76.1207
 20
83.6961
 30
0
  0
SPLINE
  5
AA6
330
A02
100
AcDbEntity
  8
View
100
AcDbSpline
210
0
220
0
230
1
 70
8
 71
3
 72
8
 73
4
 74
0
 40
0
 40
0
 40
0
 40
0
 40
1
 40
1
 40
1
 40
1
 10
76.1207
 20
83.6961
 30
0
 10
78.8084
 20
83.67
 30
0
 10
80.062
 20
81.8293
 30
0
 10
81.7469
 20
80.35
 30
0
  0
SPLINE
  5
AA7
330
A02
100
AcDbEntity
  8
View
100
AcDbSpline
210
0
220
0
230
1
 70
8
 71
3
 72
8
 73
4
 74
0
 40
0
 40
0
 40
0
 40
0
 40
1
 40
1
 40
1
 40
1
 10
84.6962
 20
78.8055
 30
0
 10
85.2673
 20
78.7158
 30
0
 10
85.9004
 20
78.728
 30
0
 10
86.6015
 20
78.8844
 30
0
  0
SPLINE
  5
AA8
330
A02
100
AcDbEntity
  8
View
100
AcDbSpline
210
0
220
0
230
1
 70
8
 71
3
 72
8
 73
4
 74
0
 40
0
 40
0
 40
0
 40
0
 40
1
 40
1
 40
1
 40
1
 10
85.3136
 20
84.6723
 30
0
 10
82.7698
 20
84.1099
 30
0
 10
81.8997
 20
83.1818
 30
0
 10
80.5842
 20
82.1893
 30
0
  0
SPLINE
  5
AA9
330
A02
100
AcDbEntity
  8
View
100
AcDbSpline
210
0
220
0
230
1
 70
8
 71
3
 72
8
 73
4
 74
0
 40
0
 40
0
 40
0
 40
0
 40
1
 40
1
 40
1
 40
1
 10
77.8035
 20
80.8591
 30
0
 10
77.3154
 20
80.7563
 30
0
 10
76.7581
 20
80.6947
 30
0
 10
76.1207
 20
80.6961
 30
0
  0
SPLINE
  5
AAA
330
A02
100
AcDbEntity
  8
View
100
AcDbSpline
210
0
220
0
230
1
 70
8
 71
1
 72
4
 73
2
 74
0
 40
0
 40
0
 40
1
 40
1
 10
76.1207
 20
80.6961
 30
0
 10
76.1206
 20
80.6961
 30
0
  0
SPLINE
  5
AAB
330
A02
100
AcDbEntity
  8
View
100
AcDbSpline
210
0
220
0
230
1
 70
8
 71
1
 72
4
 73
2
 74
0
 40
0
 40
0
 40
1
 40
1
 10
76.1206
 20
77.6961
 30
0
 10
76.1207
 20
77.6961
 30
0
  0
SPLINE
  5
AAC
330
A02
100
AcDbEntity
  8
View
100
AcDbSpline
210
0
220
0
230
1
 70
8
 71
3
 72
8
 73
4
 74
0
 40
0
 40
0
 40
0
 40
0
 40
1
 40
1
 40
1
 40
1
 10
76.1207
 20
77.6961
 30
0
 10
79.2684
 20
77.7094
 30
0
 10
80.6379
 20
78.7093
 30
0
 10
81.6279
 20
79.5327
 30
0
  0
SPLINE
  5
AAD
330
A02
100
AcDbEntity
  8
View
100
AcDbSpline
210
0
220
0
230
1
 70
8
 71
3
 72
8
 73
4
 74
0
 40
0
 40
0
 40
0
 40
0
 40
1
 40
1
 40
1
 40
1
 10
81.6279
 20
79.5327
 30
0
 10
82.7379
 20
80.4561
 30
0
 10
83.4932
 20
81.2309
 30
0
 10
85.9575
 20
81.7784
 30
0
  0
SPLINE
  5
AAE
330
A02
100
AcDbEntity
  8
View
100
AcDbSpline
210
0
220
0
230
1
 70
8
 71
1
 72
4
 73
2
 74
0
 40
0
 40
0
 40
1
 40
1
 10
76.1206
 20
82.6961
 30
0
 10
76.1207
 20
82.6961
 30
0
  0
SPLINE
  5
AAF
330
A02
100
AcDbEntity
  8
View
100
AcDbSpline
210
0
220
0
230
1
 70
8
 71
3
 72
8
 73
4
 74
0
 40
0
 40
0
 40
0
 40
0
 40
1
 40
1
 40
1
 40
1
 10
76.1207
 20
82.6961
 30
0
 10
78.6288
 20
82.6783
 30
0
 10
79.5908
 20
81.1952
 30
0
 10
81.0079
 20
79.7376
 30
0
  0
SPLINE
  5
AB0
330
A02
100
AcDbEntity
  8
View
100
AcDbSpline
210
0
220
0
230
1
 70
8
 71
3
 72
8
 73
4
 74
0
 40
0
 40
0
 40
0
 40
0
 40
1
 40
1
 40
1
 40
1
 10
83.3805
 20
78.0574
 30
0
 10
84.2744
 20
77.7222
 30
0
 10
85.3977
 20
77.6028
 30
0
 10
86.8161
 20
77.9198
 30
0
  0
SPLINE
  5
AB1
330
A02
100
AcDbEntity
  8
View
100
AcDbSpline
210
0
220
0
230
1
 70
8
 71
3
 72
8
 73
4
 74
0
 40
0
 40
0
 40
0
 40
0
 40
1
 40
1
 40
1
 40
1
 10
85.5282
 20
83.7077
 30
0
 10
83.3056
 20
83.2155
 30
0
 10
82.3186
 20
82.4605
 30
0
 10
81.2061
 20
81.5987
 30
0
  0
SPLINE
  5
AB2
330
A02
100
AcDbEntity
  8
View
100
AcDbSpline
210
0
220
0
230
1
 70
8
 71
3
 72
8
 73
4
 74
0
 40
0
 40
0
 40
0
 40
0
 40
1
 40
1
 40
1
 40
1
 10
78.7689
 20
80.1266
 30
0
 10
78.0715
 20
79.8717
 30
0
 10
77.2103
 20
79.6961
 30
0
 10
76.1207
 20
79.6961
 30
0
  0
SPLINE
  5
AB3
330
A02
100
AcDbEntity
  8
View
100
AcDbSpline
210
0
220
0
230
1
 70
8
 71
1
 72
4
 73
2
 74
0
 40
0
 40
0
 40
1
 40
1
 10
76.1207
 20
79.6961
 30
0
 10
76.1206
 20
79.6961
 30
0
  0
SPLINE
  5
AB4
330
A02
100
AcDbEntity
  8
View
100
AcDbSpline
210
0
220
0
230
1
 70
8
 71
1
 72
4
 73
2
 74
0
 40
0
 40
0
 40
1
 40
1
 10
76.1206
 20
76.6961
 30
0
 10
76.1207
 20
76.6961
 30
0
  0
SPLINE
  5
AB5
330
A02
100
AcDbEntity
  8
View
100
AcDbSpline
210
0
220
0
230
1
 70
8
 71
3
 72
8
 73
4
 74
0
 40
0
 40
0
 40
0
 40
0
 40
1
 40
1
 40
1
 40
1
 10
76.1207
 20
76.6961
 30
0
 10
79.3342
 20
76.716
 30
0
 10
80.7344
 20
77.7217
 30
0
 10
81.7464
 20
78.5486
 30
0
  0
SPLINE
  5
AB6
330
A02
100
AcDbEntity
  8
View
100
AcDbSpline
210
0
220
0
230
1
 70
8
 71
3
 72
8
 73
4
 74
0
 40
0
 40
0
 40
0
 40
0
 40
1
 40
1
 40
1
 40
1
 10
81.7464
 20
78.5486
 30
0
 10
82.8828
 20
79.477
 30
0
 10
83.6547
 20
80.2536
 30
0
 10
86.1722
 20
80.8138
 30
0
  0
SPLINE
  5
AB7
330
A02
100
AcDbEntity
  8
View
100
AcDbSpline
210
0
220
0
230
1
 70
8
 71
1
 72
4
 73
2
 74
0
 40
0
 40
0
 40
1
 40
1
 10
76.1206
 20
81.6961
 30
0
 10
76.1207
 20
81.6961
 30
0
  0
SPLINE
  5
AB8
330
A02
100
AcDbEntity
  8
View
100
AcDbSpline
210
0
220
0
230
1
 70
8
 71
3
 72
8
 73
4
 74
0
 40
0
 40
0
 40
0
 40
0
 40
1
 40
1
 40
1
 40
1
 10
76.1207
 20
81.6961
 30
0
 10
78.3787
 20
81.6857
 30
0
 10
79.2273
 20
80.5036
 30
0
 10
80.2746
 20
79.2223
 30
0
  0
SPLINE
  5
AB9
330
A02
100
AcDbEntity
  8
View
100
AcDbSpline
210
0
220
0
230
1
 70
8
 71
3
 72
8
 73
4
 74
0
 40
0
 40
0
 40
0
 40
0
 40
1
 40
1
 40
1
 40
1
 10
82.4243
 20
77.3012
 30
0
 10
83.4575
 20
76.7624
 30
0
 10
84.9275
 20
76.4846
 30
0
 10
87.0308
 20
76.9551
 30
0
  0
SPLINE
  5
ABA
330
A02
100
AcDbEntity
  8
View
100
AcDbSpline
210
0
220
0
230
1
 70
8
 71
3
 72
8
 73
4
 74
0
 40
0
 40
0
 40
0
 40
0
 40
1
 40
1
 40
1
 40
1
 10
85.7429
 20
82.7431
 30
0
 10
83.8346
 20
82.3197
 30
0
 10
82.8126
 20
81.7177
 30
0
 10
81.8382
 20
81.0028
 30
0
  0
SPLINE
  5
ABB
330
A02
100
AcDbEntity
  8
View
100
AcDbSpline
210
0
220
0
230
1
 70
8
 71
3
 72
8
 73
4
 74
0
 40
0
 40
0
 40
0
 40
0
 40
1
 40
1
 40
1
 40
1
 10
79.4257
 20
79.3829
 30
0
 10
78.6101
 20
78.9947
 30
0
 10
77.5609
 20
78.6992
 30
0
 10
76.1207
 20
78.6961
 30
0
  0
SPLINE
  5
ABC
330
A02
100
AcDbEntity
  8
View
100
AcDbSpline
210
0
220
0
230
1
 70
8
 71
1
 72
4
 73
2
 74
0
 40
0
 40
0
 40
1
 40
1
 10
76.1207
 20
78.6961
 30
0
 10
76.1206
 20
78.6961
 30
0
  0
SPLINE
  5
ABD
330
A02
100
AcDbEntity
  8
View
100
AcDbSpline
210
0
220
0
230
1
 70
8
 71
1
 72
4
 73
2
 74
0
 40
0
 40
0
 40
1
 40
1
 10
76.1206
 20
75.6961
 30
0
 10
76.1207
 20
75.6961
 30
0
  0
SPLINE
  5
ABE
330
A02
100
AcDbEntity
  8
View
100
AcDbSpline
210
0
220
0
230
1
 70
8
 71
3
 72
8
 73
4
 74
0
 40
0
 40
0
 40
0
 40
0
 40
1
 40
1
 40
1
 40
1
 10
76.1207
 20
75.6961
 30
0
 10
79.3999
 20
75.7227
 30
0
 10
80.8309
 20
76.7341
 30
0
 10
81.865
 20
77.5644
 30
0
  0
SPLINE
  5
ABF
330
A02
100
AcDbEntity
  8
View
100
AcDbSpline
210
0
220
0
230
1
 70
8
 71
3
 72
8
 73
4
 74
0
 40
0
 40
0
 40
0
 40
0
 40
1
 40
1
 40
1
 40
1
 10
81.865
 20
77.5644
 30
0
 10
83.0277
 20
78.4979
 30
0
 10
83.8161
 20
79.2762
 30
0
 10
86.3868
 20
79.8491
 30
0
  0
SPLINE
  5
AC0
330
A02
100
AcDbEntity
  8
View
100
AcDbSpline
210
0
220
0
230
1
 70
8
 71
3
 72
8
 73
4
 74
0
 40
0
 40
0
 40
0
 40
0
 40
1
 40
1
 40
1
 40
1
 10
66.9277
 20
84.6724
 30
0
 10
69.5494
 20
84.0928
 30
0
 10
70.3178
 20
82.0883
 30
0
 10
71.6735
 20
80.2182
 30
0
  0
SPLINE
  5
AC1
330
A02
100
AcDbEntity
  8
View
100
AcDbSpline
210
0
220
0
230
1
 70
8
 71
3
 72
8
 73
4
 74
0
 40
0
 40
0
 40
0
 40
0
 40
1
 40
1
 40
1
 40
1
 10
74.2215
 20
78.047
 30
0
 10
74.7635
 20
77.8304
 30
0
 10
75.3916
 20
77.6992
 30
0
 10
76.1206
 20
77.6961
 30
0
  0
SPLINE
  5
AC2
330
A02
100
AcDbEntity
  8
View
100
AcDbSpline
210
0
220
0
230
1
 70
8
 71
3
 72
8
 73
4
 74
0
 40
0
 40
0
 40
0
 40
0
 40
1
 40
1
 40
1
 40
1
 10
76.1206
 20
83.6961
 30
0
 10
73.5012
 20
83.6707
 30
0
 10
72.4552
 20
82.9531
 30
0
 10
70.9466
 20
82.2672
 30
0
  0
SPLINE
  5
AC3
330
A02
100
AcDbEntity
  8
View
100
AcDbSpline
210
0
220
0
230
1
 70
8
 71
3
 72
8
 73
4
 74
0
 40
0
 40
0
 40
0
 40
0
 40
1
 40
1
 40
1
 40
1
 10
67.9488
 20
81.5757
 30
0
 10
67.4526
 20
81.5817
 30
0
 10
66.9
 20
81.6415
 30
0
 10
66.2837
 20
81.7784
 30
0
  0
SPLINE
  5
AC4
330
A02
100
AcDbEntity
  8
View
100
AcDbSpline
210
0
220
0
230
1
 70
8
 71
3
 72
8
 73
4
 74
0
 40
0
 40
0
 40
0
 40
0
 40
1
 40
1
 40
1
 40
1
 10
65.6398
 20
78.8845
 30
0
 10
68.6791
 20
78.2062
 30
0
 10
70.2184
 20
78.8592
 30
0
 10
71.3761
 20
79.4468
 30
0
  0
SPLINE
  5
AC5
330
A02
100
AcDbEntity
  8
View
100
AcDbSpline
210
0
220
0
230
1
 70
8
 71
3
 72
8
 73
4
 74
0
 40
0
 40
0
 40
0
 40
0
 40
1
 40
1
 40
1
 40
1
 10
71.3761
 20
79.4468
 30
0
 10
72.6688
 20
80.1029
 30
0
 10
73.5707
 20
80.6904
 30
0
 10
76.1206
 20
80.6961
 30
0
  0
SPLINE
  5
AC6
330
A02
100
AcDbEntity
  8
View
100
AcDbSpline
210
0
220
0
230
1
 70
8
 71
3
 72
8
 73
4
 74
0
 40
0
 40
0
 40
0
 40
0
 40
1
 40
1
 40
1
 40
1
 10
66.7131
 20
83.7077
 30
0
 10
69.1495
 20
83.1681
 30
0
 10
69.7592
 20
81.5182
 30
0
 10
70.8169
 20
79.7844
 30
0
  0
SPLINE
  5
AC7
330
A02
100
AcDbEntity
  8
View
100
AcDbSpline
210
0
220
0
230
1
 70
8
 71
3
 72
8
 73
4
 74
0
 40
0
 40
0
 40
0
 40
0
 40
1
 40
1
 40
1
 40
1
 10
72.7629
 20
77.611
 30
0
 10
73.5635
 20
77.0812
 30
0
 10
74.6444
 20
76.7053
 30
0
 10
76.1206
 20
76.6961
 30
0
  0
SPLINE
  5
AC8
330
A02
100
AcDbEntity
  8
View
100
AcDbSpline
210
0
220
0
230
1
 70
8
 71
3
 72
8
 73
4
 74
0
 40
0
 40
0
 40
0
 40
0
 40
1
 40
1
 40
1
 40
1
 10
76.1206
 20
82.6961
 30
0
 10
73.8287
 20
82.6798
 30
0
 10
72.7026
 20
82.1563
 30
0
 10
71.4225
 20
81.556
 30
0
  0
SPLINE
  5
AC9
330
A02
100
AcDbEntity
  8
View
100
AcDbSpline
210
0
220
0
230
1
 70
8
 71
3
 72
8
 73
4
 74
0
 40
0
 40
0
 40
0
 40
0
 40
1
 40
1
 40
1
 40
1
 10
68.7252
 20
80.6561
 30
0
 10
67.9914
 20
80.5611
 30
0
 10
67.1212
 20
80.5796
 30
0
 10
66.0691
 20
80.8138
 30
0
  0
SPLINE
  5
ACA
330
A02
100
AcDbEntity
  8
View
100
AcDbSpline
210
0
220
0
230
1
 70
8
 71
3
 72
8
 73
4
 74
0
 40
0
 40
0
 40
0
 40
0
 40
1
 40
1
 40
1
 40
1
 10
65.4251
 20
77.9198
 30
0
 10
68.5234
 20
77.2275
 30
0
 10
70.0938
 20
77.8764
 30
0
 10
71.2737
 20
78.46
 30
0
  0
SPLINE
  5
ACB
330
A02
100
AcDbEntity
  8
View
100
AcDbSpline
210
0
220
0
230
1
 70
8
 71
3
 72
8
 73
4
 74
0
 40
0
 40
0
 40
0
 40
0
 40
1
 40
1
 40
1
 40
1
 10
71.2737
 20
78.46
 30
0
 10
72.593
 20
79.1125
 30
0
 10
73.5118
 20
79.6961
 30
0
 10
76.1206
 20
79.6961
 30
0
  0
SPLINE
  5
ACC
330
A02
100
AcDbEntity
  8
View
100
AcDbSpline
210
0
220
0
230
1
 70
8
 71
3
 72
8
 73
4
 74
0
 40
0
 40
0
 40
0
 40
0
 40
1
 40
1
 40
1
 40
1
 10
66.4984
 20
82.7431
 30
0
 10
68.6912
 20
82.2566
 30
0
 10
69.2363
 20
80.959
 30
0
 10
69.9889
 20
79.4455
 30
0
  0
SPLINE
  5
ACD
330
A02
100
AcDbEntity
  8
View
100
AcDbSpline
210
0
220
0
230
1
 70
8
 71
3
 72
8
 73
4
 74
0
 40
0
 40
0
 40
0
 40
0
 40
1
 40
1
 40
1
 40
1
 10
71.659
 20
77.0891
 30
0
 10
72.5465
 20
76.3302
 30
0
 10
73.9301
 20
75.7139
 30
0
 10
76.1206
 20
75.6961
 30
0
  0
SPLINE
  5
ACE
330
A02
100
AcDbEntity
  8
View
100
AcDbSpline
210
0
220
0
230
1
 70
8
 71
3
 72
8
 73
4
 74
0
 40
0
 40
0
 40
0
 40
0
 40
1
 40
1
 40
1
 40
1
 10
76.1206
 20
81.6961
 30
0
 10
74.1495
 20
81.6871
 30
0
 10
73.02
 20
81.3212
 30
0
 10
71.9075
 20
80.8357
 30
0
  0
SPLINE
  5
ACF
330
A02
100
AcDbEntity
  8
View
100
AcDbSpline
210
0
220
0
230
1
 70
8
 71
3
 72
8
 73
4
 74
0
 40
0
 40
0
 40
0
 40
0
 40
1
 40
1
 40
1
 40
1
 10
69.1994
 20
79.7898
 30
0
 10
68.3202
 20
79.5925
 30
0
 10
67.2433
 20
79.5396
 30
0
 10
65.8544
 20
79.8491
 30
0
  0
SPLINE
  5
AD0
330
A02
100
AcDbEntity
  8
View
100
AcDbSpline
210
0
220
0
230
1
 70
8
 71
3
 72
8
 73
4
 74
0
 40
0
 40
0
 40
0
 40
0
 40
1
 40
1
 40
1
 40
1
 10
65.2105
 20
76.9552
 30
0
 10
68.3678
 20
76.2488
 30
0
 10
69.9692
 20
76.8937
 30
0
 10
71.1712
 20
77.4731
 30
0
  0
SPLINE
  5
AD1
330
A02
100
AcDbEntity
  8
View
100
AcDbSpline
210
0
220
0
230
1
 70
8
 71
3
 72
8
 73
4
 74
0
 40
0
 40
0
 40
0
 40
0
 40
1
 40
1
 40
1
 40
1
 10
71.1712
 20
77.4731
 30
0
 10
72.5173
 20
78.1221
 30
0
 10
73.4529
 20
78.7019
 30
0
 10
76.1206
 20
78.6961
 30
0
  0
SPLINE
  5
AD2
330
A02
100
AcDbEntity
  8
View
100
AcDbSpline
210
0
220
0
230
1
 70
8
 71
3
 72
8
 73
4
 74
0
 40
0
 40
0
 40
0
 40
0
 40
1
 40
1
 40
1
 40
1
 10
58.124
 20
87.6071
 30
0
 10
60.5868
 20
86.5012
 30
0
 10
60.9644
 20
84.3072
 30
0
 10
61.8683
 20
82.2628
 30
0
  0
SPLINE
  5
AD3
330
A02
100
AcDbEntity
  8
View
100
AcDbSpline
210
0
220
0
230
1
 70
8
 71
3
 72
8
 73
4
 74
0
 40
0
 40
0
 40
0
 40
0
 40
1
 40
1
 40
1
 40
1
 10
63.8832
 20
79.6219
 30
0
 10
64.3612
 20
79.2988
 30
0
 10
64.9388
 20
79.0409
 30
0
 10
65.6398
 20
78.8845
 30
0
  0
SPLINE
  5
AD4
330
A02
100
AcDbEntity
  8
View
100
AcDbSpline
210
0
220
0
230
1
 70
8
 71
3
 72
8
 73
4
 74
0
 40
0
 40
0
 40
0
 40
0
 40
1
 40
1
 40
1
 40
1
 10
66.9277
 20
84.6724
 30
0
 10
64.3838
 20
85.2348
 30
0
 10
63.1936
 20
84.761
 30
0
 10
61.5844
 20
84.4124
 30
0
  0
SPLINE
  5
AD5
330
A02
100
AcDbEntity
  8
View
100
AcDbSpline
210
0
220
0
230
1
 70
8
 71
3
 72
8
 73
4
 74
0
 40
0
 40
0
 40
0
 40
0
 40
1
 40
1
 40
1
 40
1
 10
58.5067
 20
84.3593
 30
0
 10
58.0211
 20
84.4662
 30
0
 10
57.491
 20
84.6374
 30
0
 10
56.9129
 20
84.896
 30
0
  0
SPLINE
  5
AD6
330
A02
100
AcDbEntity
  8
View
100
AcDbSpline
210
0
220
0
230
1
 70
8
 71
3
 72
8
 73
4
 74
0
 40
0
 40
0
 40
0
 40
0
 40
1
 40
1
 40
1
 40
1
 10
55.7018
 20
82.1849
 30
0
 10
58.5404
 20
80.9198
 30
0
 10
60.166
 20
81.2408
 30
0
 10
61.418
 20
81.5737
 30
0
  0
SPLINE
  5
AD7
330
A02
100
AcDbEntity
  8
View
100
AcDbSpline
210
0
220
0
230
1
 70
8
 71
3
 72
8
 73
4
 74
0
 40
0
 40
0
 40
0
 40
0
 40
1
 40
1
 40
1
 40
1
 10
61.418
 20
81.5737
 30
0
 10
62.8066
 20
81.9429
 30
0
 10
63.8209
 20
82.3257
 30
0
 10
66.2837
 20
81.7784
 30
0
  0
SPLINE
  5
AD8
330
A02
100
AcDbEntity
  8
View
100
AcDbSpline
210
0
220
0
230
1
 70
8
 71
3
 72
8
 73
4
 74
0
 40
0
 40
0
 40
0
 40
0
 40
1
 40
1
 40
1
 40
1
 10
57.7203
 20
86.7034
 30
0
 10
60.0094
 20
85.6769
 30
0
 10
60.2745
 20
83.9216
 30
0
 10
60.9436
 20
82.0185
 30
0
  0
SPLINE
  5
AD9
330
A02
100
AcDbEntity
  8
View
100
AcDbSpline
210
0
220
0
230
1
 70
8
 71
3
 72
8
 73
4
 74
0
 40
0
 40
0
 40
0
 40
0
 40
1
 40
1
 40
1
 40
1
 10
62.3798
 20
79.5019
 30
0
 10
63.0443
 20
78.8217
 30
0
 10
64.0074
 20
78.2366
 30
0
 10
65.4251
 20
77.9198
 30
0
  0
SPLINE
  5
ADA
330
A02
100
AcDbEntity
  8
View
100
AcDbSpline
210
0
220
0
230
1
 70
8
 71
3
 72
8
 73
4
 74
0
 40
0
 40
0
 40
0
 40
0
 40
1
 40
1
 40
1
 40
1
 10
66.7131
 20
83.7077
 30
0
 10
64.4902
 20
84.2
 30
0
 10
63.2722
 20
83.9324
 30
0
 10
61.902
 20
83.6185
 30
0
  0
SPLINE
  5
ADB
330
A02
100
AcDbEntity
  8
View
100
AcDbSpline
210
0
220
0
230
1
 70
8
 71
3
 72
8
 73
4
 74
0
 40
0
 40
0
 40
0
 40
0
 40
1
 40
1
 40
1
 40
1
 10
59.0804
 20
83.3003
 30
0
 10
58.3428
 20
83.3575
 30
0
 10
57.4948
 20
83.5521
 30
0
 10
56.5092
 20
83.9923
 30
0
  0
SPLINE
  5
ADC
330
A02
100
AcDbEntity
  8
View
100
AcDbSpline
210
0
220
0
230
1
 70
8
 71
3
 72
8
 73
4
 74
0
 40
0
 40
0
 40
0
 40
0
 40
1
 40
1
 40
1
 40
1
 10
55.2981
 20
81.2813
 30
0
 10
58.188
 20
79.9947
 30
0
 10
59.8414
 20
80.3078
 30
0
 10
61.1128
 20
80.6341
 30
0
  0
SPLINE
  5
ADD
330
A02
100
AcDbEntity
  8
View
100
AcDbSpline
210
0
220
0
230
1
 70
8
 71
3
 72
8
 73
4
 74
0
 40
0
 40
0
 40
0
 40
0
 40
1
 40
1
 40
1
 40
1
 10
61.1128
 20
80.6341
 30
0
 10
62.5251
 20
80.9965
 30
0
 10
63.5538
 20
81.3735
 30
0
 10
66.0691
 20
80.8138
 30
0
  0
SPLINE
  5
ADE
330
A02
100
AcDbEntity
  8
View
100
AcDbSpline
210
0
220
0
230
1
 70
8
 71
3
 72
8
 73
4
 74
0
 40
0
 40
0
 40
0
 40
0
 40
1
 40
1
 40
1
 40
1
 10
57.3166
 20
85.7997
 30
0
 10
59.3708
 20
84.8798
 30
0
 10
59.6542
 20
83.4531
 30
0
 10
60.0663
 20
81.8586
 30
0
  0
SPLINE
  5
ADF
330
A02
100
AcDbEntity
  8
View
100
AcDbSpline
210
0
220
0
230
1
 70
8
 71
3
 72
8
 73
4
 74
0
 40
0
 40
0
 40
0
 40
0
 40
1
 40
1
 40
1
 40
1
 10
61.2006
 20
79.2213
 30
0
 10
61.9037
 20
78.3003
 30
0
 10
63.1093
 20
77.4253
 30
0
 10
65.2105
 20
76.9552
 30
0
  0
SPLINE
  5
AE0
330
A02
100
AcDbEntity
  8
View
100
AcDbSpline
210
0
220
0
230
1
 70
8
 71
3
 72
8
 73
4
 74
0
 40
0
 40
0
 40
0
 40
0
 40
1
 40
1
 40
1
 40
1
 10
66.4984
 20
82.7431
 30
0
 10
64.5899
 20
83.1665
 30
0
 10
63.4081
 20
83.0526
 30
0
 10
62.225
 20
82.8148
 30
0
  0
SPLINE
  5
AE1
330
A02
100
AcDbEntity
  8
View
100
AcDbSpline
210
0
220
0
230
1
 70
8
 71
3
 72
8
 73
4
 74
0
 40
0
 40
0
 40
0
 40
0
 40
1
 40
1
 40
1
 40
1
 10
59.3666
 20
82.3564
 30
0
 10
58.4672
 20
82.3433
 30
0
 10
57.4047
 20
82.5089
 30
0
 10
56.1055
 20
83.0886
 30
0
  0
SPLINE
  5
AE2
330
A02
100
AcDbEntity
  8
View
100
AcDbSpline
210
0
220
0
230
1
 70
8
 71
3
 72
8
 73
4
 74
0
 40
0
 40
0
 40
0
 40
0
 40
1
 40
1
 40
1
 40
1
 10
54.8944
 20
80.3775
 30
0
 10
57.8357
 20
79.0695
 30
0
 10
59.5168
 20
79.3748
 30
0
 10
60.8075
 20
79.6944
 30
0
  0
SPLINE
  5
AE3
330
A02
100
AcDbEntity
  8
View
100
AcDbSpline
210
0
220
0
230
1
 70
8
 71
3
 72
8
 73
4
 74
0
 40
0
 40
0
 40
0
 40
0
 40
1
 40
1
 40
1
 40
1
 10
60.8075
 20
79.6944
 30
0
 10
62.2436
 20
80.05
 30
0
 10
63.2867
 20
80.4213
 30
0
 10
65.8544
 20
79.8491
 30
0
  0
SPLINE
  5
AE4
330
A02
100
AcDbEntity
  8
View
100
AcDbSpline
210
0
220
0
230
1
 70
8
 71
3
 72
8
 73
4
 74
0
 40
0
 40
0
 40
0
 40
0
 40
1
 40
1
 40
1
 40
1
 10
49.9709
 20
92.2387
 30
0
 10
47.8026
 20
93.7494
 30
0
 10
46.4727
 20
93.7593
 30
0
 10
44.8428
 20
94.0274
 30
0
  0
SPLINE
  5
AE5
330
A02
100
AcDbEntity
  8
View
100
AcDbSpline
210
0
220
0
230
1
 70
8
 71
3
 72
8
 73
4
 74
0
 40
0
 40
0
 40
0
 40
0
 40
1
 40
1
 40
1
 40
1
 10
49.9709
 20
92.2387
 30
0
 10
52.2079
 20
90.6802
 30
0
 10
52.1672
 20
88.4348
 30
0
 10
52.6623
 20
86.2453
 30
0
  0
SPLINE
  5
AE6
330
A02
100
AcDbEntity
  8
View
100
AcDbSpline
210
0
220
0
230
1
 70
8
 71
3
 72
8
 73
4
 74
0
 40
0
 40
0
 40
0
 40
0
 40
1
 40
1
 40
1
 40
1
 10
54.1269
 20
83.2541
 30
0
 10
54.5321
 20
82.8431
 30
0
 10
55.0468
 20
82.4769
 30
0
 10
55.7018
 20
82.1849
 30
0
  0
SPLINE
  5
AE7
330
A02
100
AcDbEntity
  8
View
100
AcDbSpline
210
0
220
0
230
1
 70
8
 71
3
 72
8
 73
4
 74
0
 40
0
 40
0
 40
0
 40
0
 40
1
 40
1
 40
1
 40
1
 10
58.124
 20
87.6071
 30
0
 10
55.7317
 20
88.6814
 30
0
 10
54.4444
 20
88.4504
 30
0
 10
52.796
 20
88.4196
 30
0
  0
SPLINE
  5
AE8
330
A02
100
AcDbEntity
  8
View
100
AcDbSpline
210
0
220
0
230
1
 70
8
 71
3
 72
8
 73
4
 74
0
 40
0
 40
0
 40
0
 40
0
 40
1
 40
1
 40
1
 40
1
 10
49.7443
 20
88.9574
 30
0
 10
49.2846
 20
89.155
 30
0
 10
48.7929
 20
89.4238
 30
0
 10
48.2696
 20
89.7874
 30
0
  0
SPLINE
  5
AE9
330
A02
100
AcDbEntity
  8
View
100
AcDbSpline
210
0
220
0
230
1
 70
8
 71
3
 72
8
 73
4
 74
0
 40
0
 40
0
 40
0
 40
0
 40
1
 40
1
 40
1
 40
1
 10
43.6397
 20
91.4243
 30
0
 10
45.0668
 20
91.259
 30
0
 10
46.1846
 20
91.2358
 30
0
 10
48.2696
 20
89.7874
 30
0
  0
SPLINE
  5
AEA
330
A02
100
AcDbEntity
  8
View
100
AcDbSpline
210
0
220
0
230
1
 70
8
 71
3
 72
8
 73
4
 74
0
 40
0
 40
0
 40
0
 40
0
 40
1
 40
1
 40
1
 40
1
 10
38.5006
 20
94.0761
 30
0
 10
40.709
 20
91.8677
 30
0
 10
42.3382
 20
91.575
 30
0
 10
43.6397
 20
91.4243
 30
0
  0
SPLINE
  5
AEB
330
A02
100
AcDbEntity
  8
View
100
AcDbSpline
210
0
220
0
230
1
 70
8
 71
3
 72
8
 73
4
 74
0
 40
0
 40
0
 40
0
 40
0
 40
1
 40
1
 40
1
 40
1
 10
37.4066
 20
95.6443
 30
0
 10
37.64
 20
95.1134
 30
0
 10
37.9914
 20
94.5854
 30
0
 10
38.5006
 20
94.0761
 30
0
  0
SPLINE
  5
AEC
330
A02
100
AcDbEntity
  8
View
100
AcDbSpline
210
0
220
0
230
1
 70
8
 71
3
 72
8
 73
4
 74
0
 40
0
 40
0
 40
0
 40
0
 40
1
 40
1
 40
1
 40
1
 10
45.2142
 20
88.6821
 30
0
 10
45.5378
 20
88.2018
 30
0
 10
45.9771
 20
87.7455
 30
0
 10
46.5682
 20
87.336
 30
0
  0
SPLINE
  5
AED
330
A02
100
AcDbEntity
  8
View
100
AcDbSpline
210
0
220
0
230
1
 70
8
 71
3
 72
8
 73
4
 74
0
 40
0
 40
0
 40
0
 40
0
 40
1
 40
1
 40
1
 40
1
 10
46.5682
 20
87.336
 30
0
 10
49.1304
 20
85.5608
 30
0
 10
50.7848
 20
85.5667
 30
0
 10
52.0854
 20
85.6534
 30
0
  0
SPLINE
  5
AEE
330
A02
100
AcDbEntity
  8
View
100
AcDbSpline
210
0
220
0
230
1
 70
8
 71
3
 72
8
 73
4
 74
0
 40
0
 40
0
 40
0
 40
0
 40
1
 40
1
 40
1
 40
1
 10
52.0854
 20
85.6534
 30
0
 10
53.5179
 20
85.7489
 30
0
 10
54.6059
 20
85.9279
 30
0
 10
56.9129
 20
84.896
 30
0
  0
SPLINE
  5
AEF
330
A02
100
AcDbEntity
  8
View
100
AcDbSpline
210
0
220
0
230
1
 70
8
 71
3
 72
8
 73
4
 74
0
 40
0
 40
0
 40
0
 40
0
 40
1
 40
1
 40
1
 40
1
 10
49.4038
 20
91.4216
 30
0
 10
47.5112
 20
92.7389
 30
0
 10
46.2462
 20
92.9498
 30
0
 10
44.8498
 20
93.1636
 30
0
  0
SPLINE
  5
AF0
330
A02
100
AcDbEntity
  8
View
100
AcDbSpline
210
0
220
0
230
1
 70
8
 71
3
 72
8
 73
4
 74
0
 40
0
 40
0
 40
0
 40
0
 40
1
 40
1
 40
1
 40
1
 10
49.4038
 20
91.4216
 30
0
 10
51.48
 20
89.9766
 30
0
 10
51.4116
 20
88.184
 30
0
 10
51.7039
 20
86.183
 30
0
  0
SPLINE
  5
AF1
330
A02
100
AcDbEntity
  8
View
100
AcDbSpline
210
0
220
0
230
1
 70
8
 71
3
 72
8
 73
4
 74
0
 40
0
 40
0
 40
0
 40
0
 40
1
 40
1
 40
1
 40
1
 10
52.6275
 20
83.4283
 30
0
 10
53.147
 20
82.6303
 30
0
 10
53.9748
 20
81.8704
 30
0
 10
55.2981
 20
81.2812
 30
0
  0
SPLINE
  5
AF2
330
A02
100
AcDbEntity
  8
View
100
AcDbSpline
210
0
220
0
230
1
 70
8
 71
3
 72
8
 73
4
 74
0
 40
0
 40
0
 40
0
 40
0
 40
1
 40
1
 40
1
 40
1
 10
57.7203
 20
86.7034
 30
0
 10
55.6312
 20
87.6402
 30
0
 10
54.3655
 20
87.6175
 30
0
 10
52.9573
 20
87.5749
 30
0
  0
SPLINE
  5
AF3
330
A02
100
AcDbEntity
  8
View
100
AcDbSpline
210
0
220
0
230
1
 70
8
 71
3
 72
8
 73
4
 74
0
 40
0
 40
0
 40
0
 40
0
 40
1
 40
1
 40
1
 40
1
 10
50.111
 20
87.8033
 30
0
 10
49.3937
 20
87.9999
 30
0
 10
48.5937
 20
88.3517
 30
0
 10
47.7025
 20
88.9702
 30
0
  0
SPLINE
  5
AF4
330
A02
100
AcDbEntity
  8
View
100
AcDbSpline
210
0
220
0
230
1
 70
8
 71
3
 72
8
 73
4
 74
0
 40
0
 40
0
 40
0
 40
0
 40
1
 40
1
 40
1
 40
1
 10
43.0056
 20
90.6559
 30
0
 10
44.4504
 20
90.4773
 30
0
 10
45.5781
 20
90.4447
 30
0
 10
47.7025
 20
88.9702
 30
0
  0
SPLINE
  5
AF5
330
A02
100
AcDbEntity
  8
View
100
AcDbSpline
210
0
220
0
230
1
 70
8
 71
3
 72
8
 73
4
 74
0
 40
0
 40
0
 40
0
 40
0
 40
1
 40
1
 40
1
 40
1
 10
37.7957
 20
93.3712
 30
0
 10
40.0403
 20
91.1266
 30
0
 10
41.6904
 20
90.8184
 30
0
 10
43.0056
 20
90.6559
 30
0
  0
SPLINE
  5
AF6
330
A02
100
AcDbEntity
  8
View
100
AcDbSpline
210
0
220
0
230
1
 70
8
 71
3
 72
8
 73
4
 74
0
 40
0
 40
0
 40
0
 40
0
 40
1
 40
1
 40
1
 40
1
 10
36.0615
 20
96.3408
 30
0
 10
36.2646
 20
95.406
 30
0
 10
36.7685
 20
94.3984
 30
0
 10
37.7957
 20
93.3712
 30
0
  0
SPLINE
  5
AF7
330
A02
100
AcDbEntity
  8
View
100
AcDbSpline
210
0
220
0
230
1
 70
8
 71
3
 72
8
 73
4
 74
0
 40
0
 40
0
 40
0
 40
0
 40
1
 40
1
 40
1
 40
1
 10
43.7676
 20
89.1284
 30
0
 10
44.1332
 20
88.2456
 30
0
 10
44.808
 20
87.3448
 30
0
 10
46.0011
 20
86.5189
 30
0
  0
SPLINE
  5
AF8
330
A02
100
AcDbEntity
  8
View
100
AcDbSpline
210
0
220
0
230
1
 70
8
 71
3
 72
8
 73
4
 74
0
 40
0
 40
0
 40
0
 40
0
 40
1
 40
1
 40
1
 40
1
 10
46.0011
 20
86.5189
 30
0
 10
48.6071
 20
84.7148
 30
0
 10
50.2858
 20
84.7091
 30
0
 10
51.6029
 20
84.7865
 30
0
  0
SPLINE
  5
AF9
330
A02
100
AcDbEntity
  8
View
100
AcDbSpline
210
0
220
0
230
1
 70
8
 71
3
 72
8
 73
4
 74
0
 40
0
 40
0
 40
0
 40
0
 40
1
 40
1
 40
1
 40
1
 10
51.6029
 20
84.7865
 30
0
 10
53.0562
 20
84.872
 30
0
 10
54.1563
 20
85.0434
 30
0
 10
56.5092
 20
83.9923
 30
0
  0
SPLINE
  5
AFA
330
A02
100
AcDbEntity
  8
View
100
AcDbSpline
210
0
220
0
230
1
 70
8
 71
3
 72
8
 73
4
 74
0
 40
0
 40
0
 40
0
 40
0
 40
1
 40
1
 40
1
 40
1
 10
48.8367
 20
90.6045
 30
0
 10
50.6981
 20
89.3102
 30
0
 10
50.7082
 20
87.8442
 30
0
 10
50.8086
 20
86.1935
 30
0
  0
SPLINE
  5
AFB
330
A02
100
AcDbEntity
  8
View
100
AcDbSpline
210
0
220
0
230
1
 70
8
 71
3
 72
8
 73
4
 74
0
 40
0
 40
0
 40
0
 40
0
 40
1
 40
1
 40
1
 40
1
 10
51.4146
 20
83.3789
 30
0
 10
51.9263
 20
82.3364
 30
0
 10
52.9351
 20
81.2489
 30
0
 10
54.8944
 20
80.3775
 30
0
  0
SPLINE
  5
AFC
330
A02
100
AcDbEntity
  8
View
100
AcDbSpline
210
0
220
0
230
1
 70
8
 71
3
 72
8
 73
4
 74
0
 40
0
 40
0
 40
0
 40
0
 40
1
 40
1
 40
1
 40
1
 10
57.3166
 20
85.7997
 30
0
 10
55.5249
 20
86.6021
 30
0
 10
54.3307
 20
86.7236
 30
0
 10
53.1208
 20
86.7198
 30
0
  0
SPLINE
  5
AFD
330
A02
100
AcDbEntity
  8
View
100
AcDbSpline
210
0
220
0
230
1
 70
8
 71
3
 72
8
 73
4
 74
0
 40
0
 40
0
 40
0
 40
0
 40
1
 40
1
 40
1
 40
1
 10
50.2141
 20
86.8177
 30
0
 10
49.3243
 20
86.9758
 30
0
 10
48.309
 20
87.3392
 30
0
 10
47.1353
 20
88.1531
 30
0
  0
SPLINE
  5
AFE
330
A02
100
AcDbEntity
  8
View
100
AcDbSpline
210
0
220
0
230
1
 70
8
 71
3
 72
8
 73
4
 74
0
 40
0
 40
0
 40
0
 40
0
 40
1
 40
1
 40
1
 40
1
 10
45.434
 20
85.7018
 30
0
 10
48.0837
 20
83.8688
 30
0
 10
49.7868
 20
83.8514
 30
0
 10
51.1204
 20
83.9197
 30
0
  0
SPLINE
  5
AFF
330
A02
100
AcDbEntity
  8
View
100
AcDbSpline
210
0
220
0
230
1
 70
8
 71
3
 72
8
 73
4
 74
0
 40
0
 40
0
 40
0
 40
0
 40
1
 40
1
 40
1
 40
1
 10
51.1204
 20
83.9197
 30
0
 10
52.5945
 20
83.9952
 30
0
 10
53.7067
 20
84.159
 30
0
 10
56.1055
 20
83.0886
 30
0
  0
SPLINE
  5
B00
330
A02
100
AcDbEntity
  8
View
100
AcDbSpline
210
0
220
0
230
1
 70
8
 71
3
 72
8
 73
4
 74
0
 40
0
 40
0
 40
0
 40
0
 40
1
 40
1
 40
1
 40
1
 10
42.7302
 20
98.3057
 30
0
 10
40.8566
 20
100.179
 30
0
 10
39.5417
 20
100.424
 30
0
 10
37.9865
 20
100.974
 30
0
  0
SPLINE
  5
B01
330
A02
100
AcDbEntity
  8
View
100
AcDbSpline
210
0
220
0
230
1
 70
8
 71
3
 72
8
 73
4
 74
0
 40
0
 40
0
 40
0
 40
0
 40
1
 40
1
 40
1
 40
1
 10
42.7302
 20
98.3057
 30
0
 10
44.6657
 20
96.3701
 30
0
 10
44.2261
 20
94.1567
 30
0
 10
44.3171
 20
91.9039
 30
0
  0
SPLINE
  5
B02
330
A02
100
AcDbEntity
  8
View
100
AcDbSpline
210
0
220
0
230
1
 70
8
 71
3
 72
8
 73
4
 74
0
 40
0
 40
0
 40
0
 40
0
 40
1
 40
1
 40
1
 40
1
 10
41.9233
 20
95.1087
 30
0
 10
41.5046
 20
95.386
 30
0
 10
41.0672
 20
95.7391
 30
0
 10
40.6154
 20
96.1909
 30
0
  0
SPLINE
  5
B03
330
A02
100
AcDbEntity
  8
View
100
AcDbSpline
210
0
220
0
230
1
 70
8
 71
3
 72
8
 73
4
 74
0
 40
0
 40
0
 40
0
 40
0
 40
1
 40
1
 40
1
 40
1
 10
36.3424
 20
98.6248
 30
0
 10
37.7161
 20
98.2102
 30
0
 10
38.8171
 20
97.9892
 30
0
 10
40.6154
 20
96.1909
 30
0
  0
SPLINE
  5
B04
330
A02
100
AcDbEntity
  8
View
100
AcDbSpline
210
0
220
0
230
1
 70
8
 71
3
 72
8
 73
4
 74
0
 40
0
 40
0
 40
0
 40
0
 40
1
 40
1
 40
1
 40
1
 10
31.7605
 20
102.144
 30
0
 10
33.5366
 20
99.5803
 30
0
 10
35.0887
 20
99.0032
 30
0
 10
36.3424
 20
98.6248
 30
0
  0
SPLINE
  5
B05
330
A02
100
AcDbEntity
  8
View
100
AcDbSpline
210
0
220
0
230
1
 70
8
 71
3
 72
8
 73
4
 74
0
 40
0
 40
0
 40
0
 40
0
 40
1
 40
1
 40
1
 40
1
 10
30.9657
 20
103.879
 30
0
 10
31.1
 20
103.316
 30
0
 10
31.351
 20
102.735
 30
0
 10
31.7605
 20
102.144
 30
0
  0
SPLINE
  5
B06
330
A02
100
AcDbEntity
  8
View
100
AcDbSpline
210
0
220
0
230
1
 70
8
 71
3
 72
8
 73
4
 74
0
 40
0
 40
0
 40
0
 40
0
 40
1
 40
1
 40
1
 40
1
 10
42.0252
 20
97.6008
 30
0
 10
40.3905
 20
99.2355
 30
0
 10
39.177
 20
99.667
 30
0
 10
37.8411
 20
100.123
 30
0
  0
SPLINE
  5
B07
330
A02
100
AcDbEntity
  8
View
100
AcDbSpline
210
0
220
0
230
1
 70
8
 71
3
 72
8
 73
4
 74
0
 40
0
 40
0
 40
0
 40
0
 40
1
 40
1
 40
1
 40
1
 10
42.0252
 20
97.6008
 30
0
 10
43.8211
 20
95.8049
 30
0
 10
43.4334
 20
94.0448
 30
0
 10
43.3592
 20
92.0165
 30
0
  0
SPLINE
  5
B08
330
A02
100
AcDbEntity
  8
View
100
AcDbSpline
210
0
220
0
230
1
 70
8
 71
3
 72
8
 73
4
 74
0
 40
0
 40
0
 40
0
 40
0
 40
1
 40
1
 40
1
 40
1
 10
42.0787
 20
93.9037
 30
0
 10
41.4057
 20
94.2267
 30
0
 10
40.6794
 20
94.717
 30
0
 10
39.9105
 20
95.486
 30
0
  0
SPLINE
  5
B09
330
A02
100
AcDbEntity
  8
View
100
AcDbSpline
210
0
220
0
230
1
 70
8
 71
3
 72
8
 73
4
 74
0
 40
0
 40
0
 40
0
 40
0
 40
1
 40
1
 40
1
 40
1
 10
35.5824
 20
97.9804
 30
0
 10
36.9708
 20
97.5493
 30
0
 10
38.0794
 20
97.3171
 30
0
 10
39.9105
 20
95.486
 30
0
  0
SPLINE
  5
B0A
330
A02
100
AcDbEntity
  8
View
100
AcDbSpline
210
0
220
0
230
1
 70
8
 71
3
 72
8
 73
4
 74
0
 40
0
 40
0
 40
0
 40
0
 40
1
 40
1
 40
1
 40
1
 10
30.9434
 20
101.577
 30
0
 10
32.7482
 20
98.9696
 30
0
 10
34.3176
 20
98.3732
 30
0
 10
35.5824
 20
97.9804
 30
0
  0
SPLINE
  5
B0B
330
A02
100
AcDbEntity
  8
View
100
AcDbSpline
210
0
220
0
230
1
 70
8
 71
3
 72
8
 73
4
 74
0
 40
0
 40
0
 40
0
 40
0
 40
1
 40
1
 40
1
 40
1
 10
29.7708
 20
104.804
 30
0
 10
29.8029
 20
103.85
 30
0
 10
30.1175
 20
102.77
 30
0
 10
30.9434
 20
101.577
 30
0
  0
SPLINE
  5
B0C
330
A02
100
AcDbEntity
  8
View
100
AcDbSpline
210
0
220
0
230
1
 70
8
 71
3
 72
8
 73
4
 74
0
 40
0
 40
0
 40
0
 40
0
 40
1
 40
1
 40
1
 40
1
 10
41.3203
 20
96.8958
 30
0
 10
39.9199
 20
98.2962
 30
0
 10
38.8302
 20
98.8375
 30
0
 10
37.6933
 20
99.2612
 30
0
  0
SPLINE
  5
B0D
330
A02
100
AcDbEntity
  8
View
100
AcDbSpline
210
0
220
0
230
1
 70
8
 71
3
 72
8
 73
4
 74
0
 40
0
 40
0
 40
0
 40
0
 40
1
 40
1
 40
1
 40
1
 10
41.3203
 20
96.8958
 30
0
 10
42.9318
 20
95.2844
 30
0
 10
42.6806
 20
93.8678
 30
0
 10
42.4773
 20
92.1887
 30
0
  0
SPLINE
  5
B0E
330
A02
100
AcDbEntity
  8
View
100
AcDbSpline
210
0
220
0
230
1
 70
8
 71
3
 72
8
 73
4
 74
0
 40
0
 40
0
 40
0
 40
0
 40
1
 40
1
 40
1
 40
1
 10
42.5626
 20
89.3002
 30
0
 10
42.8763
 20
88.1775
 30
0
 10
43.669
 20
86.9226
 30
0
 10
45.434
 20
85.7018
 30
0
  0
SPLINE
  5
B0F
330
A02
100
AcDbEntity
  8
View
100
AcDbSpline
210
0
220
0
230
1
 70
8
 71
3
 72
8
 73
4
 74
0
 40
0
 40
0
 40
0
 40
0
 40
1
 40
1
 40
1
 40
1
 10
48.8367
 20
90.6045
 30
0
 10
47.2147
 20
91.7323
 30
0
 10
46.0507
 20
92.0726
 30
0
 10
44.8564
 20
92.2891
 30
0
  0
SPLINE
  5
B10
330
A02
100
AcDbEntity
  8
View
100
AcDbSpline
210
0
220
0
230
1
 70
8
 71
3
 72
8
 73
4
 74
0
 40
0
 40
0
 40
0
 40
0
 40
1
 40
1
 40
1
 40
1
 10
42.0032
 20
92.9122
 30
0
 10
41.1533
 20
93.2285
 30
0
 10
40.2175
 20
93.769
 30
0
 10
39.2055
 20
94.7811
 30
0
  0
SPLINE
  5
B11
330
A02
100
AcDbEntity
  8
View
100
AcDbSpline
210
0
220
0
230
1
 70
8
 71
3
 72
8
 73
4
 74
0
 40
0
 40
0
 40
0
 40
0
 40
1
 40
1
 40
1
 40
1
 10
37.0907
 20
92.6663
 30
0
 10
39.3716
 20
90.3854
 30
0
 10
41.0426
 20
90.0618
 30
0
 10
42.3716
 20
89.8874
 30
0
  0
SPLINE
  5
B12
330
A02
100
AcDbEntity
  8
View
100
AcDbSpline
210
0
220
0
230
1
 70
8
 71
3
 72
8
 73
4
 74
0
 40
0
 40
0
 40
0
 40
0
 40
1
 40
1
 40
1
 40
1
 10
42.3716
 20
89.8874
 30
0
 10
43.8341
 20
89.6956
 30
0
 10
44.9716
 20
89.6535
 30
0
 10
47.1353
 20
88.1531
 30
0
  0
SPLINE
  5
B13
330
A02
100
AcDbEntity
  8
View
100
AcDbSpline
210
0
220
0
230
1
 70
8
 71
3
 72
8
 73
4
 74
0
 40
0
 40
0
 40
0
 40
0
 40
1
 40
1
 40
1
 40
1
 10
36.6632
 20
105.546
 30
0
 10
35.1547
 20
107.712
 30
0
 10
33.9136
 20
108.181
 30
0
 10
32.4885
 20
108.998
 30
0
  0
SPLINE
  5
B14
330
A02
100
AcDbEntity
  8
View
100
AcDbSpline
210
0
220
0
230
1
 70
8
 71
3
 72
8
 73
4
 74
0
 40
0
 40
0
 40
0
 40
0
 40
1
 40
1
 40
1
 40
1
 10
36.6632
 20
105.546
 30
0
 10
38.2262
 20
103.303
 30
0
 10
37.4101
 20
101.265
 30
0
 10
37.0941
 20
98.9772
 30
0
  0
SPLINE
  5
B15
330
A02
100
AcDbEntity
  8
View
100
AcDbSpline
210
0
220
0
230
1
 70
8
 71
3
 72
8
 73
4
 74
0
 40
0
 40
0
 40
0
 40
0
 40
1
 40
1
 40
1
 40
1
 10
35.3052
 20
102.551
 30
0
 10
34.9427
 20
102.898
 30
0
 10
34.5754
 20
103.322
 30
0
 10
34.2119
 20
103.845
 30
0
  0
SPLINE
  5
B16
330
A02
100
AcDbEntity
  8
View
100
AcDbSpline
210
0
220
0
230
1
 70
8
 71
3
 72
8
 73
4
 74
0
 40
0
 40
0
 40
0
 40
0
 40
1
 40
1
 40
1
 40
1
 10
30.4553
 20
106.993
 30
0
 10
31.7279
 20
106.339
 30
0
 10
32.7647
 20
105.928
 30
0
 10
34.2119
 20
103.845
 30
0
  0
SPLINE
  5
B17
330
A02
100
AcDbEntity
  8
View
100
AcDbSpline
210
0
220
0
230
1
 70
8
 71
3
 72
8
 73
4
 74
0
 40
0
 40
0
 40
0
 40
0
 40
1
 40
1
 40
1
 40
1
 10
26.6094
 20
111.277
 30
0
 10
27.8748
 20
108.438
 30
0
 10
29.298
 20
107.588
 30
0
 10
30.4553
 20
106.993
 30
0
  0
SPLINE
  5
B18
330
A02
100
AcDbEntity
  8
View
100
AcDbSpline
210
0
220
0
230
1
 70
8
 71
3
 72
8
 73
4
 74
0
 40
0
 40
0
 40
0
 40
0
 40
1
 40
1
 40
1
 40
1
 10
26.153
 20
113.125
 30
0
 10
26.1797
 20
112.549
 30
0
 10
26.3175
 20
111.932
 30
0
 10
26.6094
 20
111.277
 30
0
  0
SPLINE
  5
B19
330
A02
100
AcDbEntity
  8
View
100
AcDbSpline
210
0
220
0
230
1
 70
8
 71
3
 72
8
 73
4
 74
0
 40
0
 40
0
 40
0
 40
0
 40
1
 40
1
 40
1
 40
1
 10
35.8461
 20
104.979
 30
0
 10
34.5302
 20
106.87
 30
0
 10
33.4198
 20
107.506
 30
0
 10
32.1927
 20
108.192
 30
0
  0
SPLINE
  5
B1A
330
A02
100
AcDbEntity
  8
View
100
AcDbSpline
210
0
220
0
230
1
 70
8
 71
3
 72
8
 73
4
 74
0
 40
0
 40
0
 40
0
 40
0
 40
1
 40
1
 40
1
 40
1
 10
35.8461
 20
104.979
 30
0
 10
37.293
 20
102.901
 30
0
 10
36.6031
 20
101.242
 30
0
 10
36.1711
 20
99.2574
 30
0
  0
SPLINE
  5
B1B
330
A02
100
AcDbEntity
  8
View
100
AcDbSpline
210
0
220
0
230
1
 70
8
 71
3
 72
8
 73
4
 74
0
 40
0
 40
0
 40
0
 40
0
 40
1
 40
1
 40
1
 40
1
 10
35.245
 20
101.34
 30
0
 10
34.6405
 20
101.776
 30
0
 10
34.0134
 20
102.387
 30
0
 10
33.3947
 20
103.278
 30
0
  0
SPLINE
  5
B1C
330
A02
100
AcDbEntity
  8
View
100
AcDbSpline
210
0
220
0
230
1
 70
8
 71
3
 72
8
 73
4
 74
0
 40
0
 40
0
 40
0
 40
0
 40
1
 40
1
 40
1
 40
1
 10
29.5949
 20
106.499
 30
0
 10
30.8791
 20
105.825
 30
0
 10
31.9214
 20
105.401
 30
0
 10
33.3947
 20
103.278
 30
0
  0
SPLINE
  5
B1D
330
A02
100
AcDbEntity
  8
View
100
AcDbSpline
210
0
220
0
230
1
 70
8
 71
3
 72
8
 73
4
 74
0
 40
0
 40
0
 40
0
 40
0
 40
1
 40
1
 40
1
 40
1
 10
25.7057
 20
110.874
 30
0
 10
26.9924
 20
107.984
 30
0
 10
28.4292
 20
107.111
 30
0
 10
29.5949
 20
106.499
 30
0
  0
SPLINE
  5
B1E
330
A02
100
AcDbEntity
  8
View
100
AcDbSpline
210
0
220
0
230
1
 70
8
 71
3
 72
8
 73
4
 74
0
 40
0
 40
0
 40
0
 40
0
 40
1
 40
1
 40
1
 40
1
 10
25.1571
 20
114.256
 30
0
 10
25.0098
 20
113.316
 30
0
 10
25.1166
 20
112.197
 30
0
 10
25.7057
 20
110.874
 30
0
  0
SPLINE
  5
B1F
330
A02
100
AcDbEntity
  8
View
100
AcDbSpline
210
0
220
0
230
1
 70
8
 71
3
 72
8
 73
4
 74
0
 40
0
 40
0
 40
0
 40
0
 40
1
 40
1
 40
1
 40
1
 10
35.029
 20
104.412
 30
0
 10
33.902
 20
106.033
 30
0
 10
32.9312
 20
106.756
 30
0
 10
31.893
 20
107.374
 30
0
  0
SPLINE
  5
B20
330
A02
100
AcDbEntity
  8
View
100
AcDbSpline
210
0
220
0
230
1
 70
8
 71
3
 72
8
 73
4
 74
0
 40
0
 40
0
 40
0
 40
0
 40
1
 40
1
 40
1
 40
1
 10
35.029
 20
104.412
 30
0
 10
36.3267
 20
102.546
 30
0
 10
35.8311
 20
101.2
 30
0
 10
35.3339
 20
99.5828
 30
0
  0
SPLINE
  5
B21
330
A02
100
AcDbEntity
  8
View
100
AcDbSpline
210
0
220
0
230
1
 70
8
 71
3
 72
8
 73
4
 74
0
 40
0
 40
0
 40
0
 40
0
 40
1
 40
1
 40
1
 40
1
 10
34.9062
 20
96.7237
 30
0
 10
35.0155
 20
95.562
 30
0
 10
35.5721
 20
94.1849
 30
0
 10
37.0907
 20
92.6663
 30
0
  0
SPLINE
  5
B22
330
A02
100
AcDbEntity
  8
View
100
AcDbSpline
210
0
220
0
230
1
 70
8
 71
3
 72
8
 73
4
 74
0
 40
0
 40
0
 40
0
 40
0
 40
1
 40
1
 40
1
 40
1
 10
34.9955
 20
100.378
 30
0
 10
34.2158
 20
100.84
 30
0
 10
33.3916
 20
101.537
 30
0
 10
32.5776
 20
102.711
 30
0
  0
SPLINE
  5
B23
330
A02
100
AcDbEntity
  8
View
100
AcDbSpline
210
0
220
0
230
1
 70
8
 71
3
 72
8
 73
4
 74
0
 40
0
 40
0
 40
0
 40
0
 40
1
 40
1
 40
1
 40
1
 10
28.7346
 20
106.004
 30
0
 10
30.0303
 20
105.31
 30
0
 10
31.0781
 20
104.873
 30
0
 10
32.5776
 20
102.711
 30
0
  0
SPLINE
  5
B24
330
A02
100
AcDbEntity
  8
View
100
AcDbSpline
210
0
220
0
230
1
 70
8
 71
3
 72
8
 73
4
 74
0
 40
0
 40
0
 40
0
 40
0
 40
1
 40
1
 40
1
 40
1
 10
24.802
 20
110.47
 30
0
 10
26.11
 20
107.529
 30
0
 10
27.5604
 20
106.633
 30
0
 10
28.7346
 20
106.004
 30
0
  0
SPLINE
  5
B25
330
A02
100
AcDbEntity
  8
View
100
AcDbSpline
210
0
220
0
230
1
 70
8
 71
3
 72
8
 73
4
 74
0
 40
0
 40
0
 40
0
 40
0
 40
1
 40
1
 40
1
 40
1
 10
30.1262
 20
101.01
 30
0
 10
31.9598
 20
98.3589
 30
0
 10
33.5466
 20
97.7431
 30
0
 10
34.8224
 20
97.3361
 30
0
  0
SPLINE
  5
B26
330
A02
100
AcDbEntity
  8
View
100
AcDbSpline
210
0
220
0
230
1
 70
8
 71
3
 72
8
 73
4
 74
0
 40
0
 40
0
 40
0
 40
0
 40
1
 40
1
 40
1
 40
1
 10
34.8224
 20
97.3361
 30
0
 10
36.2255
 20
96.8884
 30
0
 10
37.3417
 20
96.6449
 30
0
 10
39.2055
 20
94.7811
 30
0
  0
SPLINE
  5
B27
330
A02
100
AcDbEntity
  8
View
100
AcDbSpline
210
0
220
0
230
1
 70
8
 71
3
 72
8
 73
4
 74
0
 40
0
 40
0
 40
0
 40
0
 40
1
 40
1
 40
1
 40
1
 10
32.0316
 20
113.7
 30
0
 10
30.9593
 20
116.088
 30
0
 10
29.8488
 20
116.767
 30
0
 10
28.6105
 20
117.838
 30
0
  0
SPLINE
  5
B28
330
A02
100
AcDbEntity
  8
View
100
AcDbSpline
210
0
220
0
230
1
 70
8
 71
3
 72
8
 73
4
 74
0
 40
0
 40
0
 40
0
 40
0
 40
1
 40
1
 40
1
 40
1
 10
32.0316
 20
113.7
 30
0
 10
33.1416
 20
111.228
 30
0
 10
31.9768
 20
109.392
 30
0
 10
31.255
 20
107.204
 30
0
  0
SPLINE
  5
B29
330
A02
100
AcDbEntity
  8
View
100
AcDbSpline
210
0
220
0
230
1
 70
8
 71
3
 72
8
 73
4
 74
0
 40
0
 40
0
 40
0
 40
0
 40
1
 40
1
 40
1
 40
1
 10
30.1515
 20
111.024
 30
0
 10
29.8604
 20
111.429
 30
0
 10
29.5791
 20
111.91
 30
0
 10
29.3205
 20
112.488
 30
0
  0
SPLINE
  5
B2A
330
A02
100
AcDbEntity
  8
View
100
AcDbSpline
210
0
220
0
230
1
 70
8
 71
3
 72
8
 73
4
 74
0
 40
0
 40
0
 40
0
 40
0
 40
1
 40
1
 40
1
 40
1
 10
26.2397
 20
116.269
 30
0
 10
27.3628
 20
115.383
 30
0
 10
28.2896
 20
114.793
 30
0
 10
29.3205
 20
112.488
 30
0
  0
SPLINE
  5
B2B
330
A02
100
AcDbEntity
  8
View
100
AcDbSpline
210
0
220
0
230
1
 70
8
 71
3
 72
8
 73
4
 74
0
 40
0
 40
0
 40
0
 40
0
 40
1
 40
1
 40
1
 40
1
 10
23.309
 20
121.215
 30
0
 10
23.986
 20
118.181
 30
0
 10
25.2265
 20
117.068
 30
0
 10
26.2397
 20
116.269
 30
0
  0
SPLINE
  5
B2C
330
A02
100
AcDbEntity
  8
View
100
AcDbSpline
210
0
220
0
230
1
 70
8
 71
3
 72
8
 73
4
 74
0
 40
0
 40
0
 40
0
 40
0
 40
1
 40
1
 40
1
 40
1
 10
31.1279
 20
113.296
 30
0
 10
30.1924
 20
115.382
 30
0
 10
29.2358
 20
116.204
 30
0
 10
28.1663
 20
117.108
 30
0
  0
SPLINE
  5
B2D
330
A02
100
AcDbEntity
  8
View
100
AcDbSpline
210
0
220
0
230
1
 70
8
 71
3
 72
8
 73
4
 74
0
 40
0
 40
0
 40
0
 40
0
 40
1
 40
1
 40
1
 40
1
 10
31.1279
 20
113.296
 30
0
 10
32.1561
 20
111.003
 30
0
 10
31.183
 20
109.514
 30
0
 10
30.4012
 20
107.644
 30
0
  0
SPLINE
  5
B2E
330
A02
100
AcDbEntity
  8
View
100
AcDbSpline
210
0
220
0
230
1
 70
8
 71
3
 72
8
 73
4
 74
0
 40
0
 40
0
 40
0
 40
0
 40
1
 40
1
 40
1
 40
1
 10
29.8715
 20
109.85
 30
0
 10
29.3595
 20
110.387
 30
0
 10
28.8571
 20
111.099
 30
0
 10
28.4168
 20
112.085
 30
0
  0
SPLINE
  5
B2F
330
A02
100
AcDbEntity
  8
View
100
AcDbSpline
210
0
220
0
230
1
 70
8
 71
3
 72
8
 73
4
 74
0
 40
0
 40
0
 40
0
 40
0
 40
1
 40
1
 40
1
 40
1
 10
25.3046
 20
115.949
 30
0
 10
26.4361
 20
115.041
 30
0
 10
27.3665
 20
114.436
 30
0
 10
28.4168
 20
112.085
 30
0
  0
SPLINE
  5
B30
330
A02
100
AcDbEntity
  8
View
100
AcDbSpline
210
0
220
0
230
1
 70
8
 71
3
 72
8
 73
4
 74
0
 40
0
 40
0
 40
0
 40
0
 40
1
 40
1
 40
1
 40
1
 10
22.3443
 20
121.001
 30
0
 10
23.0353
 20
117.908
 30
0
 10
24.2855
 20
116.768
 30
0
 10
25.3046
 20
115.949
 30
0
  0
SPLINE
  5
B31
330
A02
100
AcDbEntity
  8
View
100
AcDbSpline
210
0
220
0
230
1
 70
8
 71
3
 72
8
 73
4
 74
0
 40
0
 40
0
 40
0
 40
0
 40
1
 40
1
 40
1
 40
1
 10
22.4819
 20
124.436
 30
0
 10
22.1467
 20
123.542
 30
0
 10
22.0274
 20
122.419
 30
0
 10
22.3443
 20
121.001
 30
0
  0
SPLINE
  5
B32
330
A02
100
AcDbEntity
  8
View
100
AcDbSpline
210
0
220
0
230
1
 70
8
 71
3
 72
8
 73
4
 74
0
 40
0
 40
0
 40
0
 40
0
 40
1
 40
1
 40
1
 40
1
 10
30.2242
 20
112.892
 30
0
 10
29.4227
 20
114.682
 30
0
 10
28.615
 20
115.566
 30
0
 10
27.7172
 20
116.367
 30
0
  0
SPLINE
  5
B33
330
A02
100
AcDbEntity
  8
View
100
AcDbSpline
210
0
220
0
230
1
 70
8
 71
3
 72
8
 73
4
 74
0
 40
0
 40
0
 40
0
 40
0
 40
1
 40
1
 40
1
 40
1
 10
30.2242
 20
112.892
 30
0
 10
31.147
 20
110.832
 30
0
 10
30.42
 20
109.61
 30
0
 10
29.64
 20
108.114
 30
0
  0
SPLINE
  5
B34
330
A02
100
AcDbEntity
  8
View
100
AcDbSpline
210
0
220
0
230
1
 70
8
 71
3
 72
8
 73
4
 74
0
 40
0
 40
0
 40
0
 40
0
 40
1
 40
1
 40
1
 40
1
 10
28.7069
 20
105.388
 30
0
 10
28.6059
 20
104.228
 30
0
 10
28.9055
 20
102.774
 30
0
 10
30.1262
 20
101.01
 30
0
  0
SPLINE
  5
B35
330
A02
100
AcDbEntity
  8
View
100
AcDbSpline
210
0
220
0
230
1
 70
8
 71
3
 72
8
 73
4
 74
0
 40
0
 40
0
 40
0
 40
0
 40
1
 40
1
 40
1
 40
1
 10
29.4527
 20
108.955
 30
0
 10
28.7734
 20
109.548
 30
0
 10
28.0929
 20
110.382
 30
0
 10
27.5131
 20
111.681
 30
0
  0
SPLINE
  5
B36
330
A02
100
AcDbEntity
  8
View
100
AcDbSpline
210
0
220
0
230
1
 70
8
 71
3
 72
8
 73
4
 74
0
 40
0
 40
0
 40
0
 40
0
 40
1
 40
1
 40
1
 40
1
 10
24.3696
 20
115.63
 30
0
 10
25.5094
 20
114.698
 30
0
 10
26.4433
 20
114.079
 30
0
 10
27.5131
 20
111.681
 30
0
  0
SPLINE
  5
B37
330
A02
100
AcDbEntity
  8
View
100
AcDbSpline
210
0
220
0
230
1
 70
8
 71
3
 72
8
 73
4
 74
0
 40
0
 40
0
 40
0
 40
0
 40
1
 40
1
 40
1
 40
1
 10
21.3797
 20
120.786
 30
0
 10
22.0846
 20
117.635
 30
0
 10
23.3446
 20
116.468
 30
0
 10
24.3696
 20
115.63
 30
0
  0
SPLINE
  5
B38
330
A02
100
AcDbEntity
  8
View
100
AcDbSpline
210
0
220
0
230
1
 70
8
 71
3
 72
8
 73
4
 74
0
 40
0
 40
0
 40
0
 40
0
 40
1
 40
1
 40
1
 40
1
 10
29.0969
 20
122.503
 30
0
 10
29.6767
 20
119.881
 30
0
 10
28.1858
 20
118.327
 30
0
 10
27.0613
 20
116.322
 30
0
  0
SPLINE
  5
B39
330
A02
100
AcDbEntity
  8
View
100
AcDbSpline
210
0
220
0
230
1
 70
8
 71
3
 72
8
 73
4
 74
0
 40
0
 40
0
 40
0
 40
0
 40
1
 40
1
 40
1
 40
1
 10
26.7238
 20
120.265
 30
0
 10
26.5193
 20
120.717
 30
0
 10
26.3399
 20
121.243
 30
0
 10
26.2029
 20
121.859
 30
0
  0
SPLINE
  5
B3A
330
A02
100
AcDbEntity
  8
View
100
AcDbSpline
210
0
220
0
230
1
 70
8
 71
3
 72
8
 73
4
 74
0
 40
0
 40
0
 40
0
 40
0
 40
1
 40
1
 40
1
 40
1
 10
23.9573
 20
126.189
 30
0
 10
24.8806
 20
125.079
 30
0
 10
25.6554
 20
124.324
 30
0
 10
26.2029
 20
121.859
 30
0
  0
SPLINE
  5
B3B
330
A02
100
AcDbEntity
  8
View
100
AcDbSpline
210
0
220
0
230
1
 70
8
 71
3
 72
8
 73
4
 74
0
 40
0
 40
0
 40
0
 40
0
 40
1
 40
1
 40
1
 40
1
 10
22.1207
 20
131.696
 30
0
 10
22.134
 20
128.548
 30
0
 10
23.1338
 20
127.179
 30
0
 10
23.9573
 20
126.189
 30
0
  0
SPLINE
  5
B3C
330
A02
100
AcDbEntity
  8
View
100
AcDbSpline
210
0
220
0
230
1
 70
8
 71
1
 72
4
 73
2
 74
0
 40
0
 40
0
 40
1
 40
1
 10
22.1207
 20
131.696
 30
0
 10
22.1207
 20
131.696
 30
0
  0
SPLINE
  5
B3D
330
A02
100
AcDbEntity
  8
View
100
AcDbSpline
210
0
220
0
230
1
 70
8
 71
3
 72
8
 73
4
 74
0
 40
0
 40
0
 40
0
 40
0
 40
1
 40
1
 40
1
 40
1
 10
28.1323
 20
122.289
 30
0
 10
27.64
 20
124.511
 30
0
 10
26.885
 20
125.498
 30
0
 10
26.0233
 20
126.611
 30
0
  0
SPLINE
  5
B3E
330
A02
100
AcDbEntity
  8
View
100
AcDbSpline
210
0
220
0
230
1
 70
8
 71
3
 72
8
 73
4
 74
0
 40
0
 40
0
 40
0
 40
0
 40
1
 40
1
 40
1
 40
1
 10
28.1323
 20
122.289
 30
0
 10
28.6719
 20
119.852
 30
0
 10
27.4351
 20
118.596
 30
0
 10
26.311
 20
116.915
 30
0
  0
SPLINE
  5
B3F
330
A02
100
AcDbEntity
  8
View
100
AcDbSpline
210
0
220
0
230
1
 70
8
 71
3
 72
8
 73
4
 74
0
 40
0
 40
0
 40
0
 40
0
 40
1
 40
1
 40
1
 40
1
 10
26.2197
 20
119.174
 30
0
 10
25.8243
 20
119.797
 30
0
 10
25.4723
 20
120.593
 30
0
 10
25.2383
 20
121.645
 30
0
  0
SPLINE
  5
B40
330
A02
100
AcDbEntity
  8
View
100
AcDbSpline
210
0
220
0
230
1
 70
8
 71
3
 72
8
 73
4
 74
0
 40
0
 40
0
 40
0
 40
0
 40
1
 40
1
 40
1
 40
1
 10
22.9731
 20
126.07
 30
0
 10
23.9015
 20
124.934
 30
0
 10
24.6781
 20
124.162
 30
0
 10
25.2383
 20
121.645
 30
0
  0
SPLINE
  5
B41
330
A02
100
AcDbEntity
  8
View
100
AcDbSpline
210
0
220
0
230
1
 70
8
 71
3
 72
8
 73
4
 74
0
 40
0
 40
0
 40
0
 40
0
 40
1
 40
1
 40
1
 40
1
 10
21.1207
 20
131.696
 30
0
 10
21.1406
 20
128.483
 30
0
 10
22.1462
 20
127.082
 30
0
 10
22.9731
 20
126.07
 30
0
  0
SPLINE
  5
B42
330
A02
100
AcDbEntity
  8
View
100
AcDbSpline
210
0
220
0
230
1
 70
8
 71
1
 72
4
 73
2
 74
0
 40
0
 40
0
 40
1
 40
1
 10
21.1207
 20
131.696
 30
0
 10
21.1207
 20
131.696
 30
0
  0
SPLINE
  5
B43
330
A02
100
AcDbEntity
  8
View
100
AcDbSpline
210
0
220
0
230
1
 70
8
 71
3
 72
8
 73
4
 74
0
 40
0
 40
0
 40
0
 40
0
 40
1
 40
1
 40
1
 40
1
 10
27.1676
 20
122.074
 30
0
 10
26.7443
 20
123.982
 30
0
 10
26.1422
 20
125.004
 30
0
 10
25.4273
 20
125.979
 30
0
  0
SPLINE
  5
B44
330
A02
100
AcDbEntity
  8
View
100
AcDbSpline
210
0
220
0
230
1
 70
8
 71
3
 72
8
 73
4
 74
0
 40
0
 40
0
 40
0
 40
0
 40
1
 40
1
 40
1
 40
1
 10
27.1676
 20
122.074
 30
0
 10
27.654
 20
119.881
 30
0
 10
26.709
 20
118.836
 30
0
 10
25.6571
 20
117.521
 30
0
  0
SPLINE
  5
B45
330
A02
100
AcDbEntity
  8
View
100
AcDbSpline
210
0
220
0
230
1
 70
8
 71
3
 72
8
 73
4
 74
0
 40
0
 40
0
 40
0
 40
0
 40
1
 40
1
 40
1
 40
1
 10
24.2262
 20
115.031
 30
0
 10
23.9093
 20
113.915
 30
0
 10
23.9306
 20
112.429
 30
0
 10
24.802
 20
110.47
 30
0
  0
SPLINE
  5
B46
330
A02
100
AcDbEntity
  8
View
100
AcDbSpline
210
0
220
0
230
1
 70
8
 71
3
 72
8
 73
4
 74
0
 40
0
 40
0
 40
0
 40
0
 40
1
 40
1
 40
1
 40
1
 10
25.6361
 20
118.379
 30
0
 10
25.0874
 20
119.09
 30
0
 10
24.583
 20
120.042
 30
0
 10
24.2736
 20
121.43
 30
0
  0
SPLINE
  5
B47
330
A02
100
AcDbEntity
  8
View
100
AcDbSpline
210
0
220
0
230
1
 70
8
 71
3
 72
8
 73
4
 74
0
 40
0
 40
0
 40
0
 40
0
 40
1
 40
1
 40
1
 40
1
 10
21.9889
 20
125.952
 30
0
 10
22.9225
 20
124.789
 30
0
 10
23.7008
 20
124.001
 30
0
 10
24.2736
 20
121.43
 30
0
  0
SPLINE
  5
B48
330
A02
100
AcDbEntity
  8
View
100
AcDbSpline
210
0
220
0
230
1
 70
8
 71
3
 72
8
 73
4
 74
0
 40
0
 40
0
 40
0
 40
0
 40
1
 40
1
 40
1
 40
1
 10
20.1207
 20
131.696
 30
0
 10
20.1473
 20
128.417
 30
0
 10
21.1586
 20
126.986
 30
0
 10
21.9889
 20
125.952
 30
0
  0
SPLINE
  5
B49
330
A02
100
AcDbEntity
  8
View
100
AcDbSpline
210
0
220
0
230
1
 70
8
 71
1
 72
4
 73
2
 74
0
 40
0
 40
0
 40
1
 40
1
 10
20.1207
 20
131.696
 30
0
 10
20.1207
 20
131.696
 30
0
  0
SPLINE
  5
B4A
330
A02
100
AcDbEntity
  8
View
100
AcDbSpline
210
0
220
0
230
1
 70
8
 71
1
 72
4
 73
2
 74
0
 40
0
 40
0
 40
1
 40
1
 10
28.1207
 20
131.696
 30
0
 10
28.1207
 20
131.696
 30
0
  0
SPLINE
  5
B4B
330
A02
100
AcDbEntity
  8
View
100
AcDbSpline
210
0
220
0
230
1
 70
8
 71
3
 72
8
 73
4
 74
0
 40
0
 40
0
 40
0
 40
0
 40
1
 40
1
 40
1
 40
1
 10
28.1207
 20
131.696
 30
0
 10
28.0946
 20
129.008
 30
0
 10
26.2538
 20
127.755
 30
0
 10
24.7746
 20
126.07
 30
0
  0
SPLINE
  5
B4C
330
A02
100
AcDbEntity
  8
View
100
AcDbSpline
210
0
220
0
230
1
 70
8
 71
3
 72
8
 73
4
 74
0
 40
0
 40
0
 40
0
 40
0
 40
1
 40
1
 40
1
 40
1
 10
23.23
 20
123.121
 30
0
 10
23.1403
 20
122.55
 30
0
 10
23.1525
 20
121.916
 30
0
 10
23.309
 20
121.215
 30
0
  0
SPLINE
  5
B4D
330
A02
100
AcDbEntity
  8
View
100
AcDbSpline
210
0
220
0
230
1
 70
8
 71
3
 72
8
 73
4
 74
0
 40
0
 40
0
 40
0
 40
0
 40
1
 40
1
 40
1
 40
1
 10
29.0969
 20
122.503
 30
0
 10
28.5345
 20
125.047
 30
0
 10
27.6064
 20
125.917
 30
0
 10
26.6139
 20
127.233
 30
0
  0
SPLINE
  5
B4E
330
A02
100
AcDbEntity
  8
View
100
AcDbSpline
210
0
220
0
230
1
 70
8
 71
3
 72
8
 73
4
 74
0
 40
0
 40
0
 40
0
 40
0
 40
1
 40
1
 40
1
 40
1
 10
25.2837
 20
130.013
 30
0
 10
25.1809
 20
130.501
 30
0
 10
25.1192
 20
131.059
 30
0
 10
25.1207
 20
131.696
 30
0
  0
SPLINE
  5
B4F
330
A02
100
AcDbEntity
  8
View
100
AcDbSpline
210
0
220
0
230
1
 70
8
 71
1
 72
4
 73
2
 74
0
 40
0
 40
0
 40
1
 40
1
 10
25.1207
 20
131.696
 30
0
 10
25.1207
 20
131.696
 30
0
  0
SPLINE
  5
B50
330
A02
100
AcDbEntity
  8
View
100
AcDbSpline
210
0
220
0
230
1
 70
8
 71
1
 72
4
 73
2
 74
0
 40
0
 40
0
 40
1
 40
1
 10
27.1207
 20
131.696
 30
0
 10
27.1207
 20
131.696
 30
0
  0
SPLINE
  5
B51
330
A02
100
AcDbEntity
  8
View
100
AcDbSpline
210
0
220
0
230
1
 70
8
 71
3
 72
8
 73
4
 74
0
 40
0
 40
0
 40
0
 40
0
 40
1
 40
1
 40
1
 40
1
 10
27.1207
 20
131.696
 30
0
 10
27.1028
 20
129.188
 30
0
 10
25.6197
 20
128.226
 30
0
 10
24.1621
 20
126.809
 30
0
  0
SPLINE
  5
B52
330
A02
100
AcDbEntity
  8
View
100
AcDbSpline
210
0
220
0
230
1
 70
8
 71
3
 72
8
 73
4
 74
0
 40
0
 40
0
 40
0
 40
0
 40
1
 40
1
 40
1
 40
1
 10
24.5512
 20
129.048
 30
0
 10
24.2962
 20
129.745
 30
0
 10
24.1207
 20
130.607
 30
0
 10
24.1207
 20
131.696
 30
0
  0
SPLINE
  5
B53
330
A02
100
AcDbEntity
  8
View
100
AcDbSpline
210
0
220
0
230
1
 70
8
 71
1
 72
4
 73
2
 74
0
 40
0
 40
0
 40
1
 40
1
 10
24.1207
 20
131.696
 30
0
 10
24.1207
 20
131.696
 30
0
  0
SPLINE
  5
B54
330
A02
100
AcDbEntity
  8
View
100
AcDbSpline
210
0
220
0
230
1
 70
8
 71
1
 72
4
 73
2
 74
0
 40
0
 40
0
 40
1
 40
1
 10
26.1207
 20
131.696
 30
0
 10
26.1207
 20
131.696
 30
0
  0
SPLINE
  5
B55
330
A02
100
AcDbEntity
  8
View
100
AcDbSpline
210
0
220
0
230
1
 70
8
 71
3
 72
8
 73
4
 74
0
 40
0
 40
0
 40
0
 40
0
 40
1
 40
1
 40
1
 40
1
 10
26.1207
 20
131.696
 30
0
 10
26.1102
 20
129.438
 30
0
 10
24.9281
 20
128.59
 30
0
 10
23.6468
 20
127.542
 30
0
  0
SPLINE
  5
B56
330
A02
100
AcDbEntity
  8
View
100
AcDbSpline
210
0
220
0
230
1
 70
8
 71
3
 72
8
 73
4
 74
0
 40
0
 40
0
 40
0
 40
0
 40
1
 40
1
 40
1
 40
1
 10
21.7257
 20
125.392
 30
0
 10
21.187
 20
124.359
 30
0
 10
20.9091
 20
122.889
 30
0
 10
21.3797
 20
120.786
 30
0
  0
SPLINE
  5
B57
330
A02
100
AcDbEntity
  8
View
100
AcDbSpline
210
0
220
0
230
1
 70
8
 71
3
 72
8
 73
4
 74
0
 40
0
 40
0
 40
0
 40
0
 40
1
 40
1
 40
1
 40
1
 10
23.8075
 20
128.391
 30
0
 10
23.4192
 20
129.207
 30
0
 10
23.1238
 20
130.256
 30
0
 10
23.1207
 20
131.696
 30
0
  0
SPLINE
  5
B58
330
A02
100
AcDbEntity
  8
View
100
AcDbSpline
210
0
220
0
230
1
 70
8
 71
1
 72
4
 73
2
 74
0
 40
0
 40
0
 40
1
 40
1
 10
23.1207
 20
131.696
 30
0
 10
23.1207
 20
131.696
 30
0
  0
SPLINE
  5
B59
330
A02
100
AcDbEntity
  8
View
100
AcDbSpline
210
0
220
0
230
1
 70
8
 71
3
 72
8
 73
4
 74
0
 40
0
 40
0
 40
0
 40
0
 40
1
 40
1
 40
1
 40
1
 10
29.0969
 20
140.889
 30
0
 10
29.6594
 20
143.433
 30
0
 10
29.1855
 20
144.623
 30
0
 10
28.8369
 20
146.232
 30
0
  0
SPLINE
  5
B5A
330
A02
100
AcDbEntity
  8
View
100
AcDbSpline
210
0
220
0
230
1
 70
8
 71
3
 72
8
 73
4
 74
0
 40
0
 40
0
 40
0
 40
0
 40
1
 40
1
 40
1
 40
1
 10
29.0969
 20
140.889
 30
0
 10
28.5173
 20
138.267
 30
0
 10
26.5129
 20
137.499
 30
0
 10
24.6427
 20
136.143
 30
0
  0
SPLINE
  5
B5B
330
A02
100
AcDbEntity
  8
View
100
AcDbSpline
210
0
220
0
230
1
 70
8
 71
3
 72
8
 73
4
 74
0
 40
0
 40
0
 40
0
 40
0
 40
1
 40
1
 40
1
 40
1
 10
22.4716
 20
133.595
 30
0
 10
22.255
 20
133.053
 30
0
 10
22.1237
 20
132.425
 30
0
 10
22.1207
 20
131.696
 30
0
  0
SPLINE
  5
B5C
330
A02
100
AcDbEntity
  8
View
100
AcDbSpline
210
0
220
0
230
1
 70
8
 71
3
 72
8
 73
4
 74
0
 40
0
 40
0
 40
0
 40
0
 40
1
 40
1
 40
1
 40
1
 10
28.1207
 20
131.696
 30
0
 10
28.0953
 20
134.316
 30
0
 10
27.3776
 20
135.362
 30
0
 10
26.6917
 20
136.87
 30
0
  0
SPLINE
  5
B5D
330
A02
100
AcDbEntity
  8
View
100
AcDbSpline
210
0
220
0
230
1
 70
8
 71
3
 72
8
 73
4
 74
0
 40
0
 40
0
 40
0
 40
0
 40
1
 40
1
 40
1
 40
1
 10
26.0002
 20
139.868
 30
0
 10
26.0059
 20
140.364
 30
0
 10
26.066
 20
140.917
 30
0
 10
26.203
 20
141.533
 30
0
  0
SPLINE
  5
B5E
330
A02
100
AcDbEntity
  8
View
100
AcDbSpline
210
0
220
0
230
1
 70
8
 71
3
 72
8
 73
4
 74
0
 40
0
 40
0
 40
0
 40
0
 40
1
 40
1
 40
1
 40
1
 10
24.0465
 20
143.934
 30
0
 10
23.7234
 20
143.456
 30
0
 10
23.4654
 20
142.878
 30
0
 10
23.309
 20
142.177
 30
0
  0
SPLINE
  5
B5F
330
A02
100
AcDbEntity
  8
View
100
AcDbSpline
210
0
220
0
230
1
 70
8
 71
3
 72
8
 73
4
 74
0
 40
0
 40
0
 40
0
 40
0
 40
1
 40
1
 40
1
 40
1
 10
23.309
 20
142.177
 30
0
 10
22.6308
 20
139.138
 30
0
 10
23.2837
 20
137.598
 30
0
 10
23.8713
 20
136.441
 30
0
  0
SPLINE
  5
B60
330
A02
100
AcDbEntity
  8
View
100
AcDbSpline
210
0
220
0
230
1
 70
8
 71
3
 72
8
 73
4
 74
0
 40
0
 40
0
 40
0
 40
0
 40
1
 40
1
 40
1
 40
1
 10
23.8713
 20
136.441
 30
0
 10
24.5274
 20
135.148
 30
0
 10
25.1149
 20
134.246
 30
0
 10
25.1207
 20
131.696
 30
0
  0
SPLINE
  5
B61
330
A02
100
AcDbEntity
  8
View
100
AcDbSpline
210
0
220
0
230
1
 70
8
 71
3
 72
8
 73
4
 74
0
 40
0
 40
0
 40
0
 40
0
 40
1
 40
1
 40
1
 40
1
 10
28.1323
 20
141.104
 30
0
 10
27.5927
 20
138.667
 30
0
 10
25.9428
 20
138.058
 30
0
 10
24.2089
 20
137
 30
0
  0
SPLINE
  5
B62
330
A02
100
AcDbEntity
  8
View
100
AcDbSpline
210
0
220
0
230
1
 70
8
 71
3
 72
8
 73
4
 74
0
 40
0
 40
0
 40
0
 40
0
 40
1
 40
1
 40
1
 40
1
 10
22.0355
 20
135.054
 30
0
 10
21.5057
 20
134.253
 30
0
 10
21.1298
 20
133.172
 30
0
 10
21.1207
 20
131.696
 30
0
  0
SPLINE
  5
B63
330
A02
100
AcDbEntity
  8
View
100
AcDbSpline
210
0
220
0
230
1
 70
8
 71
3
 72
8
 73
4
 74
0
 40
0
 40
0
 40
0
 40
0
 40
1
 40
1
 40
1
 40
1
 10
27.1207
 20
131.696
 30
0
 10
27.1044
 20
133.988
 30
0
 10
26.5808
 20
135.114
 30
0
 10
25.9806
 20
136.394
 30
0
  0
SPLINE
  5
B64
330
A02
100
AcDbEntity
  8
View
100
AcDbSpline
210
0
220
0
230
1
 70
8
 71
3
 72
8
 73
4
 74
0
 40
0
 40
0
 40
0
 40
0
 40
1
 40
1
 40
1
 40
1
 10
25.0807
 20
139.092
 30
0
 10
24.9856
 20
139.825
 30
0
 10
25.0042
 20
140.696
 30
0
 10
25.2383
 20
141.748
 30
0
  0
SPLINE
  5
B65
330
A02
100
AcDbEntity
  8
View
100
AcDbSpline
210
0
220
0
230
1
 70
8
 71
3
 72
8
 73
4
 74
0
 40
0
 40
0
 40
0
 40
0
 40
1
 40
1
 40
1
 40
1
 10
22.3443
 20
142.392
 30
0
 10
21.652
 20
139.293
 30
0
 10
22.301
 20
137.723
 30
0
 10
22.8845
 20
136.543
 30
0
  0
SPLINE
  5
B66
330
A02
100
AcDbEntity
  8
View
100
AcDbSpline
210
0
220
0
230
1
 70
8
 71
3
 72
8
 73
4
 74
0
 40
0
 40
0
 40
0
 40
0
 40
1
 40
1
 40
1
 40
1
 10
22.8845
 20
136.543
 30
0
 10
23.537
 20
135.224
 30
0
 10
24.1207
 20
134.305
 30
0
 10
24.1207
 20
131.696
 30
0
  0
SPLINE
  5
B67
330
A02
100
AcDbEntity
  8
View
100
AcDbSpline
210
0
220
0
230
1
 70
8
 71
3
 72
8
 73
4
 74
0
 40
0
 40
0
 40
0
 40
0
 40
1
 40
1
 40
1
 40
1
 10
27.1676
 20
141.318
 30
0
 10
26.6812
 20
139.126
 30
0
 10
25.3836
 20
138.581
 30
0
 10
23.87
 20
137.828
 30
0
  0
SPLINE
  5
B68
330
A02
100
AcDbEntity
  8
View
100
AcDbSpline
210
0
220
0
230
1
 70
8
 71
3
 72
8
 73
4
 74
0
 40
0
 40
0
 40
0
 40
0
 40
1
 40
1
 40
1
 40
1
 10
21.5137
 20
136.158
 30
0
 10
20.7547
 20
135.27
 30
0
 10
20.1384
 20
133.887
 30
0
 10
20.1207
 20
131.696
 30
0
  0
SPLINE
  5
B69
330
A02
100
AcDbEntity
  8
View
100
AcDbSpline
210
0
220
0
230
1
 70
8
 71
3
 72
8
 73
4
 74
0
 40
0
 40
0
 40
0
 40
0
 40
1
 40
1
 40
1
 40
1
 10
26.1207
 20
131.696
 30
0
 10
26.1116
 20
133.667
 30
0
 10
25.7457
 20
134.797
 30
0
 10
25.2603
 20
135.909
 30
0
  0
SPLINE
  5
B6A
330
A02
100
AcDbEntity
  8
View
100
AcDbSpline
210
0
220
0
230
1
 70
8
 71
3
 72
8
 73
4
 74
0
 40
0
 40
0
 40
0
 40
0
 40
1
 40
1
 40
1
 40
1
 10
24.2144
 20
138.617
 30
0
 10
24.0171
 20
139.497
 30
0
 10
23.9642
 20
140.574
 30
0
 10
24.2737
 20
141.962
 30
0
  0
SPLINE
  5
B6B
330
A02
100
AcDbEntity
  8
View
100
AcDbSpline
210
0
220
0
230
1
 70
8
 71
3
 72
8
 73
4
 74
0
 40
0
 40
0
 40
0
 40
0
 40
1
 40
1
 40
1
 40
1
 10
21.3797
 20
142.606
 30
0
 10
20.6733
 20
139.449
 30
0
 10
21.3182
 20
137.848
 30
0
 10
21.8977
 20
136.646
 30
0
  0
SPLINE
  5
B6C
330
A02
100
AcDbEntity
  8
View
100
AcDbSpline
210
0
220
0
230
1
 70
8
 71
3
 72
8
 73
4
 74
0
 40
0
 40
0
 40
0
 40
0
 40
1
 40
1
 40
1
 40
1
 10
21.8977
 20
136.646
 30
0
 10
22.5466
 20
135.3
 30
0
 10
23.1264
 20
134.364
 30
0
 10
23.1207
 20
131.696
 30
0
  0
SPLINE
  5
B6D
330
A02
100
AcDbEntity
  8
View
100
AcDbSpline
210
0
220
0
230
1
 70
8
 71
3
 72
8
 73
4
 74
0
 40
0
 40
0
 40
0
 40
0
 40
1
 40
1
 40
1
 40
1
 10
32.0317
 20
149.693
 30
0
 10
33.1059
 20
152.085
 30
0
 10
32.875
 20
153.372
 30
0
 10
32.8442
 20
155.021
 30
0
  0
SPLINE
  5
B6E
330
A02
100
AcDbEntity
  8
View
100
AcDbSpline
210
0
220
0
230
1
 70
8
 71
3
 72
8
 73
4
 74
0
 40
0
 40
0
 40
0
 40
0
 40
1
 40
1
 40
1
 40
1
 10
32.0317
 20
149.693
 30
0
 10
30.9257
 20
147.23
 30
0
 10
28.7318
 20
146.852
 30
0
 10
26.6874
 20
145.949
 30
0
  0
SPLINE
  5
B6F
330
A02
100
AcDbEntity
  8
View
100
AcDbSpline
210
0
220
0
230
1
 70
8
 71
3
 72
8
 73
4
 74
0
 40
0
 40
0
 40
0
 40
0
 40
1
 40
1
 40
1
 40
1
 10
28.7838
 20
149.31
 30
0
 10
28.8908
 20
149.796
 30
0
 10
29.062
 20
150.326
 30
0
 10
29.3206
 20
150.904
 30
0
  0
SPLINE
  5
B70
330
A02
100
AcDbEntity
  8
View
100
AcDbSpline
210
0
220
0
230
1
 70
8
 71
3
 72
8
 73
4
 74
0
 40
0
 40
0
 40
0
 40
0
 40
1
 40
1
 40
1
 40
1
 10
26.6095
 20
152.115
 30
0
 10
25.3444
 20
149.276
 30
0
 10
25.6654
 20
147.651
 30
0
 10
25.9983
 20
146.399
 30
0
  0
SPLINE
  5
B71
330
A02
100
AcDbEntity
  8
View
100
AcDbSpline
210
0
220
0
230
1
 70
8
 71
3
 72
8
 73
4
 74
0
 40
0
 40
0
 40
0
 40
0
 40
1
 40
1
 40
1
 40
1
 10
25.9983
 20
146.399
 30
0
 10
26.3675
 20
145.01
 30
0
 10
26.7502
 20
143.996
 30
0
 10
26.203
 20
141.533
 30
0
  0
SPLINE
  5
B72
330
A02
100
AcDbEntity
  8
View
100
AcDbSpline
210
0
220
0
230
1
 70
8
 71
3
 72
8
 73
4
 74
0
 40
0
 40
0
 40
0
 40
0
 40
1
 40
1
 40
1
 40
1
 10
31.128
 20
150.097
 30
0
 10
30.1015
 20
147.807
 30
0
 10
28.3461
 20
147.542
 30
0
 10
26.443
 20
146.873
 30
0
  0
SPLINE
  5
B73
330
A02
100
AcDbEntity
  8
View
100
AcDbSpline
210
0
220
0
230
1
 70
8
 71
3
 72
8
 73
4
 74
0
 40
0
 40
0
 40
0
 40
0
 40
1
 40
1
 40
1
 40
1
 10
23.9265
 20
145.437
 30
0
 10
23.2463
 20
144.772
 30
0
 10
22.6611
 20
143.809
 30
0
 10
22.3444
 20
142.392
 30
0
  0
SPLINE
  5
B74
330
A02
100
AcDbEntity
  8
View
100
AcDbSpline
210
0
220
0
230
1
 70
8
 71
3
 72
8
 73
4
 74
0
 40
0
 40
0
 40
0
 40
0
 40
1
 40
1
 40
1
 40
1
 10
28.1323
 20
141.104
 30
0
 10
28.6246
 20
143.327
 30
0
 10
28.357
 20
144.545
 30
0
 10
28.0431
 20
145.915
 30
0
  0
SPLINE
  5
B75
330
A02
100
AcDbEntity
  8
View
100
AcDbSpline
210
0
220
0
230
1
 70
8
 71
3
 72
8
 73
4
 74
0
 40
0
 40
0
 40
0
 40
0
 40
1
 40
1
 40
1
 40
1
 10
27.7248
 20
148.736
 30
0
 10
27.7821
 20
149.474
 30
0
 10
27.9766
 20
150.322
 30
0
 10
28.4169
 20
151.308
 30
0
  0
SPLINE
  5
B76
330
A02
100
AcDbEntity
  8
View
100
AcDbSpline
210
0
220
0
230
1
 70
8
 71
3
 72
8
 73
4
 74
0
 40
0
 40
0
 40
0
 40
0
 40
1
 40
1
 40
1
 40
1
 10
25.7058
 20
152.519
 30
0
 10
24.4192
 20
149.629
 30
0
 10
24.7324
 20
147.975
 30
0
 10
25.0586
 20
146.704
 30
0
  0
SPLINE
  5
B77
330
A02
100
AcDbEntity
  8
View
100
AcDbSpline
210
0
220
0
230
1
 70
8
 71
3
 72
8
 73
4
 74
0
 40
0
 40
0
 40
0
 40
0
 40
1
 40
1
 40
1
 40
1
 10
25.0586
 20
146.704
 30
0
 10
25.4211
 20
145.292
 30
0
 10
25.798
 20
144.263
 30
0
 10
25.2383
 20
141.748
 30
0
  0
SPLINE
  5
B78
330
A02
100
AcDbEntity
  8
View
100
AcDbSpline
210
0
220
0
230
1
 70
8
 71
3
 72
8
 73
4
 74
0
 40
0
 40
0
 40
0
 40
0
 40
1
 40
1
 40
1
 40
1
 10
30.2243
 20
150.5
 30
0
 10
29.3043
 20
148.446
 30
0
 10
27.8777
 20
148.163
 30
0
 10
26.2831
 20
147.75
 30
0
  0
SPLINE
  5
B79
330
A02
100
AcDbEntity
  8
View
100
AcDbSpline
210
0
220
0
230
1
 70
8
 71
3
 72
8
 73
4
 74
0
 40
0
 40
0
 40
0
 40
0
 40
1
 40
1
 40
1
 40
1
 10
23.6459
 20
146.616
 30
0
 10
22.7249
 20
145.913
 30
0
 10
21.8498
 20
144.708
 30
0
 10
21.3797
 20
142.606
 30
0
  0
SPLINE
  5
B7A
330
A02
100
AcDbEntity
  8
View
100
AcDbSpline
210
0
220
0
230
1
 70
8
 71
3
 72
8
 73
4
 74
0
 40
0
 40
0
 40
0
 40
0
 40
1
 40
1
 40
1
 40
1
 10
27.1676
 20
141.318
 30
0
 10
27.591
 20
143.227
 30
0
 10
27.4772
 20
144.409
 30
0
 10
27.2394
 20
145.592
 30
0
  0
SPLINE
  5
B7B
330
A02
100
AcDbEntity
  8
View
100
AcDbSpline
210
0
220
0
230
1
 70
8
 71
3
 72
8
 73
4
 74
0
 40
0
 40
0
 40
0
 40
0
 40
1
 40
1
 40
1
 40
1
 10
26.781
 20
148.45
 30
0
 10
26.7678
 20
149.35
 30
0
 10
26.9335
 20
150.412
 30
0
 10
27.5132
 20
151.711
 30
0
  0
SPLINE
  5
B7C
330
A02
100
AcDbEntity
  8
View
100
AcDbSpline
210
0
220
0
230
1
 70
8
 71
3
 72
8
 73
4
 74
0
 40
0
 40
0
 40
0
 40
0
 40
1
 40
1
 40
1
 40
1
 10
24.8021
 20
152.922
 30
0
 10
23.494
 20
149.981
 30
0
 10
23.7993
 20
148.3
 30
0
 10
24.119
 20
147.009
 30
0
  0
SPLINE
  5
B7D
330
A02
100
AcDbEntity
  8
View
100
AcDbSpline
210
0
220
0
230
1
 70
8
 71
3
 72
8
 73
4
 74
0
 40
0
 40
0
 40
0
 40
0
 40
1
 40
1
 40
1
 40
1
 10
24.119
 20
147.009
 30
0
 10
24.4746
 20
145.573
 30
0
 10
24.8459
 20
144.53
 30
0
 10
24.2737
 20
141.962
 30
0
  0
SPLINE
  5
B7E
330
A02
100
AcDbEntity
  8
View
100
AcDbSpline
210
0
220
0
230
1
 70
8
 71
3
 72
8
 73
4
 74
0
 40
0
 40
0
 40
0
 40
0
 40
1
 40
1
 40
1
 40
1
 10
36.6633
 20
157.846
 30
0
 10
35.1048
 20
155.609
 30
0
 10
32.8594
 20
155.65
 30
0
 10
30.6698
 20
155.155
 30
0
  0
SPLINE
  5
B7F
330
A02
100
AcDbEntity
  8
View
100
AcDbSpline
210
0
220
0
230
1
 70
8
 71
3
 72
8
 73
4
 74
0
 40
0
 40
0
 40
0
 40
0
 40
1
 40
1
 40
1
 40
1
 10
27.6787
 20
153.69
 30
0
 10
27.2677
 20
153.285
 30
0
 10
26.9014
 20
152.77
 30
0
 10
26.6095
 20
152.115
 30
0
  0
SPLINE
  5
B80
330
A02
100
AcDbEntity
  8
View
100
AcDbSpline
210
0
220
0
230
1
 70
8
 71
3
 72
8
 73
4
 74
0
 40
0
 40
0
 40
0
 40
0
 40
1
 40
1
 40
1
 40
1
 10
33.382
 20
158.073
 30
0
 10
33.5795
 20
158.532
 30
0
 10
33.8484
 20
159.024
 30
0
 10
34.2119
 20
159.547
 30
0
  0
SPLINE
  5
B81
330
A02
100
AcDbEntity
  8
View
100
AcDbSpline
210
0
220
0
230
1
 70
8
 71
3
 72
8
 73
4
 74
0
 40
0
 40
0
 40
0
 40
0
 40
1
 40
1
 40
1
 40
1
 10
31.7606
 20
161.249
 30
0
 10
29.9853
 20
158.686
 30
0
 10
29.9912
 20
157.032
 30
0
 10
30.0779
 20
155.731
 30
0
  0
SPLINE
  5
B82
330
A02
100
AcDbEntity
  8
View
100
AcDbSpline
210
0
220
0
230
1
 70
8
 71
3
 72
8
 73
4
 74
0
 40
0
 40
0
 40
0
 40
0
 40
1
 40
1
 40
1
 40
1
 10
30.0779
 20
155.731
 30
0
 10
30.1735
 20
154.299
 30
0
 10
30.3524
 20
153.211
 30
0
 10
29.3206
 20
150.904
 30
0
  0
SPLINE
  5
B83
330
A02
100
AcDbEntity
  8
View
100
AcDbSpline
210
0
220
0
230
1
 70
8
 71
3
 72
8
 73
4
 74
0
 40
0
 40
0
 40
0
 40
0
 40
1
 40
1
 40
1
 40
1
 10
35.8462
 20
158.413
 30
0
 10
34.4011
 20
156.337
 30
0
 10
32.6086
 20
156.405
 30
0
 10
30.6076
 20
156.113
 30
0
  0
SPLINE
  5
B84
330
A02
100
AcDbEntity
  8
View
100
AcDbSpline
210
0
220
0
230
1
 70
8
 71
3
 72
8
 73
4
 74
0
 40
0
 40
0
 40
0
 40
0
 40
1
 40
1
 40
1
 40
1
 10
27.8528
 20
155.189
 30
0
 10
27.0548
 20
154.67
 30
0
 10
26.2949
 20
153.842
 30
0
 10
25.7058
 20
152.519
 30
0
  0
SPLINE
  5
B85
330
A02
100
AcDbEntity
  8
View
100
AcDbSpline
210
0
220
0
230
1
 70
8
 71
3
 72
8
 73
4
 74
0
 40
0
 40
0
 40
0
 40
0
 40
1
 40
1
 40
1
 40
1
 10
31.128
 20
150.097
 30
0
 10
32.0648
 20
152.186
 30
0
 10
32.042
 20
153.451
 30
0
 10
31.9995
 20
154.86
 30
0
  0
SPLINE
  5
B86
330
A02
100
AcDbEntity
  8
View
100
AcDbSpline
210
0
220
0
230
1
 70
8
 71
3
 72
8
 73
4
 74
0
 40
0
 40
0
 40
0
 40
0
 40
1
 40
1
 40
1
 40
1
 10
32.2279
 20
157.706
 30
0
 10
32.4245
 20
158.423
 30
0
 10
32.7762
 20
159.223
 30
0
 10
33.3948
 20
160.114
 30
0
  0
SPLINE
  5
B87
330
A02
100
AcDbEntity
  8
View
100
AcDbSpline
210
0
220
0
230
1
 70
8
 71
3
 72
8
 73
4
 74
0
 40
0
 40
0
 40
0
 40
0
 40
1
 40
1
 40
1
 40
1
 10
30.9434
 20
161.816
 30
0
 10
29.1393
 20
159.21
 30
0
 10
29.1336
 20
157.531
 30
0
 10
29.2111
 20
156.214
 30
0
  0
SPLINE
  5
B88
330
A02
100
AcDbEntity
  8
View
100
AcDbSpline
210
0
220
0
230
1
 70
8
 71
3
 72
8
 73
4
 74
0
 40
0
 40
0
 40
0
 40
0
 40
1
 40
1
 40
1
 40
1
 10
29.2111
 20
156.214
 30
0
 10
29.2966
 20
154.761
 30
0
 10
29.468
 20
153.661
 30
0
 10
28.4169
 20
151.308
 30
0
  0
SPLINE
  5
B89
330
A02
100
AcDbEntity
  8
View
100
AcDbSpline
210
0
220
0
230
1
 70
8
 71
3
 72
8
 73
4
 74
0
 40
0
 40
0
 40
0
 40
0
 40
1
 40
1
 40
1
 40
1
 10
35.029
 20
158.98
 30
0
 10
33.7347
 20
157.119
 30
0
 10
32.2688
 20
157.109
 30
0
 10
30.618
 20
157.008
 30
0
  0
SPLINE
  5
B8A
330
A02
100
AcDbEntity
  8
View
100
AcDbSpline
210
0
220
0
230
1
 70
8
 71
3
 72
8
 73
4
 74
0
 40
0
 40
0
 40
0
 40
0
 40
1
 40
1
 40
1
 40
1
 10
27.8034
 20
156.402
 30
0
 10
26.761
 20
155.891
 30
0
 10
25.6734
 20
154.882
 30
0
 10
24.8021
 20
152.922
 30
0
  0
SPLINE
  5
B8B
330
A02
100
AcDbEntity
  8
View
100
AcDbSpline
210
0
220
0
230
1
 70
8
 71
3
 72
8
 73
4
 74
0
 40
0
 40
0
 40
0
 40
0
 40
1
 40
1
 40
1
 40
1
 10
30.2243
 20
150.5
 30
0
 10
31.0266
 20
152.292
 30
0
 10
31.1481
 20
153.486
 30
0
 10
31.1444
 20
154.696
 30
0
  0
SPLINE
  5
B8C
330
A02
100
AcDbEntity
  8
View
100
AcDbSpline
210
0
220
0
230
1
 70
8
 71
3
 72
8
 73
4
 74
0
 40
0
 40
0
 40
0
 40
0
 40
1
 40
1
 40
1
 40
1
 10
31.2423
 20
157.603
 30
0
 10
31.4003
 20
158.492
 30
0
 10
31.7638
 20
159.508
 30
0
 10
32.5777
 20
160.681
 30
0
  0
SPLINE
  5
B8D
330
A02
100
AcDbEntity
  8
View
100
AcDbSpline
210
0
220
0
230
1
 70
8
 71
3
 72
8
 73
4
 74
0
 40
0
 40
0
 40
0
 40
0
 40
1
 40
1
 40
1
 40
1
 10
30.1263
 20
162.383
 30
0
 10
28.2934
 20
159.733
 30
0
 10
28.276
 20
158.03
 30
0
 10
28.3443
 20
156.696
 30
0
  0
SPLINE
  5
B8E
330
A02
100
AcDbEntity
  8
View
100
AcDbSpline
210
0
220
0
230
1
 70
8
 71
3
 72
8
 73
4
 74
0
 40
0
 40
0
 40
0
 40
0
 40
1
 40
1
 40
1
 40
1
 10
28.3443
 20
156.696
 30
0
 10
28.4197
 20
155.222
 30
0
 10
28.5835
 20
154.11
 30
0
 10
27.5132
 20
151.711
 30
0
  0
SPLINE
  5
B8F
330
A02
100
AcDbEntity
  8
View
100
AcDbSpline
210
0
220
0
230
1
 70
8
 71
3
 72
8
 73
4
 74
0
 40
0
 40
0
 40
0
 40
0
 40
1
 40
1
 40
1
 40
1
 10
42.7303
 20
165.087
 30
0
 10
40.7947
 20
163.151
 30
0
 10
38.5812
 20
163.591
 30
0
 10
36.3285
 20
163.5
 30
0
  0
SPLINE
  5
B90
330
A02
100
AcDbEntity
  8
View
100
AcDbSpline
210
0
220
0
230
1
 70
8
 71
3
 72
8
 73
4
 74
0
 40
0
 40
0
 40
0
 40
0
 40
1
 40
1
 40
1
 40
1
 10
33.1067
 20
162.603
 30
0
 10
32.6264
 20
162.279
 30
0
 10
32.1701
 20
161.84
 30
0
 10
31.7606
 20
161.249
 30
0
  0
SPLINE
  5
B91
330
A02
100
AcDbEntity
  8
View
100
AcDbSpline
210
0
220
0
230
1
 70
8
 71
3
 72
8
 73
4
 74
0
 40
0
 40
0
 40
0
 40
0
 40
1
 40
1
 40
1
 40
1
 10
36.6633
 20
157.846
 30
0
 10
38.174
 20
160.014
 30
0
 10
38.1839
 20
161.344
 30
0
 10
38.4519
 20
162.974
 30
0
  0
SPLINE
  5
B92
330
A02
100
AcDbEntity
  8
View
100
AcDbSpline
210
0
220
0
230
1
 70
8
 71
3
 72
8
 73
4
 74
0
 40
0
 40
0
 40
0
 40
0
 40
1
 40
1
 40
1
 40
1
 10
39.5332
 20
165.894
 30
0
 10
39.8105
 20
166.312
 30
0
 10
40.1636
 20
166.75
 30
0
 10
40.6155
 20
167.201
 30
0
  0
SPLINE
  5
B93
330
A02
100
AcDbEntity
  8
View
100
AcDbSpline
210
0
220
0
230
1
 70
8
 71
3
 72
8
 73
4
 74
0
 40
0
 40
0
 40
0
 40
0
 40
1
 40
1
 40
1
 40
1
 10
38.5007
 20
169.316
 30
0
 10
36.2923
 20
167.108
 30
0
 10
35.9996
 20
165.479
 30
0
 10
35.8488
 20
164.177
 30
0
  0
SPLINE
  5
B94
330
A02
100
AcDbEntity
  8
View
100
AcDbSpline
210
0
220
0
230
1
 70
8
 71
3
 72
8
 73
4
 74
0
 40
0
 40
0
 40
0
 40
0
 40
1
 40
1
 40
1
 40
1
 10
35.8488
 20
164.177
 30
0
 10
35.6835
 20
162.75
 30
0
 10
35.6603
 20
161.632
 30
0
 10
34.2119
 20
159.547
 30
0
  0
SPLINE
  5
B95
330
A02
100
AcDbEntity
  8
View
100
AcDbSpline
210
0
220
0
230
1
 70
8
 71
3
 72
8
 73
4
 74
0
 40
0
 40
0
 40
0
 40
0
 40
1
 40
1
 40
1
 40
1
 10
42.0253
 20
165.792
 30
0
 10
40.2295
 20
163.996
 30
0
 10
38.4694
 20
164.383
 30
0
 10
36.4411
 20
164.458
 30
0
  0
SPLINE
  5
B96
330
A02
100
AcDbEntity
  8
View
100
AcDbSpline
210
0
220
0
230
1
 70
8
 71
3
 72
8
 73
4
 74
0
 40
0
 40
0
 40
0
 40
0
 40
1
 40
1
 40
1
 40
1
 10
33.553
 20
164.049
 30
0
 10
32.6701
 20
163.684
 30
0
 10
31.7694
 20
163.009
 30
0
 10
30.9434
 20
161.816
 30
0
  0
SPLINE
  5
B97
330
A02
100
AcDbEntity
  8
View
100
AcDbSpline
210
0
220
0
230
1
 70
8
 71
3
 72
8
 73
4
 74
0
 40
0
 40
0
 40
0
 40
0
 40
1
 40
1
 40
1
 40
1
 10
35.8462
 20
158.413
 30
0
 10
37.1634
 20
160.306
 30
0
 10
37.3744
 20
161.571
 30
0
 10
37.5881
 20
162.967
 30
0
  0
SPLINE
  5
B98
330
A02
100
AcDbEntity
  8
View
100
AcDbSpline
210
0
220
0
230
1
 70
8
 71
3
 72
8
 73
4
 74
0
 40
0
 40
0
 40
0
 40
0
 40
1
 40
1
 40
1
 40
1
 10
38.3283
 20
165.738
 30
0
 10
38.6513
 20
166.411
 30
0
 10
39.1416
 20
167.137
 30
0
 10
39.9105
 20
167.906
 30
0
  0
SPLINE
  5
B99
330
A02
100
AcDbEntity
  8
View
100
AcDbSpline
210
0
220
0
230
1
 70
8
 71
3
 72
8
 73
4
 74
0
 40
0
 40
0
 40
0
 40
0
 40
1
 40
1
 40
1
 40
1
 10
37.7958
 20
170.021
 30
0
 10
35.5511
 20
167.777
 30
0
 10
35.243
 20
166.126
 30
0
 10
35.0804
 20
164.811
 30
0
  0
SPLINE
  5
B9A
330
A02
100
AcDbEntity
  8
View
100
AcDbSpline
210
0
220
0
230
1
 70
8
 71
3
 72
8
 73
4
 74
0
 40
0
 40
0
 40
0
 40
0
 40
1
 40
1
 40
1
 40
1
 10
35.0804
 20
164.811
 30
0
 10
34.9018
 20
163.366
 30
0
 10
34.8692
 20
162.239
 30
0
 10
33.3948
 20
160.114
 30
0
  0
SPLINE
  5
B9B
330
A02
100
AcDbEntity
  8
View
100
AcDbSpline
210
0
220
0
230
1
 70
8
 71
3
 72
8
 73
4
 74
0
 40
0
 40
0
 40
0
 40
0
 40
1
 40
1
 40
1
 40
1
 10
41.3204
 20
166.496
 30
0
 10
39.709
 20
164.885
 30
0
 10
38.2924
 20
165.136
 30
0
 10
36.6133
 20
165.34
 30
0
  0
SPLINE
  5
B9C
330
A02
100
AcDbEntity
  8
View
100
AcDbSpline
210
0
220
0
230
1
 70
8
 71
3
 72
8
 73
4
 74
0
 40
0
 40
0
 40
0
 40
0
 40
1
 40
1
 40
1
 40
1
 10
33.7247
 20
165.254
 30
0
 10
32.602
 20
164.941
 30
0
 10
31.3472
 20
164.148
 30
0
 10
30.1263
 20
162.383
 30
0
  0
SPLINE
  5
B9D
330
A02
100
AcDbEntity
  8
View
100
AcDbSpline
210
0
220
0
230
1
 70
8
 71
3
 72
8
 73
4
 74
0
 40
0
 40
0
 40
0
 40
0
 40
1
 40
1
 40
1
 40
1
 10
35.029
 20
158.98
 30
0
 10
36.1569
 20
160.602
 30
0
 10
36.4971
 20
161.766
 30
0
 10
36.7137
 20
162.96
 30
0
  0
SPLINE
  5
B9E
330
A02
100
AcDbEntity
  8
View
100
AcDbSpline
210
0
220
0
230
1
 70
8
 71
3
 72
8
 73
4
 74
0
 40
0
 40
0
 40
0
 40
0
 40
1
 40
1
 40
1
 40
1
 10
37.3368
 20
165.814
 30
0
 10
37.653
 20
166.664
 30
0
 10
38.1936
 20
167.599
 30
0
 10
39.2056
 20
168.611
 30
0
  0
SPLINE
  5
B9F
330
A02
100
AcDbEntity
  8
View
100
AcDbSpline
210
0
220
0
230
1
 70
8
 71
3
 72
8
 73
4
 74
0
 40
0
 40
0
 40
0
 40
0
 40
1
 40
1
 40
1
 40
1
 10
41.7606
 20
172.994
 30
0
 10
41.313
 20
171.591
 30
0
 10
41.0695
 20
170.475
 30
0
 10
39.2056
 20
168.611
 30
0
  0
SPLINE
  5
BA0
330
A02
100
AcDbEntity
  8
View
100
AcDbSpline
210
0
220
0
230
1
 70
8
 71
3
 72
8
 73
4
 74
0
 40
0
 40
0
 40
0
 40
0
 40
1
 40
1
 40
1
 40
1
 10
45.4341
 20
177.691
 30
0
 10
42.7834
 20
175.857
 30
0
 10
42.1677
 20
174.27
 30
0
 10
41.7606
 20
172.994
 30
0
  0
SPLINE
  5
BA1
330
A02
100
AcDbEntity
  8
View
100
AcDbSpline
210
0
220
0
230
1
 70
8
 71
3
 72
8
 73
4
 74
0
 40
0
 40
0
 40
0
 40
0
 40
1
 40
1
 40
1
 40
1
 10
49.8126
 20
179.11
 30
0
 10
48.653
 20
179.211
 30
0
 10
47.1988
 20
178.911
 30
0
 10
45.4341
 20
177.691
 30
0
  0
SPLINE
  5
BA2
330
A02
100
AcDbEntity
  8
View
100
AcDbSpline
210
0
220
0
230
1
 70
8
 71
3
 72
8
 73
4
 74
0
 40
0
 40
0
 40
0
 40
0
 40
1
 40
1
 40
1
 40
1
 10
37.0908
 20
170.726
 30
0
 10
34.81
 20
168.445
 30
0
 10
34.4863
 20
166.774
 30
0
 10
34.312
 20
165.445
 30
0
  0
SPLINE
  5
BA3
330
A02
100
AcDbEntity
  8
View
100
AcDbSpline
210
0
220
0
230
1
 70
8
 71
3
 72
8
 73
4
 74
0
 40
0
 40
0
 40
0
 40
0
 40
1
 40
1
 40
1
 40
1
 10
34.312
 20
165.445
 30
0
 10
34.1202
 20
163.983
 30
0
 10
34.0781
 20
162.845
 30
0
 10
32.5777
 20
160.682
 30
0
  0
SPLINE
  5
BA4
330
A02
100
AcDbEntity
  8
View
100
AcDbSpline
210
0
220
0
230
1
 70
8
 71
3
 72
8
 73
4
 74
0
 40
0
 40
0
 40
0
 40
0
 40
1
 40
1
 40
1
 40
1
 10
49.971
 20
171.154
 30
0
 10
52.1363
 20
172.662
 30
0
 10
52.6059
 20
173.903
 30
0
 10
53.4228
 20
175.328
 30
0
  0
SPLINE
  5
BA5
330
A02
100
AcDbEntity
  8
View
100
AcDbSpline
210
0
220
0
230
1
 70
8
 71
3
 72
8
 73
4
 74
0
 40
0
 40
0
 40
0
 40
0
 40
1
 40
1
 40
1
 40
1
 10
49.971
 20
171.154
 30
0
 10
47.7276
 20
169.591
 30
0
 10
45.6896
 20
170.407
 30
0
 10
43.4018
 20
170.723
 30
0
  0
SPLINE
  5
BA6
330
A02
100
AcDbEntity
  8
View
100
AcDbSpline
210
0
220
0
230
1
 70
8
 71
3
 72
8
 73
4
 74
0
 40
0
 40
0
 40
0
 40
0
 40
1
 40
1
 40
1
 40
1
 10
40.0688
 20
170.41
 30
0
 10
39.5379
 20
170.177
 30
0
 10
39.0099
 20
169.826
 30
0
 10
38.5007
 20
169.316
 30
0
  0
SPLINE
  5
BA7
330
A02
100
AcDbEntity
  8
View
100
AcDbSpline
210
0
220
0
230
1
 70
8
 71
3
 72
8
 73
4
 74
0
 40
0
 40
0
 40
0
 40
0
 40
1
 40
1
 40
1
 40
1
 10
42.7303
 20
165.087
 30
0
 10
44.6038
 20
166.96
 30
0
 10
44.8488
 20
168.275
 30
0
 10
45.3987
 20
169.83
 30
0
  0
SPLINE
  5
BA8
330
A02
100
AcDbEntity
  8
View
100
AcDbSpline
210
0
220
0
230
1
 70
8
 71
3
 72
8
 73
4
 74
0
 40
0
 40
0
 40
0
 40
0
 40
1
 40
1
 40
1
 40
1
 10
46.976
 20
172.512
 30
0
 10
47.3223
 20
172.874
 30
0
 10
47.7463
 20
173.241
 30
0
 10
48.2697
 20
173.605
 30
0
  0
SPLINE
  5
BA9
330
A02
100
AcDbEntity
  8
View
100
AcDbSpline
210
0
220
0
230
1
 70
8
 71
3
 72
8
 73
4
 74
0
 40
0
 40
0
 40
0
 40
0
 40
1
 40
1
 40
1
 40
1
 10
51.418
 20
177.362
 30
0
 10
50.7639
 20
176.089
 30
0
 10
50.3529
 20
175.052
 30
0
 10
48.2697
 20
173.605
 30
0
  0
SPLINE
  5
BAA
330
A02
100
AcDbEntity
  8
View
100
AcDbSpline
210
0
220
0
230
1
 70
8
 71
3
 72
8
 73
4
 74
0
 40
0
 40
0
 40
0
 40
0
 40
1
 40
1
 40
1
 40
1
 10
55.7019
 20
181.207
 30
0
 10
52.8628
 20
179.942
 30
0
 10
52.0129
 20
178.519
 30
0
 10
51.418
 20
177.362
 30
0
  0
SPLINE
  5
BAB
330
A02
100
AcDbEntity
  8
View
100
AcDbSpline
210
0
220
0
230
1
 70
8
 71
3
 72
8
 73
4
 74
0
 40
0
 40
0
 40
0
 40
0
 40
1
 40
1
 40
1
 40
1
 10
57.5496
 20
181.664
 30
0
 10
56.9734
 20
181.637
 30
0
 10
56.3569
 20
181.499
 30
0
 10
55.7019
 20
181.207
 30
0
  0
SPLINE
  5
BAC
330
A02
100
AcDbEntity
  8
View
100
AcDbSpline
210
0
220
0
230
1
 70
8
 71
3
 72
8
 73
4
 74
0
 40
0
 40
0
 40
0
 40
0
 40
1
 40
1
 40
1
 40
1
 10
48.3037
 20
176.851
 30
0
 10
47.7408
 20
176.717
 30
0
 10
47.1594
 20
176.466
 30
0
 10
46.5683
 20
176.056
 30
0
  0
SPLINE
  5
BAD
330
A02
100
AcDbEntity
  8
View
100
AcDbSpline
210
0
220
0
230
1
 70
8
 71
3
 72
8
 73
4
 74
0
 40
0
 40
0
 40
0
 40
0
 40
1
 40
1
 40
1
 40
1
 10
46.5683
 20
176.056
 30
0
 10
44.0048
 20
174.28
 30
0
 10
43.4278
 20
172.728
 30
0
 10
43.0494
 20
171.474
 30
0
  0
SPLINE
  5
BAE
330
A02
100
AcDbEntity
  8
View
100
AcDbSpline
210
0
220
0
230
1
 70
8
 71
3
 72
8
 73
4
 74
0
 40
0
 40
0
 40
0
 40
0
 40
1
 40
1
 40
1
 40
1
 10
43.0494
 20
171.474
 30
0
 10
42.6347
 20
170.101
 30
0
 10
42.4138
 20
169
 30
0
 10
40.6155
 20
167.201
 30
0
  0
SPLINE
  5
BAF
330
A02
100
AcDbEntity
  8
View
100
AcDbSpline
210
0
220
0
230
1
 70
8
 71
3
 72
8
 73
4
 74
0
 40
0
 40
0
 40
0
 40
0
 40
1
 40
1
 40
1
 40
1
 10
49.4039
 20
171.971
 30
0
 10
51.2945
 20
173.287
 30
0
 10
51.9306
 20
174.397
 30
0
 10
52.6163
 20
175.624
 30
0
  0
SPLINE
  5
BB0
330
A02
100
AcDbEntity
  8
View
100
AcDbSpline
210
0
220
0
230
1
 70
8
 71
3
 72
8
 73
4
 74
0
 40
0
 40
0
 40
0
 40
0
 40
1
 40
1
 40
1
 40
1
 10
49.4039
 20
171.971
 30
0
 10
47.3251
 20
170.524
 30
0
 10
45.6668
 20
171.214
 30
0
 10
43.6819
 20
171.646
 30
0
  0
SPLINE
  5
BB1
330
A02
100
AcDbEntity
  8
View
100
AcDbSpline
210
0
220
0
230
1
 70
8
 71
3
 72
8
 73
4
 74
0
 40
0
 40
0
 40
0
 40
0
 40
1
 40
1
 40
1
 40
1
 10
40.7654
 20
171.755
 30
0
 10
39.8306
 20
171.552
 30
0
 10
38.823
 20
171.048
 30
0
 10
37.7958
 20
170.021
 30
0
  0
SPLINE
  5
BB2
330
A02
100
AcDbEntity
  8
View
100
AcDbSpline
210
0
220
0
230
1
 70
8
 71
3
 72
8
 73
4
 74
0
 40
0
 40
0
 40
0
 40
0
 40
1
 40
1
 40
1
 40
1
 10
42.0253
 20
165.792
 30
0
 10
43.6601
 20
167.426
 30
0
 10
44.0915
 20
168.64
 30
0
 10
44.5476
 20
169.976
 30
0
  0
SPLINE
  5
BB3
330
A02
100
AcDbEntity
  8
View
100
AcDbSpline
210
0
220
0
230
1
 70
8
 71
3
 72
8
 73
4
 74
0
 40
0
 40
0
 40
0
 40
0
 40
1
 40
1
 40
1
 40
1
 10
45.7645
 20
172.572
 30
0
 10
46.2009
 20
173.176
 30
0
 10
46.8112
 20
173.803
 30
0
 10
47.7026
 20
174.422
 30
0
  0
SPLINE
  5
BB4
330
A02
100
AcDbEntity
  8
View
100
AcDbSpline
210
0
220
0
230
1
 70
8
 71
3
 72
8
 73
4
 74
0
 40
0
 40
0
 40
0
 40
0
 40
1
 40
1
 40
1
 40
1
 10
50.9233
 20
178.222
 30
0
 10
50.2494
 20
176.938
 30
0
 10
49.8253
 20
175.895
 30
0
 10
47.7026
 20
174.422
 30
0
  0
SPLINE
  5
BB5
330
A02
100
AcDbEntity
  8
View
100
AcDbSpline
210
0
220
0
230
1
 70
8
 71
3
 72
8
 73
4
 74
0
 40
0
 40
0
 40
0
 40
0
 40
1
 40
1
 40
1
 40
1
 10
55.2982
 20
182.111
 30
0
 10
52.4081
 20
180.824
 30
0
 10
51.5351
 20
179.388
 30
0
 10
50.9233
 20
178.222
 30
0
  0
SPLINE
  5
BB6
330
A02
100
AcDbEntity
  8
View
100
AcDbSpline
210
0
220
0
230
1
 70
8
 71
3
 72
8
 73
4
 74
0
 40
0
 40
0
 40
0
 40
0
 40
1
 40
1
 40
1
 40
1
 10
58.6809
 20
182.66
 30
0
 10
57.7408
 20
182.807
 30
0
 10
56.6215
 20
182.7
 30
0
 10
55.2982
 20
182.111
 30
0
  0
SPLINE
  5
BB7
330
A02
100
AcDbEntity
  8
View
100
AcDbSpline
210
0
220
0
230
1
 70
8
 71
3
 72
8
 73
4
 74
0
 40
0
 40
0
 40
0
 40
0
 40
1
 40
1
 40
1
 40
1
 10
49.2285
 20
178.046
 30
0
 10
48.2747
 20
178.014
 30
0
 10
47.1941
 20
177.699
 30
0
 10
46.0012
 20
176.873
 30
0
  0
SPLINE
  5
BB8
330
A02
100
AcDbEntity
  8
View
100
AcDbSpline
210
0
220
0
230
1
 70
8
 71
3
 72
8
 73
4
 74
0
 40
0
 40
0
 40
0
 40
0
 40
1
 40
1
 40
1
 40
1
 10
46.0012
 20
176.873
 30
0
 10
43.3941
 20
175.069
 30
0
 10
42.7978
 20
173.499
 30
0
 10
42.405
 20
172.234
 30
0
  0
SPLINE
  5
BB9
330
A02
100
AcDbEntity
  8
View
100
AcDbSpline
210
0
220
0
230
1
 70
8
 71
3
 72
8
 73
4
 74
0
 40
0
 40
0
 40
0
 40
0
 40
1
 40
1
 40
1
 40
1
 10
42.405
 20
172.234
 30
0
 10
41.9739
 20
170.846
 30
0
 10
41.7416
 20
169.737
 30
0
 10
39.9105
 20
167.906
 30
0
  0
SPLINE
  5
BBA
330
A02
100
AcDbEntity
  8
View
100
AcDbSpline
210
0
220
0
230
1
 70
8
 71
3
 72
8
 73
4
 74
0
 40
0
 40
0
 40
0
 40
0
 40
1
 40
1
 40
1
 40
1
 10
48.8368
 20
172.788
 30
0
 10
50.4576
 20
173.915
 30
0
 10
51.1805
 20
174.886
 30
0
 10
51.799
 20
175.924
 30
0
  0
SPLINE
  5
BBB
330
A02
100
AcDbEntity
  8
View
100
AcDbSpline
210
0
220
0
230
1
 70
8
 71
3
 72
8
 73
4
 74
0
 40
0
 40
0
 40
0
 40
0
 40
1
 40
1
 40
1
 40
1
 10
48.8368
 20
172.788
 30
0
 10
46.9704
 20
171.49
 30
0
 10
45.6246
 20
171.986
 30
0
 10
44.0074
 20
172.483
 30
0
  0
SPLINE
  5
BBC
330
A02
100
AcDbEntity
  8
View
100
AcDbSpline
210
0
220
0
230
1
 70
8
 71
3
 72
8
 73
4
 74
0
 40
0
 40
0
 40
0
 40
0
 40
1
 40
1
 40
1
 40
1
 10
41.1483
 20
172.911
 30
0
 10
39.9866
 20
172.801
 30
0
 10
38.6095
 20
172.245
 30
0
 10
37.0908
 20
170.726
 30
0
  0
SPLINE
  5
BBD
330
A02
100
AcDbEntity
  8
View
100
AcDbSpline
210
0
220
0
230
1
 70
8
 71
3
 72
8
 73
4
 74
0
 40
0
 40
0
 40
0
 40
0
 40
1
 40
1
 40
1
 40
1
 10
41.3204
 20
166.497
 30
0
 10
42.7208
 20
167.897
 30
0
 10
43.262
 20
168.987
 30
0
 10
43.6857
 20
170.124
 30
0
  0
SPLINE
  5
BBE
330
A02
100
AcDbEntity
  8
View
100
AcDbSpline
210
0
220
0
230
1
 70
8
 71
3
 72
8
 73
4
 74
0
 40
0
 40
0
 40
0
 40
0
 40
1
 40
1
 40
1
 40
1
 10
44.8029
 20
172.821
 30
0
 10
45.2642
 20
173.601
 30
0
 10
45.9616
 20
174.425
 30
0
 10
47.1354
 20
175.239
 30
0
  0
SPLINE
  5
BBF
330
A02
100
AcDbEntity
  8
View
100
AcDbSpline
210
0
220
0
230
1
 70
8
 71
3
 72
8
 73
4
 74
0
 40
0
 40
0
 40
0
 40
0
 40
1
 40
1
 40
1
 40
1
 10
50.4286
 20
179.082
 30
0
 10
49.7349
 20
177.787
 30
0
 10
49.2978
 20
176.739
 30
0
 10
47.1354
 20
175.239
 30
0
  0
SPLINE
  5
BC0
330
A02
100
AcDbEntity
  8
View
100
AcDbSpline
210
0
220
0
230
1
 70
8
 71
3
 72
8
 73
4
 74
0
 40
0
 40
0
 40
0
 40
0
 40
1
 40
1
 40
1
 40
1
 10
54.8945
 20
183.015
 30
0
 10
51.9535
 20
181.707
 30
0
 10
51.0573
 20
180.256
 30
0
 10
50.4286
 20
179.082
 30
0
  0
SPLINE
  5
BC1
330
A02
100
AcDbEntity
  8
View
100
AcDbSpline
210
0
220
0
230
1
 70
8
 71
3
 72
8
 73
4
 74
0
 40
0
 40
0
 40
0
 40
0
 40
1
 40
1
 40
1
 40
1
 10
59.456
 20
183.591
 30
0
 10
58.3395
 20
183.908
 30
0
 10
56.8539
 20
183.886
 30
0
 10
54.8945
 20
183.015
 30
0
  0
SPLINE
  5
BC2
330
A02
100
AcDbEntity
  8
View
100
AcDbSpline
210
0
220
0
230
1
 70
8
 71
3
 72
8
 73
4
 74
0
 40
0
 40
0
 40
0
 40
0
 40
1
 40
1
 40
1
 40
1
 10
58.1241
 20
175.785
 30
0
 10
60.5121
 20
176.858
 30
0
 10
61.1913
 20
177.968
 30
0
 10
62.2628
 20
179.206
 30
0
  0
SPLINE
  5
BC3
330
A02
100
AcDbEntity
  8
View
100
AcDbSpline
210
0
220
0
230
1
 70
8
 71
3
 72
8
 73
4
 74
0
 40
0
 40
0
 40
0
 40
0
 40
1
 40
1
 40
1
 40
1
 10
58.1241
 20
175.785
 30
0
 10
55.6522
 20
174.675
 30
0
 10
53.8169
 20
175.84
 30
0
 10
51.6283
 20
176.562
 30
0
  0
SPLINE
  5
BC4
330
A02
100
AcDbEntity
  8
View
100
AcDbSpline
210
0
220
0
230
1
 70
8
 71
3
 72
8
 73
4
 74
0
 40
0
 40
0
 40
0
 40
0
 40
1
 40
1
 40
1
 40
1
 10
55.4487
 20
177.665
 30
0
 10
55.8531
 20
177.956
 30
0
 10
56.3348
 20
178.238
 30
0
 10
56.913
 20
178.496
 30
0
  0
SPLINE
  5
BC5
330
A02
100
AcDbEntity
  8
View
100
AcDbSpline
210
0
220
0
230
1
 70
8
 71
3
 72
8
 73
4
 74
0
 40
0
 40
0
 40
0
 40
0
 40
1
 40
1
 40
1
 40
1
 10
60.6933
 20
181.577
 30
0
 10
59.8077
 20
180.454
 30
0
 10
59.2178
 20
179.527
 30
0
 10
56.913
 20
178.496
 30
0
  0
SPLINE
  5
BC6
330
A02
100
AcDbEntity
  8
View
100
AcDbSpline
210
0
220
0
230
1
 70
8
 71
3
 72
8
 73
4
 74
0
 40
0
 40
0
 40
0
 40
0
 40
1
 40
1
 40
1
 40
1
 10
65.6399
 20
184.508
 30
0
 10
62.6058
 20
183.831
 30
0
 10
61.4922
 20
182.59
 30
0
 10
60.6933
 20
181.577
 30
0
  0
SPLINE
  5
BC7
330
A02
100
AcDbEntity
  8
View
100
AcDbSpline
210
0
220
0
230
1
 70
8
 71
3
 72
8
 73
4
 74
0
 40
0
 40
0
 40
0
 40
0
 40
1
 40
1
 40
1
 40
1
 10
57.7204
 20
176.689
 30
0
 10
59.8065
 20
177.624
 30
0
 10
60.6285
 20
178.581
 30
0
 10
61.5327
 20
179.651
 30
0
  0
SPLINE
  5
BC8
330
A02
100
AcDbEntity
  8
View
100
AcDbSpline
210
0
220
0
230
1
 70
8
 71
3
 72
8
 73
4
 74
0
 40
0
 40
0
 40
0
 40
0
 40
1
 40
1
 40
1
 40
1
 10
57.7204
 20
176.689
 30
0
 10
55.4274
 20
175.661
 30
0
 10
53.9382
 20
176.634
 30
0
 10
52.0687
 20
177.416
 30
0
  0
SPLINE
  5
BC9
330
A02
100
AcDbEntity
  8
View
100
AcDbSpline
210
0
220
0
230
1
 70
8
 71
3
 72
8
 73
4
 74
0
 40
0
 40
0
 40
0
 40
0
 40
1
 40
1
 40
1
 40
1
 10
54.275
 20
177.945
 30
0
 10
54.8116
 20
178.457
 30
0
 10
55.5237
 20
178.96
 30
0
 10
56.5093
 20
179.4
 30
0
  0
SPLINE
  5
BCA
330
A02
100
AcDbEntity
  8
View
100
AcDbSpline
210
0
220
0
230
1
 70
8
 71
3
 72
8
 73
4
 74
0
 40
0
 40
0
 40
0
 40
0
 40
1
 40
1
 40
1
 40
1
 10
60.3738
 20
182.512
 30
0
 10
59.4652
 20
181.381
 30
0
 10
58.8605
 20
180.45
 30
0
 10
56.5093
 20
179.4
 30
0
  0
SPLINE
  5
BCB
330
A02
100
AcDbEntity
  8
View
100
AcDbSpline
210
0
220
0
230
1
 70
8
 71
3
 72
8
 73
4
 74
0
 40
0
 40
0
 40
0
 40
0
 40
1
 40
1
 40
1
 40
1
 10
65.4252
 20
185.473
 30
0
 10
62.3329
 20
184.782
 30
0
 10
61.1922
 20
183.531
 30
0
 10
60.3738
 20
182.512
 30
0
  0
SPLINE
  5
BCC
330
A02
100
AcDbEntity
  8
View
100
AcDbSpline
210
0
220
0
230
1
 70
8
 71
3
 72
8
 73
4
 74
0
 40
0
 40
0
 40
0
 40
0
 40
1
 40
1
 40
1
 40
1
 10
57.3167
 20
177.593
 30
0
 10
59.1065
 20
178.394
 30
0
 10
59.9902
 20
179.202
 30
0
 10
60.792
 20
180.1
 30
0
  0
SPLINE
  5
BCD
330
A02
100
AcDbEntity
  8
View
100
AcDbSpline
210
0
220
0
230
1
 70
8
 71
3
 72
8
 73
4
 74
0
 40
0
 40
0
 40
0
 40
0
 40
1
 40
1
 40
1
 40
1
 10
57.3167
 20
177.593
 30
0
 10
55.2562
 20
176.67
 30
0
 10
54.035
 20
177.397
 30
0
 10
52.5387
 20
178.177
 30
0
  0
SPLINE
  5
BCE
330
A02
100
AcDbEntity
  8
View
100
AcDbSpline
210
0
220
0
230
1
 70
8
 71
3
 72
8
 73
4
 74
0
 40
0
 40
0
 40
0
 40
0
 40
1
 40
1
 40
1
 40
1
 10
53.3792
 20
178.364
 30
0
 10
53.9721
 20
179.043
 30
0
 10
54.8063
 20
179.724
 30
0
 10
56.1056
 20
180.304
 30
0
  0
SPLINE
  5
BCF
330
A02
100
AcDbEntity
  8
View
100
AcDbSpline
210
0
220
0
230
1
 70
8
 71
3
 72
8
 73
4
 74
0
 40
0
 40
0
 40
0
 40
0
 40
1
 40
1
 40
1
 40
1
 10
60.0544
 20
183.447
 30
0
 10
59.1227
 20
182.307
 30
0
 10
58.5032
 20
181.373
 30
0
 10
56.1056
 20
180.304
 30
0
  0
SPLINE
  5
BD0
330
A02
100
AcDbEntity
  8
View
100
AcDbSpline
210
0
220
0
230
1
 70
8
 71
3
 72
8
 73
4
 74
0
 40
0
 40
0
 40
0
 40
0
 40
1
 40
1
 40
1
 40
1
 10
65.2106
 20
186.437
 30
0
 10
62.0599
 20
185.732
 30
0
 10
60.8922
 20
184.472
 30
0
 10
60.0544
 20
183.447
 30
0
  0
SPLINE
  5
BD1
330
A02
100
AcDbEntity
  8
View
100
AcDbSpline
210
0
220
0
230
1
 70
8
 71
3
 72
8
 73
4
 74
0
 40
0
 40
0
 40
0
 40
0
 40
1
 40
1
 40
1
 40
1
 10
66.9278
 20
178.72
 30
0
 10
64.3055
 20
178.14
 30
0
 10
62.7513
 20
179.631
 30
0
 10
60.7464
 20
180.756
 30
0
  0
SPLINE
  5
BD2
330
A02
100
AcDbEntity
  8
View
100
AcDbSpline
210
0
220
0
230
1
 70
8
 71
3
 72
8
 73
4
 74
0
 40
0
 40
0
 40
0
 40
0
 40
1
 40
1
 40
1
 40
1
 10
64.6899
 20
181.093
 30
0
 10
65.1416
 20
181.298
 30
0
 10
65.6677
 20
181.477
 30
0
 10
66.2839
 20
181.614
 30
0
  0
SPLINE
  5
BD3
330
A02
100
AcDbEntity
  8
View
100
AcDbSpline
210
0
220
0
230
1
 70
8
 71
3
 72
8
 73
4
 74
0
 40
0
 40
0
 40
0
 40
0
 40
1
 40
1
 40
1
 40
1
 10
66.7132
 20
179.685
 30
0
 10
64.2765
 20
179.145
 30
0
 10
63.0206
 20
180.382
 30
0
 10
61.3397
 20
181.506
 30
0
  0
SPLINE
  5
BD4
330
A02
100
AcDbEntity
  8
View
100
AcDbSpline
210
0
220
0
230
1
 70
8
 71
3
 72
8
 73
4
 74
0
 40
0
 40
0
 40
0
 40
0
 40
1
 40
1
 40
1
 40
1
 10
63.5982
 20
181.597
 30
0
 10
64.2218
 20
181.993
 30
0
 10
65.0175
 20
182.345
 30
0
 10
66.0692
 20
182.579
 30
0
  0
SPLINE
  5
BD5
330
A02
100
AcDbEntity
  8
View
100
AcDbSpline
210
0
220
0
230
1
 70
8
 71
3
 72
8
 73
4
 74
0
 40
0
 40
0
 40
0
 40
0
 40
1
 40
1
 40
1
 40
1
 10
66.4985
 20
180.649
 30
0
 10
64.3058
 20
180.163
 30
0
 10
63.2607
 20
181.108
 30
0
 10
61.9457
 20
182.16
 30
0
  0
SPLINE
  5
BD6
330
A02
100
AcDbEntity
  8
View
100
AcDbSpline
210
0
220
0
230
1
 70
8
 71
3
 72
8
 73
4
 74
0
 40
0
 40
0
 40
0
 40
0
 40
1
 40
1
 40
1
 40
1
 10
62.8039
 20
182.181
 30
0
 10
63.515
 20
182.729
 30
0
 10
64.4664
 20
183.234
 30
0
 10
65.8546
 20
183.543
 30
0
  0
SPLINE
  5
BD7
330
A02
100
AcDbEntity
  8
View
100
AcDbSpline
210
0
220
0
230
1
 70
8
 71
3
 72
8
 73
4
 74
0
 40
0
 40
0
 40
0
 40
0
 40
1
 40
1
 40
1
 40
1
 10
76.1208
 20
179.696
 30
0
 10
78.7402
 20
179.722
 30
0
 10
79.7861
 20
180.439
 30
0
 10
81.2948
 20
181.125
 30
0
  0
SPLINE
  5
BD8
330
A02
100
AcDbEntity
  8
View
100
AcDbSpline
210
0
220
0
230
1
 70
8
 71
1
 72
4
 73
2
 74
0
 40
0
 40
0
 40
1
 40
1
 10
76.1208
 20
179.696
 30
0
 10
76.1207
 20
179.696
 30
0
  0
SPLINE
  5
BD9
330
A02
100
AcDbEntity
  8
View
100
AcDbSpline
210
0
220
0
230
1
 70
8
 71
3
 72
8
 73
4
 74
0
 40
0
 40
0
 40
0
 40
0
 40
1
 40
1
 40
1
 40
1
 10
76.1207
 20
179.696
 30
0
 10
73.433
 20
179.722
 30
0
 10
72.1794
 20
181.563
 30
0
 10
70.4945
 20
183.042
 30
0
  0
SPLINE
  5
BDA
330
A02
100
AcDbEntity
  8
View
100
AcDbSpline
210
0
220
0
230
1
 70
8
 71
3
 72
8
 73
4
 74
0
 40
0
 40
0
 40
0
 40
0
 40
1
 40
1
 40
1
 40
1
 10
67.5452
 20
184.587
 30
0
 10
66.9741
 20
184.676
 30
0
 10
66.341
 20
184.664
 30
0
 10
65.6399
 20
184.508
 30
0
  0
SPLINE
  5
BDB
330
A02
100
AcDbEntity
  8
View
100
AcDbSpline
210
0
220
0
230
1
 70
8
 71
3
 72
8
 73
4
 74
0
 40
0
 40
0
 40
0
 40
0
 40
1
 40
1
 40
1
 40
1
 10
66.9278
 20
178.72
 30
0
 10
69.4715
 20
179.282
 30
0
 10
70.3417
 20
180.21
 30
0
 10
71.6572
 20
181.203
 30
0
  0
SPLINE
  5
BDC
330
A02
100
AcDbEntity
  8
View
100
AcDbSpline
210
0
220
0
230
1
 70
8
 71
3
 72
8
 73
4
 74
0
 40
0
 40
0
 40
0
 40
0
 40
1
 40
1
 40
1
 40
1
 10
74.4379
 20
182.533
 30
0
 10
74.926
 20
182.636
 30
0
 10
75.4833
 20
182.698
 30
0
 10
76.1207
 20
182.696
 30
0
  0
SPLINE
  5
BDD
330
A02
100
AcDbEntity
  8
View
100
AcDbSpline
210
0
220
0
230
1
 70
8
 71
1
 72
4
 73
2
 74
0
 40
0
 40
0
 40
1
 40
1
 10
76.1207
 20
182.696
 30
0
 10
76.1208
 20
182.696
 30
0
  0
SPLINE
  5
BDE
330
A02
100
AcDbEntity
  8
View
100
AcDbSpline
210
0
220
0
230
1
 70
8
 71
3
 72
8
 73
4
 74
0
 40
0
 40
0
 40
0
 40
0
 40
1
 40
1
 40
1
 40
1
 10
80.8653
 20
183.945
 30
0
 10
79.5726
 20
183.289
 30
0
 10
78.6707
 20
182.702
 30
0
 10
76.1208
 20
182.696
 30
0
  0
SPLINE
  5
BDF
330
A02
100
AcDbEntity
  8
View
100
AcDbSpline
210
0
220
0
230
1
 70
8
 71
3
 72
8
 73
4
 74
0
 40
0
 40
0
 40
0
 40
0
 40
1
 40
1
 40
1
 40
1
 10
86.6016
 20
184.508
 30
0
 10
83.5623
 20
185.186
 30
0
 10
82.023
 20
184.533
 30
0
 10
80.8653
 20
183.945
 30
0
  0
SPLINE
  5
BE0
330
A02
100
AcDbEntity
  8
View
100
AcDbSpline
210
0
220
0
230
1
 70
8
 71
3
 72
8
 73
4
 74
0
 40
0
 40
0
 40
0
 40
0
 40
1
 40
1
 40
1
 40
1
 10
78.0199
 20
185.345
 30
0
 10
77.4779
 20
185.562
 30
0
 10
76.8498
 20
185.693
 30
0
 10
76.1208
 20
185.696
 30
0
  0
SPLINE
  5
BE1
330
A02
100
AcDbEntity
  8
View
100
AcDbSpline
210
0
220
0
230
1
 70
8
 71
1
 72
4
 73
2
 74
0
 40
0
 40
0
 40
1
 40
1
 10
76.1208
 20
185.696
 30
0
 10
76.1207
 20
185.696
 30
0
  0
SPLINE
  5
BE2
330
A02
100
AcDbEntity
  8
View
100
AcDbSpline
210
0
220
0
230
1
 70
8
 71
3
 72
8
 73
4
 74
0
 40
0
 40
0
 40
0
 40
0
 40
1
 40
1
 40
1
 40
1
 10
76.1207
 20
185.696
 30
0
 10
72.9729
 20
185.683
 30
0
 10
71.6035
 20
184.683
 30
0
 10
70.6135
 20
183.859
 30
0
  0
SPLINE
  5
BE3
330
A02
100
AcDbEntity
  8
View
100
AcDbSpline
210
0
220
0
230
1
 70
8
 71
3
 72
8
 73
4
 74
0
 40
0
 40
0
 40
0
 40
0
 40
1
 40
1
 40
1
 40
1
 10
70.6135
 20
183.859
 30
0
 10
69.5035
 20
182.936
 30
0
 10
68.7482
 20
182.161
 30
0
 10
66.2839
 20
181.614
 30
0
  0
SPLINE
  5
BE4
330
A02
100
AcDbEntity
  8
View
100
AcDbSpline
210
0
220
0
230
1
 70
8
 71
3
 72
8
 73
4
 74
0
 40
0
 40
0
 40
0
 40
0
 40
1
 40
1
 40
1
 40
1
 10
76.1208
 20
180.696
 30
0
 10
78.4126
 20
180.712
 30
0
 10
79.5388
 20
181.236
 30
0
 10
80.8189
 20
181.836
 30
0
  0
SPLINE
  5
BE5
330
A02
100
AcDbEntity
  8
View
100
AcDbSpline
210
0
220
0
230
1
 70
8
 71
1
 72
4
 73
2
 74
0
 40
0
 40
0
 40
1
 40
1
 10
76.1208
 20
180.696
 30
0
 10
76.1207
 20
180.696
 30
0
  0
SPLINE
  5
BE6
330
A02
100
AcDbEntity
  8
View
100
AcDbSpline
210
0
220
0
230
1
 70
8
 71
3
 72
8
 73
4
 74
0
 40
0
 40
0
 40
0
 40
0
 40
1
 40
1
 40
1
 40
1
 10
76.1207
 20
180.696
 30
0
 10
73.6126
 20
180.714
 30
0
 10
72.6506
 20
182.197
 30
0
 10
71.2335
 20
183.655
 30
0
  0
SPLINE
  5
BE7
330
A02
100
AcDbEntity
  8
View
100
AcDbSpline
210
0
220
0
230
1
 70
8
 71
3
 72
8
 73
4
 74
0
 40
0
 40
0
 40
0
 40
0
 40
1
 40
1
 40
1
 40
1
 10
68.8609
 20
185.335
 30
0
 10
67.967
 20
185.67
 30
0
 10
66.8437
 20
185.789
 30
0
 10
65.4252
 20
185.472
 30
0
  0
SPLINE
  5
BE8
330
A02
100
AcDbEntity
  8
View
100
AcDbSpline
210
0
220
0
230
1
 70
8
 71
3
 72
8
 73
4
 74
0
 40
0
 40
0
 40
0
 40
0
 40
1
 40
1
 40
1
 40
1
 10
66.7132
 20
179.685
 30
0
 10
68.9358
 20
180.177
 30
0
 10
69.9228
 20
180.932
 30
0
 10
71.0352
 20
181.794
 30
0
  0
SPLINE
  5
BE9
330
A02
100
AcDbEntity
  8
View
100
AcDbSpline
210
0
220
0
230
1
 70
8
 71
3
 72
8
 73
4
 74
0
 40
0
 40
0
 40
0
 40
0
 40
1
 40
1
 40
1
 40
1
 10
73.4725
 20
183.266
 30
0
 10
74.1699
 20
183.521
 30
0
 10
75.0311
 20
183.696
 30
0
 10
76.1207
 20
183.696
 30
0
  0
SPLINE
  5
BEA
330
A02
100
AcDbEntity
  8
View
100
AcDbSpline
210
0
220
0
230
1
 70
8
 71
1
 72
4
 73
2
 74
0
 40
0
 40
0
 40
1
 40
1
 10
76.1207
 20
183.696
 30
0
 10
76.1208
 20
183.696
 30
0
  0
SPLINE
  5
BEB
330
A02
100
AcDbEntity
  8
View
100
AcDbSpline
210
0
220
0
230
1
 70
8
 71
3
 72
8
 73
4
 74
0
 40
0
 40
0
 40
0
 40
0
 40
1
 40
1
 40
1
 40
1
 10
80.9677
 20
184.932
 30
0
 10
79.6484
 20
184.28
 30
0
 10
78.7296
 20
183.696
 30
0
 10
76.1208
 20
183.696
 30
0
  0
SPLINE
  5
BEC
330
A02
100
AcDbEntity
  8
View
100
AcDbSpline
210
0
220
0
230
1
 70
8
 71
3
 72
8
 73
4
 74
0
 40
0
 40
0
 40
0
 40
0
 40
1
 40
1
 40
1
 40
1
 10
86.8163
 20
185.472
 30
0
 10
83.718
 20
186.165
 30
0
 10
82.1476
 20
185.516
 30
0
 10
80.9677
 20
184.932
 30
0
  0
SPLINE
  5
BED
330
A02
100
AcDbEntity
  8
View
100
AcDbSpline
210
0
220
0
230
1
 70
8
 71
3
 72
8
 73
4
 74
0
 40
0
 40
0
 40
0
 40
0
 40
1
 40
1
 40
1
 40
1
 10
89.8616
 20
183.89
 30
0
 10
89.197
 20
184.571
 30
0
 10
88.234
 20
185.156
 30
0
 10
86.8163
 20
185.472
 30
0
  0
SPLINE
  5
BEE
330
A02
100
AcDbEntity
  8
View
100
AcDbSpline
210
0
220
0
230
1
 70
8
 71
3
 72
8
 73
4
 74
0
 40
0
 40
0
 40
0
 40
0
 40
1
 40
1
 40
1
 40
1
 10
79.4785
 20
185.781
 30
0
 10
78.6779
 20
186.311
 30
0
 10
77.597
 20
186.687
 30
0
 10
76.1208
 20
186.696
 30
0
  0
SPLINE
  5
BEF
330
A02
100
AcDbEntity
  8
View
100
AcDbSpline
210
0
220
0
230
1
 70
8
 71
1
 72
4
 73
2
 74
0
 40
0
 40
0
 40
1
 40
1
 10
76.1208
 20
186.696
 30
0
 10
76.1207
 20
186.696
 30
0
  0
SPLINE
  5
BF0
330
A02
100
AcDbEntity
  8
View
100
AcDbSpline
210
0
220
0
230
1
 70
8
 71
3
 72
8
 73
4
 74
0
 40
0
 40
0
 40
0
 40
0
 40
1
 40
1
 40
1
 40
1
 10
76.1207
 20
186.696
 30
0
 10
72.9072
 20
186.676
 30
0
 10
71.507
 20
185.671
 30
0
 10
70.4949
 20
184.844
 30
0
  0
SPLINE
  5
BF1
330
A02
100
AcDbEntity
  8
View
100
AcDbSpline
210
0
220
0
230
1
 70
8
 71
3
 72
8
 73
4
 74
0
 40
0
 40
0
 40
0
 40
0
 40
1
 40
1
 40
1
 40
1
 10
70.4949
 20
184.844
 30
0
 10
69.3586
 20
183.915
 30
0
 10
68.5867
 20
183.139
 30
0
 10
66.0692
 20
182.579
 30
0
  0
SPLINE
  5
BF2
330
A02
100
AcDbEntity
  8
View
100
AcDbSpline
210
0
220
0
230
1
 70
8
 71
3
 72
8
 73
4
 74
0
 40
0
 40
0
 40
0
 40
0
 40
1
 40
1
 40
1
 40
1
 10
76.1208
 20
181.696
 30
0
 10
78.0919
 20
181.705
 30
0
 10
79.2214
 20
182.071
 30
0
 10
80.3339
 20
182.557
 30
0
  0
SPLINE
  5
BF3
330
A02
100
AcDbEntity
  8
View
100
AcDbSpline
210
0
220
0
230
1
 70
8
 71
1
 72
4
 73
2
 74
0
 40
0
 40
0
 40
1
 40
1
 10
76.1208
 20
181.696
 30
0
 10
76.1207
 20
181.696
 30
0
  0
SPLINE
  5
BF4
330
A02
100
AcDbEntity
  8
View
100
AcDbSpline
210
0
220
0
230
1
 70
8
 71
3
 72
8
 73
4
 74
0
 40
0
 40
0
 40
0
 40
0
 40
1
 40
1
 40
1
 40
1
 10
76.1207
 20
181.696
 30
0
 10
73.8627
 20
181.707
 30
0
 10
73.0141
 20
182.889
 30
0
 10
71.9668
 20
184.17
 30
0
  0
SPLINE
  5
BF5
330
A02
100
AcDbEntity
  8
View
100
AcDbSpline
210
0
220
0
230
1
 70
8
 71
3
 72
8
 73
4
 74
0
 40
0
 40
0
 40
0
 40
0
 40
1
 40
1
 40
1
 40
1
 10
69.8171
 20
186.091
 30
0
 10
68.7839
 20
186.63
 30
0
 10
67.3139
 20
186.908
 30
0
 10
65.2106
 20
186.437
 30
0
  0
SPLINE
  5
BF6
330
A02
100
AcDbEntity
  8
View
100
AcDbSpline
210
0
220
0
230
1
 70
8
 71
3
 72
8
 73
4
 74
0
 40
0
 40
0
 40
0
 40
0
 40
1
 40
1
 40
1
 40
1
 10
66.4985
 20
180.649
 30
0
 10
68.4068
 20
181.073
 30
0
 10
69.4288
 20
181.675
 30
0
 10
70.4032
 20
182.389
 30
0
  0
SPLINE
  5
BF7
330
A02
100
AcDbEntity
  8
View
100
AcDbSpline
210
0
220
0
230
1
 70
8
 71
3
 72
8
 73
4
 74
0
 40
0
 40
0
 40
0
 40
0
 40
1
 40
1
 40
1
 40
1
 10
72.8157
 20
184.009
 30
0
 10
73.6313
 20
184.398
 30
0
 10
74.6804
 20
184.693
 30
0
 10
76.1207
 20
184.696
 30
0
  0
SPLINE
  5
BF8
330
A02
100
AcDbEntity
  8
View
100
AcDbSpline
210
0
220
0
230
1
 70
8
 71
1
 72
4
 73
2
 74
0
 40
0
 40
0
 40
1
 40
1
 10
76.1207
 20
184.696
 30
0
 10
76.1208
 20
184.696
 30
0
  0
SPLINE
  5
BF9
330
A02
100
AcDbEntity
  8
View
100
AcDbSpline
210
0
220
0
230
1
 70
8
 71
3
 72
8
 73
4
 74
0
 40
0
 40
0
 40
0
 40
0
 40
1
 40
1
 40
1
 40
1
 10
80.5824
 20
186.303
 30
0
 10
79.6949
 20
187.062
 30
0
 10
78.3113
 20
187.678
 30
0
 10
76.1208
 20
187.696
 30
0
  0
SPLINE
  5
BFA
330
A02
100
AcDbEntity
  8
View
100
AcDbSpline
210
0
220
0
230
1
 70
8
 71
1
 72
4
 73
2
 74
0
 40
0
 40
0
 40
1
 40
1
 10
76.1208
 20
187.696
 30
0
 10
76.1207
 20
187.696
 30
0
  0
SPLINE
  5
BFB
330
A02
100
AcDbEntity
  8
View
100
AcDbSpline
210
0
220
0
230
1
 70
8
 71
3
 72
8
 73
4
 74
0
 40
0
 40
0
 40
0
 40
0
 40
1
 40
1
 40
1
 40
1
 10
76.1207
 20
187.696
 30
0
 10
72.8415
 20
187.67
 30
0
 10
71.4105
 20
186.658
 30
0
 10
70.3764
 20
185.828
 30
0
  0
SPLINE
  5
BFC
330
A02
100
AcDbEntity
  8
View
100
AcDbSpline
210
0
220
0
230
1
 70
8
 71
3
 72
8
 73
4
 74
0
 40
0
 40
0
 40
0
 40
0
 40
1
 40
1
 40
1
 40
1
 10
70.3764
 20
185.828
 30
0
 10
69.2137
 20
184.894
 30
0
 10
68.4252
 20
184.116
 30
0
 10
65.8546
 20
183.543
 30
0
  0
SPLINE
  5
BFD
330
A02
100
AcDbEntity
  8
View
100
AcDbSpline
210
0
220
0
230
1
 70
8
 71
3
 72
8
 73
4
 74
0
 40
0
 40
0
 40
0
 40
0
 40
1
 40
1
 40
1
 40
1
 10
85.3137
 20
178.72
 30
0
 10
87.8575
 20
178.157
 30
0
 10
89.0478
 20
178.631
 30
0
 10
90.657
 20
178.98
 30
0
  0
SPLINE
  5
BFE
330
A02
100
AcDbEntity
  8
View
100
AcDbSpline
210
0
220
0
230
1
 70
8
 71
3
 72
8
 73
4
 74
0
 40
0
 40
0
 40
0
 40
0
 40
1
 40
1
 40
1
 40
1
 10
85.3137
 20
178.72
 30
0
 10
82.692
 20
179.299
 30
0
 10
81.9236
 20
181.304
 30
0
 10
80.5679
 20
183.174
 30
0
  0
SPLINE
  5
BFF
330
A02
100
AcDbEntity
  8
View
100
AcDbSpline
210
0
220
0
230
1
 70
8
 71
3
 72
8
 73
4
 74
0
 40
0
 40
0
 40
0
 40
0
 40
1
 40
1
 40
1
 40
1
 10
84.2926
 20
181.817
 30
0
 10
84.7888
 20
181.811
 30
0
 10
85.3414
 20
181.751
 30
0
 10
85.9576
 20
181.614
 30
0
  0
SPLINE
  5
C00
330
A02
100
AcDbEntity
  8
View
100
AcDbSpline
210
0
220
0
230
1
 70
8
 71
3
 72
8
 73
4
 74
0
 40
0
 40
0
 40
0
 40
0
 40
1
 40
1
 40
1
 40
1
 10
90.8234
 20
181.819
 30
0
 10
89.4347
 20
181.449
 30
0
 10
88.4205
 20
181.067
 30
0
 10
85.9576
 20
181.614
 30
0
  0
SPLINE
  5
C01
330
A02
100
AcDbEntity
  8
View
100
AcDbSpline
210
0
220
0
230
1
 70
8
 71
3
 72
8
 73
4
 74
0
 40
0
 40
0
 40
0
 40
0
 40
1
 40
1
 40
1
 40
1
 10
96.5396
 20
181.207
 30
0
 10
93.701
 20
182.472
 30
0
 10
92.0754
 20
182.151
 30
0
 10
90.8234
 20
181.819
 30
0
  0
SPLINE
  5
C02
330
A02
100
AcDbEntity
  8
View
100
AcDbSpline
210
0
220
0
230
1
 70
8
 71
3
 72
8
 73
4
 74
0
 40
0
 40
0
 40
0
 40
0
 40
1
 40
1
 40
1
 40
1
 10
85.5283
 20
179.684
 30
0
 10
87.7512
 20
179.192
 30
0
 10
88.9692
 20
179.46
 30
0
 10
90.3394
 20
179.774
 30
0
  0
SPLINE
  5
C03
330
A02
100
AcDbEntity
  8
View
100
AcDbSpline
210
0
220
0
230
1
 70
8
 71
3
 72
8
 73
4
 74
0
 40
0
 40
0
 40
0
 40
0
 40
1
 40
1
 40
1
 40
1
 10
85.5283
 20
179.684
 30
0
 10
83.0919
 20
180.224
 30
0
 10
82.4822
 20
181.874
 30
0
 10
81.4245
 20
183.608
 30
0
  0
SPLINE
  5
C04
330
A02
100
AcDbEntity
  8
View
100
AcDbSpline
210
0
220
0
230
1
 70
8
 71
3
 72
8
 73
4
 74
0
 40
0
 40
0
 40
0
 40
0
 40
1
 40
1
 40
1
 40
1
 10
83.5161
 20
182.736
 30
0
 10
84.2499
 20
182.831
 30
0
 10
85.1202
 20
182.813
 30
0
 10
86.1723
 20
182.578
 30
0
  0
SPLINE
  5
C05
330
A02
100
AcDbEntity
  8
View
100
AcDbSpline
210
0
220
0
230
1
 70
8
 71
3
 72
8
 73
4
 74
0
 40
0
 40
0
 40
0
 40
0
 40
1
 40
1
 40
1
 40
1
 10
85.743
 20
180.649
 30
0
 10
83.5502
 20
181.136
 30
0
 10
83.0051
 20
182.433
 30
0
 10
82.2525
 20
183.947
 30
0
  0
SPLINE
  5
C06
330
A02
100
AcDbEntity
  8
View
100
AcDbSpline
210
0
220
0
230
1
 70
8
 71
3
 72
8
 73
4
 74
0
 40
0
 40
0
 40
0
 40
0
 40
1
 40
1
 40
1
 40
1
 10
83.042
 20
183.602
 30
0
 10
83.9212
 20
183.8
 30
0
 10
84.9981
 20
183.853
 30
0
 10
86.387
 20
183.543
 30
0
  0
SPLINE
  5
C07
330
A02
100
AcDbEntity
  8
View
100
AcDbSpline
210
0
220
0
230
1
 70
8
 71
3
 72
8
 73
4
 74
0
 40
0
 40
0
 40
0
 40
0
 40
1
 40
1
 40
1
 40
1
 10
91.0408
 20
184.171
 30
0
 10
90.3377
 20
185.092
 30
0
 10
89.1321
 20
185.967
 30
0
 10
87.0309
 20
186.437
 30
0
  0
SPLINE
  5
C08
330
A02
100
AcDbEntity
  8
View
100
AcDbSpline
210
0
220
0
230
1
 70
8
 71
3
 72
8
 73
4
 74
0
 40
0
 40
0
 40
0
 40
0
 40
1
 40
1
 40
1
 40
1
 10
87.0309
 20
186.437
 30
0
 10
83.8736
 20
187.143
 30
0
 10
82.2722
 20
186.499
 30
0
 10
81.0702
 20
185.919
 30
0
  0
SPLINE
  5
C09
330
A02
100
AcDbEntity
  8
View
100
AcDbSpline
210
0
220
0
230
1
 70
8
 71
3
 72
8
 73
4
 74
0
 40
0
 40
0
 40
0
 40
0
 40
1
 40
1
 40
1
 40
1
 10
81.0702
 20
185.919
 30
0
 10
79.7241
 20
185.27
 30
0
 10
78.7885
 20
184.69
 30
0
 10
76.1208
 20
184.696
 30
0
  0
SPLINE
  5
C0A
330
A02
100
AcDbEntity
  8
View
100
AcDbSpline
210
0
220
0
230
1
 70
8
 71
3
 72
8
 73
4
 74
0
 40
0
 40
0
 40
0
 40
0
 40
1
 40
1
 40
1
 40
1
 10
94.1174
 20
175.785
 30
0
 10
91.6546
 20
176.891
 30
0
 10
91.277
 20
179.085
 30
0
 10
90.3731
 20
181.129
 30
0
  0
SPLINE
  5
C0B
330
A02
100
AcDbEntity
  8
View
100
AcDbSpline
210
0
220
0
230
1
 70
8
 71
3
 72
8
 73
4
 74
0
 40
0
 40
0
 40
0
 40
0
 40
1
 40
1
 40
1
 40
1
 10
88.3582
 20
183.77
 30
0
 10
87.8802
 20
184.093
 30
0
 10
87.3026
 20
184.351
 30
0
 10
86.6016
 20
184.508
 30
0
  0
SPLINE
  5
C0C
330
A02
100
AcDbEntity
  8
View
100
AcDbSpline
210
0
220
0
230
1
 70
8
 71
3
 72
8
 73
4
 74
0
 40
0
 40
0
 40
0
 40
0
 40
1
 40
1
 40
1
 40
1
 10
93.7347
 20
179.033
 30
0
 10
94.2202
 20
178.926
 30
0
 10
94.7504
 20
178.755
 30
0
 10
95.3285
 20
178.496
 30
0
  0
SPLINE
  5
C0D
330
A02
100
AcDbEntity
  8
View
100
AcDbSpline
210
0
220
0
230
1
 70
8
 71
3
 72
8
 73
4
 74
0
 40
0
 40
0
 40
0
 40
0
 40
1
 40
1
 40
1
 40
1
 10
94.5211
 20
176.689
 30
0
 10
92.232
 20
177.715
 30
0
 10
91.9669
 20
179.471
 30
0
 10
91.2978
 20
181.374
 30
0
  0
SPLINE
  5
C0E
330
A02
100
AcDbEntity
  8
View
100
AcDbSpline
210
0
220
0
230
1
 70
8
 71
3
 72
8
 73
4
 74
0
 40
0
 40
0
 40
0
 40
0
 40
1
 40
1
 40
1
 40
1
 10
93.161
 20
180.092
 30
0
 10
93.8986
 20
180.035
 30
0
 10
94.7466
 20
179.84
 30
0
 10
95.7322
 20
179.4
 30
0
  0
SPLINE
  5
C0F
330
A02
100
AcDbEntity
  8
View
100
AcDbSpline
210
0
220
0
230
1
 70
8
 71
3
 72
8
 73
4
 74
0
 40
0
 40
0
 40
0
 40
0
 40
1
 40
1
 40
1
 40
1
 10
96.9433
 20
182.111
 30
0
 10
94.0533
 20
183.398
 30
0
 10
92.4
 20
183.084
 30
0
 10
91.1286
 20
182.758
 30
0
  0
SPLINE
  5
C10
330
A02
100
AcDbEntity
  8
View
100
AcDbSpline
210
0
220
0
230
1
 70
8
 71
3
 72
8
 73
4
 74
0
 40
0
 40
0
 40
0
 40
0
 40
1
 40
1
 40
1
 40
1
 10
91.1286
 20
182.758
 30
0
 10
89.7163
 20
182.396
 30
0
 10
88.6876
 20
182.019
 30
0
 10
86.1723
 20
182.578
 30
0
  0
SPLINE
  5
C11
330
A02
100
AcDbEntity
  8
View
100
AcDbSpline
210
0
220
0
230
1
 70
8
 71
3
 72
8
 73
4
 74
0
 40
0
 40
0
 40
0
 40
0
 40
1
 40
1
 40
1
 40
1
 10
94.9248
 20
177.592
 30
0
 10
92.8706
 20
178.512
 30
0
 10
92.5872
 20
179.939
 30
0
 10
92.1751
 20
181.534
 30
0
  0
SPLINE
  5
C12
330
A02
100
AcDbEntity
  8
View
100
AcDbSpline
210
0
220
0
230
1
 70
8
 71
3
 72
8
 73
4
 74
0
 40
0
 40
0
 40
0
 40
0
 40
1
 40
1
 40
1
 40
1
 10
85.743
 20
180.649
 30
0
 10
87.6514
 20
180.226
 30
0
 10
88.8332
 20
180.34
 30
0
 10
90.0164
 20
180.577
 30
0
  0
SPLINE
  5
C13
330
A02
100
AcDbEntity
  8
View
100
AcDbSpline
210
0
220
0
230
1
 70
8
 71
3
 72
8
 73
4
 74
0
 40
0
 40
0
 40
0
 40
0
 40
1
 40
1
 40
1
 40
1
 10
92.8747
 20
181.036
 30
0
 10
93.7742
 20
181.049
 30
0
 10
94.8367
 20
180.883
 30
0
 10
96.1359
 20
180.304
 30
0
  0
SPLINE
  5
C14
330
A02
100
AcDbEntity
  8
View
100
AcDbSpline
210
0
220
0
230
1
 70
8
 71
3
 72
8
 73
4
 74
0
 40
0
 40
0
 40
0
 40
0
 40
1
 40
1
 40
1
 40
1
 10
100.827
 20
180.013
 30
0
 10
100.315
 20
181.056
 30
0
 10
99.3063
 20
182.143
 30
0
 10
97.347
 20
183.015
 30
0
  0
SPLINE
  5
C15
330
A02
100
AcDbEntity
  8
View
100
AcDbSpline
210
0
220
0
230
1
 70
8
 71
3
 72
8
 73
4
 74
0
 40
0
 40
0
 40
0
 40
0
 40
1
 40
1
 40
1
 40
1
 10
97.347
 20
183.015
 30
0
 10
94.4057
 20
184.323
 30
0
 10
92.7246
 20
184.017
 30
0
 10
91.4339
 20
183.698
 30
0
  0
SPLINE
  5
C16
330
A02
100
AcDbEntity
  8
View
100
AcDbSpline
210
0
220
0
230
1
 70
8
 71
3
 72
8
 73
4
 74
0
 40
0
 40
0
 40
0
 40
0
 40
1
 40
1
 40
1
 40
1
 10
91.4339
 20
183.698
 30
0
 10
89.9978
 20
183.342
 30
0
 10
88.9547
 20
182.971
 30
0
 10
86.387
 20
183.543
 30
0
  0
SPLINE
  5
C17
330
A02
100
AcDbEntity
  8
View
100
AcDbSpline
210
0
220
0
230
1
 70
8
 71
3
 72
8
 73
4
 74
0
 40
0
 40
0
 40
0
 40
0
 40
1
 40
1
 40
1
 40
1
 10
102.27
 20
171.153
 30
0
 10
100.033
 20
172.712
 30
0
 10
100.074
 20
174.957
 30
0
 10
99.5791
 20
177.147
 30
0
  0
SPLINE
  5
C18
330
A02
100
AcDbEntity
  8
View
100
AcDbSpline
210
0
220
0
230
1
 70
8
 71
3
 72
8
 73
4
 74
0
 40
0
 40
0
 40
0
 40
0
 40
1
 40
1
 40
1
 40
1
 10
98.1145
 20
180.138
 30
0
 10
97.7093
 20
180.549
 30
0
 10
97.1946
 20
180.915
 30
0
 10
96.5396
 20
181.207
 30
0
  0
SPLINE
  5
C19
330
A02
100
AcDbEntity
  8
View
100
AcDbSpline
210
0
220
0
230
1
 70
8
 71
3
 72
8
 73
4
 74
0
 40
0
 40
0
 40
0
 40
0
 40
1
 40
1
 40
1
 40
1
 10
94.1174
 20
175.785
 30
0
 10
96.5097
 20
174.711
 30
0
 10
97.797
 20
174.942
 30
0
 10
99.4454
 20
174.973
 30
0
  0
SPLINE
  5
C1A
330
A02
100
AcDbEntity
  8
View
100
AcDbSpline
210
0
220
0
230
1
 70
8
 71
3
 72
8
 73
4
 74
0
 40
0
 40
0
 40
0
 40
0
 40
1
 40
1
 40
1
 40
1
 10
102.497
 20
174.435
 30
0
 10
102.957
 20
174.237
 30
0
 10
103.448
 20
173.968
 30
0
 10
103.972
 20
173.605
 30
0
  0
SPLINE
  5
C1B
330
A02
100
AcDbEntity
  8
View
100
AcDbSpline
210
0
220
0
230
1
 70
8
 71
3
 72
8
 73
4
 74
0
 40
0
 40
0
 40
0
 40
0
 40
1
 40
1
 40
1
 40
1
 10
105.673
 20
176.056
 30
0
 10
103.111
 20
177.831
 30
0
 10
101.457
 20
177.825
 30
0
 10
100.156
 20
177.739
 30
0
  0
SPLINE
  5
C1C
330
A02
100
AcDbEntity
  8
View
100
AcDbSpline
210
0
220
0
230
1
 70
8
 71
3
 72
8
 73
4
 74
0
 40
0
 40
0
 40
0
 40
0
 40
1
 40
1
 40
1
 40
1
 10
100.156
 20
177.739
 30
0
 10
98.7235
 20
177.643
 30
0
 10
97.6355
 20
177.464
 30
0
 10
95.3285
 20
178.496
 30
0
  0
SPLINE
  5
C1D
330
A02
100
AcDbEntity
  8
View
100
AcDbSpline
210
0
220
0
230
1
 70
8
 71
3
 72
8
 73
4
 74
0
 40
0
 40
0
 40
0
 40
0
 40
1
 40
1
 40
1
 40
1
 10
102.838
 20
171.971
 30
0
 10
100.761
 20
173.416
 30
0
 10
100.83
 20
175.208
 30
0
 10
100.538
 20
177.209
 30
0
  0
SPLINE
  5
C1E
330
A02
100
AcDbEntity
  8
View
100
AcDbSpline
210
0
220
0
230
1
 70
8
 71
3
 72
8
 73
4
 74
0
 40
0
 40
0
 40
0
 40
0
 40
1
 40
1
 40
1
 40
1
 10
99.6138
 20
179.964
 30
0
 10
99.0944
 20
180.762
 30
0
 10
98.2666
 20
181.522
 30
0
 10
96.9433
 20
182.111
 30
0
  0
SPLINE
  5
C1F
330
A02
100
AcDbEntity
  8
View
100
AcDbSpline
210
0
220
0
230
1
 70
8
 71
3
 72
8
 73
4
 74
0
 40
0
 40
0
 40
0
 40
0
 40
1
 40
1
 40
1
 40
1
 10
94.5211
 20
176.689
 30
0
 10
96.6102
 20
175.752
 30
0
 10
97.8759
 20
175.775
 30
0
 10
99.2841
 20
175.817
 30
0
  0
SPLINE
  5
C20
330
A02
100
AcDbEntity
  8
View
100
AcDbSpline
210
0
220
0
230
1
 70
8
 71
3
 72
8
 73
4
 74
0
 40
0
 40
0
 40
0
 40
0
 40
1
 40
1
 40
1
 40
1
 10
102.13
 20
175.589
 30
0
 10
102.848
 20
175.392
 30
0
 10
103.648
 20
175.04
 30
0
 10
104.539
 20
174.422
 30
0
  0
SPLINE
  5
C21
330
A02
100
AcDbEntity
  8
View
100
AcDbSpline
210
0
220
0
230
1
 70
8
 71
3
 72
8
 73
4
 74
0
 40
0
 40
0
 40
0
 40
0
 40
1
 40
1
 40
1
 40
1
 10
106.24
 20
176.873
 30
0
 10
103.634
 20
178.677
 30
0
 10
101.956
 20
178.683
 30
0
 10
100.638
 20
178.606
 30
0
  0
SPLINE
  5
C22
330
A02
100
AcDbEntity
  8
View
100
AcDbSpline
210
0
220
0
230
1
 70
8
 71
3
 72
8
 73
4
 74
0
 40
0
 40
0
 40
0
 40
0
 40
1
 40
1
 40
1
 40
1
 10
100.638
 20
178.606
 30
0
 10
99.1852
 20
178.52
 30
0
 10
98.0851
 20
178.349
 30
0
 10
95.7322
 20
179.4
 30
0
  0
SPLINE
  5
C23
330
A02
100
AcDbEntity
  8
View
100
AcDbSpline
210
0
220
0
230
1
 70
8
 71
3
 72
8
 73
4
 74
0
 40
0
 40
0
 40
0
 40
0
 40
1
 40
1
 40
1
 40
1
 10
103.405
 20
172.788
 30
0
 10
101.543
 20
174.082
 30
0
 10
101.533
 20
175.548
 30
0
 10
101.433
 20
177.199
 30
0
  0
SPLINE
  5
C24
330
A02
100
AcDbEntity
  8
View
100
AcDbSpline
210
0
220
0
230
1
 70
8
 71
3
 72
8
 73
4
 74
0
 40
0
 40
0
 40
0
 40
0
 40
1
 40
1
 40
1
 40
1
 10
94.9248
 20
177.592
 30
0
 10
96.7164
 20
176.79
 30
0
 10
97.9106
 20
176.669
 30
0
 10
99.1206
 20
176.672
 30
0
  0
SPLINE
  5
C25
330
A02
100
AcDbEntity
  8
View
100
AcDbSpline
210
0
220
0
230
1
 70
8
 71
3
 72
8
 73
4
 74
0
 40
0
 40
0
 40
0
 40
0
 40
1
 40
1
 40
1
 40
1
 10
102.027
 20
176.574
 30
0
 10
102.917
 20
176.416
 30
0
 10
103.932
 20
176.053
 30
0
 10
105.106
 20
175.239
 30
0
  0
SPLINE
  5
C26
330
A02
100
AcDbEntity
  8
View
100
AcDbSpline
210
0
220
0
230
1
 70
8
 71
3
 72
8
 73
4
 74
0
 40
0
 40
0
 40
0
 40
0
 40
1
 40
1
 40
1
 40
1
 10
109.87
 20
173.505
 30
0
 10
108.407
 20
173.697
 30
0
 10
107.27
 20
173.739
 30
0
 10
105.106
 20
175.239
 30
0
  0
SPLINE
  5
C27
330
A02
100
AcDbEntity
  8
View
100
AcDbSpline
210
0
220
0
230
1
 70
8
 71
3
 72
8
 73
4
 74
0
 40
0
 40
0
 40
0
 40
0
 40
1
 40
1
 40
1
 40
1
 10
115.151
 20
170.726
 30
0
 10
112.87
 20
173.007
 30
0
 10
111.199
 20
173.33
 30
0
 10
109.87
 20
173.505
 30
0
  0
SPLINE
  5
C28
330
A02
100
AcDbEntity
  8
View
100
AcDbSpline
210
0
220
0
230
1
 70
8
 71
3
 72
8
 73
4
 74
0
 40
0
 40
0
 40
0
 40
0
 40
1
 40
1
 40
1
 40
1
 10
109.679
 20
174.092
 30
0
 10
109.365
 20
175.215
 30
0
 10
108.572
 20
176.47
 30
0
 10
106.807
 20
177.69
 30
0
  0
SPLINE
  5
C29
330
A02
100
AcDbEntity
  8
View
100
AcDbSpline
210
0
220
0
230
1
 70
8
 71
3
 72
8
 73
4
 74
0
 40
0
 40
0
 40
0
 40
0
 40
1
 40
1
 40
1
 40
1
 10
106.807
 20
177.69
 30
0
 10
104.158
 20
179.523
 30
0
 10
102.455
 20
179.541
 30
0
 10
101.121
 20
179.472
 30
0
  0
SPLINE
  5
C2A
330
A02
100
AcDbEntity
  8
View
100
AcDbSpline
210
0
220
0
230
1
 70
8
 71
3
 72
8
 73
4
 74
0
 40
0
 40
0
 40
0
 40
0
 40
1
 40
1
 40
1
 40
1
 10
101.121
 20
179.472
 30
0
 10
99.6469
 20
179.397
 30
0
 10
98.5347
 20
179.233
 30
0
 10
96.1359
 20
180.304
 30
0
  0
SPLINE
  5
C2B
330
A02
100
AcDbEntity
  8
View
100
AcDbSpline
210
0
220
0
230
1
 70
8
 71
3
 72
8
 73
4
 74
0
 40
0
 40
0
 40
0
 40
0
 40
1
 40
1
 40
1
 40
1
 10
109.511
 20
165.086
 30
0
 10
111.385
 20
163.213
 30
0
 10
112.7
 20
162.968
 30
0
 10
114.255
 20
162.418
 30
0
  0
SPLINE
  5
C2C
330
A02
100
AcDbEntity
  8
View
100
AcDbSpline
210
0
220
0
230
1
 70
8
 71
3
 72
8
 73
4
 74
0
 40
0
 40
0
 40
0
 40
0
 40
1
 40
1
 40
1
 40
1
 10
109.511
 20
165.086
 30
0
 10
107.576
 20
167.022
 30
0
 10
108.015
 20
169.236
 30
0
 10
107.924
 20
171.488
 30
0
  0
SPLINE
  5
C2D
330
A02
100
AcDbEntity
  8
View
100
AcDbSpline
210
0
220
0
230
1
 70
8
 71
3
 72
8
 73
4
 74
0
 40
0
 40
0
 40
0
 40
0
 40
1
 40
1
 40
1
 40
1
 10
107.027
 20
174.71
 30
0
 10
106.704
 20
175.19
 30
0
 10
106.264
 20
175.647
 30
0
 10
105.673
 20
176.056
 30
0
  0
SPLINE
  5
C2E
330
A02
100
AcDbEntity
  8
View
100
AcDbSpline
210
0
220
0
230
1
 70
8
 71
3
 72
8
 73
4
 74
0
 40
0
 40
0
 40
0
 40
0
 40
1
 40
1
 40
1
 40
1
 10
102.27
 20
171.153
 30
0
 10
104.439
 20
169.643
 30
0
 10
105.769
 20
169.633
 30
0
 10
107.399
 20
169.365
 30
0
  0
SPLINE
  5
C2F
330
A02
100
AcDbEntity
  8
View
100
AcDbSpline
210
0
220
0
230
1
 70
8
 71
3
 72
8
 73
4
 74
0
 40
0
 40
0
 40
0
 40
0
 40
1
 40
1
 40
1
 40
1
 10
110.318
 20
168.283
 30
0
 10
110.737
 20
168.006
 30
0
 10
111.174
 20
167.653
 30
0
 10
111.626
 20
167.201
 30
0
  0
SPLINE
  5
C30
330
A02
100
AcDbEntity
  8
View
100
AcDbSpline
210
0
220
0
230
1
 70
8
 71
3
 72
8
 73
4
 74
0
 40
0
 40
0
 40
0
 40
0
 40
1
 40
1
 40
1
 40
1
 10
115.899
 20
164.767
 30
0
 10
114.525
 20
165.182
 30
0
 10
113.424
 20
165.403
 30
0
 10
111.626
 20
167.201
 30
0
  0
SPLINE
  5
C31
330
A02
100
AcDbEntity
  8
View
100
AcDbSpline
210
0
220
0
230
1
 70
8
 71
3
 72
8
 73
4
 74
0
 40
0
 40
0
 40
0
 40
0
 40
1
 40
1
 40
1
 40
1
 10
120.481
 20
161.248
 30
0
 10
118.705
 20
163.812
 30
0
 10
117.153
 20
164.389
 30
0
 10
115.899
 20
164.767
 30
0
  0
SPLINE
  5
C32
330
A02
100
AcDbEntity
  8
View
100
AcDbSpline
210
0
220
0
230
1
 70
8
 71
3
 72
8
 73
4
 74
0
 40
0
 40
0
 40
0
 40
0
 40
1
 40
1
 40
1
 40
1
 10
121.276
 20
159.513
 30
0
 10
121.141
 20
160.076
 30
0
 10
120.89
 20
160.657
 30
0
 10
120.481
 20
161.248
 30
0
  0
SPLINE
  5
C33
330
A02
100
AcDbEntity
  8
View
100
AcDbSpline
210
0
220
0
230
1
 70
8
 71
3
 72
8
 73
4
 74
0
 40
0
 40
0
 40
0
 40
0
 40
1
 40
1
 40
1
 40
1
 10
114.835
 20
167.748
 30
0
 10
114.601
 20
168.279
 30
0
 10
114.25
 20
168.807
 30
0
 10
113.741
 20
169.316
 30
0
  0
SPLINE
  5
C34
330
A02
100
AcDbEntity
  8
View
100
AcDbSpline
210
0
220
0
230
1
 70
8
 71
3
 72
8
 73
4
 74
0
 40
0
 40
0
 40
0
 40
0
 40
1
 40
1
 40
1
 40
1
 10
113.741
 20
169.316
 30
0
 10
111.532
 20
171.524
 30
0
 10
109.903
 20
171.817
 30
0
 10
108.602
 20
171.968
 30
0
  0
SPLINE
  5
C35
330
A02
100
AcDbEntity
  8
View
100
AcDbSpline
210
0
220
0
230
1
 70
8
 71
3
 72
8
 73
4
 74
0
 40
0
 40
0
 40
0
 40
0
 40
1
 40
1
 40
1
 40
1
 10
108.602
 20
171.968
 30
0
 10
107.175
 20
172.133
 30
0
 10
106.057
 20
172.156
 30
0
 10
103.972
 20
173.605
 30
0
  0
SPLINE
  5
C36
330
A02
100
AcDbEntity
  8
View
100
AcDbSpline
210
0
220
0
230
1
 70
8
 71
3
 72
8
 73
4
 74
0
 40
0
 40
0
 40
0
 40
0
 40
1
 40
1
 40
1
 40
1
 10
110.216
 20
165.791
 30
0
 10
111.851
 20
164.157
 30
0
 10
113.064
 20
163.725
 30
0
 10
114.4
 20
163.269
 30
0
  0
SPLINE
  5
C37
330
A02
100
AcDbEntity
  8
View
100
AcDbSpline
210
0
220
0
230
1
 70
8
 71
3
 72
8
 73
4
 74
0
 40
0
 40
0
 40
0
 40
0
 40
1
 40
1
 40
1
 40
1
 10
110.216
 20
165.791
 30
0
 10
108.42
 20
167.587
 30
0
 10
108.808
 20
169.347
 30
0
 10
108.882
 20
171.376
 30
0
  0
SPLINE
  5
C38
330
A02
100
AcDbEntity
  8
View
100
AcDbSpline
210
0
220
0
230
1
 70
8
 71
3
 72
8
 73
4
 74
0
 40
0
 40
0
 40
0
 40
0
 40
1
 40
1
 40
1
 40
1
 10
108.474
 20
174.264
 30
0
 10
108.108
 20
175.147
 30
0
 10
107.433
 20
176.047
 30
0
 10
106.24
 20
176.873
 30
0
  0
SPLINE
  5
C39
330
A02
100
AcDbEntity
  8
View
100
AcDbSpline
210
0
220
0
230
1
 70
8
 71
3
 72
8
 73
4
 74
0
 40
0
 40
0
 40
0
 40
0
 40
1
 40
1
 40
1
 40
1
 10
102.838
 20
171.971
 30
0
 10
104.73
 20
170.653
 30
0
 10
105.995
 20
170.442
 30
0
 10
107.392
 20
170.229
 30
0
  0
SPLINE
  5
C3A
330
A02
100
AcDbEntity
  8
View
100
AcDbSpline
210
0
220
0
230
1
 70
8
 71
3
 72
8
 73
4
 74
0
 40
0
 40
0
 40
0
 40
0
 40
1
 40
1
 40
1
 40
1
 10
110.163
 20
169.488
 30
0
 10
110.836
 20
169.165
 30
0
 10
111.562
 20
168.675
 30
0
 10
112.331
 20
167.906
 30
0
  0
SPLINE
  5
C3B
330
A02
100
AcDbEntity
  8
View
100
AcDbSpline
210
0
220
0
230
1
 70
8
 71
3
 72
8
 73
4
 74
0
 40
0
 40
0
 40
0
 40
0
 40
1
 40
1
 40
1
 40
1
 10
116.659
 20
165.412
 30
0
 10
115.271
 20
165.843
 30
0
 10
114.162
 20
166.075
 30
0
 10
112.331
 20
167.906
 30
0
  0
SPLINE
  5
C3C
330
A02
100
AcDbEntity
  8
View
100
AcDbSpline
210
0
220
0
230
1
 70
8
 71
3
 72
8
 73
4
 74
0
 40
0
 40
0
 40
0
 40
0
 40
1
 40
1
 40
1
 40
1
 10
121.298
 20
161.816
 30
0
 10
119.493
 20
164.423
 30
0
 10
117.924
 20
165.019
 30
0
 10
116.659
 20
165.412
 30
0
  0
SPLINE
  5
C3D
330
A02
100
AcDbEntity
  8
View
100
AcDbSpline
210
0
220
0
230
1
 70
8
 71
3
 72
8
 73
4
 74
0
 40
0
 40
0
 40
0
 40
0
 40
1
 40
1
 40
1
 40
1
 10
122.471
 20
158.588
 30
0
 10
122.438
 20
159.542
 30
0
 10
122.124
 20
160.623
 30
0
 10
121.298
 20
161.816
 30
0
  0
SPLINE
  5
C3E
330
A02
100
AcDbEntity
  8
View
100
AcDbSpline
210
0
220
0
230
1
 70
8
 71
3
 72
8
 73
4
 74
0
 40
0
 40
0
 40
0
 40
0
 40
1
 40
1
 40
1
 40
1
 10
116.18
 20
167.051
 30
0
 10
115.977
 20
167.986
 30
0
 10
115.473
 20
168.994
 30
0
 10
114.446
 20
170.021
 30
0
  0
SPLINE
  5
C3F
330
A02
100
AcDbEntity
  8
View
100
AcDbSpline
210
0
220
0
230
1
 70
8
 71
3
 72
8
 73
4
 74
0
 40
0
 40
0
 40
0
 40
0
 40
1
 40
1
 40
1
 40
1
 10
114.446
 20
170.021
 30
0
 10
112.201
 20
172.266
 30
0
 10
110.551
 20
172.574
 30
0
 10
109.236
 20
172.736
 30
0
  0
SPLINE
  5
C40
330
A02
100
AcDbEntity
  8
View
100
AcDbSpline
210
0
220
0
230
1
 70
8
 71
3
 72
8
 73
4
 74
0
 40
0
 40
0
 40
0
 40
0
 40
1
 40
1
 40
1
 40
1
 10
109.236
 20
172.736
 30
0
 10
107.791
 20
172.915
 30
0
 10
106.663
 20
172.948
 30
0
 10
104.539
 20
174.422
 30
0
  0
SPLINE
  5
C41
330
A02
100
AcDbEntity
  8
View
100
AcDbSpline
210
0
220
0
230
1
 70
8
 71
3
 72
8
 73
4
 74
0
 40
0
 40
0
 40
0
 40
0
 40
1
 40
1
 40
1
 40
1
 10
110.921
 20
166.496
 30
0
 10
112.321
 20
165.096
 30
0
 10
113.411
 20
164.555
 30
0
 10
114.548
 20
164.131
 30
0
  0
SPLINE
  5
C42
330
A02
100
AcDbEntity
  8
View
100
AcDbSpline
210
0
220
0
230
1
 70
8
 71
3
 72
8
 73
4
 74
0
 40
0
 40
0
 40
0
 40
0
 40
1
 40
1
 40
1
 40
1
 10
110.921
 20
166.496
 30
0
 10
109.31
 20
168.108
 30
0
 10
109.561
 20
169.524
 30
0
 10
109.764
 20
171.203
 30
0
  0
SPLINE
  5
C43
330
A02
100
AcDbEntity
  8
View
100
AcDbSpline
210
0
220
0
230
1
 70
8
 71
3
 72
8
 73
4
 74
0
 40
0
 40
0
 40
0
 40
0
 40
1
 40
1
 40
1
 40
1
 10
103.405
 20
172.788
 30
0
 10
105.027
 20
171.66
 30
0
 10
106.191
 20
171.32
 30
0
 10
107.385
 20
171.103
 30
0
  0
SPLINE
  5
C44
330
A02
100
AcDbEntity
  8
View
100
AcDbSpline
210
0
220
0
230
1
 70
8
 71
3
 72
8
 73
4
 74
0
 40
0
 40
0
 40
0
 40
0
 40
1
 40
1
 40
1
 40
1
 10
110.238
 20
170.48
 30
0
 10
111.088
 20
170.164
 30
0
 10
112.024
 20
169.623
 30
0
 10
113.036
 20
168.611
 30
0
  0
SPLINE
  5
C45
330
A02
100
AcDbEntity
  8
View
100
AcDbSpline
210
0
220
0
230
1
 70
8
 71
3
 72
8
 73
4
 74
0
 40
0
 40
0
 40
0
 40
0
 40
1
 40
1
 40
1
 40
1
 10
117.419
 20
166.056
 30
0
 10
116.016
 20
166.504
 30
0
 10
114.9
 20
166.747
 30
0
 10
113.036
 20
168.611
 30
0
  0
SPLINE
  5
C46
330
A02
100
AcDbEntity
  8
View
100
AcDbSpline
210
0
220
0
230
1
 70
8
 71
3
 72
8
 73
4
 74
0
 40
0
 40
0
 40
0
 40
0
 40
1
 40
1
 40
1
 40
1
 10
122.115
 20
162.383
 30
0
 10
120.282
 20
165.033
 30
0
 10
118.695
 20
165.649
 30
0
 10
117.419
 20
166.056
 30
0
  0
SPLINE
  5
C47
330
A02
100
AcDbEntity
  8
View
100
AcDbSpline
210
0
220
0
230
1
 70
8
 71
3
 72
8
 73
4
 74
0
 40
0
 40
0
 40
0
 40
0
 40
1
 40
1
 40
1
 40
1
 10
123.534
 20
158.004
 30
0
 10
123.635
 20
159.164
 30
0
 10
123.336
 20
160.618
 30
0
 10
122.115
 20
162.383
 30
0
  0
SPLINE
  5
C48
330
A02
100
AcDbEntity
  8
View
100
AcDbSpline
210
0
220
0
230
1
 70
8
 71
3
 72
8
 73
4
 74
0
 40
0
 40
0
 40
0
 40
0
 40
1
 40
1
 40
1
 40
1
 10
115.578
 20
157.846
 30
0
 10
117.087
 20
155.68
 30
0
 10
118.328
 20
155.211
 30
0
 10
119.753
 20
154.394
 30
0
  0
SPLINE
  5
C49
330
A02
100
AcDbEntity
  8
View
100
AcDbSpline
210
0
220
0
230
1
 70
8
 71
3
 72
8
 73
4
 74
0
 40
0
 40
0
 40
0
 40
0
 40
1
 40
1
 40
1
 40
1
 10
115.578
 20
157.846
 30
0
 10
114.015
 20
160.089
 30
0
 10
114.831
 20
162.127
 30
0
 10
115.147
 20
164.415
 30
0
  0
SPLINE
  5
C4A
330
A02
100
AcDbEntity
  8
View
100
AcDbSpline
210
0
220
0
230
1
 70
8
 71
3
 72
8
 73
4
 74
0
 40
0
 40
0
 40
0
 40
0
 40
1
 40
1
 40
1
 40
1
 10
116.936
 20
160.841
 30
0
 10
117.299
 20
160.494
 30
0
 10
117.666
 20
160.07
 30
0
 10
118.03
 20
159.547
 30
0
  0
SPLINE
  5
C4B
330
A02
100
AcDbEntity
  8
View
100
AcDbSpline
210
0
220
0
230
1
 70
8
 71
3
 72
8
 73
4
 74
0
 40
0
 40
0
 40
0
 40
0
 40
1
 40
1
 40
1
 40
1
 10
121.786
 20
156.399
 30
0
 10
120.513
 20
157.053
 30
0
 10
119.477
 20
157.464
 30
0
 10
118.03
 20
159.547
 30
0
  0
SPLINE
  5
C4C
330
A02
100
AcDbEntity
  8
View
100
AcDbSpline
210
0
220
0
230
1
 70
8
 71
3
 72
8
 73
4
 74
0
 40
0
 40
0
 40
0
 40
0
 40
1
 40
1
 40
1
 40
1
 10
125.632
 20
152.115
 30
0
 10
124.367
 20
154.954
 30
0
 10
122.943
 20
155.804
 30
0
 10
121.786
 20
156.399
 30
0
  0
SPLINE
  5
C4D
330
A02
100
AcDbEntity
  8
View
100
AcDbSpline
210
0
220
0
230
1
 70
8
 71
3
 72
8
 73
4
 74
0
 40
0
 40
0
 40
0
 40
0
 40
1
 40
1
 40
1
 40
1
 10
126.088
 20
150.267
 30
0
 10
126.062
 20
150.843
 30
0
 10
125.924
 20
151.46
 30
0
 10
125.632
 20
152.115
 30
0
  0
SPLINE
  5
C4E
330
A02
100
AcDbEntity
  8
View
100
AcDbSpline
210
0
220
0
230
1
 70
8
 71
3
 72
8
 73
4
 74
0
 40
0
 40
0
 40
0
 40
0
 40
1
 40
1
 40
1
 40
1
 10
116.395
 20
158.413
 30
0
 10
117.711
 20
156.522
 30
0
 10
118.822
 20
155.886
 30
0
 10
120.049
 20
155.2
 30
0
  0
SPLINE
  5
C4F
330
A02
100
AcDbEntity
  8
View
100
AcDbSpline
210
0
220
0
230
1
 70
8
 71
3
 72
8
 73
4
 74
0
 40
0
 40
0
 40
0
 40
0
 40
1
 40
1
 40
1
 40
1
 10
116.395
 20
158.413
 30
0
 10
114.948
 20
160.492
 30
0
 10
115.638
 20
162.15
 30
0
 10
116.07
 20
164.135
 30
0
  0
SPLINE
  5
C50
330
A02
100
AcDbEntity
  8
View
100
AcDbSpline
210
0
220
0
230
1
 70
8
 71
3
 72
8
 73
4
 74
0
 40
0
 40
0
 40
0
 40
0
 40
1
 40
1
 40
1
 40
1
 10
116.996
 20
162.052
 30
0
 10
117.601
 20
161.616
 30
0
 10
118.228
 20
161.006
 30
0
 10
118.847
 20
160.114
 30
0
  0
SPLINE
  5
C51
330
A02
100
AcDbEntity
  8
View
100
AcDbSpline
210
0
220
0
230
1
 70
8
 71
3
 72
8
 73
4
 74
0
 40
0
 40
0
 40
0
 40
0
 40
1
 40
1
 40
1
 40
1
 10
122.646
 20
156.893
 30
0
 10
121.362
 20
157.567
 30
0
 10
120.32
 20
157.991
 30
0
 10
118.847
 20
160.114
 30
0
  0
SPLINE
  5
C52
330
A02
100
AcDbEntity
  8
View
100
AcDbSpline
210
0
220
0
230
1
 70
8
 71
3
 72
8
 73
4
 74
0
 40
0
 40
0
 40
0
 40
0
 40
1
 40
1
 40
1
 40
1
 10
126.536
 20
152.519
 30
0
 10
125.249
 20
155.409
 30
0
 10
123.812
 20
156.282
 30
0
 10
122.646
 20
156.893
 30
0
  0
SPLINE
  5
C53
330
A02
100
AcDbEntity
  8
View
100
AcDbSpline
210
0
220
0
230
1
 70
8
 71
3
 72
8
 73
4
 74
0
 40
0
 40
0
 40
0
 40
0
 40
1
 40
1
 40
1
 40
1
 10
127.084
 20
149.136
 30
0
 10
127.232
 20
150.076
 30
0
 10
127.125
 20
151.195
 30
0
 10
126.536
 20
152.519
 30
0
  0
SPLINE
  5
C54
330
A02
100
AcDbEntity
  8
View
100
AcDbSpline
210
0
220
0
230
1
 70
8
 71
3
 72
8
 73
4
 74
0
 40
0
 40
0
 40
0
 40
0
 40
1
 40
1
 40
1
 40
1
 10
117.212
 20
158.98
 30
0
 10
118.339
 20
157.359
 30
0
 10
119.31
 20
156.636
 30
0
 10
120.348
 20
156.018
 30
0
  0
SPLINE
  5
C55
330
A02
100
AcDbEntity
  8
View
100
AcDbSpline
210
0
220
0
230
1
 70
8
 71
3
 72
8
 73
4
 74
0
 40
0
 40
0
 40
0
 40
0
 40
1
 40
1
 40
1
 40
1
 10
117.212
 20
158.98
 30
0
 10
115.915
 20
160.846
 30
0
 10
116.41
 20
162.192
 30
0
 10
116.907
 20
163.809
 30
0
  0
SPLINE
  5
C56
330
A02
100
AcDbEntity
  8
View
100
AcDbSpline
210
0
220
0
230
1
 70
8
 71
3
 72
8
 73
4
 74
0
 40
0
 40
0
 40
0
 40
0
 40
1
 40
1
 40
1
 40
1
 10
117.335
 20
166.668
 30
0
 10
117.226
 20
167.83
 30
0
 10
116.669
 20
169.207
 30
0
 10
115.151
 20
170.726
 30
0
  0
SPLINE
  5
C57
330
A02
100
AcDbEntity
  8
View
100
AcDbSpline
210
0
220
0
230
1
 70
8
 71
3
 72
8
 73
4
 74
0
 40
0
 40
0
 40
0
 40
0
 40
1
 40
1
 40
1
 40
1
 10
117.246
 20
163.014
 30
0
 10
118.026
 20
162.553
 30
0
 10
118.85
 20
161.855
 30
0
 10
119.664
 20
160.681
 30
0
  0
SPLINE
  5
C58
330
A02
100
AcDbEntity
  8
View
100
AcDbSpline
210
0
220
0
230
1
 70
8
 71
3
 72
8
 73
4
 74
0
 40
0
 40
0
 40
0
 40
0
 40
1
 40
1
 40
1
 40
1
 10
123.507
 20
157.388
 30
0
 10
122.211
 20
158.082
 30
0
 10
121.163
 20
158.519
 30
0
 10
119.664
 20
160.681
 30
0
  0
SPLINE
  5
C59
330
A02
100
AcDbEntity
  8
View
100
AcDbSpline
210
0
220
0
230
1
 70
8
 71
3
 72
8
 73
4
 74
0
 40
0
 40
0
 40
0
 40
0
 40
1
 40
1
 40
1
 40
1
 10
127.439
 20
152.922
 30
0
 10
126.131
 20
155.863
 30
0
 10
124.681
 20
156.759
 30
0
 10
123.507
 20
157.388
 30
0
  0
SPLINE
  5
C5A
330
A02
100
AcDbEntity
  8
View
100
AcDbSpline
210
0
220
0
230
1
 70
8
 71
3
 72
8
 73
4
 74
0
 40
0
 40
0
 40
0
 40
0
 40
1
 40
1
 40
1
 40
1
 10
120.21
 20
149.693
 30
0
 10
121.282
 20
147.305
 30
0
 10
122.393
 20
146.625
 30
0
 10
123.631
 20
145.554
 30
0
  0
SPLINE
  5
C5B
330
A02
100
AcDbEntity
  8
View
100
AcDbSpline
210
0
220
0
230
1
 70
8
 71
3
 72
8
 73
4
 74
0
 40
0
 40
0
 40
0
 40
0
 40
1
 40
1
 40
1
 40
1
 10
120.21
 20
149.693
 30
0
 10
119.1
 20
152.165
 30
0
 10
120.265
 20
154
 30
0
 10
120.986
 20
156.188
 30
0
  0
SPLINE
  5
C5C
330
A02
100
AcDbEntity
  8
View
100
AcDbSpline
210
0
220
0
230
1
 70
8
 71
3
 72
8
 73
4
 74
0
 40
0
 40
0
 40
0
 40
0
 40
1
 40
1
 40
1
 40
1
 10
122.09
 20
152.368
 30
0
 10
122.381
 20
151.964
 30
0
 10
122.662
 20
151.482
 30
0
 10
122.921
 20
150.904
 30
0
  0
SPLINE
  5
C5D
330
A02
100
AcDbEntity
  8
View
100
AcDbSpline
210
0
220
0
230
1
 70
8
 71
3
 72
8
 73
4
 74
0
 40
0
 40
0
 40
0
 40
0
 40
1
 40
1
 40
1
 40
1
 10
126.002
 20
147.123
 30
0
 10
124.879
 20
148.009
 30
0
 10
123.952
 20
148.599
 30
0
 10
122.921
 20
150.904
 30
0
  0
SPLINE
  5
C5E
330
A02
100
AcDbEntity
  8
View
100
AcDbSpline
210
0
220
0
230
1
 70
8
 71
3
 72
8
 73
4
 74
0
 40
0
 40
0
 40
0
 40
0
 40
1
 40
1
 40
1
 40
1
 10
128.932
 20
142.177
 30
0
 10
128.255
 20
145.211
 30
0
 10
127.015
 20
146.325
 30
0
 10
126.002
 20
147.123
 30
0
  0
SPLINE
  5
C5F
330
A02
100
AcDbEntity
  8
View
100
AcDbSpline
210
0
220
0
230
1
 70
8
 71
3
 72
8
 73
4
 74
0
 40
0
 40
0
 40
0
 40
0
 40
1
 40
1
 40
1
 40
1
 10
121.113
 20
150.096
 30
0
 10
122.049
 20
148.01
 30
0
 10
123.006
 20
147.188
 30
0
 10
124.075
 20
146.284
 30
0
  0
SPLINE
  5
C60
330
A02
100
AcDbEntity
  8
View
100
AcDbSpline
210
0
220
0
230
1
 70
8
 71
3
 72
8
 73
4
 74
0
 40
0
 40
0
 40
0
 40
0
 40
1
 40
1
 40
1
 40
1
 10
121.113
 20
150.096
 30
0
 10
120.085
 20
152.389
 30
0
 10
121.058
 20
153.879
 30
0
 10
121.84
 20
155.748
 30
0
  0
SPLINE
  5
C61
330
A02
100
AcDbEntity
  8
View
100
AcDbSpline
210
0
220
0
230
1
 70
8
 71
3
 72
8
 73
4
 74
0
 40
0
 40
0
 40
0
 40
0
 40
1
 40
1
 40
1
 40
1
 10
122.37
 20
153.542
 30
0
 10
122.882
 20
153.005
 30
0
 10
123.384
 20
152.293
 30
0
 10
123.825
 20
151.307
 30
0
  0
SPLINE
  5
C62
330
A02
100
AcDbEntity
  8
View
100
AcDbSpline
210
0
220
0
230
1
 70
8
 71
3
 72
8
 73
4
 74
0
 40
0
 40
0
 40
0
 40
0
 40
1
 40
1
 40
1
 40
1
 10
126.937
 20
147.443
 30
0
 10
125.805
 20
148.352
 30
0
 10
124.875
 20
148.956
 30
0
 10
123.825
 20
151.307
 30
0
  0
SPLINE
  5
C63
330
A02
100
AcDbEntity
  8
View
100
AcDbSpline
210
0
220
0
230
1
 70
8
 71
3
 72
8
 73
4
 74
0
 40
0
 40
0
 40
0
 40
0
 40
1
 40
1
 40
1
 40
1
 10
129.897
 20
142.391
 30
0
 10
129.206
 20
145.484
 30
0
 10
127.956
 20
146.625
 30
0
 10
126.937
 20
147.443
 30
0
  0
SPLINE
  5
C64
330
A02
100
AcDbEntity
  8
View
100
AcDbSpline
210
0
220
0
230
1
 70
8
 71
3
 72
8
 73
4
 74
0
 40
0
 40
0
 40
0
 40
0
 40
1
 40
1
 40
1
 40
1
 10
122.017
 20
150.5
 30
0
 10
122.819
 20
148.71
 30
0
 10
123.626
 20
147.827
 30
0
 10
124.524
 20
147.025
 30
0
  0
SPLINE
  5
C65
330
A02
100
AcDbEntity
  8
View
100
AcDbSpline
210
0
220
0
230
1
 70
8
 71
3
 72
8
 73
4
 74
0
 40
0
 40
0
 40
0
 40
0
 40
1
 40
1
 40
1
 40
1
 10
122.017
 20
150.5
 30
0
 10
121.094
 20
152.561
 30
0
 10
121.821
 20
153.782
 30
0
 10
122.601
 20
155.278
 30
0
  0
SPLINE
  5
C66
330
A02
100
AcDbEntity
  8
View
100
AcDbSpline
210
0
220
0
230
1
 70
8
 71
3
 72
8
 73
4
 74
0
 40
0
 40
0
 40
0
 40
0
 40
1
 40
1
 40
1
 40
1
 10
122.789
 20
154.438
 30
0
 10
123.468
 20
153.845
 30
0
 10
124.148
 20
153.01
 30
0
 10
124.728
 20
151.711
 30
0
  0
SPLINE
  5
C67
330
A02
100
AcDbEntity
  8
View
100
AcDbSpline
210
0
220
0
230
1
 70
8
 71
3
 72
8
 73
4
 74
0
 40
0
 40
0
 40
0
 40
0
 40
1
 40
1
 40
1
 40
1
 10
127.872
 20
147.762
 30
0
 10
126.732
 20
148.694
 30
0
 10
125.798
 20
149.314
 30
0
 10
124.728
 20
151.711
 30
0
  0
SPLINE
  5
C68
330
A02
100
AcDbEntity
  8
View
100
AcDbSpline
210
0
220
0
230
1
 70
8
 71
3
 72
8
 73
4
 74
0
 40
0
 40
0
 40
0
 40
0
 40
1
 40
1
 40
1
 40
1
 10
130.862
 20
142.606
 30
0
 10
130.157
 20
145.757
 30
0
 10
128.897
 20
146.925
 30
0
 10
127.872
 20
147.762
 30
0
  0
SPLINE
  5
C69
330
A02
100
AcDbEntity
  8
View
100
AcDbSpline
210
0
220
0
230
1
 70
8
 71
3
 72
8
 73
4
 74
0
 40
0
 40
0
 40
0
 40
0
 40
1
 40
1
 40
1
 40
1
 10
123.144
 20
140.889
 30
0
 10
122.565
 20
143.511
 30
0
 10
124.056
 20
145.065
 30
0
 10
125.18
 20
147.07
 30
0
  0
SPLINE
  5
C6A
330
A02
100
AcDbEntity
  8
View
100
AcDbSpline
210
0
220
0
230
1
 70
8
 71
3
 72
8
 73
4
 74
0
 40
0
 40
0
 40
0
 40
0
 40
1
 40
1
 40
1
 40
1
 10
125.518
 20
143.127
 30
0
 10
125.722
 20
142.675
 30
0
 10
125.901
 20
142.149
 30
0
 10
126.038
 20
141.533
 30
0
  0
SPLINE
  5
C6B
330
A02
100
AcDbEntity
  8
View
100
AcDbSpline
210
0
220
0
230
1
 70
8
 71
3
 72
8
 73
4
 74
0
 40
0
 40
0
 40
0
 40
0
 40
1
 40
1
 40
1
 40
1
 10
124.109
 20
141.104
 30
0
 10
123.569
 20
143.54
 30
0
 10
124.806
 20
144.796
 30
0
 10
125.93
 20
146.477
 30
0
  0
SPLINE
  5
C6C
330
A02
100
AcDbEntity
  8
View
100
AcDbSpline
210
0
220
0
230
1
 70
8
 71
3
 72
8
 73
4
 74
0
 40
0
 40
0
 40
0
 40
0
 40
1
 40
1
 40
1
 40
1
 10
126.022
 20
144.219
 30
0
 10
126.417
 20
143.595
 30
0
 10
126.769
 20
142.799
 30
0
 10
127.003
 20
141.748
 30
0
  0
SPLINE
  5
C6D
330
A02
100
AcDbEntity
  8
View
100
AcDbSpline
210
0
220
0
230
1
 70
8
 71
3
 72
8
 73
4
 74
0
 40
0
 40
0
 40
0
 40
0
 40
1
 40
1
 40
1
 40
1
 10
125.074
 20
141.318
 30
0
 10
124.587
 20
143.511
 30
0
 10
125.532
 20
144.556
 30
0
 10
126.584
 20
145.871
 30
0
  0
SPLINE
  5
C6E
330
A02
100
AcDbEntity
  8
View
100
AcDbSpline
210
0
220
0
230
1
 70
8
 71
3
 72
8
 73
4
 74
0
 40
0
 40
0
 40
0
 40
0
 40
1
 40
1
 40
1
 40
1
 10
128.015
 20
148.361
 30
0
 10
128.332
 20
149.477
 30
0
 10
128.311
 20
150.963
 30
0
 10
127.439
 20
152.922
 30
0
  0
SPLINE
  5
C6F
330
A02
100
AcDbEntity
  8
View
100
AcDbSpline
210
0
220
0
230
1
 70
8
 71
3
 72
8
 73
4
 74
0
 40
0
 40
0
 40
0
 40
0
 40
1
 40
1
 40
1
 40
1
 10
126.605
 20
145.013
 30
0
 10
127.154
 20
144.302
 30
0
 10
127.658
 20
143.35
 30
0
 10
127.968
 20
141.962
 30
0
  0
SPLINE
  5
C70
330
A02
100
AcDbEntity
  8
View
100
AcDbSpline
210
0
220
0
230
1
 70
8
 71
3
 72
8
 73
4
 74
0
 40
0
 40
0
 40
0
 40
0
 40
1
 40
1
 40
1
 40
1
 10
124.121
 20
131.696
 30
0
 10
124.147
 20
134.384
 30
0
 10
125.988
 20
135.637
 30
0
 10
127.467
 20
137.322
 30
0
  0
SPLINE
  5
C71
330
A02
100
AcDbEntity
  8
View
100
AcDbSpline
210
0
220
0
230
1
 70
8
 71
3
 72
8
 73
4
 74
0
 40
0
 40
0
 40
0
 40
0
 40
1
 40
1
 40
1
 40
1
 10
129.011
 20
140.272
 30
0
 10
129.101
 20
140.843
 30
0
 10
129.089
 20
141.476
 30
0
 10
128.932
 20
142.177
 30
0
  0
SPLINE
  5
C72
330
A02
100
AcDbEntity
  8
View
100
AcDbSpline
210
0
220
0
230
1
 70
8
 71
3
 72
8
 73
4
 74
0
 40
0
 40
0
 40
0
 40
0
 40
1
 40
1
 40
1
 40
1
 10
123.144
 20
140.889
 30
0
 10
123.707
 20
138.345
 30
0
 10
124.635
 20
137.475
 30
0
 10
125.627
 20
136.16
 30
0
  0
SPLINE
  5
C73
330
A02
100
AcDbEntity
  8
View
100
AcDbSpline
210
0
220
0
230
1
 70
8
 71
3
 72
8
 73
4
 74
0
 40
0
 40
0
 40
0
 40
0
 40
1
 40
1
 40
1
 40
1
 10
126.958
 20
133.379
 30
0
 10
127.061
 20
132.891
 30
0
 10
127.122
 20
132.333
 30
0
 10
127.121
 20
131.696
 30
0
  0
SPLINE
  5
C74
330
A02
100
AcDbEntity
  8
View
100
AcDbSpline
210
0
220
0
230
1
 70
8
 71
3
 72
8
 73
4
 74
0
 40
0
 40
0
 40
0
 40
0
 40
1
 40
1
 40
1
 40
1
 10
130.121
 20
131.696
 30
0
 10
130.107
 20
134.844
 30
0
 10
129.108
 20
136.213
 30
0
 10
128.284
 20
137.203
 30
0
  0
SPLINE
  5
C75
330
A02
100
AcDbEntity
  8
View
100
AcDbSpline
210
0
220
0
230
1
 70
8
 71
3
 72
8
 73
4
 74
0
 40
0
 40
0
 40
0
 40
0
 40
1
 40
1
 40
1
 40
1
 10
128.284
 20
137.203
 30
0
 10
127.361
 20
138.313
 30
0
 10
126.586
 20
139.069
 30
0
 10
126.038
 20
141.533
 30
0
  0
SPLINE
  5
C76
330
A02
100
AcDbEntity
  8
View
100
AcDbSpline
210
0
220
0
230
1
 70
8
 71
3
 72
8
 73
4
 74
0
 40
0
 40
0
 40
0
 40
0
 40
1
 40
1
 40
1
 40
1
 10
125.121
 20
131.696
 30
0
 10
125.138
 20
134.204
 30
0
 10
126.622
 20
135.166
 30
0
 10
128.079
 20
136.583
 30
0
  0
SPLINE
  5
C77
330
A02
100
AcDbEntity
  8
View
100
AcDbSpline
210
0
220
0
230
1
 70
8
 71
3
 72
8
 73
4
 74
0
 40
0
 40
0
 40
0
 40
0
 40
1
 40
1
 40
1
 40
1
 10
129.759
 20
138.956
 30
0
 10
130.095
 20
139.85
 30
0
 10
130.214
 20
140.973
 30
0
 10
129.897
 20
142.392
 30
0
  0
SPLINE
  5
C78
330
A02
100
AcDbEntity
  8
View
100
AcDbSpline
210
0
220
0
230
1
 70
8
 71
3
 72
8
 73
4
 74
0
 40
0
 40
0
 40
0
 40
0
 40
1
 40
1
 40
1
 40
1
 10
124.109
 20
141.104
 30
0
 10
124.601
 20
138.881
 30
0
 10
125.356
 20
137.894
 30
0
 10
126.218
 20
136.782
 30
0
  0
SPLINE
  5
C79
330
A02
100
AcDbEntity
  8
View
100
AcDbSpline
210
0
220
0
230
1
 70
8
 71
3
 72
8
 73
4
 74
0
 40
0
 40
0
 40
0
 40
0
 40
1
 40
1
 40
1
 40
1
 10
127.69
 20
134.344
 30
0
 10
127.945
 20
133.647
 30
0
 10
128.121
 20
132.786
 30
0
 10
128.121
 20
131.696
 30
0
  0
SPLINE
  5
C7A
330
A02
100
AcDbEntity
  8
View
100
AcDbSpline
210
0
220
0
230
1
 70
8
 71
3
 72
8
 73
4
 74
0
 40
0
 40
0
 40
0
 40
0
 40
1
 40
1
 40
1
 40
1
 10
131.121
 20
131.696
 30
0
 10
131.101
 20
134.91
 30
0
 10
130.095
 20
136.31
 30
0
 10
129.268
 20
137.322
 30
0
  0
SPLINE
  5
C7B
330
A02
100
AcDbEntity
  8
View
100
AcDbSpline
210
0
220
0
230
1
 70
8
 71
3
 72
8
 73
4
 74
0
 40
0
 40
0
 40
0
 40
0
 40
1
 40
1
 40
1
 40
1
 10
129.268
 20
137.322
 30
0
 10
128.34
 20
138.458
 30
0
 10
127.563
 20
139.23
 30
0
 10
127.003
 20
141.748
 30
0
  0
SPLINE
  5
C7C
330
A02
100
AcDbEntity
  8
View
100
AcDbSpline
210
0
220
0
230
1
 70
8
 71
3
 72
8
 73
4
 74
0
 40
0
 40
0
 40
0
 40
0
 40
1
 40
1
 40
1
 40
1
 10
126.121
 20
131.696
 30
0
 10
126.131
 20
133.954
 30
0
 10
127.313
 20
134.803
 30
0
 10
128.595
 20
135.85
 30
0
  0
SPLINE
  5
C7D
330
A02
100
AcDbEntity
  8
View
100
AcDbSpline
210
0
220
0
230
1
 70
8
 71
3
 72
8
 73
4
 74
0
 40
0
 40
0
 40
0
 40
0
 40
1
 40
1
 40
1
 40
1
 10
130.516
 20
138
 30
0
 10
131.054
 20
139.033
 30
0
 10
131.332
 20
140.503
 30
0
 10
130.862
 20
142.606
 30
0
  0
SPLINE
  5
C7E
330
A02
100
AcDbEntity
  8
View
100
AcDbSpline
210
0
220
0
230
1
 70
8
 71
3
 72
8
 73
4
 74
0
 40
0
 40
0
 40
0
 40
0
 40
1
 40
1
 40
1
 40
1
 10
125.074
 20
141.318
 30
0
 10
125.497
 20
139.41
 30
0
 10
126.099
 20
138.388
 30
0
 10
126.814
 20
137.414
 30
0
  0
SPLINE
  5
C7F
330
A02
100
AcDbEntity
  8
View
100
AcDbSpline
210
0
220
0
230
1
 70
8
 71
3
 72
8
 73
4
 74
0
 40
0
 40
0
 40
0
 40
0
 40
1
 40
1
 40
1
 40
1
 10
128.434
 20
135.001
 30
0
 10
128.822
 20
134.185
 30
0
 10
129.118
 20
133.136
 30
0
 10
129.121
 20
131.696
 30
0
  0
SPLINE
  5
C80
330
A02
100
AcDbEntity
  8
View
100
AcDbSpline
210
0
220
0
230
1
 70
8
 71
3
 72
8
 73
4
 74
0
 40
0
 40
0
 40
0
 40
0
 40
1
 40
1
 40
1
 40
1
 10
132.121
 20
131.696
 30
0
 10
132.094
 20
134.975
 30
0
 10
131.083
 20
136.406
 30
0
 10
130.252
 20
137.44
 30
0
  0
SPLINE
  5
C81
330
A02
100
AcDbEntity
  8
View
100
AcDbSpline
210
0
220
0
230
1
 70
8
 71
3
 72
8
 73
4
 74
0
 40
0
 40
0
 40
0
 40
0
 40
1
 40
1
 40
1
 40
1
 10
130.252
 20
137.44
 30
0
 10
129.319
 20
138.603
 30
0
 10
128.541
 20
139.392
 30
0
 10
127.968
 20
141.962
 30
0
  0
ENDSEC
  0
SECTION
  2
OBJECTS
  0
DICTIONARY
  5
F000
330
0
100
AcDbDictionary
  3
ACAD_GROUP
350
F001
  0
DICTIONARY
  5
F001
330
F000
100
AcDbDictionary
  0
ENDSEC
  0
EOF