<?xml version='1.0' encoding='UTF-8' standalone='no'?>
<svg
    baseProfile="tiny"
    viewBox="0 0 1400 1400"
    xmlns:freecad="http://www.freecadweb.org/wiki/index.php?title=Svg_Namespace"
    xmlns:svg="http://www.w3.org/2000/svg"
    xmlns:cc="http://creativecommons.org/ns#"
    xmlns:dc="http://purl.org/dc/elements/1.1/"
    xmlns:xlink="http://www.w3.org/1999/xlink"
    version="1.2"
    height="140mm"
    xmlns:rdf="http://www.w3.org/1999/02/22-rdf-syntax-ns#"
    xmlns:inkscape="http://www.inkscape.org/namespaces/inkscape"
    xmlns="http://www.w3.org/2000/svg"
    width="140mm"
    xmlns:sodipodi="http://sodipodi.sourceforge.net/DTD/sodipodi-0.dtd"
    xmlns:inkscape="http://www.inkscape.org/namespaces/inkscape">
 <title>FreeCAD SVG Export</title>
 <desc>Drawing page: Page001 exported from FreeCAD document: magic_amulet_worldportal</desc>
 <defs/>
 <g id="Page001" inkscape:groupmode="layer" inkscape:label="TechDraw">
  <g id="TD_CAM_140x140.svg" style="stroke: none;" transform="scale(10.000000, 10.000000)">
   <sodipodi:namedview id="namedview221" inkscape:document-units="mm" inkscape:window-y="0" bordercolor="#666666" inkscape:pageopacity="0" inkscape:window-maximized="1" borderopacity="1" objecttolerance="10" pagecolor="#ffffff" inkscape:current-layer="svg2" inkscape:document-rotation="0" inkscape:cy="264.56693" showgrid="false" inkscape:window-x="0" inkscape:window-height="2079" inkscape:showpageshadow="false" inkscape:pagecheckerboard="true" inkscape:cx="264.56693" inkscape:pageshadow="2" guidetolerance="10" inkscape:zoom="3.3961161" gridtolerance="10" inkscape:window-width="3840">
    <inkscape:grid id="grid811" type="xygrid"/>
   </sodipodi:namedview>
   <!-- Working space 10 10 410 287 -->
   <!-- Title block 220 227 410 287 -->
   <metadata id="metadata849">
    <rdf:RDF>
     <cc:Work rdf:about="">
      <dc:format>image/svg+xml</dc:format>
      <dc:type rdf:resource="http://purl.org/dc/dcmitype/StillImage"/>
      <dc:title/>
      <dc:date>04.02.2021</dc:date>
      <dc:creator>
       <cc:Agent>
        <dc:title>Stefan Krüger</dc:title>
       </cc:Agent>
      </dc:creator>
      <dc:rights>
       <cc:Agent>
        <dc:title>Stefan Krüger</dc:title>
       </cc:Agent>
      </dc:rights>
      <dc:publisher>
       <cc:Agent>
        <dc:title>Stefan Krüger</dc:title>
       </cc:Agent>
      </dc:publisher>
      <dc:language>EN / DE</dc:language>
      <cc:license rdf:resource="http://creativecommons.org/publicdomain/zero/1.0/"/>
     </cc:Work>
     <cc:License rdf:about="http://creativecommons.org/publicdomain/zero/1.0/">
      <cc:permits rdf:resource="http://creativecommons.org/ns#Reproduction"/>
      <cc:permits rdf:resource="http://creativecommons.org/ns#Distribution"/>
      <cc:permits rdf:resource="http://creativecommons.org/ns#DerivativeWorks"/>
     </cc:License>
    </rdf:RDF>
   </metadata>
   <defs id="defs847"/>
   <!-- DrawingContent -->
  </g>
  <g fill="none" id="DrawingContent" fill-rule="evenodd" stroke-width="1" stroke-linejoin="bevel" stroke="black" stroke-linecap="square">
   <g fill="#000000" font-style="normal" font-weight="400" fill-opacity="0" transform="matrix(1,0,0,1,626.717,649.558)" stroke="none" font-family="Noto Sans" font-size="42.3333">
    <path d="M662.404,0 C662.404,331.371 393.775,600 62.4038,600 C-268.967,600 -537.596,331.371 -537.596,0 C-537.596,-331.371 -268.967,-600 62.4038,-600 C393.775,-600 662.404,-331.371 662.404,0 " vector-effect="non-scaling-stroke" fill-rule="evenodd"/>
   </g>
   <g fill="none" font-style="normal" stroke-width="1" font-weight="400" stroke-linejoin="bevel" transform="matrix(1,0,0,1,626.717,649.558)" stroke="#000000" font-family="Noto Sans" stroke-opacity="1" stroke-linecap="square" font-size="42.3333">
    <rect x="0" y="0" height="0" width="0"/>
   </g>
   <g fill="#000000" font-style="normal" font-weight="400" fill-opacity="0" transform="matrix(1,0,0,1,626.717,649.558)" stroke="none" font-family="Noto Sans" font-size="42.3333">
    <path d="M322.404,2.38032e-12 C402.848,-46.4445 452.404,-132.278 452.404,-225.167 C371.959,-271.611 272.848,-271.611 192.404,-225.167 C192.404,-318.056 142.848,-403.889 62.4038,-450.333 C-18.0405,-403.889 -67.5962,-318.056 -67.5962,-225.167 C-148.041,-271.611 -247.152,-271.611 -327.596,-225.167 C-327.596,-132.278 -278.041,-46.4445 -197.596,-1.38844e-11 L-197.596,-2.45137e-12 C-278.041,46.4445 -327.596,132.278 -327.596,225.167 C-247.152,271.611 -148.041,271.611 -67.5962,225.167 C-67.5962,318.056 -18.0405,403.889 62.4038,450.333 C142.848,403.889 192.404,318.056 192.404,225.167 C272.848,271.611 371.959,271.611 452.404,225.167 C452.404,132.278 402.848,46.4445 322.404,1.39133e-11 " vector-effect="non-scaling-stroke" fill-rule="evenodd"/>
   </g>
   <g fill="none" font-style="normal" stroke-width="1" font-weight="400" stroke-linejoin="bevel" transform="matrix(1,0,0,1,626.717,649.558)" stroke="#000000" font-family="Noto Sans" stroke-opacity="1" stroke-linecap="square" font-size="42.3333">
    <rect x="0" y="0" height="0" width="0"/>
   </g>
   <g fill="#000000" font-style="normal" font-weight="400" fill-opacity="0" transform="matrix(1,0,0,1,626.717,649.558)" stroke="none" font-family="Noto Sans" font-size="42.3333">
    <path d="M-197.596,-1.29674e-11 C-117.152,46.4445 -18.0405,46.4445 62.4038,-4.32987e-13 L62.4038,2.30918e-13 C62.4038,92.8891 111.959,178.722 192.404,225.167 C111.959,178.722 12.8481,178.722 -67.5962,225.167 C-67.5962,132.278 -117.152,46.4445 -197.596,-8.65974e-14 L-197.596,-1.29674e-11 C-117.152,46.4445 -18.0405,46.4445 62.4038,-4.32987e-13 L62.4038,1.84741e-12 C-18.0405,46.4445 -67.5962,132.278 -67.5962,225.167 C-148.041,271.611 -247.152,271.611 -327.596,225.167 C-327.596,132.278 -278.041,46.4445 -197.596,-2.39586e-12 " vector-effect="non-scaling-stroke" fill-rule="evenodd"/>
   </g>
   <g fill="none" font-style="normal" stroke-width="1" font-weight="400" stroke-linejoin="bevel" transform="matrix(1,0,0,1,626.717,649.558)" stroke="#000000" font-family="Noto Sans" stroke-opacity="1" stroke-linecap="square" font-size="42.3333">
    <rect x="0" y="0" height="0" width="0"/>
   </g>
   <g fill="#000000" font-style="normal" font-weight="400" fill-opacity="0" transform="matrix(1,0,0,1,626.717,649.558)" stroke="none" font-family="Noto Sans" font-size="42.3333">
    <path d="M-67.5962,225.167 C12.8481,178.722 62.4038,92.8891 62.4038,-1.44329e-13 L62.4038,-1.59872e-12 C142.848,46.4445 241.959,46.4445 322.404,7.6783e-12 L322.404,1.06581e-13 C241.959,46.4445 192.404,132.278 192.404,225.167 C111.959,178.722 12.8481,178.722 -67.5962,225.167 C12.8481,178.722 62.4038,92.8891 62.4038,-1.44329e-13 L62.4038,2.30918e-13 C62.4038,92.8891 111.959,178.722 192.404,225.167 C192.404,318.056 142.848,403.889 62.4038,450.333 C-18.0405,403.889 -67.5962,318.056 -67.5962,225.167 " vector-effect="non-scaling-stroke" fill-rule="evenodd"/>
   </g>
   <g fill="none" font-style="normal" stroke-width="1" font-weight="400" stroke-linejoin="bevel" transform="matrix(1,0,0,1,626.717,649.558)" stroke="#000000" font-family="Noto Sans" stroke-opacity="1" stroke-linecap="square" font-size="42.3333">
    <rect x="0" y="0" height="0" width="0"/>
   </g>
   <g fill="#000000" font-style="normal" font-weight="400" fill-opacity="0" transform="matrix(1,0,0,1,626.717,649.558)" stroke="none" font-family="Noto Sans" font-size="42.3333">
    <path d="M-67.5962,-225.167 C-67.5962,-132.278 -18.0405,-46.4445 62.4038,-2.30926e-13 L62.4038,1.84741e-12 C-18.0405,46.4445 -67.5962,132.278 -67.5962,225.167 C-67.5962,132.278 -117.152,46.4445 -197.596,-8.65974e-14 L-197.596,3.55271e-14 C-117.152,-46.4445 -67.5962,-132.278 -67.5962,-225.167 C-67.5962,-132.278 -18.0405,-46.4445 62.4038,-2.30926e-13 L62.4038,1.66978e-12 C-18.0405,-46.4445 -117.152,-46.4445 -197.596,-7.41851e-12 L-197.596,-1.38201e-11 C-278.041,-46.4445 -327.596,-132.278 -327.596,-225.167 C-247.152,-271.611 -148.041,-271.611 -67.5962,-225.167 " vector-effect="non-scaling-stroke" fill-rule="evenodd"/>
   </g>
   <g fill="none" font-style="normal" stroke-width="1" font-weight="400" stroke-linejoin="bevel" transform="matrix(1,0,0,1,626.717,649.558)" stroke="#000000" font-family="Noto Sans" stroke-opacity="1" stroke-linecap="square" font-size="42.3333">
    <rect x="0" y="0" height="0" width="0"/>
   </g>
   <g fill="#000000" font-style="normal" font-weight="400" fill-opacity="0" transform="matrix(1,0,0,1,626.717,649.558)" stroke="none" font-family="Noto Sans" font-size="42.3333">
    <path d="M192.404,-225.167 C111.959,-178.722 62.4038,-92.8891 62.4038,1.55787e-13 L62.4038,-2.30918e-13 C62.4038,-92.8891 12.8481,-178.722 -67.5962,-225.167 C12.8481,-178.722 111.959,-178.722 192.404,-225.167 C111.959,-178.722 62.4038,-92.8891 62.4038,1.55787e-13 L62.4038,1.66978e-12 C-18.0405,-46.4445 -117.152,-46.4445 -197.596,-7.41851e-12 L-197.596,3.55271e-14 C-117.152,-46.4445 -67.5962,-132.278 -67.5962,-225.167 C-67.5962,-318.056 -18.0405,-403.889 62.4038,-450.333 C142.848,-403.889 192.404,-318.056 192.404,-225.167 " vector-effect="non-scaling-stroke" fill-rule="evenodd"/>
   </g>
   <g fill="none" font-style="normal" stroke-width="1" font-weight="400" stroke-linejoin="bevel" transform="matrix(1,0,0,1,626.717,649.558)" stroke="#000000" font-family="Noto Sans" stroke-opacity="1" stroke-linecap="square" font-size="42.3333">
    <rect x="0" y="0" height="0" width="0"/>
   </g>
   <g fill="#000000" font-style="normal" font-weight="400" fill-opacity="0" transform="matrix(1,0,0,1,626.717,649.558)" stroke="none" font-family="Noto Sans" font-size="42.3333">
    <path d="M452.404,225.167 C452.404,132.278 402.848,46.4445 322.404,1.39133e-11 L322.404,1.06581e-13 C241.959,46.4445 192.404,132.278 192.404,225.167 C192.404,132.278 142.848,46.4445 62.4038,2.30926e-13 L62.4038,-1.59872e-12 C142.848,46.4445 241.959,46.4445 322.404,7.6783e-12 L322.404,-3.55271e-14 C241.959,-46.4445 192.404,-132.278 192.404,-225.167 C192.404,-132.278 142.848,-46.4445 62.4038,-1.87628e-12 L62.4038,2.13163e-13 C142.848,46.4445 192.404,132.278 192.404,225.167 C272.848,271.611 371.959,271.611 452.404,225.167 " vector-effect="non-scaling-stroke" fill-rule="evenodd"/>
   </g>
   <g fill="none" font-style="normal" stroke-width="1" font-weight="400" stroke-linejoin="bevel" transform="matrix(1,0,0,1,626.717,649.558)" stroke="#000000" font-family="Noto Sans" stroke-opacity="1" stroke-linecap="square" font-size="42.3333">
    <rect x="0" y="0" height="0" width="0"/>
   </g>
   <g fill="#000000" font-style="normal" font-weight="400" fill-opacity="0" transform="matrix(1,0,0,1,626.717,649.558)" stroke="none" font-family="Noto Sans" font-size="42.3333">
    <path d="M322.404,2.38032e-12 C402.848,-46.4445 452.404,-132.278 452.404,-225.167 C371.959,-271.611 272.848,-271.611 192.404,-225.167 C192.404,-132.278 241.959,-46.4445 322.404,-5.77316e-14 L322.404,1.28608e-11 C241.959,-46.4445 142.848,-46.4445 62.4038,4.04121e-13 L62.4038,-2.30918e-13 C62.4038,-92.8891 12.8481,-178.722 -67.5962,-225.167 C12.8481,-178.722 111.959,-178.722 192.404,-225.167 C192.404,-132.278 142.848,-46.4445 62.4038,-1.87628e-12 L62.4038,4.26326e-13 C142.848,-46.4445 241.959,-46.4445 322.404,1.28453e-11 " vector-effect="non-scaling-stroke" fill-rule="evenodd"/>
   </g>
   <g fill="none" font-style="normal" stroke-width="1" font-weight="400" stroke-linejoin="bevel" transform="matrix(1,0,0,1,626.717,649.558)" stroke="#000000" font-family="Noto Sans" stroke-opacity="1" stroke-linecap="square" font-size="42.3333">
    <rect x="0" y="0" height="0" width="0"/>
   </g>
   <g fill="none" font-style="normal" stroke-width="2.5" font-weight="400" stroke-linejoin="bevel" transform="matrix(1,0,0,1,626.717,649.558)" stroke="#000000" font-family="Noto Sans" stroke-opacity="1" stroke-linecap="round" font-size="42.3333">
    <path d="M62.4038,-450.333 C-18.0405,-403.889 -67.5962,-318.056 -67.5962,-225.167 " vector-effect="none" fill-rule="evenodd"/>
   </g>
   <g fill="none" font-style="normal" stroke-width="2.5" font-weight="400" stroke-linejoin="bevel" transform="matrix(1,0,0,1,626.717,649.558)" stroke="#000000" font-family="Noto Sans" stroke-opacity="1" stroke-linecap="round" font-size="42.3333">
    <path d="M62.4038,-2.30918e-13 C62.4038,-92.8891 12.8481,-178.722 -67.5962,-225.167 " vector-effect="none" fill-rule="evenodd"/>
   </g>
   <g fill="none" font-style="normal" stroke-width="2.5" font-weight="400" stroke-linejoin="bevel" transform="matrix(1,0,0,1,626.717,649.558)" stroke="#000000" font-family="Noto Sans" stroke-opacity="1" stroke-linecap="round" font-size="42.3333">
    <path d="M192.404,-225.167 C111.959,-178.722 62.4038,-92.8891 62.4038,1.55787e-13 " vector-effect="none" fill-rule="evenodd"/>
   </g>
   <g fill="none" font-style="normal" stroke-width="2.5" font-weight="400" stroke-linejoin="bevel" transform="matrix(1,0,0,1,626.717,649.558)" stroke="#000000" font-family="Noto Sans" stroke-opacity="1" stroke-linecap="round" font-size="42.3333">
    <path d="M192.404,-225.167 C192.404,-318.056 142.848,-403.889 62.4038,-450.333 " vector-effect="none" fill-rule="evenodd"/>
   </g>
   <g fill="none" font-style="normal" stroke-width="2.5" font-weight="400" stroke-linejoin="bevel" transform="matrix(1,0,0,1,626.717,649.558)" stroke="#000000" font-family="Noto Sans" stroke-opacity="1" stroke-linecap="round" font-size="42.3333">
    <path d="M-327.596,-225.167 C-327.596,-132.278 -278.041,-46.4445 -197.596,-1.38844e-11 " vector-effect="none" fill-rule="evenodd"/>
   </g>
   <g fill="none" font-style="normal" stroke-width="2.5" font-weight="400" stroke-linejoin="bevel" transform="matrix(1,0,0,1,626.717,649.558)" stroke="#000000" font-family="Noto Sans" stroke-opacity="1" stroke-linecap="round" font-size="42.3333">
    <path d="M62.4038,1.66978e-12 C-18.0405,-46.4445 -117.152,-46.4445 -197.596,-7.41851e-12 " vector-effect="none" fill-rule="evenodd"/>
   </g>
   <g fill="none" font-style="normal" stroke-width="2.5" font-weight="400" stroke-linejoin="bevel" transform="matrix(1,0,0,1,626.717,649.558)" stroke="#000000" font-family="Noto Sans" stroke-opacity="1" stroke-linecap="round" font-size="42.3333">
    <path d="M-67.5962,-225.167 C-67.5962,-132.278 -18.0405,-46.4445 62.4038,-2.30926e-13 " vector-effect="none" fill-rule="evenodd"/>
   </g>
   <g fill="none" font-style="normal" stroke-width="2.5" font-weight="400" stroke-linejoin="bevel" transform="matrix(1,0,0,1,626.717,649.558)" stroke="#000000" font-family="Noto Sans" stroke-opacity="1" stroke-linecap="round" font-size="42.3333">
    <path d="M-67.5962,-225.167 C-148.041,-271.611 -247.152,-271.611 -327.596,-225.167 " vector-effect="none" fill-rule="evenodd"/>
   </g>
   <g fill="none" font-style="normal" stroke-width="2.5" font-weight="400" stroke-linejoin="bevel" transform="matrix(1,0,0,1,626.717,649.558)" stroke="#000000" font-family="Noto Sans" stroke-opacity="1" stroke-linecap="round" font-size="42.3333">
    <path d="M-327.596,225.167 C-247.152,271.611 -148.041,271.611 -67.5962,225.167 " vector-effect="none" fill-rule="evenodd"/>
   </g>
   <g fill="none" font-style="normal" stroke-width="2.5" font-weight="400" stroke-linejoin="bevel" transform="matrix(1,0,0,1,626.717,649.558)" stroke="#000000" font-family="Noto Sans" stroke-opacity="1" stroke-linecap="round" font-size="42.3333">
    <path d="M62.4038,1.84741e-12 C-18.0405,46.4445 -67.5962,132.278 -67.5962,225.167 " vector-effect="none" fill-rule="evenodd"/>
   </g>
   <g fill="none" font-style="normal" stroke-width="2.5" font-weight="400" stroke-linejoin="bevel" transform="matrix(1,0,0,1,626.717,649.558)" stroke="#000000" font-family="Noto Sans" stroke-opacity="1" stroke-linecap="round" font-size="42.3333">
    <path d="M-197.596,-1.29674e-11 C-117.152,46.4445 -18.0405,46.4445 62.4038,-4.32987e-13 " vector-effect="none" fill-rule="evenodd"/>
   </g>
   <g fill="none" font-style="normal" stroke-width="2.5" font-weight="400" stroke-linejoin="bevel" transform="matrix(1,0,0,1,626.717,649.558)" stroke="#000000" font-family="Noto Sans" stroke-opacity="1" stroke-linecap="round" font-size="42.3333">
    <path d="M-197.596,-2.45137e-12 C-278.041,46.4445 -327.596,132.278 -327.596,225.167 " vector-effect="none" fill-rule="evenodd"/>
   </g>
   <g fill="none" font-style="normal" stroke-width="2.5" font-weight="400" stroke-linejoin="bevel" transform="matrix(1,0,0,1,626.717,649.558)" stroke="#000000" font-family="Noto Sans" stroke-opacity="1" stroke-linecap="round" font-size="42.3333">
    <path d="M62.4038,450.333 C142.848,403.889 192.404,318.056 192.404,225.167 " vector-effect="none" fill-rule="evenodd"/>
   </g>
   <g fill="none" font-style="normal" stroke-width="2.5" font-weight="400" stroke-linejoin="bevel" transform="matrix(1,0,0,1,626.717,649.558)" stroke="#000000" font-family="Noto Sans" stroke-opacity="1" stroke-linecap="round" font-size="42.3333">
    <path d="M62.4038,2.30918e-13 C62.4038,92.8891 111.959,178.722 192.404,225.167 " vector-effect="none" fill-rule="evenodd"/>
   </g>
   <g fill="none" font-style="normal" stroke-width="2.5" font-weight="400" stroke-linejoin="bevel" transform="matrix(1,0,0,1,626.717,649.558)" stroke="#000000" font-family="Noto Sans" stroke-opacity="1" stroke-linecap="round" font-size="42.3333">
    <path d="M-67.5962,225.167 C12.8481,178.722 62.4038,92.8891 62.4038,-1.44329e-13 " vector-effect="none" fill-rule="evenodd"/>
   </g>
   <g fill="none" font-style="normal" stroke-width="2.5" font-weight="400" stroke-linejoin="bevel" transform="matrix(1,0,0,1,626.717,649.558)" stroke="#000000" font-family="Noto Sans" stroke-opacity="1" stroke-linecap="round" font-size="42.3333">
    <path d="M-67.5962,225.167 C-67.5962,318.056 -18.0405,403.889 62.4038,450.333 " vector-effect="none" fill-rule="evenodd"/>
   </g>
   <g fill="none" font-style="normal" stroke-width="2.5" font-weight="400" stroke-linejoin="bevel" transform="matrix(1,0,0,1,626.717,649.558)" stroke="#000000" font-family="Noto Sans" stroke-opacity="1" stroke-linecap="round" font-size="42.3333">
    <path d="M452.404,225.167 C452.404,132.278 402.848,46.4445 322.404,1.39133e-11 " vector-effect="none" fill-rule="evenodd"/>
   </g>
   <g fill="none" font-style="normal" stroke-width="2.5" font-weight="400" stroke-linejoin="bevel" transform="matrix(1,0,0,1,626.717,649.558)" stroke="#000000" font-family="Noto Sans" stroke-opacity="1" stroke-linecap="round" font-size="42.3333">
    <path d="M62.4038,-1.59872e-12 C142.848,46.4445 241.959,46.4445 322.404,7.6783e-12 " vector-effect="none" fill-rule="evenodd"/>
   </g>
   <g fill="none" font-style="normal" stroke-width="2.5" font-weight="400" stroke-linejoin="bevel" transform="matrix(1,0,0,1,626.717,649.558)" stroke="#000000" font-family="Noto Sans" stroke-opacity="1" stroke-linecap="round" font-size="42.3333">
    <path d="M192.404,225.167 C192.404,132.278 142.848,46.4445 62.4038,2.30926e-13 " vector-effect="none" fill-rule="evenodd"/>
   </g>
   <g fill="none" font-style="normal" stroke-width="2.5" font-weight="400" stroke-linejoin="bevel" transform="matrix(1,0,0,1,626.717,649.558)" stroke="#000000" font-family="Noto Sans" stroke-opacity="1" stroke-linecap="round" font-size="42.3333">
    <path d="M192.404,225.167 C272.848,271.611 371.959,271.611 452.404,225.167 " vector-effect="none" fill-rule="evenodd"/>
   </g>
   <g fill="none" font-style="normal" stroke-width="2.5" font-weight="400" stroke-linejoin="bevel" transform="matrix(1,0,0,1,626.717,649.558)" stroke="#000000" font-family="Noto Sans" stroke-opacity="1" stroke-linecap="round" font-size="42.3333">
    <path d="M452.404,-225.167 C371.959,-271.611 272.848,-271.611 192.404,-225.167 " vector-effect="none" fill-rule="evenodd"/>
   </g>
   <g fill="none" font-style="normal" stroke-width="2.5" font-weight="400" stroke-linejoin="bevel" transform="matrix(1,0,0,1,626.717,649.558)" stroke="#000000" font-family="Noto Sans" stroke-opacity="1" stroke-linecap="round" font-size="42.3333">
    <path d="M62.4038,-1.88294e-12 C142.848,-46.4445 192.404,-132.278 192.404,-225.167 " vector-effect="none" fill-rule="evenodd"/>
   </g>
   <g fill="none" font-style="normal" stroke-width="2.5" font-weight="400" stroke-linejoin="bevel" transform="matrix(1,0,0,1,626.717,649.558)" stroke="#000000" font-family="Noto Sans" stroke-opacity="1" stroke-linecap="round" font-size="42.3333">
    <path d="M322.404,1.28608e-11 C241.959,-46.4445 142.848,-46.4445 62.4038,4.04121e-13 " vector-effect="none" fill-rule="evenodd"/>
   </g>
   <g fill="none" font-style="normal" stroke-width="2.5" font-weight="400" stroke-linejoin="bevel" transform="matrix(1,0,0,1,626.717,649.558)" stroke="#000000" font-family="Noto Sans" stroke-opacity="1" stroke-linecap="round" font-size="42.3333">
    <path d="M322.404,2.38032e-12 C402.848,-46.4445 452.404,-132.278 452.404,-225.167 " vector-effect="none" fill-rule="evenodd"/>
   </g>
   <g fill="none" font-style="normal" stroke-width="2.5" font-weight="400" stroke-linejoin="bevel" transform="matrix(1,0,0,1,626.717,649.558)" stroke="#000000" font-family="Noto Sans" stroke-opacity="1" stroke-linecap="round" font-size="42.3333">
    <path d="M-67.5962,-225.167 C12.8481,-178.722 111.959,-178.722 192.404,-225.167 " vector-effect="none" fill-rule="evenodd"/>
   </g>
   <g fill="none" font-style="normal" stroke-width="2.5" font-weight="400" stroke-linejoin="bevel" transform="matrix(1,0,0,1,626.717,649.558)" stroke="#000000" font-family="Noto Sans" stroke-opacity="1" stroke-linecap="round" font-size="42.3333">
    <path d="M-197.596,3.55271e-14 C-117.152,-46.4445 -67.5962,-132.278 -67.5962,-225.167 " vector-effect="none" fill-rule="evenodd"/>
   </g>
   <g fill="none" font-style="normal" stroke-width="2.5" font-weight="400" stroke-linejoin="bevel" transform="matrix(1,0,0,1,626.717,649.558)" stroke="#000000" font-family="Noto Sans" stroke-opacity="1" stroke-linecap="round" font-size="42.3333">
    <path d="M-67.5962,225.167 C-67.5962,132.278 -117.152,46.4445 -197.596,-8.65974e-14 " vector-effect="none" fill-rule="evenodd"/>
   </g>
   <g fill="none" font-style="normal" stroke-width="2.5" font-weight="400" stroke-linejoin="bevel" transform="matrix(1,0,0,1,626.717,649.558)" stroke="#000000" font-family="Noto Sans" stroke-opacity="1" stroke-linecap="round" font-size="42.3333">
    <path d="M192.404,225.167 C111.959,178.722 12.8481,178.722 -67.5962,225.167 " vector-effect="none" fill-rule="evenodd"/>
   </g>
   <g fill="none" font-style="normal" stroke-width="2.5" font-weight="400" stroke-linejoin="bevel" transform="matrix(1,0,0,1,626.717,649.558)" stroke="#000000" font-family="Noto Sans" stroke-opacity="1" stroke-linecap="round" font-size="42.3333">
    <path d="M322.404,1.06581e-13 C241.959,46.4445 192.404,132.278 192.404,225.167 " vector-effect="none" fill-rule="evenodd"/>
   </g>
   <g fill="none" font-style="normal" stroke-width="2.5" font-weight="400" stroke-linejoin="bevel" transform="matrix(1,0,0,1,626.717,649.558)" stroke="#000000" font-family="Noto Sans" stroke-opacity="1" stroke-linecap="round" font-size="42.3333">
    <path d="M192.404,-225.167 C192.404,-132.278 241.959,-46.4445 322.404,-5.77316e-14 " vector-effect="none" fill-rule="evenodd"/>
   </g>
   <g fill="none" font-style="normal" stroke-width="2.5" font-weight="400" stroke-linejoin="bevel" transform="matrix(1,0,0,1,626.717,649.558)" stroke="#000000" font-family="Noto Sans" stroke-opacity="1" stroke-linecap="round" font-size="42.3333">
    <path d="M662.404,0 C662.404,331.371 393.775,600 62.4038,600 C-268.967,600 -537.596,331.371 -537.596,0 C-537.596,-331.371 -268.967,-600 62.4038,-600 C393.775,-600 662.404,-331.371 662.404,0 " vector-effect="none" fill-rule="evenodd"/>
   </g>
   <g fill="#96887c" font-style="normal" stroke-width="1.25" font-weight="400" stroke-linejoin="bevel" fill-opacity="1" transform="matrix(1,0,0,1,819.12,424.392)" stroke="#080808" font-family="Noto Sans" stroke-opacity="1" stroke-linecap="round" font-size="42.3333">
    <path d="M0,3.75 L0,-3.75 M3.75,0 L-3.75,0" vector-effect="none" fill-rule="evenodd"/>
   </g>
   <g fill="#96887c" font-style="normal" stroke-width="1.25" font-weight="400" stroke-linejoin="bevel" fill-opacity="1" transform="matrix(1,0,0,1,429.12,649.558)" stroke="#080808" font-family="Noto Sans" stroke-opacity="1" stroke-linecap="round" font-size="42.3333">
    <path d="M0,3.75 L0,-3.75 M3.75,0 L-3.75,0" vector-effect="none" fill-rule="evenodd"/>
   </g>
   <g fill="#96887c" font-style="normal" stroke-width="1.25" font-weight="400" stroke-linejoin="bevel" fill-opacity="1" transform="matrix(1,0,0,1,949.12,649.558)" stroke="#080808" font-family="Noto Sans" stroke-opacity="1" stroke-linecap="round" font-size="42.3333">
    <path d="M0,3.75 L0,-3.75 M3.75,0 L-3.75,0" vector-effect="none" fill-rule="evenodd"/>
   </g>
   <g fill="#96887c" font-style="normal" stroke-width="1.25" font-weight="400" stroke-linejoin="bevel" fill-opacity="1" transform="matrix(1,0,0,1,559.12,874.725)" stroke="#080808" font-family="Noto Sans" stroke-opacity="1" stroke-linecap="round" font-size="42.3333">
    <path d="M0,3.75 L0,-3.75 M3.75,0 L-3.75,0" vector-effect="none" fill-rule="evenodd"/>
   </g>
   <g fill="#96887c" font-style="normal" stroke-width="1.25" font-weight="400" stroke-linejoin="bevel" fill-opacity="1" transform="matrix(1,0,0,1,819.12,874.725)" stroke="#080808" font-family="Noto Sans" stroke-opacity="1" stroke-linecap="round" font-size="42.3333">
    <path d="M0,3.75 L0,-3.75 M3.75,0 L-3.75,0" vector-effect="none" fill-rule="evenodd"/>
   </g>
  </g>
 </g>
</svg>
